<svg xmlns="http://www.w3.org/2000/svg" xmlns:xlink="http://www.w3.org/1999/xlink" xmlns:lucid="lucid" width="881.27" height="620"><g transform="translate(543.5299999999997 1860)" lucid:page-tab-id="0_0"><path d="M-1000-2000H500v1000h-1500z" fill="#fff"/><path d="M-523.53-1838a2 2 0 0 1 2-2h837.27a2 2 0 0 1 2 2v576a2 2 0 0 1-2 2h-837.27a2 2 0 0 1-2-2z" fill="#e3f2fd"/><use xlink:href="#a" transform="matrix(1,0,0,1,-507.52999999999975,-1824) translate(0 16.69921875)"/><use xlink:href="#b" transform="matrix(1,0,0,1,-507.52999999999975,-1824) translate(95.3525390625 16.69921875)"/><path d="M-160-1618a2 2 0 0 1 2-2h457.43a2 2 0 0 1 2 2v327.33a2 2 0 0 1-2 2H-158a2 2 0 0 1-2-2z" fill="#fff3e0"/><use xlink:href="#c" transform="matrix(1,0,0,1,-144,-1604) translate(0 16.69921875)"/><use xlink:href="#d" transform="matrix(1,0,0,1,-144,-1604) translate(69.169921875 16.69921875)"/><use xlink:href="#e" transform="matrix(1,0,0,1,-144,-1604) translate(129.146484375 16.69921875)"/><path d="M217.18-1820c-1.5.15-2.7.45-3.9 1.05l-52.05 25.65c-2.85 1.35-4.8 3.75-5.4 6.9l-12.9 57.75c-.6 2.7-.15 5.4 1.35 7.8.15.3.3.45.6.75l36 46.2c1.95 2.55 4.65 3.9 7.8 3.9h57.9c3.15 0 5.85-1.35 7.8-3.9l36-46.2c1.95-2.55 2.7-5.55 1.95-8.7l-12.9-57.6c-.6-3.15-2.55-5.55-5.4-6.9l-52.05-25.65c-1.65-.75-3.15-1.2-4.8-1.05z" stroke="#fff" stroke-width="0" fill="#326ce5"/><path d="M217.63-1800.36c-1.76 0-3.07 1.55-3.07 3.55v.98c0 1.1.22 2 .32 3 .33 2.2.55 4.1.44 5.86-.22.67-.66 1.22-1.1 1.66v1.33c-1.86.22-3.73.44-5.7.9-8.04 1.87-15.07 6.2-20.35 12.05-.33-.22-1-.66-1.1-.88-.55.1-1.1.33-1.87-.1-1.43-1-2.64-2.34-4.17-4-.78-.77-1.22-1.44-2.1-2.2-.2-.23-.43-.45-.65-.57-.66-.55-1.43-.88-2.2-.88-1 0-1.87.33-2.53 1.1-1.1 1.44-.66 3.55.77 4.77l.1.1c.12.12.45.34.56.45 1 .66 1.76 1.1 2.64 1.55 1.87 1.22 3.4 2.2 4.6 3.43.56.56.56 1.44.67 1.88l.98.9c-5.38 8.3-7.8 18.6-6.37 29l-1.3.44c-.34.44-.78 1.1-1.33 1.33-1.65.55-3.4.77-5.6 1-1 .1-1.88 0-2.98.22-.23 0-.56.1-.9.22-1.86.44-3.06 2.2-2.63 3.87.33 1.78 2.1 2.78 3.96 2.45 0 0 .1 0 .1-.1.34 0 .67-.12.9-.12.98-.34 1.75-.78 2.74-1.1 2.1-.8 3.74-1.45 5.5-1.67.66-.1 1.43.44 1.76.66l1.32-.33c3.18 10.06 9.67 18.15 18.02 23.24l-.54 1.33c.22.55.44 1.33.22 1.88-.55 1.55-1.65 3.32-2.75 5.2-.66.9-1.2 1.55-1.76 2.55-.1.22-.22.66-.33.9-.87 1.76-.2 3.75 1.33 4.53 1.54.77 3.4 0 4.28-1.78.13-.22.34-.55.46-.88.43-1 .54-1.88.87-2.88.77-2.1 1.2-4.44 2.42-5.77.33-.44.77-.55 1.32-.66l.66-1.33c7.26 2.88 15.4 3.54 23.53 1.66 1.76-.44 3.63-1 5.28-1.66.2.44.65 1.1.65 1.22.54.22 1.2.33 1.64 1 .88 1.54 1.43 3.32 2.1 5.42.32 1 .54 2 .98 3 .1.2.22.54.33.76.88 1.77 2.75 2.66 4.3 1.88 1.53-.77 2.2-2.76 1.3-4.53-.1-.35-.2-.68-.32-.9-.55-1-1.1-1.66-1.65-2.55-1.2-2-2.2-3.54-2.86-5.2-.22-.77.1-1.33.33-1.88-.22-.1-.44-.9-.55-1.22 8.58-5.3 14.95-13.73 17.92-23.36.44 0 1.1.2 1.43.2.44-.32.88-.76 1.65-.65 1.76.22 3.4.88 5.5 1.66 1 .34 1.75.78 2.74 1.12.22.1.55.1.88.22h.1c1.88.44 3.64-.67 3.97-2.33.43-1.76-.78-3.53-2.65-3.97-.22 0-.66-.12-.88-.23-1.1-.22-1.98-.1-2.97-.22-2.2-.22-3.95-.44-5.6-1-.66-.22-1.1-1-1.32-1.32l-1.32-.44c.66-4.88.55-9.86-.66-14.95-1.1-5.1-3.08-9.85-5.83-13.95.33-.33 1-.9 1.1-1 .1-.66 0-1.2.66-1.88 1.2-1.1 2.75-2.1 4.62-3.32.88-.55 1.65-.9 2.53-1.55.22-.22.55-.44.77-.55 1.43-1.22 1.76-3.44.77-4.77-1.1-1.43-3.2-1.55-4.73-.33-.23.23-.45.45-.67.56-.88.77-1.32 1.55-2.1 2.32-1.53 1.55-2.74 2.88-4.17 3.88-.66.33-1.53.22-1.87.22l-1.2.88c-6.83-7.3-15.96-11.95-25.96-12.95v-1.44c-.44-.34-1-.67-1.1-1.56-.1-1.77.1-3.65.44-5.87.1-1 .33-1.88.33-3v-.98c0-2-1.3-3.56-3.07-3.56zm-3.95 24.9l-.88 16.95h-.1c0 1.54-1.22 2.76-2.76 2.76-.55 0-1.1-.22-1.54-.55h-.1l-13.42-9.85c4.17-4.2 9.45-7.2 15.5-8.63 1.1-.33 2.2-.44 3.3-.66zm7.9.02c7.05.88 13.64 4.2 18.7 9.3l-13.4 9.74c-1.22.88-2.87.66-3.75-.56-.44-.44-.66-1-.66-1.55zm-31.54 15.6l12.3 11.3-.1.1c1.1 1 1.32 2.67.44 3.88-.44.56-.88.78-1.43 1h-.1l-15.62 4.76c-.88-7.53.88-14.94 4.5-21.03zm55.08 0c1.87 3.1 3.2 6.43 4.06 10.2.77 3.65 1 7.2.66 10.73l-15.83-4.66v-.1c-1.42-.34-2.3-1.9-1.97-3.33.22-.66.44-1.1.88-1.54l12.22-11.3zm-30.02 12.18h5.06l3.08 4-1.1 5.08-4.5 2.22-4.5-2.22-1.1-5.1zm16.16 13.73c.12 0 .34 0 .56.1h.1l16.17 2.78c-2.32 6.87-6.94 12.84-13 16.83l-6.25-15.72c-.55-1.33 0-3 1.32-3.66.33-.22.66-.22 1.1-.33zm-27.37.1c1.3 0 2.4.9 2.63 2.23.22.55.1 1.2-.1 1.77l-6.17 15.6c-5.93-3.87-10.55-9.62-12.97-16.7l16.04-2.9h.55zm13.62 6.88c.44-.1.88 0 1.32.22.55.33 1 .66 1.2 1.22h.12l7.92 14.82c-1.1.33-2.1.67-3.2.9-6.04 1.43-12.08.98-17.58-1l7.9-14.73c.45-.9 1.33-1.45 2.32-1.45z" stroke="#fff" stroke-width=".05" fill="#fff"/><use xlink:href="#f" transform="matrix(1,0,0,1,112.63289278943489,-1661) translate(59.025 14.4)"/><path d="M72.3-1576.84c-1.15.1-2.06.34-2.97.8l-39.44 19.43c-2.17 1-3.65 2.83-4.1 5.22l-9.78 43.76c-.45 2.05-.1 4.1 1.02 5.9.12.24.23.35.46.58l27.28 35c1.48 1.94 3.52 2.97 5.9 2.97h43.9c2.38 0 4.42-1.03 5.9-2.96l27.28-35c1.48-1.94 2.05-4.22 1.48-6.6l-9.77-43.65c-.46-2.4-1.94-4.2-4.1-5.23l-39.44-19.45c-1.25-.57-2.4-.9-3.64-.8z" stroke="#000" stroke-opacity="0" stroke-width="3.83" fill="#326ce5"/><path d="M72.27-1580c-1.2.12-2.16.36-3.12.84l-41.64 20.52c-2.27 1.08-3.83 3-4.3 5.52l-10.33 46.2c-.48 2.16-.12 4.32 1.08 6.24.12.24.24.36.48.6l28.8 36.96c1.56 2.04 3.72 3.12 6.24 3.12H95.8c2.5 0 4.67-1.08 6.23-3.12l28.8-36.96c1.56-2.04 2.16-4.44 1.56-6.96l-10.33-46.08c-.48-2.52-2.04-4.44-4.32-5.52l-41.64-20.52c-1.3-.6-2.5-.96-3.83-.84zm0 3.24c1.32-.12 2.4.12 3.6.72l39.6 19.44c2.04 1.08 3.48 2.88 4.08 5.28l9.72 43.68c.48 2.4 0 4.56-1.44 6.48l-27.36 35.04c-1.44 1.92-3.48 3-5.88 3H50.66c-2.4 0-4.44-1.08-5.88-3l-27.37-35.04c-.12-.12-.24-.36-.36-.6-1.2-1.8-1.56-3.72-1.08-5.88l9.7-43.68c.6-2.4 1.93-4.2 4.1-5.28l39.6-19.44c.95-.48 1.8-.72 2.87-.72z" stroke="#000" stroke-opacity="0" stroke-width="3.83" fill="#fff"/><path d="M67.06-1475.63c0 .97-.35 1.7-1.06 2.24-.7.52-1.7.8-2.97.8-1.22 0-2.18-.22-2.85-.64-.66-.42-1.1-1.08-1.3-1.96l1.45-.3c.14.55.44.95.87 1.22.44.25 1.06.38 1.83.38.85 0 1.45-.14 1.84-.4.4-.27.6-.67.6-1.2 0-.4-.14-.73-.4-.98-.28-.25-.72-.46-1.3-.63l-1.2-.32c-.94-.26-1.62-.5-2.02-.74-.4-.25-.72-.54-.94-.9-.22-.33-.33-.76-.33-1.26 0-.93.32-1.64.96-2.13.65-.5 1.6-.74 2.83-.74 1.1 0 1.96.2 2.6.6.65.4 1.06 1.04 1.23 1.92l-1.5.2c-.1-.46-.34-.8-.74-1.06-.4-.24-.93-.36-1.6-.36-.75 0-1.3.12-1.65.35-.35.23-.53.58-.53 1.06 0 .3.08.54.23.73.14.18.35.35.64.47.3.14.9.32 1.82.56.87.22 1.5.43 1.9.63.37.18.68.4.9.62.22.24.4.5.52.82.13.3.18.64.18 1.03zM73.35-1472.82H71.4l-3.6-10.22h1.76l2.18 6.66c.08.24.3 1 .63 2.24l.33-1.1.35-1.12 2.26-6.68h1.76zM79.64-1477.95c0 1.35.2 2.36.62 3.02.42.65 1.05.97 1.88.97.6 0 1.08-.16 1.47-.48.4-.33.66-.83.74-1.5l1.67.1c-.12.98-.52 1.77-1.2 2.35-.7.6-1.56.9-2.6.9-1.4 0-2.46-.46-3.2-1.36-.72-.9-1.08-2.22-1.08-3.96 0-1.72.36-3.03 1.1-3.93.73-.9 1.78-1.36 3.15-1.36 1.02 0 1.86.26 2.52.8.66.55 1.08 1.3 1.25 2.24l-1.7.13c-.08-.56-.3-1.02-.64-1.35-.34-.34-.83-.5-1.47-.5-.88 0-1.5.3-1.9.9-.4.6-.6 1.6-.6 3.03z" stroke="#000" stroke-opacity="0" fill="#fff"/><path d="M36.56-1510.87H55.9v14H36.57zM62.96-1510.87H82.3v14H62.96zM89.36-1510.87h19.34v14H89.36zM57.3-1552.35h30.66v14H57.3z" stroke="#000" stroke-opacity="0" stroke-width="3.77" fill="#fff"/><path d="M70.86-1538.37v11.93h-24.6c-1 0-1.77.83-1.77 1.8v13.76H48v-11.93H72.6c1 0 1.77-.8 1.77-1.83v-13.74z" stroke="#000" stroke-opacity="0" stroke-width="3.77" fill="#fff"/><path d="M70.88-1538.37v13.74c0 1.02.78 1.82 1.76 1.82h24.6v11.9l3.53.02v-13.74c0-1-.77-1.82-1.76-1.82H74.4v-11.93z" stroke="#000" stroke-opacity="0" stroke-width="3.77" fill="#fff"/><path d="M70.8-1538.37v13.74c0 .22.05.44.13.64v13.12h3.52v-13.74c0-.23-.03-.42-.12-.64v-13.1z" stroke="#000" stroke-opacity="0" stroke-width="3.77" fill="#fff"/><path d="M-87.7-1576.83c-1.15.1-2.05.34-2.97.8l-39.44 19.43c-2.17 1.02-3.65 2.84-4.1 5.23l-9.78 43.76c-.45 2.04-.1 4.08 1.02 5.9.12.23.23.34.46.57l27.28 35c1.48 1.94 3.53 2.97 5.9 2.97h43.9c2.38 0 4.43-1.03 5.9-2.96l27.3-35h-.02c1.48-1.94 2.05-4.2 1.48-6.6l-9.77-43.65c-.46-2.4-1.94-4.2-4.1-5.23l-39.44-19.44c-1.25-.57-2.4-.9-3.64-.8z" stroke="#000" stroke-opacity="0" stroke-width="3.83" fill="#326ce5"/><path d="M-87.73-1580c-1.2.12-2.16.36-3.12.84l-41.64 20.52c-2.27 1.08-3.83 3-4.3 5.52l-10.33 46.2c-.48 2.16-.12 4.32 1.08 6.24.12.24.24.36.48.6l28.8 36.96c1.56 2.04 3.72 3.12 6.24 3.12h46.32c2.5 0 4.67-1.08 6.23-3.12l28.8-36.96c1.56-2.04 2.16-4.44 1.56-6.84l-10.33-46.2c-.48-2.52-2.04-4.44-4.32-5.52l-41.64-20.52c-1.3-.6-2.5-.96-3.83-.84zm0 3.24c1.32-.12 2.4.12 3.6.72l39.6 19.44c2.04 1.08 3.48 2.88 4.08 5.28l9.72 43.68c.48 2.4 0 4.56-1.44 6.48l-27.36 35.04c-1.44 1.92-3.48 3-5.88 3h-43.93c-2.4 0-4.44-1.08-5.88-3l-27.37-35.04c-.12-.12-.24-.36-.36-.6-1.2-1.8-1.56-3.72-1.08-5.88l9.7-43.68c.6-2.4 1.93-4.2 4.1-5.28l39.6-19.44c.95-.48 1.8-.72 2.87-.84z" stroke="#000" stroke-opacity="0" stroke-width="3.83" fill="#fff"/><path d="M-107.76-1474.42c-.3.65-.7 1.12-1.22 1.4-.5.3-1.13.43-1.87.43-1.25 0-2.18-.43-2.77-1.3-.58-.86-.88-2.18-.88-3.94 0-3.57 1.22-5.35 3.65-5.35.75 0 1.38.16 1.88.44s.9.74 1.2 1.35h.03l-.02-1.15v-4.25h1.65l-.02 11.9c0 1.08.03 1.8.06 2.13h-1.58l-.05-.7-.03-.95zm-5-3.48c0 1.44.18 2.46.54 3.07.37.63.96.94 1.8.94.93 0 1.6-.33 2.03-1 .43-.67.64-1.7.64-3.1 0-1.36-.2-2.36-.63-2.98-.42-.63-1.08-.96-2-.96-.84 0-1.44.33-1.82.97-.36.63-.55 1.65-.55 3.07zM-102.3-1477.52c0 1.16.22 2.08.7 2.7.47.65 1.16.96 2.06.96.72 0 1.3-.14 1.72-.44.43-.3.72-.67.87-1.12l1.45.42c-.58 1.6-1.93 2.42-4.04 2.42-1.47 0-2.6-.45-3.35-1.35-.76-.9-1.14-2.25-1.14-4.02 0-1.68.38-3 1.15-3.9.77-.9 1.87-1.33 3.3-1.33 2.92 0 4.37 1.8 4.37 5.42v.24zm5.36-1.3c-.1-1.1-.35-1.87-.8-2.36-.43-.5-1.07-.74-1.9-.74-.8 0-1.43.27-1.9.82-.46.56-.7 1.3-.75 2.27zM-84.73-1477.93c0 3.56-1.22 5.35-3.65 5.35-1.53 0-2.56-.6-3.08-1.8h-.05c.02.07.03.6.03 1.63v4h-1.65v-12.17c0-1.05-.02-1.74-.06-2.1h1.6c0 .04.02.14.02.3l.05.7v.66h.05c.3-.62.68-1.1 1.16-1.37.5-.3 1.13-.45 1.92-.45 1.22 0 2.13.42 2.73 1.27.6.83.92 2.15.92 3.97zm-1.73.03c0-1.42-.2-2.44-.56-3.04-.38-.63-.97-.93-1.78-.93-.66 0-1.17.15-1.54.43-.37.28-.65.73-.84 1.33-.2.58-.3 1.38-.3 2.33 0 1.35.22 2.33.63 2.97.42.63 1.1.95 2.03.95.82 0 1.4-.3 1.78-.92.38-.62.58-1.66.58-3.13zM-82.67-1472.77v-14.03h1.65v14.03zM-70.1-1477.9c0 1.8-.4 3.13-1.15 4-.76.88-1.88 1.32-3.33 1.32-1.45 0-2.54-.46-3.28-1.36-.74-.92-1.1-2.24-1.1-3.96 0-3.53 1.47-5.3 4.44-5.3 1.52 0 2.62.45 3.34 1.3.72.87 1.07 2.2 1.07 4zm-1.73 0c0-1.4-.22-2.43-.63-3.07-.4-.64-1.08-.95-2.04-.95s-1.66.3-2.1.97c-.42.65-.64 1.67-.64 3.05 0 1.35.2 2.37.64 3.05.42.68 1.1 1 2 1 1 0 1.7-.3 2.12-.97.42-.66.65-1.7.65-3.08zM-67.56-1468.76c-.45 0-.83-.03-1.14-.1v-1.28c.24.04.5.06.78.06 1.02 0 1.84-.8 2.43-2.34l.17-.4-3.93-10.18h1.75l2.1 5.65c.02.1.05.2.1.32l.4 1.23c.24.7.36 1.1.38 1.17l.64-1.86 2.18-6.5h1.74l-3.8 10.22c-.42 1.1-.8 1.9-1.16 2.44-.35.52-.74.92-1.18 1.18-.43.27-.9.4-1.46.4z" stroke="#000" stroke-opacity="0" fill="#fff"/><path d="M-90.3-1493.92c-16.25.8-30.07-12.07-30.9-28.78-.88-16.76 11.52-31.1 27.77-32.07 16.25-.97 30.2 11.7 31.26 28.48l-11.7.8c-.65-10.12-9.04-17.8-18.85-17.2-9.8.55-17.3 9.2-16.78 19.33.47 10.12 8.86 17.87 18.67 17.44z" stroke="#000" stroke-opacity="0" stroke-width="3.77" fill="#fff"/><path d="M-84.23-1526.28l9.3 23.46 21.46-23.46z" stroke="#000" stroke-opacity="0" stroke-width="3.77" fill="#fff"/><path d="M-87.7-1416.83c-1.15.1-2.05.34-2.97.8l-39.44 19.43c-2.17 1.02-3.65 2.84-4.1 5.23l-9.78 43.76c-.45 2.04-.1 4.08 1.02 5.9.12.23.23.34.46.57l27.28 35c1.48 1.94 3.53 2.97 5.9 2.97h43.9c2.38 0 4.43-1.03 5.9-2.96l27.3-35h-.02c1.48-1.94 2.05-4.2 1.48-6.6l-9.77-43.65c-.46-2.4-1.94-4.2-4.1-5.23l-39.44-19.44c-1.25-.57-2.4-.9-3.64-.8z" stroke="#000" stroke-opacity="0" stroke-width="3.83" fill="#326ce5"/><path d="M-87.73-1420c-1.2.12-2.16.36-3.12.84l-41.64 20.52c-2.27 1.08-3.83 3-4.3 5.52l-10.33 46.2c-.48 2.16-.12 4.32 1.08 6.24.12.24.24.36.48.6l28.8 36.96c1.56 2.04 3.72 3.12 6.24 3.12h46.32c2.5 0 4.67-1.08 6.23-3.12l28.8-36.96c1.56-2.04 2.16-4.44 1.56-6.84l-10.33-46.2c-.48-2.52-2.04-4.44-4.32-5.52l-41.64-20.52c-1.3-.6-2.5-.96-3.83-.84zm0 3.24c1.32-.12 2.4.12 3.6.72l39.6 19.44c2.04 1.08 3.48 2.88 4.08 5.28l9.72 43.68c.48 2.4 0 4.56-1.44 6.48l-27.36 35.04c-1.44 1.92-3.48 3-5.88 3h-43.93c-2.4 0-4.44-1.08-5.88-3l-27.37-35.04c-.12-.12-.24-.36-.36-.6-1.2-1.8-1.56-3.72-1.08-5.88l9.7-43.68c.6-2.4 1.93-4.2 4.1-5.28l39.6-19.44c.95-.48 1.8-.72 2.87-.84z" stroke="#000" stroke-opacity="0" stroke-width="3.83" fill="#fff"/><path d="M-98.66-1325.17v-1.63H-97v1.63zm0 12.4V-1323H-97v10.23zM-88.17-1312.77v-6.5c0-.66-.07-1.18-.2-1.55-.12-.38-.33-.65-.6-.8-.3-.17-.7-.25-1.24-.25-.8 0-1.44.28-1.9.84-.45.56-.68 1.33-.68 2.33v5.93h-1.65v-8.04c0-1.2-.02-1.93-.06-2.2h1.57l.02.26v.48c.02.18.03.5.05 1h.02c.38-.7.8-1.2 1.3-1.48.5-.3 1.13-.44 1.87-.44 1.1 0 1.9.28 2.4.84.5.55.75 1.47.75 2.76v6.8zM-80.26-1308.76c-1.08 0-1.95-.22-2.6-.66-.64-.44-1.04-1.05-1.23-1.86l1.67-.25c.1.48.35.84.73 1.08.38.26.87.4 1.48.4 1.65 0 2.47-1 2.47-3v-1.63h-.02c-.3.66-.74 1.15-1.28 1.48-.54.34-1.2.5-1.9.5-1.23 0-2.12-.4-2.7-1.24-.56-.84-.85-2.15-.85-3.94 0-1.8.3-3.14.92-3.98.62-.87 1.55-1.3 2.8-1.3.7 0 1.3.17 1.83.5.5.33.92.8 1.2 1.4 0-.2.03-.5.06-.98.03-.46.05-.72.07-.76h1.57c-.03.34-.06 1.05-.06 2.1v7.83c0 2.87-1.37 4.3-4.14 4.3zm2.5-9.13c0-.83-.1-1.53-.32-2.14-.22-.6-.53-1.06-.94-1.38-.4-.32-.84-.47-1.35-.47-.84 0-1.46.32-1.85.96-.38.62-.57 1.64-.57 3.05 0 1.4.18 2.4.55 3.02.36.62.98.92 1.84.92.52 0 .98-.16 1.38-.47.4-.32.72-.77.94-1.36.22-.58.33-1.27.33-2.1z" stroke="#000" stroke-opacity="0" fill="#fff"/><path d="M-69.1-1334.03h-15.07l-32.78-42.2h-9.44v-13.83h15.38l32.8 42.27h9.12v-10.94l20.76 17.8-20.76 17.87zm-16.47-32.56l7.34-9.47h9.13v10.96l20.76-17.8-20.76-17.88v10.96h-15.07l-9.75 12.5zm-23.9 9.33l-7.48 9.64h-9.44v13.83h15.38l9.84-12.74z" stroke="#000" stroke-opacity="0" stroke-width="3.77" fill="#fff"/><path d="M72.3-1416.83c-1.15.1-2.05.34-2.97.8L29.9-1396.6c-2.17 1.02-3.65 2.84-4.1 5.23l-9.78 43.76c-.45 2.04-.1 4.08 1.02 5.9.12.23.23.34.46.57l27.28 35c1.48 1.94 3.52 2.97 5.9 2.97h43.9c2.38 0 4.42-1.03 5.9-2.96l27.28-35c1.48-1.94 2.05-4.2 1.48-6.6l-9.77-43.65c-.46-2.4-1.94-4.2-4.1-5.23l-39.44-19.44c-1.25-.57-2.4-.9-3.64-.8z" stroke="#000" stroke-opacity="0" stroke-width="3.83" fill="#326ce5"/><path d="M72.27-1420c-1.2.12-2.16.36-3.12.84l-41.64 20.52c-2.27 1.08-3.83 3-4.3 5.52l-10.33 46.2c-.48 2.16-.12 4.32 1.08 6.24.12.24.24.36.48.6l28.8 36.96c1.56 2.04 3.72 3.12 6.24 3.12H95.8c2.5 0 4.67-1.08 6.23-3.12l28.8-36.96c1.56-2.04 2.16-4.44 1.56-6.84l-10.33-46.2c-.48-2.52-2.04-4.44-4.32-5.52l-41.64-20.52c-1.3-.6-2.5-.96-3.83-.84zm0 3.24c1.32-.12 2.4.12 3.6.72l39.6 19.44c2.04 1.08 3.48 2.88 4.08 5.28l9.72 43.68c.48 2.4 0 4.56-1.44 6.48l-27.36 35.04c-1.44 1.92-3.48 3-5.88 3H50.66c-2.4 0-4.44-1.08-5.88-3l-27.37-35.04c-.12-.12-.24-.36-.36-.6-1.2-1.8-1.56-3.72-1.08-5.88l9.7-43.68c.6-2.4 1.93-4.2 4.1-5.28l39.6-19.44c.95-.48 1.8-.72 2.87-.84z" stroke="#000" stroke-opacity="0" stroke-width="3.83" fill="#fff"/><path d="M59.63-1321.24c.35-.67.78-1.16 1.27-1.47.5-.32 1.14-.5 1.9-.5 1.08 0 1.87.3 2.38.85.5.55.77 1.47.77 2.76v6.83H64.3v-6.48c0-.7-.08-1.25-.2-1.6-.13-.35-.35-.62-.64-.77-.3-.17-.7-.25-1.22-.25-.78 0-1.4.28-1.87.82-.46.57-.7 1.3-.7 2.25v6.03h-1.64v-14.02h1.64v3.65c0 .4 0 .8-.03 1.2l-.04.7zM76.83-1317.93c0 3.56-1.22 5.35-3.65 5.35-1.53 0-2.56-.6-3.08-1.8h-.04c.02.07.03.6.03 1.63v4h-1.65v-12.17c0-1.05-.03-1.74-.06-2.1h1.58l.03.3c.03.14.03.38.05.7l.03.66h.03c.3-.62.7-1.1 1.17-1.37.48-.3 1.12-.45 1.9-.45 1.24 0 2.15.42 2.75 1.27.6.83.9 2.15.9 3.97zm-1.73.03c0-1.42-.2-2.44-.56-3.04-.38-.63-.97-.93-1.78-.93-.66 0-1.17.15-1.54.43-.37.28-.65.73-.84 1.33-.2.58-.3 1.38-.3 2.33 0 1.35.22 2.33.64 2.97.4.63 1.1.95 2.02.95.82 0 1.4-.3 1.78-.92.38-.62.58-1.66.58-3.13zM81.42-1312.6c-1 0-1.75-.26-2.25-.8s-.75-1.3-.75-2.23c0-1.06.34-1.87 1-2.44.7-.56 1.78-.87 3.28-.9l2.23-.04v-.57c0-.83-.17-1.42-.5-1.8-.36-.35-.9-.53-1.63-.53-.73 0-1.27.13-1.6.4-.35.25-.55.66-.62 1.23l-1.72-.16c.28-1.84 1.6-2.76 3.98-2.76 1.24 0 2.2.3 2.8.9.64.6.96 1.43.96 2.55v4.4c0 .5.07.9.2 1.15.12.25.37.37.72.37.16 0 .34-.02.54-.06v1.07c-.4.1-.84.15-1.27.15-.63 0-1.07-.16-1.35-.5-.27-.33-.43-.85-.46-1.55h-.07c-.42.78-.92 1.34-1.48 1.67-.55.3-1.23.47-2.03.47zm.38-1.26c.6 0 1.13-.15 1.6-.42.48-.3.85-.68 1.12-1.17.28-.5.4-1 .4-1.53v-.84l-1.8.04c-.77 0-1.36.1-1.77.24-.4.15-.7.38-.9.7-.23.32-.33.73-.33 1.24 0 .55.14.98.43 1.28.3.3.7.46 1.25.46z" stroke="#000" stroke-opacity="0" fill="#fff"/><path d="M25.9-1364.7l13.75-13.72v6.86h5.05v-20.57h55.87v20.57h5.05v-6.86l13.73 13.7-13.73 13.73v-6.85h-5.05v20.57H44.7v-20.57h-5.05v6.86z" stroke="#000" stroke-opacity="0" stroke-width="3.4" fill="#fff"/><path d="M51.26-1379.63l21.37-6.18 21.38 6.16-21.37 6.18zM51.26-1377.27v22.66l19.9 11 .1-27.74zM94-1377.27v22.66l-19.9 11-.1-27.74z" stroke="#000" stroke-opacity="0" stroke-width="3.4" fill="#326ce5"/><path d="M232.3-1576.83c-1.15.1-2.06.34-2.97.8l-39.44 19.43c-2.17 1.02-3.65 2.84-4.1 5.23l-9.78 43.76c-.45 2.04-.1 4.08 1.02 5.9.12.23.23.34.46.57l27.28 35c1.48 1.94 3.53 2.97 5.9 2.97h43.9c2.38 0 4.42-1.03 5.9-2.96l27.28-35c1.48-1.94 2.05-4.2 1.48-6.6l-9.77-43.65c-.46-2.4-1.94-4.2-4.1-5.23l-39.44-19.44c-1.25-.57-2.4-.9-3.64-.8z" stroke="#000" stroke-opacity="0" stroke-width="3.83" fill="#326ce5"/><path d="M232.27-1580c-1.2.12-2.16.36-3.12.84l-41.64 20.52c-2.27 1.08-3.83 3-4.3 5.52l-10.33 46.2c-.48 2.16-.12 4.32 1.08 6.24.12.24.24.36.48.6l28.8 36.96c1.56 2.04 3.72 3.12 6.24 3.12h46.32c2.5 0 4.67-1.08 6.23-3.12l28.8-36.96c1.56-2.04 2.16-4.44 1.56-6.84l-10.33-46.2c-.48-2.52-2.04-4.44-4.32-5.52l-41.64-20.52c-1.3-.6-2.5-.96-3.83-.84zm0 3.24c1.32-.12 2.4.12 3.6.72l39.6 19.44c2.04 1.08 3.48 2.88 4.08 5.28l9.72 43.68c.48 2.4 0 4.56-1.44 6.48l-27.36 35.04c-1.44 1.92-3.48 3-5.88 3h-43.93c-2.4 0-4.44-1.08-5.88-3l-27.37-35.04c-.12-.12-.24-.36-.36-.6-1.2-1.8-1.56-3.72-1.08-5.88l9.7-43.68c.6-2.4 1.93-4.2 4.1-5.28l39.6-19.44c.95-.48 1.8-.72 2.87-.84z" stroke="#000" stroke-opacity="0" stroke-width="3.83" fill="#fff"/><path d="M222.88-1477.93c0 1.36.2 2.36.63 3.02.42.65 1.05.97 1.88.97.6 0 1.08-.16 1.47-.5.4-.32.65-.82.73-1.5l1.67.1c-.13 1-.53 1.78-1.22 2.36-.68.6-1.55.88-2.6.88-1.4 0-2.45-.43-3.18-1.33-.73-.92-1.1-2.23-1.1-3.97 0-1.72.37-3.03 1.1-3.93.74-.9 1.8-1.36 3.16-1.36 1.03 0 1.87.3 2.53.83.67.54 1.1 1.28 1.26 2.23l-1.7.13c-.1-.57-.3-1.03-.65-1.36-.35-.33-.84-.5-1.48-.5-.88 0-1.5.3-1.9.9-.4.6-.6 1.6-.6 3.03zM236.78-1472.77v-6.5c0-.97-.13-1.66-.4-2.03-.25-.4-.73-.57-1.4-.57-.7 0-1.26.28-1.67.83-.4.55-.6 1.33-.6 2.34v5.93h-1.65v-8.04c0-1.2 0-1.93-.05-2.2h1.55l.02.26.02.48c0 .18 0 .5.03 1h.02c.36-.72.77-1.22 1.23-1.5.46-.28 1-.42 1.67-.42.75 0 1.35.15 1.8.45.42.32.72.8.9 1.48h.02c.34-.7.76-1.17 1.24-1.48.5-.3 1.1-.45 1.78-.45 1 0 1.72.28 2.2.84.45.56.67 1.48.67 2.76v6.8h-1.63v-6.48c0-.98-.13-1.67-.4-2.04-.26-.4-.73-.57-1.42-.57-.72 0-1.3.28-1.68.83-.4.55-.6 1.33-.6 2.34v5.93z" stroke="#000" stroke-opacity="0" fill="#fff"/><path d="M221.62-1547.63v5.44h38.75v-5.43zM204.9-1547.63v5.44h9.7v-5.43zM235.7-1533.1v5.42h24.68v-5.43z" stroke="#000" stroke-opacity="0" stroke-width="3.77" fill="#fff"/><path d="M218.98-1533.1v5.42h9.7v-5.43zM235.7-1518.6v5.44h24.68v-5.44zM218.98-1518.6v5.44h9.7v-5.44zM221.62-1504.1v5.44h38.75v-5.43zM204.9-1504.1v5.44h9.7v-5.43z" stroke="#000" stroke-opacity="0" stroke-width="2.99" fill="#fff"/><path d="M232.3-1416.83c-1.15.1-2.06.34-2.97.8l-39.44 19.43c-2.17 1.02-3.65 2.84-4.1 5.23l-9.78 43.76c-.45 2.04-.1 4.08 1.02 5.9.12.23.23.34.46.57l27.28 35c1.48 1.94 3.53 2.97 5.9 2.97h43.9c2.38 0 4.42-1.03 5.9-2.96l27.28-35c1.48-1.94 2.05-4.2 1.48-6.6l-9.77-43.65c-.46-2.4-1.94-4.2-4.1-5.23l-39.44-19.44c-1.25-.57-2.4-.9-3.64-.8z" stroke="#000" stroke-opacity="0" stroke-width="3.83" fill="#326ce5"/><path d="M232.27-1420c-1.2.12-2.16.36-3.12.84l-41.64 20.52c-2.27 1.08-3.83 3-4.3 5.52l-10.33 46.2c-.48 2.16-.12 4.32 1.08 6.24.12.24.24.36.48.6l28.8 36.96c1.56 2.04 3.72 3.12 6.24 3.12h46.32c2.5 0 4.67-1.08 6.23-3.12l28.8-36.96c1.56-2.04 2.16-4.44 1.56-6.84l-10.33-46.2c-.48-2.52-2.04-4.44-4.32-5.52l-41.64-20.52c-1.3-.6-2.5-.96-3.83-.84zm0 3.24c1.32-.12 2.4.12 3.6.72l39.6 19.44c2.04 1.08 3.48 2.88 4.08 5.28l9.72 43.68c.48 2.4 0 4.56-1.44 6.48l-27.36 35.04c-1.44 1.92-3.48 3-5.88 3h-43.93c-2.4 0-4.44-1.08-5.88-3l-27.37-35.04c-.12-.12-.24-.36-.36-.6-1.2-1.8-1.56-3.72-1.08-5.88l9.7-43.68c.6-2.4 1.93-4.2 4.1-5.28l39.6-19.44c.95-.48 1.8-.72 2.87-.84z" stroke="#000" stroke-opacity="0" stroke-width="3.83" fill="#fff"/><path d="M234.77-1373.53v5.43h25.6v-5.43zM221.62-1388.05v5.44h38.75v-5.45zM204.9-1388.05v5.44h9.7v-5.45zM235.7-1359.03v5.45h24.67v-5.45zM221.62-1344.5v5.42h38.75v-5.43zM204.9-1344.5v5.42h9.7v-5.43z" stroke="#000" stroke-opacity="0" stroke-width="3.77" fill="#fff"/><path d="M236.44-1352.8c0 2.1-1.65 3.8-3.7 3.8-2.03 0-3.68-1.7-3.68-3.8 0-2.1 1.65-3.82 3.7-3.82 2.03 0 3.68 1.7 3.68 3.8z" stroke="#000" stroke-opacity="0" stroke-width="3.77" fill="#326ce5"/><path d="M218.2-1369.22l6.64.08c2.5-10.6 14.5-8.62 15.86.3l6.53-.38c-2.1-17.37-26.2-19.9-28.72-1.85z" stroke="#000" stroke-opacity="0" stroke-width="3.77" fill="#fff"/><path d="M232.6-1384.08c-8.74 0-15.9 6.87-15.9 15.4 2.52-.04 7.92.1 8.78 0 0-3.45 3.12-6.35 7.13-6.35 4 0 7.13 2.9 7.13 6.34 1.53.07 7.92-.28 8.78 0 0-8.5-7.15-15.38-15.9-15.38zm0 1.8c7.48 0 13.2 5.7 13.78 12.7h-5.3c-.56-4.07-4.02-7.26-8.48-7.26-4.45 0-7.9 3.2-8.45 7.25h-5.28c.54-6.98 6.26-12.67 13.73-12.67z" stroke="#000" stroke-opacity="0" stroke-width="3.77" fill="#326ce5"/><path d="M213.5-1368.54h37.8v24.26h-37.8v-24.26z" stroke="#000" stroke-opacity="0" stroke-width="3.77" fill="#fff"/><path d="M213.2-1369.82v26.9h39.13v-26.9zm1.76 1.83h35.6v23.25h-35.6z" stroke="#000" stroke-opacity="0" stroke-width="3.77" fill="#326ce5"/><path d="M215.44-1316.43c0 .96-.35 1.7-1.07 2.23-.7.52-1.68.78-2.96.78-1.22 0-2.18-.2-2.85-.62-.66-.43-1.1-1.08-1.3-1.97l1.46-.3c.15.54.44.94.88 1.2s1.05.4 1.83.4c.85 0 1.46-.15 1.84-.4.4-.28.6-.68.6-1.2 0-.4-.14-.74-.4-1-.28-.23-.7-.44-1.3-.6l-1.2-.33c-.94-.25-1.62-.5-2.02-.74-.4-.24-.7-.54-.93-.9-.24-.33-.36-.76-.36-1.26 0-.93.32-1.64.97-2.12.66-.5 1.6-.74 2.83-.74 1.1 0 1.96.2 2.6.6.65.4 1.06 1.04 1.23 1.9l-1.48.2c-.1-.45-.34-.8-.74-1.04-.4-.25-.94-.36-1.6-.36-.75 0-1.3.1-1.66.35-.35.23-.53.58-.53 1.05 0 .3.07.53.22.72.15.18.36.35.65.48.3.13.9.3 1.8.55.9.22 1.52.43 1.9.63.4.2.7.4.9.64.23.23.4.5.54.8.12.3.18.66.18 1.05zM218.65-1318.36c0 1.17.22 2.08.7 2.7.47.65 1.16.97 2.06.97.72 0 1.3-.14 1.73-.44.43-.3.72-.66.87-1.12l1.46.42c-.6 1.62-1.94 2.42-4.05 2.42-1.46 0-2.58-.44-3.34-1.35-.77-.9-1.15-2.24-1.15-4 0-1.7.4-3 1.16-3.9.76-.9 1.86-1.35 3.3-1.35 2.9 0 4.36 1.8 4.36 5.43v.24zm5.36-1.3c-.08-1.08-.34-1.87-.78-2.36-.44-.5-1.08-.74-1.9-.74-.8 0-1.44.28-1.9.83-.47.55-.72 1.3-.76 2.27zM229.1-1318.76c0 1.36.2 2.36.6 3.02.42.66 1.05.98 1.9.98.58 0 1.06-.16 1.45-.5.4-.32.65-.82.74-1.5l1.66.1c-.13 1-.54 1.78-1.23 2.36-.67.6-1.54.88-2.6.88-1.4 0-2.45-.44-3.17-1.34-.73-.9-1.1-2.23-1.1-3.97 0-1.72.37-3.03 1.1-3.93.73-.9 1.78-1.36 3.15-1.36 1.03 0 1.87.28 2.54.82.67.54 1.1 1.28 1.26 2.23l-1.7.13c-.08-.56-.3-1.02-.65-1.35-.34-.32-.84-.48-1.48-.48-.87 0-1.5.3-1.9.9-.4.6-.58 1.6-.58 3.02zM237.25-1313.6v-7.85c0-.72 0-1.5-.05-2.38h1.56l.07 2.1h.03c.27-.9.57-1.5.92-1.8.34-.34.82-.5 1.44-.5.22 0 .45.04.67.1v1.56c-.23-.06-.52-.1-.9-.1-.67 0-1.2.3-1.55.93-.36.6-.55 1.46-.55 2.6v5.33zM244.75-1318.36c0 1.17.23 2.08.7 2.7.48.65 1.16.97 2.07.97.7 0 1.3-.14 1.72-.44.43-.3.72-.66.87-1.12l1.46.42c-.6 1.62-1.94 2.42-4.04 2.42-1.47 0-2.6-.44-3.36-1.35-.76-.9-1.14-2.24-1.14-4 0-1.7.38-3 1.14-3.9.77-.9 1.87-1.35 3.3-1.35 2.9 0 4.37 1.8 4.37 5.43v.24zm5.37-1.3c-.1-1.08-.35-1.87-.8-2.36-.44-.5-1.07-.74-1.9-.74-.8 0-1.42.28-1.9.83-.47.55-.7 1.3-.75 2.27zM257.75-1313.7c-.54.17-1.1.24-1.67.24-1.32 0-1.98-.77-1.98-2.32v-6.82h-1.15v-1.23h1.2l.5-2.3h1.1v2.3h1.83v1.23h-1.83v6.46c0 .5.08.83.23 1.04.16.2.43.3.8.3.24 0 .55-.05.97-.14z" stroke="#000" stroke-opacity="0" fill="#fff"/><path d="M236.46-1356.37c0 2.1-1.66 3.8-3.7 3.8-2.03 0-3.7-1.7-3.7-3.8 0-2.1 1.67-3.8 3.7-3.8 2.04 0 3.7 1.7 3.7 3.8z" stroke="#000" stroke-opacity="0" stroke-width="3.77" fill="#326ce5"/><path d="M-280.34-1756.83c-1.14.1-2.05.34-2.96.8l-39.44 19.43c-2.16 1.02-3.64 2.84-4.1 5.23l-9.77 43.76c-.47 2.04-.13 4.08 1 5.9.13.23.24.34.47.57l27.28 35c1.48 1.94 3.52 2.97 5.9 2.97h43.9c2.38 0 4.42-1.03 5.9-2.96l27.28-35c1.48-1.94 2.05-4.22 1.48-6.6l-9.77-43.65c-.45-2.4-1.93-4.2-4.1-5.23l-39.43-19.44c-1.25-.57-2.4-.9-3.64-.8z" stroke="#000" stroke-opacity="0" stroke-width="0" fill="#326ce5"/><path d="M-280.36-1760c-1.2.12-2.16.36-3.12.84l-41.64 20.52c-2.28 1.08-3.84 3-4.32 5.52l-10.32 46.2c-.48 2.16-.12 4.32 1.08 6.24.12.24.24.36.48.6l28.8 36.96c1.56 2.04 3.72 3.12 6.24 3.12h46.32c2.52 0 4.68-1.08 6.24-3.12l28.8-36.96c1.56-2.04 2.16-4.44 1.56-6.84l-10.32-46.2c-.48-2.52-2.04-4.44-4.32-5.52l-41.64-20.52c-1.32-.6-2.52-.96-3.84-.84zm0 3.12c1.32 0 2.4.24 3.6.84l39.6 19.44c2.04 1.08 3.48 2.88 4.08 5.28l9.72 43.68c.48 2.4 0 4.56-1.44 6.48l-27.36 35.04c-1.44 1.92-3.48 3-5.88 3h-43.92c-2.4 0-4.44-1.08-5.88-3l-27.36-35.04c-.12-.12-.24-.36-.36-.6-1.2-1.8-1.56-3.72-1.08-5.88l9.72-43.68c.6-2.4 1.92-4.2 4.08-5.28l39.6-19.44c.96-.48 1.8-.72 2.88-.84z" stroke="#000" stroke-opacity="0" stroke-width="0" fill="#fff"/><path d="M-304.08-1717.4l24.08-7.2 24.1 7.2-24.1 7.2zM-304.08-1714.64v26.4l22.43 12.84.12-32.33zM-255.9-1714.64v26.4l-22.45 12.84-.12-32.33z" stroke="#000" stroke-opacity="0" fill="#fff"/><use xlink:href="#g" transform="matrix(1,0,0,1,-370,-1631) translate(49.32098765432098 17.77777777777778)"/><path d="M-440.34-1516.83c-1.14.1-2.05.34-2.96.8l-39.44 19.43c-2.16 1.02-3.64 2.84-4.1 5.23l-9.77 43.76c-.47 2.04-.13 4.08 1 5.9.13.23.24.34.47.57l27.28 35c1.48 1.94 3.52 2.97 5.9 2.97h43.9c2.38 0 4.42-1.03 5.9-2.96l27.28-35c1.48-1.94 2.05-4.22 1.48-6.6l-9.77-43.65c-.45-2.4-1.93-4.2-4.1-5.23l-39.43-19.44c-1.25-.57-2.4-.9-3.64-.8z" stroke="#000" stroke-opacity="0" stroke-width="0" fill="#326ce5"/><path d="M-440.36-1520c-1.2.12-2.16.36-3.12.84l-41.64 20.52c-2.28 1.08-3.84 3-4.32 5.52l-10.32 46.2c-.48 2.16-.12 4.32 1.08 6.24.12.24.24.36.48.6l28.8 36.96c1.56 2.04 3.72 3.12 6.24 3.12h46.32c2.52 0 4.68-1.08 6.24-3.12l28.8-36.96c1.56-2.04 2.16-4.44 1.56-6.84l-10.32-46.2c-.48-2.52-2.04-4.44-4.32-5.52l-41.64-20.52c-1.32-.6-2.52-.96-3.84-.84zm0 3.12c1.32 0 2.4.24 3.6.84l39.6 19.44c2.04 1.08 3.48 2.88 4.08 5.28l9.72 43.68c.48 2.4 0 4.56-1.44 6.48l-27.36 35.04c-1.44 1.92-3.48 3-5.88 3h-43.92c-2.4 0-4.44-1.08-5.88-3l-27.36-35.04c-.12-.12-.24-.36-.36-.6-1.2-1.8-1.56-3.72-1.08-5.88l9.72-43.68c.6-2.4 1.92-4.2 4.08-5.28l39.6-19.44c.96-.48 1.8-.72 2.88-.84z" stroke="#000" stroke-opacity="0" stroke-width="0" fill="#fff"/><path d="M-440.13-1493.7c-.94 0-26.55 12.94-26.88 13.62-.8 1.62-6.68 29.38-6.35 30 .2.32 4.4 5.85 9.34 12.2l9 11.58h29.54l9.4-12.13 9.4-12.07-3.26-14.9c-1.8-8.14-3.47-15.02-3.6-15.15-.47-.48-26.08-13.15-26.6-13.15zm1.6 13.62c1.2.06 1.33 1.95 4 2.15 3.47.27 3.13-3.03 5.73-.74 2.67 2.36-.6 2.5.27 6 .8 3.5 3.8 2.1 2.47 5.4-1.33 3.36-2.47.2-5.47 2.08-2.93 1.9-.73 4.4-4.2 4.12-3.47-.27-.94-2.36-3.6-4.72-2.67-2.3-4.27.6-5.07-2.9-.87-3.43 1.87-1.6 3.2-4.9 1.33-3.38-1.87-4.06 1.07-5.94l1-.48c.2-.06.4-.06.6-.06zm3.46 3.9c-.53 0-1 .07-1.53.2-2.6.82-4.13 3.7-3.33 6.48.8 2.76 3.6 4.3 6.27 3.5 2.66-.87 4.2-3.77 3.4-6.47-.67-2.22-2.6-3.7-4.8-3.7zm-19.94 8.9c.26 0 .6.07 1 .2 3.2 1.02-.07 2.77 2.2 5.26 2.33 2.56 4.2-.67 4.93 2.7.8 3.3-2.33 1.28-3.27 4.58-1 3.3 2.67 3.37.2 5.73-2.4 2.35-2.26-1.43-5.53-.62-3.27.74-1.47 4.05-4.67 3.03-3.2-1 .07-2.68-2.27-5.24-2.28-2.5-4.14.67-4.88-2.63-.8-3.37 2.27-1.35 3.27-4.65 1-3.3-2.68-3.37-.2-5.73 2.4-2.36 2.26 1.42 5.53.68 2.8-.68 1.86-3.3 3.66-3.3zm23.74 3.64c.33 0 .66.07 1.13.27 3.67 1.48-1.13 3.7 1.67 6.54 2.87 2.83 4.87-2.3 6.47 1.4 1.6 3.8-3.4 1.83-3.33 5.88.14 4.1 5 1.95 3.6 5.72-1.46 3.78-3.66-1.2-6.4 1.76-2.73 2.96 2.2 4.98-1.4 6.6-3.6 1.7-1.73-3.5-5.67-3.37-3.93.07-1.87 5.12-5.53 3.64-3.67-1.48 1.13-3.7-1.67-6.54-2.87-2.83-4.87 2.3-6.47-1.48-1.6-3.7 3.4-1.75 3.33-5.86-.13-4.05-5-1.9-3.6-5.66 1.47-3.84 3.67 1.2 6.4-1.75 2.74-2.96-2.2-4.98 1.4-6.6 3.6-1.68 1.74 3.44 5.67 3.37 3.47-.07 2.27-3.98 4.4-3.9zm-25.8 1.75c-2.8 0-5.08 2.3-5.08 5.2 0 2.83 2.27 5.2 5.07 5.2 2.8 0 5-2.37 5-5.2 0-2.9-2.2-5.2-5-5.2zm21.6 4.93c-4.07.07-7.4 3.44-7.4 7.7 0 4.23 3.33 7.6 7.4 7.6 4.13 0 7.46-3.37 7.46-7.6 0-4.26-3.33-7.7-7.46-7.7z" stroke="#eee" stroke-width="0" fill="#fff"/><use xlink:href="#h" transform="matrix(1,0,0,1,-530,-1391) translate(26.543209876543216 17.77777777777778)"/><use xlink:href="#i" transform="matrix(1,0,0,1,-530,-1391) translate(65.92592592592592 17.77777777777778)"/><path d="M-363.04-1446.6l6.14 1.17 9.25 1.38 14.23 1.52 15.57 1v.96l-15.65-1-14.27-1.54-9.3-1.4-6.17-1.18-.78-.2.22-.9zm178.9-4.7l-.43.3-.56.34-.68.4-.84.43-1.05.48-1.32.56-1.74.64-2.3.75-3.18.86-4.48 1.02-6.55 1.22-9.9 1.42-15.24 1.53-6.34.37v-.95l6.26-.37 15.2-1.52 9.86-1.4 6.5-1.22 4.45-1.03 3.13-.86 2.27-.72 1.7-.63 1.3-.54 1-.47.8-.4.66-.37.5-.33.43-.3zm-147.57-26.3l-14.17 1.42-9.87 1.4-6.5 1.22-4.45 1.03-3.12.86-2.28.72-1.7.63-1.3.54-1 .47-.8.4-.65.37-.52.33-.42.3-.53-.8.43-.3.56-.34.68-.4.84-.43 1.05-.48 1.33-.56 1.74-.64 2.3-.75 3.18-.86 4.48-1.02 6.55-1.22 9.92-1.42 14.27-1.43zm102.04-.82l14.27 1.53 9.3 1.4 6.17 1.18.8.2-.23.9-.77-.17-6.13-1.17-9.25-1.38-14.24-1.52-8.34-.54v-.96z" stroke="#3a414a" stroke-width=".05" fill="#3a414a"/><path d="M-378.47-1467.93l-.4.3-.58-.75.4-.3z" fill="#3a414a"/><path stroke="#3a414a" stroke-width=".05" fill="#3a414a"/><path d="M-185.52-1468.56l-14.98-.63 3.23-8.68z" fill="#3a414a"/><path d="M-184.08-1468.03l-17.1-.7 3.7-9.93zm-15.75-1.6l12.87.53-10.1-8zM-183.72-1451.62l-.4.3-.58-.75.4-.3z" stroke="#3a414a" stroke-width=".05" fill="#3a414a"/><path d="M-362.66-1450.8l-3.23 8.68-11.75-9.32z" fill="#3a414a"/><path d="M-362-1451.26l-3.67 9.92-13.42-10.63zm-4.1 8.36l2.77-7.46-12.87-.54z" stroke="#3a414a" stroke-width=".05" fill="#3a414a"/><use xlink:href="#j" transform="matrix(1,0,0,1,-331.7121018077279,-1490.5661674775913) translate(0 14.222222222222223)"/><use xlink:href="#k" transform="matrix(1,0,0,1,-317.8539956270518,-1450.7665774936977) translate(0 14.222222222222223)"/><path d="M-433.2-1594l-2.16 12.8-1.85 14.7-1.42 16.9-.55 13.27-.95-.04.55-13.3 1.4-16.9 1.87-14.76 2.17-12.85 1.37-6.48h.97zm95.87-105.52l-3.82.1-4.07.24-3.87.4-3.67.55-3.52.67-3.37.8-3.26.9-3.14 1.02-3.05 1.14-2.97 1.25-2.9 1.36-2.82 1.5-2.8 1.6-2.73 1.74-2.7 1.88-2.67 2.03-2.65 2.2-2.64 2.36-2.64 2.6-2.62 2.78-2.62 3.04-2.62 3.3-2.64 3.64-2.64 3.98-2.65 4.38-2.67 4.85-2.67 5.38-2.67 6-2.66 6.75-2.64 7.58-.46 1.52h-1l.55-1.8 2.65-7.63 2.68-6.77 2.7-6.05 2.68-5.42 2.68-4.88 2.68-4.42 2.66-4 2.66-3.67 2.65-3.35 2.64-3.06 2.64-2.82 2.66-2.6 2.67-2.4 2.7-2.22 2.7-2.05 2.73-1.9 2.77-1.77 2.82-1.62 2.87-1.5 2.92-1.38 3-1.27 3.1-1.13 3.18-1.04 3.3-.92 3.4-.8 3.57-.67 3.72-.55 3.9-.4 4.1-.27 3.85-.06z" stroke="#3a414a" stroke-width=".05" fill="#3a414a"/><path d="M-336.94-1699.52h-.4l-.02-.94.63-.02z" fill="#3a414a"/><path stroke="#3a414a" stroke-width=".05" fill="#3a414a"/><path d="M-435.02-1535.75l-4.94 14.16-4.33-14.35z" fill="#3a414a"/><path d="M-434.36-1536.2l-5.64 16.15-4.93-16.4zm-5.57 13.07l4.24-12.16-7.95-.16z" stroke="#3a414a" stroke-width=".05" fill="#3a414a"/><use xlink:href="#l" transform="matrix(1,0,0,1,-451.3737999725076,-1621.995623721492) translate(0 14.222222222222223)"/><path d="M-289.56-1418.97c-.36.03-.66.1-.95.25l-12.8 6.3c-.7.34-1.18.92-1.32 1.7l-3.17 14.18c-.14.66-.03 1.33.34 1.92.04.07.07.1.15.18l8.83 11.35c.48.63 1.14.96 1.92.96h14.22c.77 0 1.43-.33 1.9-.95l8.85-11.34c.48-.63.67-1.36.48-2.14l-3.17-14.14c-.14-.78-.62-1.37-1.32-1.7l-12.78-6.3c-.4-.18-.77-.3-1.18-.25z" stroke="#000" stroke-opacity="0" stroke-width="0" fill="#326ce5"/><path d="M-289.56-1420c-.4.04-.7.12-1 .27l-13.5 6.65c-.75.35-1.25.97-1.4 1.8l-3.35 14.96c-.17.7-.05 1.4.34 2.03.04.08.08.12.15.2l9.33 11.98c.5.66 1.2 1 2.02 1h15c.83 0 1.53-.34 2.03-1l9.34-11.98c.5-.66.7-1.44.5-2.22l-3.34-14.97c-.16-.8-.66-1.43-1.4-1.78l-13.5-6.65c-.43-.2-.8-.3-1.24-.27zm0 1c.43 0 .78.1 1.17.28l12.84 6.3c.66.35 1.13.94 1.32 1.72l3.15 14.15c.17.78 0 1.48-.46 2.1l-8.86 11.36c-.47.63-1.13.98-1.9.98h-14.24c-.78 0-1.44-.35-1.9-.97l-8.87-11.35c-.04-.04-.08-.12-.12-.2-.4-.58-.5-1.2-.35-1.9l3.15-14.15c.2-.78.62-1.37 1.32-1.72l12.83-6.3c.32-.15.6-.23.94-.27z" stroke="#000" stroke-opacity="0" stroke-width="0" fill="#fff"/><path d="M-280.26-1401.07h-1.5v-4.1c0-1.14-.9-2.07-2-2.07h-3.97v-1.53c0-1.42-1.13-2.56-2.48-2.56-1.4 0-2.5 1.14-2.5 2.56v1.53h-4c-1.08 0-1.98.93-1.98 2.07v3.9h1.48c1.5 0 2.7 1.23 2.7 2.76 0 1.52-1.2 2.77-2.7 2.77h-1.48v3.9c0 1.13.9 2.05 1.98 2.05h3.8v-1.53c0-1.54 1.2-2.8 2.7-2.8 1.47 0 2.66 1.26 2.66 2.8v1.52h3.8c1.1 0 2-.92 2-2.05v-4.1h1.48c1.38 0 2.5-1.15 2.5-2.58 0-1.4-1.12-2.57-2.5-2.57z" stroke="#000" stroke-opacity="0" stroke-width="1.74" fill="#fff"/><path d="M-269.56-1418.97c-.36.03-.66.1-.95.25l-12.8 6.3c-.7.34-1.18.92-1.32 1.7l-3.17 14.18c-.14.66-.03 1.33.34 1.92.04.07.07.1.15.18l8.83 11.35c.48.63 1.14.96 1.92.96h14.22c.77 0 1.43-.33 1.9-.95l8.85-11.34c.48-.63.67-1.36.48-2.14l-3.17-14.14c-.14-.78-.62-1.37-1.32-1.7l-12.78-6.3c-.4-.18-.77-.3-1.18-.25z" stroke="#000" stroke-opacity="0" stroke-width="0" fill="#326ce5"/><path d="M-269.56-1420c-.4.04-.7.12-1 .27l-13.5 6.65c-.75.35-1.25.97-1.4 1.8l-3.35 14.96c-.17.7-.05 1.4.34 2.03.04.08.08.12.15.2l9.33 11.98c.5.66 1.2 1 2.02 1h15c.83 0 1.53-.34 2.03-1l9.34-11.98c.5-.66.7-1.44.5-2.22l-3.34-14.97c-.16-.8-.66-1.43-1.4-1.78l-13.5-6.65c-.43-.2-.8-.3-1.24-.27zm0 1c.43 0 .78.1 1.17.28l12.84 6.3c.66.35 1.13.94 1.32 1.72l3.15 14.15c.17.78 0 1.48-.46 2.1l-8.86 11.36c-.47.63-1.13.98-1.9.98h-14.24c-.78 0-1.44-.35-1.9-.97l-8.87-11.35c-.04-.04-.08-.12-.12-.2-.4-.58-.5-1.2-.35-1.9l3.15-14.15c.2-.78.62-1.37 1.32-1.72l12.83-6.3c.32-.15.6-.23.94-.27z" stroke="#000" stroke-opacity="0" stroke-width="0" fill="#fff"/><path d="M-260.26-1401.07h-1.5v-4.1c0-1.14-.9-2.07-2-2.07h-3.97v-1.53c0-1.42-1.13-2.56-2.48-2.56-1.4 0-2.5 1.14-2.5 2.56v1.53h-4c-1.08 0-1.98.93-1.98 2.07v3.9h1.48c1.5 0 2.7 1.23 2.7 2.76 0 1.52-1.2 2.77-2.7 2.77h-1.48v3.9c0 1.13.9 2.05 1.98 2.05h3.8v-1.53c0-1.54 1.2-2.8 2.7-2.8 1.47 0 2.66 1.26 2.66 2.8v1.52h3.8c1.1 0 2-.92 2-2.05v-4.1h1.48c1.38 0 2.5-1.15 2.5-2.58 0-1.4-1.12-2.57-2.5-2.57z" stroke="#000" stroke-opacity="0" stroke-width="1.74" fill="#fff"/><use xlink:href="#m" transform="matrix(1,0,0,1,-318.88999999999965,-1372.1100000000004) translate(13.141975308641982 17.77777777777778)"/><path d="M-250.67-1418.97c-.36.03-.66.1-.95.25l-12.8 6.3c-.7.34-1.17.92-1.3 1.7l-3.18 14.18c-.15.66-.04 1.33.33 1.92.04.07.07.1.15.18l8.84 11.35c.48.63 1.14.96 1.9.96h14.24c.77 0 1.43-.33 1.9-.95l8.85-11.34c.5-.63.68-1.36.5-2.14l-3.18-14.14c-.14-.78-.62-1.37-1.32-1.7l-12.8-6.3c-.4-.18-.76-.3-1.17-.25z" stroke="#000" stroke-opacity="0" stroke-width="0" fill="#326ce5"/><path d="M-250.67-1420c-.4.04-.7.12-1 .27l-13.5 6.65c-.75.35-1.25.97-1.4 1.8l-3.35 14.96c-.16.7-.04 1.4.35 2.03.04.08.08.12.15.2l9.34 11.98c.5.66 1.2 1 2.02 1h15c.83 0 1.53-.34 2.03-1l9.34-11.98c.5-.66.7-1.44.5-2.22l-3.33-14.97c-.16-.8-.66-1.43-1.4-1.78l-13.5-6.65c-.42-.2-.8-.3-1.24-.27zm0 1c.43 0 .78.1 1.16.28l12.83 6.3c.66.35 1.13.94 1.32 1.72l3.15 14.15c.16.78 0 1.48-.47 2.1l-8.86 11.36c-.47.63-1.13.98-1.9.98h-14.24c-.78 0-1.44-.35-1.9-.97l-8.87-11.35c-.04-.04-.08-.12-.12-.2-.4-.58-.5-1.2-.35-1.9l3.14-14.15c.2-.78.62-1.37 1.32-1.72l12.84-6.3c.3-.15.58-.23.93-.27z" stroke="#000" stroke-opacity="0" stroke-width="0" fill="#fff"/><path d="M-241.37-1401.07h-1.5v-4.1c0-1.14-.9-2.07-2-2.07h-3.97v-1.53c0-1.42-1.13-2.56-2.48-2.56-1.38 0-2.5 1.14-2.5 2.56v1.53h-4c-1.07 0-1.97.93-1.97 2.07v3.9h1.5c1.48 0 2.7 1.23 2.7 2.76 0 1.52-1.22 2.77-2.7 2.77h-1.5v3.9c0 1.13.9 2.05 2 2.05h3.78v-1.53c0-1.54 1.2-2.8 2.7-2.8 1.48 0 2.67 1.26 2.67 2.8v1.52h3.8c1.1 0 2-.92 2-2.05v-4.1h1.48c1.38 0 2.5-1.15 2.5-2.58 0-1.4-1.12-2.57-2.5-2.57z" stroke="#000" stroke-opacity="0" stroke-width="1.74" fill="#fff"/><defs><path fill="#333" d="M539-677L361-492V0H169v-1456h192v720l647-720h232L667-813 1285 0h-230" id="n"/><path fill="#333" d="M491 20c-241-1-355-148-355-398v-704h185v699c0 164 67 246 200 246 141 0 235-53 282-158v-787h185V0H812l-4-107C736-22 630 20 491 20" id="o"/><path fill="#333" d="M634-1102c292 0 422 254 422 573 0 298-143 547-420 549-137 0-242-48-317-145L310 0H140v-1536h185v573c75-93 178-139 309-139zm-44 965c207 0 281-175 281-413 0-224-79-395-283-395-122 0-210 57-263 170v468c57 113 145 170 265 170" id="p"/><path fill="#333" d="M599-131c141 0 220-65 285-146l113 88C906-50 770 20 589 20 281 21 93-214 93-545c0-223 93-397 233-485 74-48 154-72 240-72 300 2 449 218 445 537v77H278c0 197 129 357 321 357zm227-509c-3-180-88-310-260-310-170 0-264 140-282 310h542" id="q"/><path fill="#333" d="M663-916c-163-27-288 18-338 148V0H140v-1082h180l3 125c61-97 147-145 258-145 36 0 63 5 82 14v172" id="r"/><path fill="#333" d="M589-945c-131 0-219 81-264 174V0H140v-1082h175l6 136c83-104 191-156 324-156 229 0 346 129 346 387V0H806v-716c-2-153-65-229-217-229" id="s"/><path fill="#333" d="M456 20C285 20 205-92 206-268v-671H9v-143h197v-262h185v262h202v143H391v671c-9 125 92 149 207 118V0c-49 13-96 20-142 20" id="t"/><path fill="#333" d="M538-131c121 0 232-49 232-156 0-50-20-88-56-117-73-60-334-92-420-143-92-55-162-110-162-238 0-190 192-317 400-317 223 0 414 129 413 338H759c0-108-110-186-227-186-119 0-215 53-215 159 0 45 18 78 53 101 76 52 331 90 416 139 98 57 169 115 169 251C955-92 760 20 538 20c-176 0-314-68-386-174-38-55-57-115-57-179h185c6 129 116 202 258 202" id="u"/><g id="a"><use transform="matrix(0.0087890625,0,0,0.0087890625,0,0)" xlink:href="#n"/><use transform="matrix(0.0087890625,0,0,0.0087890625,11.0830078125,0)" xlink:href="#o"/><use transform="matrix(0.0087890625,0,0,0.0087890625,21.005859375,0)" xlink:href="#p"/><use transform="matrix(0.0087890625,0,0,0.0087890625,31.1044921875,0)" xlink:href="#q"/><use transform="matrix(0.0087890625,0,0,0.0087890625,40.640625,0)" xlink:href="#r"/><use transform="matrix(0.0087890625,0,0,0.0087890625,46.7314453125,0)" xlink:href="#s"/><use transform="matrix(0.0087890625,0,0,0.0087890625,56.6630859375,0)" xlink:href="#q"/><use transform="matrix(0.0087890625,0,0,0.0087890625,66.19921875,0)" xlink:href="#t"/><use transform="matrix(0.0087890625,0,0,0.0087890625,72.0791015625,0)" xlink:href="#q"/><use transform="matrix(0.0087890625,0,0,0.0087890625,81.615234375,0)" xlink:href="#u"/></g><path fill="#333" d="M688-137c238 0 323-102 359-325h193c-32 297-228 482-552 482-361 0-569-299-569-680 0-197 8-360 73-497 88-186 257-317 513-319 316-2 509 195 535 488h-193c-31-212-118-330-342-330-272 0-397 224-393 523v141c-3 282 115 517 376 517" id="v"/><path fill="#333" d="M341 0H156v-1536h185V0" id="w"/><g id="b"><use transform="matrix(0.0087890625,0,0,0.0087890625,0,0)" xlink:href="#v"/><use transform="matrix(0.0087890625,0,0,0.0087890625,11.7158203125,0)" xlink:href="#w"/><use transform="matrix(0.0087890625,0,0,0.0087890625,16.083984375,0)" xlink:href="#o"/><use transform="matrix(0.0087890625,0,0,0.0087890625,26.0068359375,0)" xlink:href="#u"/><use transform="matrix(0.0087890625,0,0,0.0087890625,35.2880859375,0)" xlink:href="#t"/><use transform="matrix(0.0087890625,0,0,0.0087890625,41.16796875,0)" xlink:href="#q"/><use transform="matrix(0.0087890625,0,0,0.0087890625,50.7041015625,0)" xlink:href="#r"/></g><path fill="#333" d="M561-1102c238-4 403 126 403 351v498c0 99 13 178 38 237V0H808c-11-21-19-59-26-114C696-25 593 20 474 20c-199 0-368-130-365-320 4-251 214-359 490-356h180v-85c-1-135-86-212-229-212-115 0-232 67-233 171H131c20-205 206-316 430-320zM294-326c0 117 90 185 207 185 122 0 239-75 278-162v-222H634c-227 0-340 66-340 199" id="x"/><path fill="#333" d="M632-1102c291 0 422 251 422 573 0 297-141 548-419 549-131 0-235-42-310-125v521H140v-1498h169l9 120c75-93 180-140 314-140zm-53 971c207 0 290-180 290-419 0-218-92-395-292-395-112 0-196 50-252 149v517c55 99 140 148 254 148" id="y"/><g id="c"><use transform="matrix(0.0087890625,0,0,0.0087890625,0,0)" xlink:href="#v"/><use transform="matrix(0.0087890625,0,0,0.0087890625,11.7158203125,0)" xlink:href="#x"/><use transform="matrix(0.0087890625,0,0,0.0087890625,21.5068359375,0)" xlink:href="#y"/><use transform="matrix(0.0087890625,0,0,0.0087890625,31.60546875,0)" xlink:href="#u"/><use transform="matrix(0.0087890625,0,0,0.0087890625,40.88671875,0)" xlink:href="#o"/><use transform="matrix(0.0087890625,0,0,0.0087890625,50.8095703125,0)" xlink:href="#w"/><use transform="matrix(0.0087890625,0,0,0.0087890625,55.177734375,0)" xlink:href="#q"/></g><path fill="#333" d="M703-1476c426 0 599 333 586 795-11 408-187 701-584 701-422 0-587-333-587-793 0-282 106-507 280-617 89-56 190-86 305-86zm2 1333c312 0 393-279 393-632 0-308-116-536-395-536-269 0-394 232-394 523v107c-4 298 123 538 396 538" id="z"/><path fill="#333" d="M1098-255l208-827h185L1176 0h-150L763-820 507 0H357L43-1082h184l213 810 252-810h149" id="A"/><path fill="#333" d="M520 20C244 20 95-247 95-550c0-298 151-550 427-552 127 0 227 43 301 130v-564h185V0H838l-9-116C755-25 652 20 520 20zm48-965c-210 0-288 177-288 416 0 218 87 392 286 392 117 0 203-53 257-158v-497c-55-102-140-153-255-153" id="B"/><g id="d"><use transform="matrix(0.0087890625,0,0,0.0087890625,0,0)" xlink:href="#z"/><use transform="matrix(0.0087890625,0,0,0.0087890625,12.375,0)" xlink:href="#A"/><use transform="matrix(0.0087890625,0,0,0.0087890625,25.9013671875,0)" xlink:href="#s"/><use transform="matrix(0.0087890625,0,0,0.0087890625,35.8330078125,0)" xlink:href="#q"/><use transform="matrix(0.0087890625,0,0,0.0087890625,45.369140625,0)" xlink:href="#B"/></g><path fill="#333" d="M19 279c92 0 127-48 127-150v-1211h185V125c0 208-94 312-283 312-41 0-78-6-113-18V271c21 5 49 8 84 8zm216-1543c-68 0-107-42-108-105 0-61 42-107 108-107 68 0 110 44 110 107s-42 105-110 105" id="C"/><path fill="#333" d="M277-555c0 244 77 420 297 424 127 2 249-93 255-210h175C980-127 805 20 574 20 258 20 81-222 92-562c11-319 164-533 481-540 237-5 426 165 431 392H829c-7-133-115-242-256-240-209 4-296 166-296 395" id="D"/><g id="e"><use transform="matrix(0.0087890625,0,0,0.0087890625,0,0)" xlink:href="#z"/><use transform="matrix(0.0087890625,0,0,0.0087890625,12.375,0)" xlink:href="#p"/><use transform="matrix(0.0087890625,0,0,0.0087890625,22.4736328125,0)" xlink:href="#C"/><use transform="matrix(0.0087890625,0,0,0.0087890625,26.771484375,0)" xlink:href="#q"/><use transform="matrix(0.0087890625,0,0,0.0087890625,36.3076171875,0)" xlink:href="#D"/><use transform="matrix(0.0087890625,0,0,0.0087890625,45.7294921875,0)" xlink:href="#t"/><use transform="matrix(0.0087890625,0,0,0.0087890625,51.609375,0)" xlink:href="#u"/></g><path d="M194 0L95-120 63-95V0H30v-248h33v124l119-124h40L117-140 236 0h-42" id="E"/><path d="M84 4C-5 8 30-112 23-190h32v120c0 31 7 50 39 49 72-2 45-101 50-169h31l1 190h-30c-1-10 1-25-2-33-11 22-28 36-60 37" id="F"/><path d="M115-194c53 0 69 39 70 98 0 66-23 100-70 100C84 3 66-7 56-30L54 0H23l1-261h32v101c10-23 28-34 59-34zm-8 174c40 0 45-34 45-75 0-40-5-75-45-74-42 0-51 32-51 76 0 43 10 73 51 73" id="G"/><path d="M100-194c63 0 86 42 84 106H49c0 40 14 67 53 68 26 1 43-12 49-29l28 8c-11 28-37 45-77 45C44 4 14-33 15-96c1-61 26-98 85-98zm52 81c6-60-76-77-97-28-3 7-6 17-6 28h103" id="H"/><path d="M114-163C36-179 61-72 57 0H25l-1-190h30c1 12-1 29 2 39 6-27 23-49 58-41v29" id="I"/><path d="M117-194c89-4 53 116 60 194h-32v-121c0-31-8-49-39-48C34-167 62-67 57 0H25l-1-190h30c1 10-1 24 2 32 11-22 29-35 61-36" id="J"/><path d="M59-47c-2 24 18 29 38 22v24C64 9 27 4 27-40v-127H5v-23h24l9-43h21v43h35v23H59v120" id="K"/><path d="M135-143c-3-34-86-38-87 0 15 53 115 12 119 90S17 21 10-45l28-5c4 36 97 45 98 0-10-56-113-15-118-90-4-57 82-63 122-42 12 7 21 19 24 35" id="L"/><g id="f"><use transform="matrix(0.05,0,0,0.05,0,0)" xlink:href="#E"/><use transform="matrix(0.05,0,0,0.05,12,0)" xlink:href="#F"/><use transform="matrix(0.05,0,0,0.05,22,0)" xlink:href="#G"/><use transform="matrix(0.05,0,0,0.05,32,0)" xlink:href="#H"/><use transform="matrix(0.05,0,0,0.05,42,0)" xlink:href="#I"/><use transform="matrix(0.05,0,0,0.05,47.95,0)" xlink:href="#J"/><use transform="matrix(0.05,0,0,0.05,57.95,0)" xlink:href="#H"/><use transform="matrix(0.05,0,0,0.05,67.95,0)" xlink:href="#K"/><use transform="matrix(0.05,0,0,0.05,72.95,0)" xlink:href="#H"/><use transform="matrix(0.05,0,0,0.05,82.95,0)" xlink:href="#L"/></g><path fill="#3a414a" d="M212-179c-10-28-35-45-73-45-59 0-87 40-87 99 0 60 29 101 89 101 43 0 62-24 78-52l27 14C228-24 195 4 139 4 59 4 22-46 18-125c-6-104 99-153 187-111 19 9 31 26 39 46" id="M"/><path fill="#3a414a" d="M141-36C126-15 110 5 73 4 37 3 15-17 15-53c-1-64 63-63 125-63 3-35-9-54-41-54-24 1-41 7-42 31l-33-3c5-37 33-52 76-52 45 0 72 20 72 64v82c-1 20 7 32 28 27v20c-31 9-61-2-59-35zM48-53c0 20 12 33 32 33 41-3 63-29 60-74-43 2-92-5-92 41" id="N"/><path fill="#3a414a" d="M115-194c55 1 70 41 70 98S169 2 115 4C84 4 66-9 55-30l1 105H24l-1-265h31l2 30c10-21 28-34 59-34zm-8 174c40 0 45-34 45-75s-6-73-45-74c-42 0-51 32-51 76 0 43 10 73 51 73" id="O"/><path fill="#3a414a" d="M135-143c-3-34-86-38-87 0 15 53 115 12 119 90S17 21 10-45l28-5c4 36 97 45 98 0-10-56-113-15-118-90-4-57 82-63 122-42 12 7 21 19 24 35" id="P"/><path fill="#3a414a" d="M84 4C-5 8 30-112 23-190h32v120c0 31 7 50 39 49 72-2 45-101 50-169h31l1 190h-30c-1-10 1-25-2-33-11 22-28 36-60 37" id="Q"/><path fill="#3a414a" d="M24 0v-261h32V0H24" id="R"/><path fill="#3a414a" d="M100-194c63 0 86 42 84 106H49c0 40 14 67 53 68 26 1 43-12 49-29l28 8c-11 28-37 45-77 45C44 4 14-33 15-96c1-61 26-98 85-98zm52 81c6-60-76-77-97-28-3 7-6 17-6 28h103" id="S"/><g id="g"><use transform="matrix(0.06172839506172839,0,0,0.06172839506172839,0,0)" xlink:href="#M"/><use transform="matrix(0.06172839506172839,0,0,0.06172839506172839,15.987654320987653,0)" xlink:href="#N"/><use transform="matrix(0.06172839506172839,0,0,0.06172839506172839,28.333333333333332,0)" xlink:href="#O"/><use transform="matrix(0.06172839506172839,0,0,0.06172839506172839,40.67901234567901,0)" xlink:href="#P"/><use transform="matrix(0.06172839506172839,0,0,0.06172839506172839,51.79012345679013,0)" xlink:href="#Q"/><use transform="matrix(0.06172839506172839,0,0,0.06172839506172839,64.13580246913581,0)" xlink:href="#R"/><use transform="matrix(0.06172839506172839,0,0,0.06172839506172839,69.01234567901236,0)" xlink:href="#S"/></g><path fill="#3a414a" d="M233-177c-1 41-23 64-60 70L243 0h-38l-65-103H63V0H30v-248c88 3 205-21 203 71zM63-129c60-2 137 13 137-47 0-61-80-42-137-45v92" id="T"/><path fill="#3a414a" d="M24-231v-30h32v30H24zM24 0v-190h32V0H24" id="U"/><path fill="#3a414a" d="M177-190C167-65 218 103 67 71c-23-6-38-20-44-43l32-5c15 47 100 32 89-28v-30C133-14 115 1 83 1 29 1 15-40 15-95c0-56 16-97 71-98 29-1 48 16 59 35 1-10 0-23 2-32h30zM94-22c36 0 50-32 50-73 0-42-14-75-50-75-39 0-46 34-46 75s6 73 46 73" id="V"/><g id="h"><use transform="matrix(0.06172839506172839,0,0,0.06172839506172839,0,0)" xlink:href="#T"/><use transform="matrix(0.06172839506172839,0,0,0.06172839506172839,15.987654320987653,0)" xlink:href="#U"/><use transform="matrix(0.06172839506172839,0,0,0.06172839506172839,20.864197530864196,0)" xlink:href="#V"/></g><path fill="#3a414a" d="M140-251c81 0 123 46 123 126C263-46 219 4 140 4 59 4 17-45 17-125s42-126 123-126zm0 227c63 0 89-41 89-101s-29-99-89-99c-61 0-89 39-89 99S79-25 140-24" id="W"/><path fill="#3a414a" d="M114-163C36-179 61-72 57 0H25l-1-190h30c1 12-1 29 2 39 6-27 23-49 58-41v29" id="X"/><path fill="#3a414a" d="M59-47c-2 24 18 29 38 22v24C64 9 27 4 27-40v-127H5v-23h24l9-43h21v43h35v23H59v120" id="Y"/><path fill="#3a414a" d="M100-194c62-1 85 37 85 99 1 63-27 99-86 99S16-35 15-95c0-66 28-99 85-99zM99-20c44 1 53-31 53-75 0-43-8-75-51-75s-53 32-53 75 10 74 51 75" id="Z"/><g id="i"><use transform="matrix(0.06172839506172839,0,0,0.06172839506172839,0,0)" xlink:href="#W"/><use transform="matrix(0.06172839506172839,0,0,0.06172839506172839,17.28395061728395,0)" xlink:href="#O"/><use transform="matrix(0.06172839506172839,0,0,0.06172839506172839,29.629629629629626,0)" xlink:href="#S"/><use transform="matrix(0.06172839506172839,0,0,0.06172839506172839,41.9753086419753,0)" xlink:href="#X"/><use transform="matrix(0.06172839506172839,0,0,0.06172839506172839,49.32098765432098,0)" xlink:href="#N"/><use transform="matrix(0.06172839506172839,0,0,0.06172839506172839,61.66666666666666,0)" xlink:href="#Y"/><use transform="matrix(0.06172839506172839,0,0,0.06172839506172839,67.83950617283949,0)" xlink:href="#Z"/><use transform="matrix(0.06172839506172839,0,0,0.06172839506172839,80.18518518518518,0)" xlink:href="#X"/></g><path fill="#333" d="M67-125c0 54 23 88 75 88 28 0 53-7 68-21v-34h-60v-39h108v91C232-14 192 4 140 4 58 4 20-42 15-125 8-236 126-280 215-234c19 10 29 26 37 47l-47 15c-11-23-29-39-63-39-53 1-75 33-75 86" id="aa"/><path fill="#333" d="M185-48c-13 30-37 53-82 52C43 2 14-33 14-96s30-98 90-98c62 0 83 45 84 108H66c0 31 8 55 39 56 18 0 30-7 34-22zm-45-69c5-46-57-63-70-21-2 6-4 13-4 21h74" id="ab"/><path fill="#333" d="M135-194c87-1 58 113 63 194h-50c-7-57 23-157-34-157-59 0-34 97-39 157H25l-1-190h47c2 12-1 28 3 38 12-26 28-41 61-42" id="ac"/><path fill="#333" d="M135-150c-39-12-60 13-60 57V0H25l-1-190h47c2 13-1 29 3 40 6-28 27-53 61-41v41" id="ad"/><path fill="#333" d="M133-34C117-15 103 5 69 4 32 3 11-16 11-54c-1-60 55-63 116-61 1-26-3-47-28-47-18 1-26 9-28 27l-52-2c7-38 36-58 82-57s74 22 75 68l1 82c-1 14 12 18 25 15v27c-30 8-71 5-69-32zm-48 3c29 0 43-24 42-57-32 0-66-3-65 30 0 17 8 27 23 27" id="ae"/><path fill="#333" d="M115-3C79 11 28 4 28-45v-112H4v-33h27l15-45h31v45h36v33H77v99c-1 23 16 31 38 25v30" id="af"/><path fill="#333" d="M25-224v-37h50v37H25zM25 0v-190h50V0H25" id="ag"/><path fill="#333" d="M110-194c64 0 96 36 96 99 0 64-35 99-97 99-61 0-95-36-95-99 0-62 34-99 96-99zm-1 164c35 0 45-28 45-65 0-40-10-65-43-65-34 0-45 26-45 65 0 36 10 65 43 65" id="ah"/><g id="j"><use transform="matrix(0.04938271604938272,0,0,0.04938271604938272,0,0)" xlink:href="#aa"/><use transform="matrix(0.04938271604938272,0,0,0.04938271604938272,13.827160493827162,0)" xlink:href="#ab"/><use transform="matrix(0.04938271604938272,0,0,0.04938271604938272,23.703703703703706,0)" xlink:href="#ac"/><use transform="matrix(0.04938271604938272,0,0,0.04938271604938272,34.51851851851852,0)" xlink:href="#ab"/><use transform="matrix(0.04938271604938272,0,0,0.04938271604938272,44.39506172839506,0)" xlink:href="#ad"/><use transform="matrix(0.04938271604938272,0,0,0.04938271604938272,51.308641975308646,0)" xlink:href="#ae"/><use transform="matrix(0.04938271604938272,0,0,0.04938271604938272,61.18518518518519,0)" xlink:href="#af"/><use transform="matrix(0.04938271604938272,0,0,0.04938271604938272,67.06172839506173,0)" xlink:href="#ag"/><use transform="matrix(0.04938271604938272,0,0,0.04938271604938272,72,0)" xlink:href="#ah"/><use transform="matrix(0.04938271604938272,0,0,0.04938271604938272,82.81481481481481,0)" xlink:href="#ac"/></g><path fill="#333" d="M275 0h-61l-44-196L126 0H64L0-248h53L97-49l45-199h58l43 199 44-199h52" id="ai"/><path fill="#333" d="M190-63c-7 42-38 67-86 67-59 0-84-38-90-98-12-110 154-137 174-36l-49 2c-2-19-15-32-35-32-30 0-35 28-38 64-6 74 65 87 74 30" id="aj"/><path fill="#333" d="M114-157C55-157 80-60 75 0H25v-261h50l-1 109c12-26 28-41 61-42 86-1 58 113 63 194h-50c-7-57 23-157-34-157" id="ak"/><path fill="#333" d="M195-6C206 82 75 100 31 46c-4-6-6-13-8-21l49-6c3 16 16 24 34 25 40 0 42-37 40-79-11 22-30 35-61 35-53 0-70-43-70-97 0-56 18-96 73-97 30 0 46 14 59 34l2-30h47zm-90-29c32 0 41-27 41-63 0-35-9-62-40-62-32 0-39 29-40 63 0 36 9 62 39 62" id="al"/><g id="k"><use transform="matrix(0.04938271604938272,0,0,0.04938271604938272,0,0)" xlink:href="#ai"/><use transform="matrix(0.04938271604938272,0,0,0.04938271604938272,16.098765432098766,0)" xlink:href="#ae"/><use transform="matrix(0.04938271604938272,0,0,0.04938271604938272,25.97530864197531,0)" xlink:href="#af"/><use transform="matrix(0.04938271604938272,0,0,0.04938271604938272,31.851851851851855,0)" xlink:href="#aj"/><use transform="matrix(0.04938271604938272,0,0,0.04938271604938272,41.7283950617284,0)" xlink:href="#ak"/><use transform="matrix(0.04938271604938272,0,0,0.04938271604938272,52.543209876543216,0)" xlink:href="#ag"/><use transform="matrix(0.04938271604938272,0,0,0.04938271604938272,57.48148148148149,0)" xlink:href="#ac"/><use transform="matrix(0.04938271604938272,0,0,0.04938271604938272,68.2962962962963,0)" xlink:href="#al"/></g><path fill="#333" d="M24 0v-248h52V0H24" id="am"/><path fill="#333" d="M135-194c53 0 70 44 70 98 0 56-19 98-73 100-31 1-45-17-59-34 3 33 2 69 2 105H25l-1-265h48c2 10 0 23 3 31 11-24 29-35 60-35zM114-30c33 0 39-31 40-66 0-38-9-64-40-64-56 0-55 130 0 130" id="an"/><path fill="#333" d="M85 4C-2 5 27-109 22-190h50c7 57-23 150 33 157 60-5 35-97 40-157h50l1 190h-47c-2-12 1-28-3-38-12 25-28 42-61 42" id="ao"/><g id="l"><use transform="matrix(0.04938271604938272,0,0,0.04938271604938272,0,0)" xlink:href="#am"/><use transform="matrix(0.04938271604938272,0,0,0.04938271604938272,4.938271604938272,0)" xlink:href="#ac"/><use transform="matrix(0.04938271604938272,0,0,0.04938271604938272,15.753086419753087,0)" xlink:href="#an"/><use transform="matrix(0.04938271604938272,0,0,0.04938271604938272,26.567901234567902,0)" xlink:href="#ao"/><use transform="matrix(0.04938271604938272,0,0,0.04938271604938272,37.382716049382715,0)" xlink:href="#af"/></g><path fill="#3a414a" d="M30-248c87 1 191-15 191 75 0 78-77 80-158 76V0H30v-248zm33 125c57 0 124 11 124-50 0-59-68-47-124-48v98" id="ap"/><path fill="#3a414a" d="M117-194c89-4 53 116 60 194h-32v-121c0-31-8-49-39-48C34-167 62-67 57 0H25l-1-190h30c1 10-1 24 2 32 11-22 29-35 61-36" id="aq"/><g id="m"><use transform="matrix(0.06172839506172839,0,0,0.06172839506172839,0,0)" xlink:href="#ap"/><use transform="matrix(0.06172839506172839,0,0,0.06172839506172839,14.814814814814813,0)" xlink:href="#R"/><use transform="matrix(0.06172839506172839,0,0,0.06172839506172839,19.691358024691354,0)" xlink:href="#Q"/><use transform="matrix(0.06172839506172839,0,0,0.06172839506172839,32.03703703703703,0)" xlink:href="#V"/><use transform="matrix(0.06172839506172839,0,0,0.06172839506172839,44.38271604938271,0)" xlink:href="#U"/><use transform="matrix(0.06172839506172839,0,0,0.06172839506172839,49.25925925925925,0)" xlink:href="#aq"/><use transform="matrix(0.06172839506172839,0,0,0.06172839506172839,61.60493827160493,0)" xlink:href="#P"/></g></defs></g></svg>