<svg xmlns="http://www.w3.org/2000/svg" xmlns:xlink="http://www.w3.org/1999/xlink" xmlns:lucid="lucid" width="1466.23" height="766.5"><g transform="translate(810.925 2320.5)" lucid:page-tab-id="0_0"><path d="M-1000-2500h2000v1000h-2000z" fill="#fff"/><path d="M320-2278a2 2 0 0 1 2-2h311.3a2 2 0 0 1 2 2v222a2 2 0 0 1-2 2H322a2 2 0 0 1-2-2z" fill="#fff3e0"/><use xlink:href="#a" transform="matrix(1,0,0,1,336,-2264) translate(48.72607421875 16.69921875)"/><use xlink:href="#b" transform="matrix(1,0,0,1,336,-2264) translate(83.12646484375 16.69921875)"/><use xlink:href="#c" transform="matrix(1,0,0,1,336,-2264) translate(178.47900390625 16.69921875)"/><path d="M320-2038a2 2 0 0 1 2-2h311.3a2 2 0 0 1 2 2v222a2 2 0 0 1-2 2H322a2 2 0 0 1-2-2z" fill="#fff0f0"/><use xlink:href="#d" transform="matrix(1,0,0,1,336,-2024) translate(33.27490234375 16.69921875)"/><use xlink:href="#b" transform="matrix(1,0,0,1,336,-2024) translate(98.57763671875 16.69921875)"/><use xlink:href="#c" transform="matrix(1,0,0,1,336,-2024) translate(193.93017578125 16.69921875)"/><path d="M320-1798a2 2 0 0 1 2-2h311.3a2 2 0 0 1 2 2v222a2 2 0 0 1-2 2H322a2 2 0 0 1-2-2z" fill="#dff2ea"/><use xlink:href="#e" transform="matrix(1,0,0,1,336,-1784) translate(19.95947265625 16.69921875)"/><use xlink:href="#b" transform="matrix(1,0,0,1,336,-1784) translate(111.89306640625 16.69921875)"/><use xlink:href="#c" transform="matrix(1,0,0,1,336,-1784) translate(207.24560546875 16.69921875)"/><path d="M-300-2052a2 2 0 0 1 2-2H41.53a2 2 0 0 1 2 2v269a2 2 0 0 1-2 2H-298a2 2 0 0 1-2-2z" fill="#e3f2fd"/><use xlink:href="#f" transform="matrix(1,0,0,1,-284,-2038) translate(0 16.69921875)"/><use xlink:href="#g" transform="matrix(1,0,0,1,-284,-2038) translate(30.005859375 16.69921875)"/><path d="M479.66-2223.83c-1.14.1-2.05.34-2.96.8l-39.44 19.43c-2.16 1.02-3.64 2.84-4.1 5.23l-9.77 43.76c-.47 2.04-.13 4.08 1 5.9.13.23.24.34.47.57l27.28 35c1.48 1.94 3.52 2.97 5.9 2.97h43.9c2.38 0 4.42-1.03 5.9-2.96l27.28-35c1.48-1.94 2.05-4.22 1.48-6.6l-9.77-43.65c-.45-2.4-1.93-4.2-4.1-5.23l-39.43-19.44c-1.25-.57-2.4-.9-3.64-.8z" stroke="#000" stroke-opacity="0" stroke-width="0" fill="#326ce5"/><path d="M479.64-2227c-1.2.12-2.16.36-3.12.84l-41.64 20.52c-2.28 1.08-3.84 3-4.32 5.52l-10.32 46.2c-.48 2.16-.12 4.32 1.08 6.24.12.24.24.36.48.6l28.8 36.96c1.56 2.04 3.72 3.12 6.24 3.12h46.32c2.52 0 4.68-1.08 6.24-3.12l28.8-36.96c1.56-2.04 2.16-4.44 1.56-6.84l-10.32-46.2c-.48-2.52-2.04-4.44-4.32-5.52l-41.64-20.52c-1.32-.6-2.52-.96-3.84-.84zm0 3.12c1.32 0 2.4.24 3.6.84l39.6 19.44c2.04 1.08 3.48 2.88 4.08 5.28l9.72 43.68c.48 2.4 0 4.56-1.44 6.48l-27.36 35.04c-1.44 1.92-3.48 3-5.88 3h-43.92c-2.4 0-4.44-1.08-5.88-3l-27.36-35.04c-.12-.12-.24-.36-.36-.6-1.2-1.8-1.56-3.72-1.08-5.88l9.72-43.68c.6-2.4 1.92-4.2 4.08-5.28l39.6-19.44c.96-.48 1.8-.72 2.88-.84z" stroke="#000" stroke-opacity="0" stroke-width="0" fill="#fff"/><path d="M479.87-2200.7c-.94 0-26.55 12.94-26.88 13.62-.8 1.6-6.68 29.38-6.35 30 .2.32 4.4 5.85 9.34 12.2l9 11.58h29.54l9.4-12.13 9.4-12.07-3.26-14.9c-1.8-8.14-3.47-15.02-3.6-15.15-.47-.48-26.08-13.15-26.6-13.15zm1.6 13.62c1.2.07 1.33 1.95 4 2.15 3.47.27 3.13-3.03 5.73-.74 2.67 2.36-.6 2.5.27 6 .8 3.5 3.8 2.1 2.47 5.4-1.33 3.36-2.47.2-5.47 2.08-2.93 1.9-.73 4.4-4.2 4.12-3.47-.27-.94-2.36-3.6-4.72-2.67-2.3-4.27.6-5.07-2.9-.87-3.43 1.87-1.6 3.2-4.9 1.33-3.38-1.87-4.06 1.07-5.94.4-.2.73-.34 1-.47.2-.08.4-.08.6-.08zm3.46 3.9c-.53 0-1 .07-1.53.2-2.6.82-4.13 3.72-3.33 6.48.8 2.76 3.6 4.3 6.27 3.5 2.66-.87 4.2-3.77 3.4-6.47-.67-2.22-2.6-3.7-4.8-3.7zm-19.94 8.9c.26 0 .6.07 1 .2 3.2 1.02-.07 2.77 2.2 5.26 2.33 2.56 4.2-.67 4.93 2.7.8 3.3-2.33 1.28-3.27 4.58-1 3.3 2.67 3.37.2 5.73-2.4 2.35-2.26-1.43-5.53-.62-3.27.74-1.47 4.05-4.67 3.03-3.2-1 .07-2.68-2.27-5.24-2.28-2.5-4.14.67-4.88-2.63-.8-3.37 2.27-1.35 3.27-4.65 1-3.3-2.68-3.37-.2-5.73 2.4-2.36 2.26 1.42 5.53.68 2.8-.68 1.86-3.3 3.66-3.3zm23.74 3.64c.33 0 .66.07 1.13.27 3.67 1.48-1.13 3.7 1.67 6.54 2.87 2.83 4.87-2.3 6.47 1.4 1.6 3.8-3.4 1.83-3.33 5.88.14 4.1 5 1.95 3.6 5.73-1.46 3.77-3.66-1.22-6.4 1.75-2.73 2.96 2.2 4.98-1.4 6.6-3.6 1.7-1.73-3.5-5.67-3.37-3.93.07-1.87 5.12-5.53 3.64-3.67-1.48 1.13-3.7-1.67-6.54-2.87-2.83-4.87 2.3-6.47-1.48-1.6-3.7 3.4-1.75 3.33-5.86-.13-4.05-5-1.9-3.6-5.66 1.47-3.84 3.67 1.2 6.4-1.76 2.74-2.96-2.2-4.98 1.4-6.6 3.6-1.68 1.74 3.44 5.67 3.37 3.47-.07 2.27-3.98 4.4-3.9zm-25.8 1.75c-2.8 0-5.08 2.3-5.08 5.2 0 2.83 2.27 5.2 5.07 5.2 2.8 0 5-2.37 5-5.2 0-2.9-2.2-5.2-5-5.2zm21.6 4.93c-4.07.07-7.4 3.44-7.4 7.7 0 4.23 3.33 7.6 7.4 7.6 4.13 0 7.46-3.37 7.46-7.6 0-4.26-3.33-7.7-7.46-7.7z" stroke="#eee" stroke-width="0" fill="#fff"/><use xlink:href="#h" transform="matrix(1,0,0,1,390,-2098) translate(26.543209876543216 17.77777777777778)"/><use xlink:href="#i" transform="matrix(1,0,0,1,390,-2098) translate(65.92592592592592 17.77777777777778)"/><path d="M479.66-1983.83c-1.14.1-2.05.34-2.96.8l-39.44 19.43c-2.16 1.02-3.64 2.84-4.1 5.23l-9.77 43.76c-.47 2.04-.13 4.08 1 5.9.13.23.24.34.47.57l27.28 35c1.48 1.94 3.52 2.97 5.9 2.97h43.9c2.38 0 4.42-1.03 5.9-2.96l27.28-35c1.48-1.94 2.05-4.22 1.48-6.6l-9.77-43.65c-.45-2.4-1.93-4.2-4.1-5.23l-39.43-19.44c-1.25-.57-2.4-.9-3.64-.8z" stroke="#000" stroke-opacity="0" stroke-width="0" fill="#326ce5"/><path d="M479.64-1987c-1.2.12-2.16.36-3.12.84l-41.64 20.52c-2.28 1.08-3.84 3-4.32 5.52l-10.32 46.2c-.48 2.16-.12 4.32 1.08 6.24.12.24.24.36.48.6l28.8 36.96c1.56 2.04 3.72 3.12 6.24 3.12h46.32c2.52 0 4.68-1.08 6.24-3.12l28.8-36.96c1.56-2.04 2.16-4.44 1.56-6.84l-10.32-46.2c-.48-2.52-2.04-4.44-4.32-5.52l-41.64-20.52c-1.32-.6-2.52-.96-3.84-.84zm0 3.12c1.32 0 2.4.24 3.6.84l39.6 19.44c2.04 1.08 3.48 2.88 4.08 5.28l9.72 43.68c.48 2.4 0 4.56-1.44 6.48l-27.36 35.04c-1.44 1.92-3.48 3-5.88 3h-43.92c-2.4 0-4.44-1.08-5.88-3l-27.36-35.04c-.12-.12-.24-.36-.36-.6-1.2-1.8-1.56-3.72-1.08-5.88l9.72-43.68c.6-2.4 1.92-4.2 4.08-5.28l39.6-19.44c.96-.48 1.8-.72 2.88-.84z" stroke="#000" stroke-opacity="0" stroke-width="0" fill="#fff"/><path d="M479.87-1960.7c-.94 0-26.55 12.94-26.88 13.62-.8 1.62-6.68 29.38-6.35 30 .2.32 4.4 5.85 9.34 12.2l9 11.58h29.54l9.4-12.13 9.4-12.07-3.26-14.9c-1.8-8.14-3.47-15.02-3.6-15.15-.47-.48-26.08-13.15-26.6-13.15zm1.6 13.62c1.2.06 1.33 1.95 4 2.15 3.47.27 3.13-3.03 5.73-.74 2.67 2.36-.6 2.5.27 6 .8 3.5 3.8 2.1 2.47 5.4-1.33 3.36-2.47.2-5.47 2.08-2.93 1.9-.73 4.4-4.2 4.12-3.47-.27-.94-2.36-3.6-4.72-2.67-2.3-4.27.6-5.07-2.9-.87-3.43 1.87-1.6 3.2-4.9 1.33-3.38-1.87-4.06 1.07-5.94l1-.48c.2-.06.4-.06.6-.06zm3.46 3.9c-.53 0-1 .07-1.53.2-2.6.82-4.13 3.7-3.33 6.48.8 2.76 3.6 4.3 6.27 3.5 2.66-.87 4.2-3.77 3.4-6.47-.67-2.22-2.6-3.7-4.8-3.7zm-19.94 8.9c.26 0 .6.07 1 .2 3.2 1.02-.07 2.77 2.2 5.26 2.33 2.56 4.2-.67 4.93 2.7.8 3.3-2.33 1.28-3.27 4.58-1 3.3 2.67 3.37.2 5.73-2.4 2.35-2.26-1.43-5.53-.62-3.27.74-1.47 4.05-4.67 3.03-3.2-1 .07-2.68-2.27-5.24-2.28-2.5-4.14.67-4.88-2.63-.8-3.37 2.27-1.35 3.27-4.65 1-3.3-2.68-3.37-.2-5.73 2.4-2.36 2.26 1.42 5.53.68 2.8-.68 1.86-3.3 3.66-3.3zm23.74 3.64c.33 0 .66.07 1.13.27 3.67 1.48-1.13 3.7 1.67 6.54 2.87 2.83 4.87-2.3 6.47 1.4 1.6 3.8-3.4 1.83-3.33 5.88.14 4.1 5 1.95 3.6 5.72-1.46 3.78-3.66-1.2-6.4 1.76-2.73 2.96 2.2 4.98-1.4 6.6-3.6 1.7-1.73-3.5-5.67-3.37-3.93.07-1.87 5.12-5.53 3.64-3.67-1.48 1.13-3.7-1.67-6.54-2.87-2.83-4.87 2.3-6.47-1.48-1.6-3.7 3.4-1.75 3.33-5.86-.13-4.05-5-1.9-3.6-5.66 1.47-3.84 3.67 1.2 6.4-1.75 2.74-2.96-2.2-4.98 1.4-6.6 3.6-1.68 1.74 3.44 5.67 3.37 3.47-.07 2.27-3.98 4.4-3.9zm-25.8 1.75c-2.8 0-5.08 2.3-5.08 5.2 0 2.83 2.27 5.2 5.07 5.2 2.8 0 5-2.37 5-5.2 0-2.9-2.2-5.2-5-5.2zm21.6 4.93c-4.07.07-7.4 3.44-7.4 7.7 0 4.23 3.33 7.6 7.4 7.6 4.13 0 7.46-3.37 7.46-7.6 0-4.26-3.33-7.7-7.46-7.7z" stroke="#eee" stroke-width="0" fill="#fff"/><use xlink:href="#h" transform="matrix(1,0,0,1,390,-1858) translate(26.543209876543216 17.77777777777778)"/><use xlink:href="#i" transform="matrix(1,0,0,1,390,-1858) translate(65.92592592592592 17.77777777777778)"/><path d="M479.66-1743.83c-1.14.1-2.05.34-2.96.8l-39.44 19.43c-2.16 1.02-3.64 2.84-4.1 5.23l-9.77 43.76c-.47 2.04-.13 4.08 1 5.9.13.23.24.34.47.57l27.28 35c1.48 1.94 3.52 2.97 5.9 2.97h43.9c2.38 0 4.42-1.03 5.9-2.96l27.28-35c1.48-1.94 2.05-4.22 1.48-6.6l-9.77-43.65c-.45-2.4-1.93-4.2-4.1-5.23l-39.43-19.44c-1.25-.57-2.4-.9-3.64-.8z" stroke="#000" stroke-opacity="0" stroke-width="0" fill="#326ce5"/><path d="M479.64-1747c-1.2.12-2.16.36-3.12.84l-41.64 20.52c-2.28 1.08-3.84 3-4.32 5.52l-10.32 46.2c-.48 2.16-.12 4.32 1.08 6.24.12.24.24.36.48.6l28.8 36.96c1.56 2.04 3.72 3.12 6.24 3.12h46.32c2.52 0 4.68-1.08 6.24-3.12l28.8-36.96c1.56-2.04 2.16-4.44 1.56-6.84l-10.32-46.2c-.48-2.52-2.04-4.44-4.32-5.52l-41.64-20.52c-1.32-.6-2.52-.96-3.84-.84zm0 3.12c1.32 0 2.4.24 3.6.84l39.6 19.44c2.04 1.08 3.48 2.88 4.08 5.28l9.72 43.68c.48 2.4 0 4.56-1.44 6.48l-27.36 35.04c-1.44 1.92-3.48 3-5.88 3h-43.92c-2.4 0-4.44-1.08-5.88-3l-27.36-35.04c-.12-.12-.24-.36-.36-.6-1.2-1.8-1.56-3.72-1.08-5.88l9.72-43.68c.6-2.4 1.92-4.2 4.08-5.28l39.6-19.44c.96-.48 1.8-.72 2.88-.84z" stroke="#000" stroke-opacity="0" stroke-width="0" fill="#fff"/><path d="M479.87-1720.7c-.94 0-26.55 12.94-26.88 13.62-.8 1.62-6.68 29.38-6.35 30 .2.32 4.4 5.85 9.34 12.2l9 11.58h29.54l9.4-12.13 9.4-12.07-3.26-14.9c-1.8-8.14-3.47-15.02-3.6-15.15-.47-.48-26.08-13.15-26.6-13.15zm1.6 13.62c1.2.06 1.33 1.95 4 2.15 3.47.27 3.13-3.03 5.73-.74 2.67 2.36-.6 2.5.27 6 .8 3.5 3.8 2.1 2.47 5.4-1.33 3.36-2.47.2-5.47 2.08-2.93 1.9-.73 4.4-4.2 4.12-3.47-.27-.94-2.36-3.6-4.72-2.67-2.3-4.27.6-5.07-2.9-.87-3.43 1.87-1.6 3.2-4.9 1.33-3.38-1.87-4.06 1.07-5.94l1-.48c.2-.06.4-.06.6-.06zm3.46 3.9c-.53 0-1 .07-1.53.2-2.6.82-4.13 3.7-3.33 6.48.8 2.76 3.6 4.3 6.27 3.5 2.66-.87 4.2-3.77 3.4-6.47-.67-2.22-2.6-3.7-4.8-3.7zm-19.94 8.9c.26 0 .6.07 1 .2 3.2 1.02-.07 2.77 2.2 5.26 2.33 2.56 4.2-.67 4.93 2.7.8 3.3-2.33 1.28-3.27 4.58-1 3.3 2.67 3.37.2 5.73-2.4 2.35-2.26-1.43-5.53-.62-3.27.74-1.47 4.05-4.67 3.03-3.2-1 .07-2.68-2.27-5.24-2.28-2.5-4.14.67-4.88-2.63-.8-3.37 2.27-1.35 3.27-4.65 1-3.3-2.68-3.37-.2-5.73 2.4-2.36 2.26 1.42 5.53.68 2.8-.68 1.86-3.3 3.66-3.3zm23.74 3.64c.33 0 .66.07 1.13.27 3.67 1.48-1.13 3.7 1.67 6.54 2.87 2.83 4.87-2.3 6.47 1.4 1.6 3.8-3.4 1.83-3.33 5.88.14 4.1 5 1.95 3.6 5.72-1.46 3.78-3.66-1.2-6.4 1.76-2.73 2.96 2.2 4.98-1.4 6.6-3.6 1.7-1.73-3.5-5.67-3.37-3.93.07-1.87 5.12-5.53 3.64-3.67-1.48 1.13-3.7-1.67-6.54-2.87-2.83-4.87 2.3-6.47-1.48-1.6-3.7 3.4-1.75 3.33-5.86-.13-4.05-5-1.9-3.6-5.66 1.47-3.84 3.67 1.2 6.4-1.75 2.74-2.96-2.2-4.98 1.4-6.6 3.6-1.68 1.74 3.44 5.67 3.37 3.47-.07 2.27-3.98 4.4-3.9zm-25.8 1.75c-2.8 0-5.08 2.3-5.08 5.2 0 2.83 2.27 5.2 5.07 5.2 2.8 0 5-2.37 5-5.2 0-2.9-2.2-5.2-5-5.2zm21.6 4.93c-4.07.07-7.4 3.44-7.4 7.7 0 4.23 3.33 7.6 7.4 7.6 4.13 0 7.46-3.37 7.46-7.6 0-4.26-3.33-7.7-7.46-7.7z" stroke="#eee" stroke-width="0" fill="#fff"/><use xlink:href="#h" transform="matrix(1,0,0,1,390,-1618) translate(26.543209876543216 17.77777777777778)"/><use xlink:href="#i" transform="matrix(1,0,0,1,390,-1618) translate(65.92592592592592 17.77777777777778)"/><path d="M50.4-1981.5l5.34-.33 5.64-.6 5.4-.78 5.2-1 5.02-1.18 4.88-1.37 4.78-1.55 4.7-1.75L96-1992l4.64-2.18 4.63-2.42 4.67-2.7 4.75-3.02 4.86-3.38 5.04-3.83 5.3-4.4 5.67-5.1 6.2-6.08 7.07-7.55 8.72-10.12 14-17.76 34.4-45.02 8.73-10.13 7.06-7.54 6.2-6.08 5.67-5.1 5.3-4.4 5.04-3.82 4.87-3.4 4.75-3 4.66-2.7 4.63-2.42 4.62-2.18 4.65-1.96 4.7-1.74 4.78-1.56 4.88-1.36 5.03-1.18 5.2-1 5.4-.8 1.5-.14" stroke="#3a414a" stroke-linejoin="round" fill="none"/><path d="M44.52-1981.35l12.72-7.95.37 15.27zM318.4-2166.9l-14 5.44-.52-9.26z" stroke="#3a414a" fill="#3a414a"/><path d="M50.4-1917.5h253.22" stroke="#3a414a" stroke-linejoin="round" fill="none"/><path d="M44.52-1917.5l12.9-7.64v15.28zM318.38-1917.5l-14.26 4.63v-9.27z" stroke="#3a414a" fill="#3a414a"/><path d="M50.4-1852.97h.12l6.57.42 6.2.65 5.9.87 5.65 1.08 5.44 1.27 5.27 1.48 5.15 1.67 5.04 1.87 5 2.1 4.94 2.33 4.97 2.6 5 2.9 5.13 3.24 5.28 3.68 5.52 4.2 5.9 4.88 6.47 5.84 7.46 7.3 9.5 10.15 51.17 58.93 7.46 7.3 6.47 5.85 5.9 4.88 5.52 4.2 5.28 3.67 5.12 3.25 5 2.9 4.98 2.6 4.95 2.33 5 2.1 5.04 1.87 5.14 1.67 5.28 1.47 5.44 1.27 5.65 1.08 5.9.87 3.42.35" stroke="#3a414a" stroke-linejoin="round" fill="none"/><path d="M44.52-1853.1l13.06-7.36-.3 15.27zM318.38-1687.08l-14.48 3.88.48-9.25z" stroke="#3a414a" fill="#3a414a"/><path d="M-4.56-2271.44l1.32 24.24h6.48l1.32-24.24h-9.12zM0-2242.88c-2.88 0-5.28 2.28-5.28 5.16 0 3 2.04 5.28 5.28 5.28 2.88 0 5.28-2.28 5.28-5.28-.36-2.88-2.4-5.16-5.28-5.16z" stroke="#000" stroke-opacity="0" fill="#0078d7"/><path d="M44.88-2300H-45.6c-8.52 0-14.4 5.88-14.4 14.4v60.72c0 8.52 5.88 16.08 14.4 16.08h21.72l40.56 28.8-3.6-28.8h31.56c8.52 0 15-6.84 15-15.12l.36-60.96c0-8.28-6.6-15.12-15.12-15.12zm-11.52 77.4h-66.72c-5.28 0-8.28-4.56-5.64-8.88l17.04-28.8 16.68-27.6c2.64-4.32 7.92-4.32 10.56 0l17.04 28.8 16.68 27.6c2.64 4.68 0 8.88-5.64 8.88z" stroke="#000" stroke-opacity="0" fill="#0078d7"/><use xlink:href="#j" transform="matrix(1,0,0,1,-90,-2171) translate(8.649999999999991 14.4)"/><use xlink:href="#k" transform="matrix(1,0,0,1,-90,-2171) translate(102.45 14.4)"/><path d="M-582.16-2165.04l-52.44-52.8c-3-2.88-7.68-2.88-10.44 0l-11.52 11.28 13.68 13.68c.84-.36 2.04-.6 3.24-.6 5.04 0 9.12 4.08 9.12 9.12 0 1.2-.24 2.4-.6 3.36l13.32 13.32c.84-.36 2.16-.6 3.24-.6 5.04 0 9.24 4.08 9.24 9.12 0 5.04-4.2 9.24-9.24 9.24s-9.12-4.2-9.12-9.24c0-1.2.24-2.4.6-3.24l-12.48-12.48v32.64c3 1.44 5.04 4.68 5.04 8.04 0 5.04-4.08 9.12-9.12 9.12-5.04 0-9.24-4.08-9.24-9.12 0-3.96 2.4-7.2 6-8.64v-33.24c-3.6-1.08-6-4.68-6-8.52 0-1.2.36-2.4.6-3.24l-13.56-13.68-35.88 36.48c-3 2.88-3 7.68 0 10.32l52.44 52.44c3 3 7.68 3 10.32 0l52.44-52.44c3.36-2.88 3.36-7.68.36-10.32z" stroke="#000" stroke-opacity="0" fill="#0078d7"/><use xlink:href="#l" transform="matrix(1,0,0,1,-730,-2091) translate(36.599999999999994 14.4)"/><use xlink:href="#m" transform="matrix(1,0,0,1,-730,-2091) translate(64.55 14.4)"/><path d="M-599.76-2130.46l2.28.05 8.5.52 7.94.84 7.5 1.1 7.1 1.36 6.82 1.6 6.56 1.83 6.37 2.07 6.24 2.3 6.15 2.6 6.12 2.88 6.15 3.22 6.28 3.63 6.48 4.1 6.84 4.77 7.43 5.64 8.47 7.03 10.76 9.7 55.66 54.02 8.46 7.02 7.43 5.65 6.83 4.74 6.48 4.12 6.3 3.62 6.15 3.22 6.12 2.88 6.15 2.6 6.23 2.3 6.37 2.08 6.56 1.83 6.8 1.6 7.13 1.34 7.5 1.1 7.95.84 1.28.08" stroke="#3a414a" stroke-linejoin="round" fill="none"/><path d="M-605.65-2130.58l13.06-7.37-.3 15.27zM-301.62-1975.56l-14.43 4.07.36-9.25z" stroke="#3a414a" fill="#3a414a"/><path d="M-68.47-1895.3l-10.8-68.33c-.25-2.7-2.53-3.18-3.25-3.18H-173c-.72 0-3.24.22-3.24 3.17l-12 68.32v1.91c0 5.1 4.2 6.2 5.05 6.2h109.92c.97 0 5.05-1.1 5.05-6.2-.24-.7-.24-1.43-.24-1.9zm-37.8-17.53h-13.45c-1.08 0-1.8-.87-1.8-1.83 0-1.1.96-1.83 1.8-1.83h6.25l-15-14.96v29.94l4.55-4.62c.73-.63 2.17-.63 2.9 0 .58.72.58 2.07-.02 2.8l-9.23 9.23-9.48-9.5c-.5-.47-.5-.95-.5-1.34 0-.48.25-.96.5-1.44.72-.63 2.03-.63 2.75 0l4.93 4.86v-30.02l-15.13 15.05h6.72c1.2 0 1.92.9 1.92 1.84 0 1.12-.95 1.83-1.9 1.83h-13.33v-13.37c0-1.2.84-1.84 1.8-1.84 1.2 0 1.8.88 1.8 1.84v6.6l17.76-17.75v-9.16c-2.28-.96-4.07-3.03-4.07-5.82 0-3.42 2.75-5.97 6-5.97 3.34 0 5.98 2.8 5.98 5.98 0 2.8-1.92 4.86-4.2 5.8v9.17l18.25 18.23v-7.08c0-1.2.83-1.84 1.8-1.84 1.2 0 1.8.88 1.8 1.84v13.37h.6z" stroke="#000" stroke-opacity="0" fill="#0078d7"/><use xlink:href="#n" transform="matrix(1,0,0,1,-218.23500000000013,-1878.1864406779662) translate(26.124999999999993 14.4)"/><use xlink:href="#o" transform="matrix(1,0,0,1,-218.23500000000013,-1878.1864406779662) translate(58.02499999999999 14.4)"/><use xlink:href="#p" transform="matrix(1,0,0,1,-218.23500000000013,-1878.1864406779662) translate(62.025 36)"/><path d="M-128.23-2054.5l.62-36.16 1.18-19.28 1.46-14.05 1.62-11.02 1.72-9 1.76-7.53 1.78-6.4 1.8-5.54 1.8-4.82 1.78-4.26 1.78-3.8 1.77-3.38 1.77-3.05 1.75-2.78 1.75-2.52 1.75-2.3 1.75-2.1 1.75-1.96 1.76-1.8 1.78-1.67 1.8-1.55 1.8-1.44 1.86-1.34 1.87-1.24 1.92-1.16 1.96-1.08 2.03-1 2.07-.93 2.15-.84 2.23-.8 2.32-.7 2.2-.56" stroke="#3a414a" stroke-linejoin="round" fill="none"/><path d="M-127.75-2054.5v.5h-.96v-.52z" stroke="#3a414a" stroke-width=".05" fill="#3a414a"/><path d="M-56.26-2212.2l-13.66 6.2-1.03-9.22z" stroke="#3a414a" fill="#3a414a"/><path d="M-675.7-1939.76h-104.27v-18.22c0-.85.73-1.52 1.56-1.52h101.14c.84 0 1.57.67 1.57 1.52z" stroke="#000" stroke-opacity="0" fill="#949494"/><path d="M-780-1939.76h104.28v62.4c0 .82-.73 1.52-1.56 1.52h-101.16c-.83 0-1.56-.7-1.56-1.53v-62.4z" stroke="#000" stroke-opacity="0" fill="#bfbfbf"/><path d="M-772.8-1934.3h89.76v51h-89.76z" stroke="#000" stroke-opacity="0" fill="#005ba1"/><path d="M-748-1905.82h15.55c1.18 0 1.77.6 1.77 1.77 0 1.2-.6 1.78-1.77 1.78H-748c-1.17 0-1.76-.6-1.76-1.77 0-1.2.6-1.78 1.77-1.78zM-762.43-1902.58l11.24-11.3c.03 0 .03 0 .04-.02.44-.45.42-1.16-.03-1.6l-11.4-11c0-.03 0-.03-.02-.03-.46-.42-1.2-.4-1.6.1l-.85.84c-.4.47-.38 1.16.06 1.6l8.93 8.52c.45.44.45 1.18 0 1.63l-8.7 8.98c-.45.44-.45 1.16 0 1.6l.66.7c.02 0 .03.04.06.06.47.4 1.2.4 1.6-.08z" stroke="#000" stroke-opacity="0" fill="#fff"/><path d="M-660-1890.83c-.2-7.7-5.86-13.9-13.43-14.94-.42-10.67-9.37-19.05-20.12-18.7-8.6-.15-16.04 4.9-19.07 13.07-9.16 1.08-15.98 8.57-16.26 17.83.4 10.33 9.1 18.4 19.42 18.07l1.66-.1h31.47c.28 0 .56-.05.83-.1 8.4-.1 15.16-6.7 15.5-15.13z" stroke="#000" stroke-opacity="0" fill="url(#q)"/><g><use xlink:href="#r" transform="matrix(1,0,0,1,-810,-1866.5) translate(21.07499999999999 14.4)"/><use xlink:href="#s" transform="matrix(1,0,0,1,-810,-1866.5) translate(54.02499999999999 14.4)"/><use xlink:href="#t" transform="matrix(1,0,0,1,-810,-1866.5) translate(71.02499999999999 14.4)"/></g><path d="M-580.1-1752.04l-3.73 15.72-3.82 15.72-11.7-11.04-11.82-11.16 7.2-1.92c-6.97-10.68-18.9-17.76-32.17-17.76-8.44 0-15.98 2.52-22.4 7.2v-.24l3.5-15.84-15.42 4.92-3.83 1.32c10.25-9.36 23.3-14.88 37.93-14.88 21.5 0 40.5 12.36 49.62 30.36l6.64-2.4z" stroke="#000" stroke-opacity="0" fill="#7f7f7f"/><path d="M-580-1724.44c0 30.72-25.1 56.04-56.03 56.04h-2.03l-2.25 8.4-9.46-9.96-1.57-1.8-11.03-11.76 15.64-3.72.68-.24 15.07-3.84-1.57 5.16c19.57-1.8 35.1-18.24 35.1-38.4v-1.56l11.7 11.04 3.72-15.72 1.35-4.8c.44 3.84.67 7.2.67 11.16z" stroke="#000" stroke-opacity="0" fill="#7f7f7f"/><path d="M-652.12-1688.8l-15.75 3.84 11.02 11.64 1.35 1.32c-21.5-7.8-37-28.56-37-52.68 0-10.44 2.9-20.4 7.75-28.56l-5.3-4.92 11.26-3.48 4.06-1.32 15.53-4.8-3.38 14.76-.23.72-3.6 15.72-4.62-4.68c-2.25 5.04-3.83 10.68-3.83 16.44 0 15.96 9.8 29.64 23.74 35.4l-1.02.6z" stroke="#000" stroke-opacity="0" fill="#7f7f7f"/><g><use xlink:href="#u" transform="matrix(1,0,0,1,-722.5131282820705,-1651) translate(62.074999999999996 14.4)"/></g><path d="M-579.5-1724.45l8.02-.17 7.9-.5 7.37-.77 6.93-1 6.6-1.27 6.3-1.47 6.06-1.7 5.88-1.9 5.76-2.15 5.7-2.38 5.65-2.67 5.7-2.98 5.8-3.36 6.03-3.82 6.4-4.44 6.97-5.3 8.1-6.72 10.78-9.73 45.82-43.88 8.1-6.7 6.98-5.3 6.4-4.45 6-3.83 5.83-3.36 5.7-2.98 5.67-2.67 5.68-2.4 5.77-2.13 5.9-1.9 6.06-1.7 6.3-1.48 6.6-1.26 6.93-1.03 7.4-.77h.03" stroke="#3a414a" stroke-linejoin="round" fill="none"/><path d="M-579.47-1723.98l-.55.02.02-.48-.03-.47.54-.03z" stroke="#3a414a" stroke-width=".05" fill="#3a414a"/><path d="M-301.62-1863.24l-14.06 5.2-.38-9.25z" stroke="#3a414a" fill="#3a414a"/><path d="M-675.2-1917.5h358.82" stroke="#3a414a" stroke-linejoin="round" fill="none"/><path d="M-677.76-1917.03h-.95v-.94h.2zm2.56 0h-.52v-.94h.52z" stroke="#3a414a" stroke-width=".05" fill="#3a414a"/><path d="M-301.62-1917.5l-14.26 4.63v-9.27z" stroke="#3a414a" fill="#3a414a"/><defs><path fill="#333" d="M1222-777c17 480-206 763-650 777H169v-1456h411c408 9 627 269 642 679zm-190 4c3-312-149-522-447-525H361v1141h202c308 0 473-209 469-531v-85" id="v"/><path fill="#333" d="M599-131c141 0 220-65 285-146l113 88C906-50 770 20 589 20 281 21 93-214 93-545c0-223 93-397 233-485 74-48 154-72 240-72 300 2 449 218 445 537v77H278c0 197 129 357 321 357zm227-509c-3-180-88-310-260-310-170 0-264 140-282 310h542" id="w"/><path fill="#333" d="M497-251l268-831h189L566 0H425L33-1082h189" id="x"/><g id="a"><use transform="matrix(0.0087890625,0,0,0.0087890625,0,0)" xlink:href="#v"/><use transform="matrix(0.0087890625,0,0,0.0087890625,11.8037109375,0)" xlink:href="#w"/><use transform="matrix(0.0087890625,0,0,0.0087890625,21.2255859375,0)" xlink:href="#x"/></g><path fill="#333" d="M539-677L361-492V0H169v-1456h192v720l647-720h232L667-813 1285 0h-230" id="y"/><path fill="#333" d="M491 20c-241-1-355-148-355-398v-704h185v699c0 164 67 246 200 246 141 0 235-53 282-158v-787h185V0H812l-4-107C736-22 630 20 491 20" id="z"/><path fill="#333" d="M634-1102c292 0 422 254 422 573 0 298-143 547-420 549-137 0-242-48-317-145L310 0H140v-1536h185v573c75-93 178-139 309-139zm-44 965c207 0 281-175 281-413 0-224-79-395-283-395-122 0-210 57-263 170v468c57 113 145 170 265 170" id="A"/><path fill="#333" d="M663-916c-163-27-288 18-338 148V0H140v-1082h180l3 125c61-97 147-145 258-145 36 0 63 5 82 14v172" id="B"/><path fill="#333" d="M589-945c-131 0-219 81-264 174V0H140v-1082h175l6 136c83-104 191-156 324-156 229 0 346 129 346 387V0H806v-716c-2-153-65-229-217-229" id="C"/><path fill="#333" d="M456 20C285 20 205-92 206-268v-671H9v-143h197v-262h185v262h202v143H391v671c-9 125 92 149 207 118V0c-49 13-96 20-142 20" id="D"/><path fill="#333" d="M538-131c121 0 232-49 232-156 0-50-20-88-56-117-73-60-334-92-420-143-92-55-162-110-162-238 0-190 192-317 400-317 223 0 414 129 413 338H759c0-108-110-186-227-186-119 0-215 53-215 159 0 45 18 78 53 101 76 52 331 90 416 139 98 57 169 115 169 251C955-92 760 20 538 20c-176 0-314-68-386-174-38-55-57-115-57-179h185c6 129 116 202 258 202" id="E"/><g id="b"><use transform="matrix(0.0087890625,0,0,0.0087890625,0,0)" xlink:href="#y"/><use transform="matrix(0.0087890625,0,0,0.0087890625,11.0830078125,0)" xlink:href="#z"/><use transform="matrix(0.0087890625,0,0,0.0087890625,21.005859375,0)" xlink:href="#A"/><use transform="matrix(0.0087890625,0,0,0.0087890625,31.1044921875,0)" xlink:href="#w"/><use transform="matrix(0.0087890625,0,0,0.0087890625,40.640625,0)" xlink:href="#B"/><use transform="matrix(0.0087890625,0,0,0.0087890625,46.7314453125,0)" xlink:href="#C"/><use transform="matrix(0.0087890625,0,0,0.0087890625,56.6630859375,0)" xlink:href="#w"/><use transform="matrix(0.0087890625,0,0,0.0087890625,66.19921875,0)" xlink:href="#D"/><use transform="matrix(0.0087890625,0,0,0.0087890625,72.0791015625,0)" xlink:href="#w"/><use transform="matrix(0.0087890625,0,0,0.0087890625,81.615234375,0)" xlink:href="#E"/></g><path fill="#333" d="M688-137c238 0 323-102 359-325h193c-32 297-228 482-552 482-361 0-569-299-569-680 0-197 8-360 73-497 88-186 257-317 513-319 316-2 509 195 535 488h-193c-31-212-118-330-342-330-272 0-397 224-393 523v141c-3 282 115 517 376 517" id="F"/><path fill="#333" d="M341 0H156v-1536h185V0" id="G"/><g id="c"><use transform="matrix(0.0087890625,0,0,0.0087890625,0,0)" xlink:href="#F"/><use transform="matrix(0.0087890625,0,0,0.0087890625,11.7158203125,0)" xlink:href="#G"/><use transform="matrix(0.0087890625,0,0,0.0087890625,16.083984375,0)" xlink:href="#z"/><use transform="matrix(0.0087890625,0,0,0.0087890625,26.0068359375,0)" xlink:href="#E"/><use transform="matrix(0.0087890625,0,0,0.0087890625,35.2880859375,0)" xlink:href="#D"/><use transform="matrix(0.0087890625,0,0,0.0087890625,41.16796875,0)" xlink:href="#w"/><use transform="matrix(0.0087890625,0,0,0.0087890625,50.7041015625,0)" xlink:href="#B"/></g><path fill="#333" d="M631-137c179 0 314-70 314-231 0-71-25-127-75-166s-141-77-272-115c-165-47-285-106-360-175s-112-154-112-255c0-245 231-397 495-397 206 0 369 89 449 218 43 68 65 142 65 223H942c0-184-129-283-321-283-172 0-299 76-301 236 0 59 26 109 76 150s135 78 256 113c205 59 345 116 436 256 35 53 50 119 50 193-2 256-231 398-507 390C333 12 90-129 80-422h193c0 187 160 285 358 285" id="H"/><path fill="#333" d="M561-1102c238-4 403 126 403 351v498c0 99 13 178 38 237V0H808c-11-21-19-59-26-114C696-25 593 20 474 20c-199 0-368-130-365-320 4-251 214-359 490-356h180v-85c-1-135-86-212-229-212-115 0-232 67-233 171H131c20-205 206-316 430-320zM294-326c0 117 90 185 207 185 122 0 239-75 278-162v-222H634c-227 0-340 66-340 199" id="I"/><path fill="#333" d="M521 20C240 20 96-239 96-550c0-303 147-552 427-552 132 0 235 47 309 140l9-120h169V-26c4 277-183 454-459 452-165-1-334-81-400-187l96-111c79 98 176 147 291 147 180 1 288-109 286-290v-93C750-23 649 20 521 20zm48-965c-209 0-287 178-287 416 0 217 86 392 285 392 117 0 202-53 257-159v-494c-57-103-142-155-255-155" id="J"/><path fill="#333" d="M341 0H156v-1082h185V0zm-91-1264c-68 0-108-42-109-105 0-62 41-107 109-107s110 44 110 107-42 105-110 105" id="K"/><g id="d"><use transform="matrix(0.0087890625,0,0,0.0087890625,0,0)" xlink:href="#H"/><use transform="matrix(0.0087890625,0,0,0.0087890625,10.6787109375,0)" xlink:href="#D"/><use transform="matrix(0.0087890625,0,0,0.0087890625,16.55859375,0)" xlink:href="#I"/><use transform="matrix(0.0087890625,0,0,0.0087890625,26.349609375,0)" xlink:href="#J"/><use transform="matrix(0.0087890625,0,0,0.0087890625,36.4482421875,0)" xlink:href="#K"/><use transform="matrix(0.0087890625,0,0,0.0087890625,40.81640625,0)" xlink:href="#C"/><use transform="matrix(0.0087890625,0,0,0.0087890625,50.748046875,0)" xlink:href="#J"/></g><path fill="#333" d="M1216-1011c-1 297-202 441-512 441H361V0H169v-1456h537c297-6 510 164 510 445zm-192 2c1-178-126-288-307-289H361v571h345c196 1 318-92 318-282" id="L"/><path fill="#333" d="M584 20C278 26 81-227 91-551c10-320 175-545 491-551 308-5 503 247 494 573-9 322-175 543-492 549zm-2-970c-208 0-305 185-305 421 0 216 106 398 307 398 211 0 307-186 307-420 0-214-109-399-309-399" id="M"/><path fill="#333" d="M520 20C244 20 95-247 95-550c0-298 151-550 427-552 127 0 227 43 301 130v-564h185V0H838l-9-116C755-25 652 20 520 20zm48-965c-210 0-288 177-288 416 0 218 87 392 286 392 117 0 203-53 257-158v-497c-55-102-140-153-255-153" id="N"/><path fill="#333" d="M277-555c0 244 77 420 297 424 127 2 249-93 255-210h175C980-127 805 20 574 20 258 20 81-222 92-562c11-319 164-533 481-540 237-5 426 165 431 392H829c-7-133-115-242-256-240-209 4-296 166-296 395" id="O"/><g id="e"><use transform="matrix(0.0087890625,0,0,0.0087890625,0,0)" xlink:href="#L"/><use transform="matrix(0.0087890625,0,0,0.0087890625,11.35546875,0)" xlink:href="#B"/><use transform="matrix(0.0087890625,0,0,0.0087890625,17.2705078125,0)" xlink:href="#M"/><use transform="matrix(0.0087890625,0,0,0.0087890625,27.5361328125,0)" xlink:href="#N"/><use transform="matrix(0.0087890625,0,0,0.0087890625,37.6875,0)" xlink:href="#z"/><use transform="matrix(0.0087890625,0,0,0.0087890625,47.6103515625,0)" xlink:href="#O"/><use transform="matrix(0.0087890625,0,0,0.0087890625,57.0322265625,0)" xlink:href="#D"/><use transform="matrix(0.0087890625,0,0,0.0087890625,62.912109375,0)" xlink:href="#K"/><use transform="matrix(0.0087890625,0,0,0.0087890625,67.2802734375,0)" xlink:href="#M"/><use transform="matrix(0.0087890625,0,0,0.0087890625,77.5458984375,0)" xlink:href="#C"/></g><path fill="#333" d="M1161-1018c0 201-122 330-278 388l342 618V0h-206L703-589H361V0H168v-1456h482c310-2 511 139 511 438zm-193 0c0-187-120-280-313-280H361v552h295c179 3 313-101 312-272" id="P"/><g id="f"><use transform="matrix(0.0087890625,0,0,0.0087890625,0,0)" xlink:href="#P"/><use transform="matrix(0.0087890625,0,0,0.0087890625,11.0830078125,0)" xlink:href="#K"/><use transform="matrix(0.0087890625,0,0,0.0087890625,15.451171875,0)" xlink:href="#J"/></g><path fill="#333" d="M704-1390c-164-38-297 28-288 194v114h231v143H416V0H231v-939H60v-143h171v-111c-12-274 208-416 483-347" id="Q"/><path fill="#333" d="M1240-945c-141 0-250 95-250 227V0H804v-709c0-157-77-236-231-236-121 0-204 52-249 155V0H139v-1082h175l5 120c79-93 186-140 321-140 151 0 254 58 309 174 69-98 181-174 345-174 237 0 362 126 362 377V0h-185v-714c-2-159-67-231-231-231" id="R"/><g id="g"><use transform="matrix(0.0087890625,0,0,0.0087890625,0,0)" xlink:href="#L"/><use transform="matrix(0.0087890625,0,0,0.0087890625,11.35546875,0)" xlink:href="#G"/><use transform="matrix(0.0087890625,0,0,0.0087890625,15.7236328125,0)" xlink:href="#I"/><use transform="matrix(0.0087890625,0,0,0.0087890625,25.5146484375,0)" xlink:href="#D"/><use transform="matrix(0.0087890625,0,0,0.0087890625,31.39453125,0)" xlink:href="#Q"/><use transform="matrix(0.0087890625,0,0,0.0087890625,37.6435546875,0)" xlink:href="#M"/><use transform="matrix(0.0087890625,0,0,0.0087890625,47.9091796875,0)" xlink:href="#B"/><use transform="matrix(0.0087890625,0,0,0.0087890625,54,0)" xlink:href="#R"/></g><path fill="#3a414a" d="M233-177c-1 41-23 64-60 70L243 0h-38l-65-103H63V0H30v-248c88 3 205-21 203 71zM63-129c60-2 137 13 137-47 0-61-80-42-137-45v92" id="S"/><path fill="#3a414a" d="M24-231v-30h32v30H24zM24 0v-190h32V0H24" id="T"/><path fill="#3a414a" d="M177-190C167-65 218 103 67 71c-23-6-38-20-44-43l32-5c15 47 100 32 89-28v-30C133-14 115 1 83 1 29 1 15-40 15-95c0-56 16-97 71-98 29-1 48 16 59 35 1-10 0-23 2-32h30zM94-22c36 0 50-32 50-73 0-42-14-75-50-75-39 0-46 34-46 75s6 73 46 73" id="U"/><g id="h"><use transform="matrix(0.06172839506172839,0,0,0.06172839506172839,0,0)" xlink:href="#S"/><use transform="matrix(0.06172839506172839,0,0,0.06172839506172839,15.987654320987653,0)" xlink:href="#T"/><use transform="matrix(0.06172839506172839,0,0,0.06172839506172839,20.864197530864196,0)" xlink:href="#U"/></g><path fill="#3a414a" d="M140-251c81 0 123 46 123 126C263-46 219 4 140 4 59 4 17-45 17-125s42-126 123-126zm0 227c63 0 89-41 89-101s-29-99-89-99c-61 0-89 39-89 99S79-25 140-24" id="V"/><path fill="#3a414a" d="M115-194c55 1 70 41 70 98S169 2 115 4C84 4 66-9 55-30l1 105H24l-1-265h31l2 30c10-21 28-34 59-34zm-8 174c40 0 45-34 45-75s-6-73-45-74c-42 0-51 32-51 76 0 43 10 73 51 73" id="W"/><path fill="#3a414a" d="M100-194c63 0 86 42 84 106H49c0 40 14 67 53 68 26 1 43-12 49-29l28 8c-11 28-37 45-77 45C44 4 14-33 15-96c1-61 26-98 85-98zm52 81c6-60-76-77-97-28-3 7-6 17-6 28h103" id="X"/><path fill="#3a414a" d="M114-163C36-179 61-72 57 0H25l-1-190h30c1 12-1 29 2 39 6-27 23-49 58-41v29" id="Y"/><path fill="#3a414a" d="M141-36C126-15 110 5 73 4 37 3 15-17 15-53c-1-64 63-63 125-63 3-35-9-54-41-54-24 1-41 7-42 31l-33-3c5-37 33-52 76-52 45 0 72 20 72 64v82c-1 20 7 32 28 27v20c-31 9-61-2-59-35zM48-53c0 20 12 33 32 33 41-3 63-29 60-74-43 2-92-5-92 41" id="Z"/><path fill="#3a414a" d="M59-47c-2 24 18 29 38 22v24C64 9 27 4 27-40v-127H5v-23h24l9-43h21v43h35v23H59v120" id="aa"/><path fill="#3a414a" d="M100-194c62-1 85 37 85 99 1 63-27 99-86 99S16-35 15-95c0-66 28-99 85-99zM99-20c44 1 53-31 53-75 0-43-8-75-51-75s-53 32-53 75 10 74 51 75" id="ab"/><g id="i"><use transform="matrix(0.06172839506172839,0,0,0.06172839506172839,0,0)" xlink:href="#V"/><use transform="matrix(0.06172839506172839,0,0,0.06172839506172839,17.28395061728395,0)" xlink:href="#W"/><use transform="matrix(0.06172839506172839,0,0,0.06172839506172839,29.629629629629626,0)" xlink:href="#X"/><use transform="matrix(0.06172839506172839,0,0,0.06172839506172839,41.9753086419753,0)" xlink:href="#Y"/><use transform="matrix(0.06172839506172839,0,0,0.06172839506172839,49.32098765432098,0)" xlink:href="#Z"/><use transform="matrix(0.06172839506172839,0,0,0.06172839506172839,61.66666666666666,0)" xlink:href="#aa"/><use transform="matrix(0.06172839506172839,0,0,0.06172839506172839,67.83950617283949,0)" xlink:href="#ab"/><use transform="matrix(0.06172839506172839,0,0,0.06172839506172839,80.18518518518518,0)" xlink:href="#Y"/></g><path d="M190 0L58-211 59 0H30v-248h39L202-35l-2-213h31V0h-41" id="ac"/><path d="M100-194c62-1 85 37 85 99 1 63-27 99-86 99S16-35 15-95c0-66 28-99 85-99zM99-20c44 1 53-31 53-75 0-43-8-75-51-75s-53 32-53 75 10 74 51 75" id="ad"/><path d="M59-47c-2 24 18 29 38 22v24C64 9 27 4 27-40v-127H5v-23h24l9-43h21v43h35v23H59v120" id="ae"/><path d="M24-231v-30h32v30H24zM24 0v-190h32V0H24" id="af"/><path d="M101-234c-31-9-42 10-38 44h38v23H63V0H32v-167H5v-23h27c-7-52 17-82 69-68v24" id="ag"/><path d="M96-169c-40 0-48 33-48 73s9 75 48 75c24 0 41-14 43-38l32 2c-6 37-31 61-74 61-59 0-76-41-82-99-10-93 101-131 147-64 4 7 5 14 7 22l-32 3c-4-21-16-35-41-35" id="ah"/><path d="M141-36C126-15 110 5 73 4 37 3 15-17 15-53c-1-64 63-63 125-63 3-35-9-54-41-54-24 1-41 7-42 31l-33-3c5-37 33-52 76-52 45 0 72 20 72 64v82c-1 20 7 32 28 27v20c-31 9-61-2-59-35zM48-53c0 20 12 33 32 33 41-3 63-29 60-74-43 2-92-5-92 41" id="ai"/><path d="M117-194c89-4 53 116 60 194h-32v-121c0-31-8-49-39-48C34-167 62-67 57 0H25l-1-190h30c1 10-1 24 2 32 11-22 29-35 61-36" id="aj"/><g id="j"><use transform="matrix(0.05,0,0,0.05,0,0)" xlink:href="#ac"/><use transform="matrix(0.05,0,0,0.05,12.950000000000001,0)" xlink:href="#ad"/><use transform="matrix(0.05,0,0,0.05,22.950000000000003,0)" xlink:href="#ae"/><use transform="matrix(0.05,0,0,0.05,27.950000000000003,0)" xlink:href="#af"/><use transform="matrix(0.05,0,0,0.05,31.900000000000002,0)" xlink:href="#ag"/><use transform="matrix(0.05,0,0,0.05,36.900000000000006,0)" xlink:href="#af"/><use transform="matrix(0.05,0,0,0.05,40.85000000000001,0)" xlink:href="#ah"/><use transform="matrix(0.05,0,0,0.05,49.85000000000001,0)" xlink:href="#ai"/><use transform="matrix(0.05,0,0,0.05,59.85,0)" xlink:href="#ae"/><use transform="matrix(0.05,0,0,0.05,64.85000000000001,0)" xlink:href="#af"/><use transform="matrix(0.05,0,0,0.05,68.80000000000001,0)" xlink:href="#ad"/><use transform="matrix(0.05,0,0,0.05,78.80000000000001,0)" xlink:href="#aj"/></g><path d="M185-189c-5-48-123-54-124 2 14 75 158 14 163 119 3 78-121 87-175 55-17-10-28-26-33-46l33-7c5 56 141 63 141-1 0-78-155-14-162-118-5-82 145-84 179-34 5 7 8 16 11 25" id="ak"/><path d="M100-194c63 0 86 42 84 106H49c0 40 14 67 53 68 26 1 43-12 49-29l28 8c-11 28-37 45-77 45C44 4 14-33 15-96c1-61 26-98 85-98zm52 81c6-60-76-77-97-28-3 7-6 17-6 28h103" id="al"/><path d="M114-163C36-179 61-72 57 0H25l-1-190h30c1 12-1 29 2 39 6-27 23-49 58-41v29" id="am"/><path d="M108 0H70L1-190h34L89-25l56-165h34" id="an"/><path d="M135-143c-3-34-86-38-87 0 15 53 115 12 119 90S17 21 10-45l28-5c4 36 97 45 98 0-10-56-113-15-118-90-4-57 82-63 122-42 12 7 21 19 24 35" id="ao"/><g id="k"><use transform="matrix(0.05,0,0,0.05,0,0)" xlink:href="#ak"/><use transform="matrix(0.05,0,0,0.05,12,0)" xlink:href="#al"/><use transform="matrix(0.05,0,0,0.05,22,0)" xlink:href="#am"/><use transform="matrix(0.05,0,0,0.05,27.950000000000003,0)" xlink:href="#an"/><use transform="matrix(0.05,0,0,0.05,36.95,0)" xlink:href="#af"/><use transform="matrix(0.05,0,0,0.05,40.900000000000006,0)" xlink:href="#ah"/><use transform="matrix(0.05,0,0,0.05,49.900000000000006,0)" xlink:href="#al"/><use transform="matrix(0.05,0,0,0.05,59.900000000000006,0)" xlink:href="#ao"/></g><path d="M143 4C61 4 22-44 18-125c-5-107 100-154 193-111 17 8 29 25 37 43l-32 9c-13-25-37-40-76-40-61 0-88 39-88 99 0 61 29 100 91 101 35 0 62-11 79-27v-45h-74v-28h105v86C228-13 192 4 143 4" id="ap"/><g id="l"><use transform="matrix(0.05,0,0,0.05,0,0)" xlink:href="#ap"/><use transform="matrix(0.05,0,0,0.05,14,0)" xlink:href="#af"/><use transform="matrix(0.05,0,0,0.05,17.95,0)" xlink:href="#ae"/></g><path d="M115-194c55 1 70 41 70 98S169 2 115 4C84 4 66-9 55-30l1 105H24l-1-265h31l2 30c10-21 28-34 59-34zm-8 174c40 0 45-34 45-75s-6-73-45-74c-42 0-51 32-51 76 0 43 10 73 51 73" id="aq"/><path d="M179-190L93 31C79 59 56 82 12 73V49c39 6 53-20 64-50L1-190h34L92-34l54-156h33" id="ar"/><g id="m"><use transform="matrix(0.05,0,0,0.05,0,0)" xlink:href="#am"/><use transform="matrix(0.05,0,0,0.05,5.95,0)" xlink:href="#al"/><use transform="matrix(0.05,0,0,0.05,15.949999999999998,0)" xlink:href="#aq"/><use transform="matrix(0.05,0,0,0.05,25.950000000000003,0)" xlink:href="#ad"/><use transform="matrix(0.05,0,0,0.05,35.95,0)" xlink:href="#ao"/><use transform="matrix(0.05,0,0,0.05,44.95,0)" xlink:href="#af"/><use transform="matrix(0.05,0,0,0.05,48.900000000000006,0)" xlink:href="#ae"/><use transform="matrix(0.05,0,0,0.05,53.900000000000006,0)" xlink:href="#ad"/><use transform="matrix(0.05,0,0,0.05,63.900000000000006,0)" xlink:href="#am"/><use transform="matrix(0.05,0,0,0.05,69.85000000000001,0)" xlink:href="#ar"/></g><path d="M233-177c-1 41-23 64-60 70L243 0h-38l-65-103H63V0H30v-248c88 3 205-21 203 71zM63-129c60-2 137 13 137-47 0-61-80-42-137-45v92" id="as"/><path d="M177-190C167-65 218 103 67 71c-23-6-38-20-44-43l32-5c15 47 100 32 89-28v-30C133-14 115 1 83 1 29 1 15-40 15-95c0-56 16-97 71-98 29-1 48 16 59 35 1-10 0-23 2-32h30zM94-22c36 0 50-32 50-73 0-42-14-75-50-75-39 0-46 34-46 75s6 73 46 73" id="at"/><g id="n"><use transform="matrix(0.05,0,0,0.05,0,0)" xlink:href="#as"/><use transform="matrix(0.05,0,0,0.05,12.950000000000001,0)" xlink:href="#af"/><use transform="matrix(0.05,0,0,0.05,16.900000000000002,0)" xlink:href="#at"/></g><path d="M30-248c118-7 216 8 213 122C240-48 200 0 122 0H30v-248zM63-27c89 8 146-16 146-99s-60-101-146-95v194" id="au"/><path d="M24 0v-261h32V0H24" id="av"/><path d="M210-169c-67 3-38 105-44 169h-31v-121c0-29-5-50-35-48C34-165 62-65 56 0H25l-1-190h30c1 10-1 24 2 32 10-44 99-50 107 0 11-21 27-35 58-36 85-2 47 119 55 194h-31v-121c0-29-5-49-35-48" id="aw"/><g id="o"><use transform="matrix(0.05,0,0,0.05,0,0)" xlink:href="#au"/><use transform="matrix(0.05,0,0,0.05,12.950000000000001,0)" xlink:href="#al"/><use transform="matrix(0.05,0,0,0.05,22.950000000000003,0)" xlink:href="#aq"/><use transform="matrix(0.05,0,0,0.05,32.95,0)" xlink:href="#av"/><use transform="matrix(0.05,0,0,0.05,36.900000000000006,0)" xlink:href="#ad"/><use transform="matrix(0.05,0,0,0.05,46.900000000000006,0)" xlink:href="#ar"/><use transform="matrix(0.05,0,0,0.05,55.900000000000006,0)" xlink:href="#aw"/><use transform="matrix(0.05,0,0,0.05,70.85000000000001,0)" xlink:href="#al"/><use transform="matrix(0.05,0,0,0.05,80.85000000000001,0)" xlink:href="#aj"/><use transform="matrix(0.05,0,0,0.05,90.85000000000001,0)" xlink:href="#ae"/></g><path d="M30 0v-248h187v28H63v79h144v27H63v87h162V0H30" id="ax"/><g id="p"><use transform="matrix(0.05,0,0,0.05,0,0)" xlink:href="#ax"/><use transform="matrix(0.05,0,0,0.05,12,0)" xlink:href="#aj"/><use transform="matrix(0.05,0,0,0.05,22,0)" xlink:href="#at"/><use transform="matrix(0.05,0,0,0.05,32,0)" xlink:href="#af"/><use transform="matrix(0.05,0,0,0.05,35.95,0)" xlink:href="#aj"/><use transform="matrix(0.05,0,0,0.05,45.95,0)" xlink:href="#al"/></g><linearGradient gradientUnits="userSpaceOnUse" id="q" x1="-719.99" y1="-1875.46" x2="-719.99" y2="-1959.48"><stop offset="0%" stop-color="#0078d4"/><stop offset="15.6%" stop-color="#1380da"/><stop offset="52.8%" stop-color="#3c91e5"/><stop offset="82.2%" stop-color="#559cec"/><stop offset="100%" stop-color="#5ea0ef"/></linearGradient><path d="M212-179c-10-28-35-45-73-45-59 0-87 40-87 99 0 60 29 101 89 101 43 0 62-24 78-52l27 14C228-24 195 4 139 4 59 4 22-46 18-125c-6-104 99-153 187-111 19 9 31 26 39 46" id="ay"/><path d="M30 0v-248h33v221h125V0H30" id="az"/><path d="M33 0v-248h34V0H33" id="aA"/><g id="r"><use transform="matrix(0.05,0,0,0.05,0,0)" xlink:href="#ay"/><use transform="matrix(0.05,0,0,0.05,12.950000000000001,0)" xlink:href="#az"/><use transform="matrix(0.05,0,0,0.05,22.950000000000003,0)" xlink:href="#aA"/></g><path d="M234-2c-28 10-62 0-77-18C117 19 8 12 13-65c3-43 29-61 60-76-25-40-17-114 47-108 35 3 59 15 59 50 0 44-40 53-71 69 14 26 32 50 51 72 14-21 24-43 30-72l26 8c-9 33-21 57-38 82 13 13 33 22 57 15v23zM97-151c25-10 52-18 56-48-1-18-13-29-33-29-42 0-39 50-23 77zM42-66c-3 51 71 58 98 28-20-24-41-51-56-80-23 10-40 24-42 52" id="aB"/><use transform="matrix(0.05,0,0,0.05,0,0)" xlink:href="#aB" id="s"/><path d="M106-169C34-169 62-67 57 0H25v-261h32l-1 103c12-21 28-36 61-36 89 0 53 116 60 194h-32v-121c2-32-8-49-39-48" id="aC"/><path d="M115-194c53 0 69 39 70 98 0 66-23 100-70 100C84 3 66-7 56-30L54 0H23l1-261h32v101c10-23 28-34 59-34zm-8 174c40 0 45-34 45-75 0-40-5-75-45-74-42 0-51 32-51 76 0 43 10 73 51 73" id="aD"/><path d="M85-194c31 0 48 13 60 33l-1-100h32l1 261h-30c-2-10 0-23-3-31C134-8 116 4 85 4 32 4 16-35 15-94c0-66 23-100 70-100zm9 24c-40 0-46 34-46 75 0 40 6 74 45 74 42 0 51-32 51-76 0-42-9-74-50-73" id="aE"/><g id="t"><use transform="matrix(0.05,0,0,0.05,0,0)" xlink:href="#au"/><use transform="matrix(0.05,0,0,0.05,12.950000000000001,0)" xlink:href="#ai"/><use transform="matrix(0.05,0,0,0.05,22.950000000000003,0)" xlink:href="#ao"/><use transform="matrix(0.05,0,0,0.05,31.950000000000003,0)" xlink:href="#aC"/><use transform="matrix(0.05,0,0,0.05,41.95,0)" xlink:href="#aD"/><use transform="matrix(0.05,0,0,0.05,51.95,0)" xlink:href="#ad"/><use transform="matrix(0.05,0,0,0.05,61.95,0)" xlink:href="#ai"/><use transform="matrix(0.05,0,0,0.05,71.95,0)" xlink:href="#am"/><use transform="matrix(0.05,0,0,0.05,77.9,0)" xlink:href="#aE"/></g><path d="M0 4l72-265h28L28 4H0" id="aF"/><g id="u"><use transform="matrix(0.05,0,0,0.05,0,0)" xlink:href="#ay"/><use transform="matrix(0.05,0,0,0.05,12.950000000000001,0)" xlink:href="#aA"/><use transform="matrix(0.05,0,0,0.05,17.950000000000003,0)" xlink:href="#aF"/><use transform="matrix(0.05,0,0,0.05,22.950000000000003,0)" xlink:href="#ay"/><use transform="matrix(0.05,0,0,0.05,35.900000000000006,0)" xlink:href="#au"/></g></defs></g></svg>