<svg version="1.1" xmlns="http://www.w3.org/2000/svg" viewBox="0 0 499.26832270336917 331.8698849570419" width="499.26832270336917" height="331.8698849570419">
  <!-- svg-source:excalidraw -->
  
  <defs>
    <style class="style-fonts">
      @font-face {
        font-family: "Virgil";
        src: url("https://excalidraw.com/Virgil.woff2");
      }
      @font-face {
        font-family: "Cascadia";
        src: url("https://excalidraw.com/Cascadia.woff2");
      }
      @font-face {
        font-family: "Assistant";
        src: url("https://excalidraw.com/Assistant-Regular.woff2");
      }
    </style>
    
  </defs>
  <g stroke-linecap="round" transform="translate(115.84103850002339 10) rotate(0 132.8509177611566 64.38401451781829)"><path d="M32 0 C84.65 2.47, 143.44 4.99, 233.7 0 C255.37 -1.24, 264.73 7.74, 265.7 32 C265.96 46.66, 268.14 58.4, 265.7 96.77 C263.19 115.69, 254.93 128.13, 233.7 128.77 C176.69 128.68, 122.2 126.15, 32 128.77 C9.96 125.19, -2.49 116.14, 0 96.77 C3.49 76.27, -1.5 59.32, 0 32 C0.16 10.24, 10.17 -2.38, 32 0" stroke="none" stroke-width="0" fill="#a5d8ff"></path><path d="M32 0 C73.54 -0.55, 116 0.45, 233.7 0 M32 0 C89.12 -0.98, 146.83 -1.2, 233.7 0 M233.7 0 C253.97 -1.97, 265.98 11.21, 265.7 32 M233.7 0 C253.46 1.51, 265.54 9.57, 265.7 32 M265.7 32 C265.92 52.17, 263.84 71.72, 265.7 96.77 M265.7 32 C265.27 51.48, 267.11 70.94, 265.7 96.77 M265.7 96.77 C264.59 116.48, 256.77 127.35, 233.7 128.77 M265.7 96.77 C263.79 119.44, 255.71 127.94, 233.7 128.77 M233.7 128.77 C157.91 127.79, 81.21 128.51, 32 128.77 M233.7 128.77 C174.11 129.87, 115.26 129.84, 32 128.77 M32 128.77 C12.35 129.54, 0.98 118.77, 0 96.77 M32 128.77 C8.51 130.14, 0.07 119.26, 0 96.77 M0 96.77 C-0.99 70.81, 1.58 44.84, 0 32 M0 96.77 C-0.48 83.44, 1.25 70.61, 0 32 M0 32 C0.74 11.42, 9.91 -0.95, 32 0 M0 32 C-2.28 9.98, 10.72 1.07, 32 0" stroke="#1e1e1e" stroke-width="2" fill="none"></path></g><g transform="translate(216.26397774555494 15) rotate(0 32.427978515625 9.497427312286959)"><text x="32.427978515625" y="15.284922080711791" font-family="Cascadia, Segoe UI Emoji" font-size="15.82904552047823px" fill="#1e1e1e" text-anchor="middle" style="white-space: pre;" direction="ltr" dominant-baseline="alphabetic">Project</text></g><g stroke-linecap="round" transform="translate(148.3865645511496 55.85609313456803) rotate(53.4843221349704 13.002430248964288 13.002430248964288)"><path d="M16.6 -0.05 C19.22 0.48, 21.65 3.22, 23.18 5.57 C24.71 7.92, 25.83 11.31, 25.76 14.07 C25.7 16.83, 24.62 20.19, 22.8 22.14 C20.98 24.08, 17.63 25.48, 14.84 25.73 C12.04 25.97, 8.4 25.07, 6.01 23.63 C3.63 22.18, 1.36 19.67, 0.54 17.06 C-0.28 14.44, 0.03 10.6, 1.07 7.95 C2.11 5.3, 4.18 2.39, 6.79 1.14 C9.4 -0.12, 14.85 0.36, 16.74 0.41 C18.63 0.46, 18.13 1.26, 18.11 1.44 M12.11 -0.47 C14.75 -0.58, 18.26 1.34, 20.55 3.14 C22.83 4.94, 25.07 7.63, 25.81 10.32 C26.55 13.01, 26.33 16.95, 24.96 19.29 C23.6 21.64, 20.41 23.29, 17.64 24.38 C14.88 25.46, 11.02 26.63, 8.37 25.77 C5.73 24.92, 3.13 21.63, 1.76 19.26 C0.4 16.9, -0.34 14.27, 0.16 11.59 C0.66 8.91, 2.56 5.1, 4.75 3.16 C6.95 1.23, 12.05 0.38, 13.33 -0.02 C14.6 -0.42, 12.57 0.46, 12.38 0.77" stroke="none" stroke-width="0" fill="#ced4da"></path><path d="M12.05 0.15 C14.73 -0.07, 18.8 1.22, 21.04 2.92 C23.29 4.62, 24.91 7.63, 25.5 10.37 C26.09 13.1, 25.76 16.88, 24.59 19.33 C23.43 21.79, 21.03 24.15, 18.53 25.12 C16.03 26.08, 12.35 25.98, 9.59 25.14 C6.82 24.3, 3.54 22.32, 1.94 20.07 C0.33 17.81, -0.37 14.43, -0.05 11.61 C0.27 8.79, 1.66 5.16, 3.88 3.16 C6.11 1.16, 11.64 0.11, 13.31 -0.4 C14.97 -0.92, 13.89 -0.28, 13.87 0.07 M12.77 -0.45 C15.5 -0.58, 19.45 1.22, 21.57 3.27 C23.69 5.32, 25.05 9.04, 25.5 11.85 C25.96 14.67, 25.67 17.92, 24.31 20.17 C22.95 22.42, 19.94 24.62, 17.35 25.34 C14.76 26.07, 11.47 25.5, 8.78 24.52 C6.08 23.54, 2.52 21.74, 1.18 19.47 C-0.16 17.2, 0.12 13.56, 0.74 10.9 C1.36 8.23, 2.74 5.33, 4.91 3.5 C7.08 1.67, 12.35 0.35, 13.75 -0.07 C15.15 -0.48, 13.37 0.69, 13.33 0.99" stroke="#1e1e1e" stroke-width="2" fill="none"></path></g><g stroke-linecap="round" transform="translate(167.92347633984355 41.39126421409287) rotate(53.4843221349704 13.002430248964288 13.002430248964288)"><path d="M12.01 0.26 C14.53 0.06, 18.28 1.17, 20.62 2.83 C22.97 4.49, 25.36 7.57, 26.09 10.22 C26.82 12.87, 26.31 16.28, 25.02 18.71 C23.72 21.14, 20.96 23.61, 18.32 24.8 C15.69 25.99, 11.93 26.62, 9.22 25.87 C6.5 25.11, 3.65 22.72, 2.05 20.27 C0.45 17.83, -0.68 14.05, -0.38 11.21 C-0.08 8.37, 1.62 5.08, 3.84 3.25 C6.06 1.42, 11.42 0.78, 12.95 0.23 C14.48 -0.33, 13.08 -0.2, 13.04 -0.08 M10.69 0.42 C13.39 -0.04, 17.47 0.45, 20.01 1.9 C22.55 3.35, 25.11 6.56, 25.93 9.11 C26.75 11.66, 26.15 14.56, 24.92 17.2 C23.7 19.84, 21.04 23.63, 18.57 24.96 C16.1 26.29, 12.74 25.77, 10.1 25.19 C7.46 24.61, 4.36 23.62, 2.73 21.49 C1.11 19.36, 0.15 15.27, 0.36 12.4 C0.58 9.52, 2.26 6.2, 4.03 4.24 C5.79 2.27, 9.83 1.18, 10.95 0.62 C12.06 0.06, 10.63 0.73, 10.73 0.9" stroke="none" stroke-width="0" fill="#ced4da"></path><path d="M11.82 0.4 C14.45 -0.02, 17.78 0.94, 20.06 2.51 C22.33 4.08, 24.59 7.17, 25.47 9.81 C26.35 12.46, 26.38 15.96, 25.32 18.39 C24.26 20.81, 21.71 23.15, 19.11 24.35 C16.52 25.55, 12.53 26.17, 9.74 25.59 C6.95 25, 4.04 23.15, 2.38 20.86 C0.72 18.56, -0.47 14.68, -0.2 11.81 C0.07 8.93, 1.91 5.61, 4.01 3.62 C6.11 1.62, 10.94 0.33, 12.4 -0.16 C13.87 -0.65, 12.82 0.49, 12.79 0.67 M13.76 -0.01 C16.45 0.19, 19.55 2.33, 21.62 4.32 C23.7 6.3, 25.77 9.26, 26.19 11.91 C26.6 14.56, 25.59 18.04, 24.1 20.21 C22.6 22.38, 20.02 24.09, 17.24 24.93 C14.46 25.76, 9.97 26.16, 7.4 25.23 C4.83 24.29, 2.99 21.74, 1.81 19.3 C0.63 16.87, -0.32 13.43, 0.33 10.62 C0.97 7.81, 3.42 4.09, 5.66 2.44 C7.9 0.8, 12.4 1.04, 13.78 0.76 C15.17 0.47, 13.87 0.54, 13.98 0.72" stroke="#1e1e1e" stroke-width="2" fill="none"></path></g><g stroke-linecap="round" transform="translate(158.15502044549658 49.47166325578428) rotate(53.4843221349704 13.002430248964288 12.154445667510117)"><path d="M0.97 -0.71 L25.8 0.98 L25.16 23.67 L0.48 23.88" stroke="none" stroke-width="0" fill="#868e96"></path><path d="M0 0 C6.76 0.33, 14.95 0.71, 26 0 M0 0 C7.43 0.41, 14.1 0.35, 26 0 M26 0 C25.68 6.12, 25.51 10.91, 26 24.31 M26 0 C25.71 9.57, 26.31 18.64, 26 24.31 M26 24.31 C19.51 24.08, 14.19 23.71, 0 24.31 M26 24.31 C15.93 24.36, 5.87 23.99, 0 24.31 M0 24.31 C0.68 18.14, 0.89 12.55, 0 0 M0 24.31 C0.11 17.54, 0.48 10.54, 0 0" stroke="#1e1e1e" stroke-width="2" fill="none"></path></g><g transform="translate(129.03190976708845 84.74827051336956) rotate(0 41.736741118448435 9.497427312286959)"><text x="41.73674111844846" y="15.284922080711791" font-family="Cascadia, Segoe UI Emoji" font-size="15.82904552047823px" fill="#1e1e1e" text-anchor="middle" style="white-space: pre;" direction="ltr" dominant-baseline="alphabetic">Capsule A</text></g><g stroke-linecap="round" transform="translate(224.11139138228168 81.22804023898402) rotate(53.4843221349704 13.002430248964288 13.002430248964288)"><path d="M14.75 0.25 C17.32 0.44, 20.87 2.18, 22.79 4.3 C24.71 6.41, 26.21 10.1, 26.29 12.94 C26.36 15.79, 25.02 19.15, 23.24 21.36 C21.46 23.57, 18.4 25.65, 15.59 26.21 C12.77 26.76, 8.82 26.08, 6.32 24.69 C3.83 23.3, 1.57 20.55, 0.6 17.85 C-0.36 15.15, -0.48 11.14, 0.54 8.49 C1.55 5.83, 4.24 3.27, 6.69 1.93 C9.14 0.59, 13.72 0.66, 15.23 0.46 C16.73 0.25, 15.71 0.52, 15.72 0.7 M9.88 -0.23 C12.41 -0.86, 15.95 0.48, 18.55 1.81 C21.14 3.15, 24.32 5.36, 25.46 7.78 C26.61 10.19, 26.32 13.54, 25.4 16.3 C24.47 19.06, 22.18 22.76, 19.91 24.35 C17.65 25.94, 14.67 26.26, 11.82 25.81 C8.98 25.36, 4.88 23.62, 2.85 21.63 C0.81 19.64, -0.46 16.74, -0.39 13.85 C-0.32 10.97, 1.42 6.64, 3.26 4.33 C5.1 2.03, 9.35 0.62, 10.64 0.04 C11.94 -0.53, 11.15 0.7, 11.03 0.87" stroke="none" stroke-width="0" fill="#ced4da"></path><path d="M15.69 -0.09 C18.3 0.37, 21.82 3.43, 23.61 5.7 C25.41 7.96, 26.7 10.74, 26.46 13.5 C26.23 16.25, 24.16 20.23, 22.2 22.24 C20.23 24.24, 17.43 25.28, 14.7 25.52 C11.97 25.76, 8.21 25.12, 5.79 23.69 C3.38 22.26, 0.93 19.53, 0.21 16.94 C-0.51 14.34, 0.27 10.7, 1.48 8.11 C2.69 5.51, 4.97 2.62, 7.5 1.37 C10.02 0.13, 15.12 0.78, 16.64 0.62 C18.17 0.47, 16.81 0.33, 16.64 0.44 M12.65 0.11 C15.14 0.01, 18.84 1.52, 21.14 3.38 C23.44 5.24, 26 8.52, 26.45 11.27 C26.9 14.03, 25.41 17.49, 23.83 19.91 C22.25 22.33, 19.43 24.79, 16.97 25.79 C14.51 26.8, 11.62 26.87, 9.08 25.91 C6.54 24.96, 3.11 22.63, 1.74 20.06 C0.37 17.49, 0.3 13.28, 0.84 10.48 C1.38 7.68, 2.95 5.01, 4.97 3.26 C6.98 1.52, 11.72 0.47, 12.94 0 C14.16 -0.46, 12.2 0.21, 12.29 0.49" stroke="#1e1e1e" stroke-width="2" fill="none"></path></g><g stroke-linecap="round" transform="translate(243.64830317097562 66.76321131850932) rotate(53.4843221349704 13.002430248964288 13.002430248964288)"><path d="M14.1 -0.13 C16.85 -0.05, 20.48 1.94, 22.48 3.97 C24.48 6, 25.88 9.22, 26.09 12.04 C26.31 14.86, 25.44 18.59, 23.76 20.9 C22.08 23.2, 18.75 25.2, 16 25.88 C13.25 26.56, 9.74 26.26, 7.25 24.98 C4.76 23.71, 2.12 20.77, 1.05 18.22 C-0.02 15.68, 0.12 12.33, 0.82 9.72 C1.53 7.11, 2.94 4.14, 5.28 2.57 C7.62 1, 13.12 0.6, 14.88 0.27 C16.65 -0.05, 15.95 0.46, 15.87 0.61 M11.48 0.32 C14.24 -0.01, 18.65 0.63, 21.01 2.09 C23.37 3.55, 25.02 6.27, 25.64 9.08 C26.26 11.89, 25.85 16.35, 24.74 18.97 C23.63 21.59, 21.6 23.71, 18.97 24.79 C16.35 25.87, 11.83 26.13, 8.98 25.45 C6.13 24.77, 3.25 23.12, 1.85 20.72 C0.45 18.32, 0.16 13.92, 0.56 11.04 C0.96 8.16, 2.24 5.22, 4.27 3.45 C6.29 1.67, 11.52 0.98, 12.71 0.37 C13.89 -0.24, 11.51 -0.3, 11.38 -0.2" stroke="none" stroke-width="0" fill="#ced4da"></path><path d="M15.98 0.75 C18.74 1.19, 22.17 2.62, 23.8 4.8 C25.43 6.99, 25.91 11.1, 25.74 13.86 C25.58 16.63, 24.65 19.41, 22.8 21.38 C20.95 23.36, 17.51 25.26, 14.65 25.73 C11.8 26.2, 7.96 25.62, 5.69 24.19 C3.41 22.77, 1.74 19.88, 1.01 17.19 C0.28 14.49, 0.24 10.61, 1.3 8.03 C2.36 5.44, 4.78 2.97, 7.37 1.67 C9.95 0.37, 15.21 0.4, 16.82 0.22 C18.44 0.04, 17.16 0.27, 17.07 0.61 M12.47 0.33 C15.28 0.17, 19.62 1.61, 21.77 3.37 C23.91 5.12, 24.96 8.1, 25.32 10.84 C25.69 13.58, 25.12 17.32, 23.94 19.81 C22.77 22.31, 20.79 24.8, 18.27 25.81 C15.75 26.82, 11.47 26.94, 8.85 25.89 C6.22 24.84, 3.94 21.95, 2.54 19.51 C1.14 17.08, 0.16 13.98, 0.46 11.27 C0.76 8.56, 2.42 5.08, 4.34 3.24 C6.26 1.4, 10.5 0.67, 11.98 0.23 C13.45 -0.21, 13.18 0.31, 13.18 0.6" stroke="#1e1e1e" stroke-width="2" fill="none"></path></g><g stroke-linecap="round" transform="translate(233.87984727662865 74.8436103602005) rotate(53.4843221349704 13.002430248964288 12.154445667510117)"><path d="M0.63 0.75 L26.35 -0.58 L26.18 24.25 L-0.36 24.88" stroke="none" stroke-width="0" fill="#868e96"></path><path d="M0 0 C9.58 -1, 20.82 0.77, 26 0 M0 0 C10.61 0.28, 20.23 0.02, 26 0 M26 0 C26.74 7.03, 26.54 12.97, 26 24.31 M26 0 C25.76 8.79, 25.64 18.16, 26 24.31 M26 24.31 C15.89 23.93, 5.91 25.1, 0 24.31 M26 24.31 C16.11 24.76, 7.19 24.84, 0 24.31 M0 24.31 C-0.42 17.42, 0.21 9.58, 0 0 M0 24.31 C0.44 17.23, -0.36 10.15, 0 0" stroke="#1e1e1e" stroke-width="2" fill="none"></path></g><g transform="translate(204.75673659822064 110.12021761778601) rotate(0 41.736741118448435 9.497427312286959)"><text x="41.73674111844846" y="15.284922080711791" font-family="Cascadia, Segoe UI Emoji" font-size="15.82904552047823px" fill="#1e1e1e" text-anchor="middle" style="white-space: pre;" direction="ltr" dominant-baseline="alphabetic">Capsule B</text></g><g stroke-linecap="round" transform="translate(299.4877986226543 52.33375079684174) rotate(53.4843221349704 13.002430248964288 13.002430248964288)"><path d="M15.6 0.03 C18.2 0.32, 21.28 2.57, 23.02 4.77 C24.76 6.97, 26.03 10.39, 26.04 13.22 C26.06 16.05, 24.96 19.68, 23.13 21.74 C21.31 23.8, 17.84 25.14, 15.1 25.6 C12.37 26.06, 9.03 25.88, 6.71 24.49 C4.4 23.1, 2.23 19.96, 1.23 17.28 C0.23 14.59, -0.09 10.92, 0.73 8.38 C1.54 5.84, 3.55 3.39, 6.14 2.02 C8.72 0.65, 14.4 0.32, 16.25 0.18 C18.09 0.05, 17.2 0.93, 17.2 1.2 M10.84 -0.57 C13.42 -0.98, 17.54 0.41, 19.95 2.09 C22.36 3.76, 24.34 6.79, 25.29 9.47 C26.24 12.15, 26.7 15.76, 25.63 18.17 C24.57 20.58, 21.39 22.7, 18.88 23.93 C16.37 25.15, 13.19 26.09, 10.58 25.52 C7.98 24.95, 5.01 22.78, 3.26 20.51 C1.51 18.25, 0.14 14.59, 0.08 11.93 C0.01 9.27, 1.02 6.47, 2.86 4.55 C4.7 2.63, 9.79 1.13, 11.1 0.42 C12.41 -0.28, 10.53 0.24, 10.71 0.3" stroke="none" stroke-width="0" fill="#ced4da"></path><path d="M14.78 -0.11 C17.35 -0.04, 20.55 1.77, 22.39 3.79 C24.22 5.81, 25.68 9.19, 25.79 12 C25.89 14.8, 24.57 18.38, 23.01 20.65 C21.46 22.91, 19.03 24.86, 16.46 25.56 C13.89 26.26, 10.08 26.15, 7.59 24.85 C5.1 23.55, 2.72 20.38, 1.53 17.76 C0.34 15.15, -0.2 11.81, 0.44 9.17 C1.08 6.53, 2.94 3.5, 5.36 1.94 C7.79 0.39, 13.34 0.04, 14.99 -0.17 C16.64 -0.38, 15.34 0.41, 15.27 0.69 M15.19 0.43 C17.86 0.76, 21.24 2.42, 22.93 4.59 C24.62 6.76, 25.29 10.66, 25.33 13.44 C25.37 16.22, 24.89 19.28, 23.17 21.25 C21.45 23.22, 17.76 24.65, 14.99 25.27 C12.23 25.88, 8.84 26.26, 6.58 24.93 C4.32 23.59, 2.29 19.92, 1.43 17.25 C0.57 14.58, 0.55 11.51, 1.42 8.91 C2.3 6.3, 4.4 3.18, 6.7 1.63 C9 0.09, 13.95 -0.08, 15.22 -0.35 C16.49 -0.62, 14.41 -0.29, 14.32 0" stroke="#1e1e1e" stroke-width="2" fill="none"></path></g><g stroke-linecap="round" transform="translate(319.02471041134845 37.86892187636681) rotate(53.4843221349704 13.002430248964288 13.002430248964288)"><path d="M14.28 0.11 C16.9 0.26, 20.36 1.99, 22.35 4.03 C24.33 6.07, 26.01 9.6, 26.2 12.33 C26.4 15.05, 25.12 18.1, 23.51 20.36 C21.89 22.62, 19.13 25.17, 16.52 25.88 C13.91 26.59, 10.42 25.91, 7.84 24.65 C5.27 23.38, 2.36 20.75, 1.06 18.28 C-0.24 15.81, -0.76 12.52, 0.03 9.82 C0.82 7.11, 3.22 3.61, 5.8 2.07 C8.38 0.52, 13.77 0.76, 15.52 0.53 C17.26 0.3, 16.43 0.54, 16.28 0.7 M10.77 0.22 C13.41 -0.21, 16.94 0.71, 19.45 2.14 C21.97 3.57, 24.94 6.34, 25.88 8.8 C26.81 11.26, 26.09 14.35, 25.09 16.91 C24.08 19.46, 22.16 22.71, 19.85 24.13 C17.54 25.55, 14.05 25.96, 11.25 25.41 C8.45 24.86, 5.03 22.84, 3.06 20.82 C1.09 18.8, -0.54 15.92, -0.57 13.27 C-0.6 10.62, 1.08 7.09, 2.87 4.9 C4.66 2.71, 8.72 0.97, 10.17 0.11 C11.62 -0.74, 11.45 -0.48, 11.54 -0.21" stroke="none" stroke-width="0" fill="#ced4da"></path><path d="M13.85 -0.23 C16.41 -0.22, 19.89 1.46, 21.83 3.42 C23.77 5.38, 25.1 8.74, 25.5 11.54 C25.89 14.33, 25.64 17.81, 24.22 20.18 C22.8 22.54, 19.66 25, 16.99 25.71 C14.32 26.43, 10.81 25.65, 8.18 24.46 C5.55 23.28, 2.6 21.05, 1.22 18.58 C-0.16 16.11, -0.76 12.39, -0.08 9.66 C0.59 6.92, 2.85 3.72, 5.28 2.16 C7.71 0.6, 12.82 0.55, 14.5 0.29 C16.17 0.04, 15.27 0.42, 15.34 0.61 M11.5 0.25 C13.96 -0.18, 17.04 1.27, 19.36 2.76 C21.69 4.26, 24.61 6.78, 25.46 9.24 C26.31 11.7, 25.58 14.89, 24.47 17.54 C23.36 20.18, 21.11 23.81, 18.81 25.1 C16.52 26.38, 13.26 25.93, 10.69 25.24 C8.12 24.55, 5.09 23.16, 3.38 20.98 C1.67 18.8, 0.39 15.02, 0.43 12.14 C0.48 9.25, 1.96 5.75, 3.67 3.67 C5.39 1.6, 9.46 0.25, 10.72 -0.3 C11.98 -0.86, 11.09 -0.05, 11.24 0.33" stroke="#1e1e1e" stroke-width="2" fill="none"></path></g><g stroke-linecap="round" transform="translate(309.2562545170015 45.94932091805799) rotate(53.4843221349704 13.002430248964288 12.154445667510117)"><path d="M0.73 0.45 L26.4 0.48 L25.62 24.29 L0.09 24.39" stroke="none" stroke-width="0" fill="#868e96"></path><path d="M0 0 C9.59 -0.43, 17.87 -0.57, 26 0 M0 0 C6.69 0.54, 13.49 0.51, 26 0 M26 0 C25.92 8.08, 25.18 16.27, 26 24.31 M26 0 C26.09 6.61, 25.99 14.17, 26 24.31 M26 24.31 C18.7 24.53, 10.84 23.44, 0 24.31 M26 24.31 C15.43 24, 5.47 24.68, 0 24.31 M0 24.31 C0.21 15.77, -0.25 6.41, 0 0 M0 24.31 C0 18.62, 0.17 13.37, 0 0" stroke="#1e1e1e" stroke-width="2" fill="none"></path></g><g transform="translate(280.13314383859324 81.2259281756435) rotate(0 41.736741118448435 9.497427312286959)"><text x="41.73674111844846" y="15.284922080711791" font-family="Cascadia, Segoe UI Emoji" font-size="15.82904552047823px" fill="#1e1e1e" text-anchor="middle" style="white-space: pre;" direction="ltr" dominant-baseline="alphabetic">Capsule C</text></g><g stroke-linecap="round" transform="translate(10 193.10185592140533) rotate(0 93.90644068696412 64.38401451781829)"><path d="M32 0 C66.69 -2.8, 101.46 -0.76, 155.81 0 C176.28 2.82, 187.58 11.18, 187.81 32 C189.17 52.06, 185.07 76.42, 187.81 96.77 C185.39 118.74, 173.93 130.27, 155.81 128.77 C126.85 125.51, 93.84 130.61, 32 128.77 C12.16 129.98, 0.98 115.28, 0 96.77 C-0.84 80.36, 0.08 59.6, 0 32 C-2.74 7.63, 9.74 2.2, 32 0" stroke="none" stroke-width="0" fill="#b2f2bb"></path><path d="M32 0 C77.06 0.38, 117.72 0.34, 155.81 0 M32 0 C66.47 1.51, 100.22 -0.17, 155.81 0 M155.81 0 C177.28 0.68, 189.33 11.99, 187.81 32 M155.81 0 C178.55 -0.17, 186.32 8.87, 187.81 32 M187.81 32 C186.34 55.69, 186.98 79.65, 187.81 96.77 M187.81 32 C187.01 51.36, 186.96 73.21, 187.81 96.77 M187.81 96.77 C187.02 118.03, 177.75 130.16, 155.81 128.77 M187.81 96.77 C188.13 118.88, 179.08 129.22, 155.81 128.77 M155.81 128.77 C121.12 128.15, 87.58 128.03, 32 128.77 M155.81 128.77 C124.56 129.28, 93.32 129.3, 32 128.77 M32 128.77 C8.86 128.11, -0.36 117.66, 0 96.77 M32 128.77 C11.4 130.7, 1.93 117.86, 0 96.77 M0 96.77 C0.51 72.4, 0.11 47.65, 0 32 M0 96.77 C-0.58 77.65, 0 58.83, 0 32 M0 32 C0.24 10.45, 10.2 -0.59, 32 0 M0 32 C0 8.57, 10.86 0.72, 32 0" stroke="#1e1e1e" stroke-width="2" fill="none"></path></g><g transform="translate(43.683052015089174 198.10185592140533) rotate(0 60.223388671875 9.497427312286959)"><text x="60.223388671875" y="15.284922080711791" font-family="Cascadia, Segoe UI Emoji" font-size="15.82904552047823px" fill="#1e1e1e" text-anchor="middle" style="white-space: pre;" direction="ltr" dominant-baseline="alphabetic">Environment A</text></g><g stroke-linecap="round" transform="translate(42.54552605112622 238.9579490559729) rotate(53.4843221349704 13.002430248964288 13.002430248964288)"><path d="M15.55 0.62 C18.19 0.93, 21.59 2.79, 23.33 4.86 C25.06 6.94, 26.09 10.3, 25.97 13.09 C25.86 15.88, 24.44 19.52, 22.63 21.59 C20.83 23.66, 17.9 25.12, 15.14 25.51 C12.38 25.91, 8.46 25.36, 6.05 23.95 C3.64 22.54, 1.53 19.73, 0.67 17.08 C-0.19 14.42, -0.12 10.61, 0.89 8.01 C1.91 5.42, 4.22 2.77, 6.75 1.52 C9.28 0.27, 14.3 0.63, 16.08 0.53 C17.85 0.43, 17.41 0.7, 17.41 0.9 M12.6 -0.18 C15.43 -0.39, 19.52 0.99, 21.73 2.81 C23.94 4.63, 25.48 7.97, 25.86 10.74 C26.25 13.52, 25.33 17.12, 24.04 19.45 C22.75 21.79, 20.73 23.75, 18.12 24.75 C15.51 25.75, 11.16 26.28, 8.37 25.47 C5.58 24.66, 2.86 22.24, 1.38 19.88 C-0.1 17.53, -0.97 14.03, -0.52 11.34 C-0.07 8.64, 1.89 5.5, 4.1 3.71 C6.32 1.92, 11.45 1.11, 12.77 0.58 C14.09 0.06, 11.96 0.41, 12.01 0.58" stroke="none" stroke-width="0" fill="#ced4da"></path><path d="M13.48 0.19 C16.1 0, 18.89 1.3, 20.98 3.13 C23.06 4.97, 25.4 8.42, 25.99 11.21 C26.59 14, 25.99 17.6, 24.55 19.89 C23.1 22.17, 20.07 23.98, 17.33 24.93 C14.59 25.87, 10.66 26.55, 8.08 25.56 C5.5 24.57, 3.23 21.47, 1.85 18.97 C0.47 16.46, -0.64 13.22, -0.2 10.53 C0.23 7.83, 2.15 4.58, 4.45 2.8 C6.76 1.02, 11.98 0.32, 13.63 -0.15 C15.28 -0.61, 14.47 -0.19, 14.37 0 M14.98 0.64 C17.69 0.88, 20.79 2.51, 22.73 4.51 C24.67 6.51, 26.57 9.8, 26.63 12.64 C26.68 15.48, 24.86 19.46, 23.05 21.55 C21.24 23.64, 18.49 24.8, 15.77 25.19 C13.05 25.58, 9.23 25.17, 6.71 23.9 C4.2 22.63, 1.66 19.97, 0.68 17.58 C-0.29 15.19, -0.08 12.2, 0.84 9.56 C1.76 6.92, 3.85 3.36, 6.23 1.75 C8.6 0.14, 13.79 0.15, 15.09 -0.12 C16.39 -0.39, 14.15 -0.1, 14.04 0.13" stroke="#1e1e1e" stroke-width="2" fill="none"></path></g><g stroke-linecap="round" transform="translate(62.082437839820386 224.49312013549797) rotate(53.4843221349704 13.002430248964288 13.002430248964288)"><path d="M15.27 0.05 C17.93 0.21, 21.11 2.1, 22.89 4.22 C24.68 6.35, 25.9 10.03, 25.97 12.82 C26.05 15.6, 25.12 18.79, 23.34 20.94 C21.55 23.09, 18.06 25.15, 15.27 25.72 C12.48 26.29, 9.02 25.74, 6.6 24.36 C4.18 22.97, 1.75 20.02, 0.75 17.4 C-0.24 14.77, -0.26 11.22, 0.61 8.62 C1.49 6.02, 3.43 3.22, 5.99 1.82 C8.54 0.42, 14.24 0.39, 15.95 0.22 C17.66 0.04, 16.33 0.58, 16.25 0.74 M13.1 -0.04 C15.78 -0.23, 19.04 1.26, 21.09 3.01 C23.13 4.76, 24.71 7.84, 25.35 10.46 C25.98 13.08, 26.22 16.25, 24.9 18.7 C23.59 21.16, 20.18 24.07, 17.45 25.2 C14.72 26.34, 11.2 26.34, 8.51 25.51 C5.83 24.68, 2.78 22.54, 1.32 20.24 C-0.13 17.94, -0.71 14.43, -0.21 11.71 C0.3 9, 2.33 5.84, 4.33 3.94 C6.33 2.05, 10.38 0.89, 11.8 0.33 C13.22 -0.23, 12.7 0.38, 12.87 0.58" stroke="none" stroke-width="0" fill="#ced4da"></path><path d="M14.35 0.16 C16.95 0.39, 20.83 2.55, 22.82 4.67 C24.82 6.78, 26.26 10.17, 26.33 12.84 C26.39 15.5, 25.06 18.46, 23.22 20.67 C21.39 22.88, 18.03 25.52, 15.33 26.09 C12.64 26.65, 9.53 25.42, 7.07 24.03 C4.6 22.64, 1.65 20.3, 0.54 17.76 C-0.58 15.22, -0.57 11.47, 0.37 8.81 C1.31 6.16, 3.65 3.31, 6.17 1.83 C8.69 0.34, 14.04 0.16, 15.5 -0.12 C16.96 -0.4, 14.99 -0.06, 14.94 0.17 M12.99 0.25 C15.7 0, 19.81 1.29, 21.9 3.11 C23.99 4.94, 25.15 8.59, 25.55 11.21 C25.96 13.84, 25.7 16.66, 24.33 18.88 C22.96 21.11, 19.98 23.56, 17.32 24.57 C14.67 25.58, 10.93 25.66, 8.38 24.92 C5.83 24.18, 3.36 22.51, 2.02 20.12 C0.68 17.74, -0.14 13.48, 0.34 10.61 C0.82 7.73, 2.91 4.68, 4.89 2.88 C6.87 1.07, 10.9 0.22, 12.21 -0.25 C13.52 -0.71, 12.6 -0.27, 12.75 0.1" stroke="#1e1e1e" stroke-width="2" fill="none"></path></g><g stroke-linecap="round" transform="translate(52.313981945473415 232.57351917718938) rotate(53.4843221349704 13.002430248964288 12.154445667510117)"><path d="M0.84 -0.11 L26.68 -0.32 L26.68 24.46 L-0.27 24.26" stroke="none" stroke-width="0" fill="#868e96"></path><path d="M0 0 C8.65 0.3, 14.85 0, 26 0 M0 0 C8.99 -0.12, 17.05 -0.48, 26 0 M26 0 C25.21 8.83, 25.52 17.79, 26 24.31 M26 0 C25.67 7.15, 25.64 15.54, 26 24.31 M26 24.31 C19.93 24.49, 12.81 25.19, 0 24.31 M26 24.31 C17.7 24.06, 9.22 24, 0 24.31 M0 24.31 C0.75 18.15, -0.28 12.01, 0 0 M0 24.31 C0.02 17.69, 0.27 11.72, 0 0" stroke="#1e1e1e" stroke-width="2" fill="none"></path></g><g transform="translate(23.190871267065404 267.8501264347749) rotate(0 41.736741118448435 9.497427312286959)"><text x="41.73674111844846" y="15.284922080711791" font-family="Cascadia, Segoe UI Emoji" font-size="15.82904552047823px" fill="#1e1e1e" text-anchor="middle" style="white-space: pre;" direction="ltr" dominant-baseline="alphabetic">Capsule A</text></g><g stroke-linecap="round" transform="translate(118.27035288225841 264.3298961603891) rotate(53.4843221349704 13.002430248964288 13.002430248964288)"><path d="M10.94 -0.15 C13.51 -0.79, 16.95 0.16, 19.33 1.6 C21.71 3.04, 24.23 5.89, 25.21 8.49 C26.19 11.09, 26.17 14.59, 25.21 17.21 C24.26 19.83, 21.94 22.75, 19.47 24.2 C17.01 25.64, 13.12 26.34, 10.42 25.87 C7.72 25.4, 5.03 23.49, 3.29 21.37 C1.54 19.26, -0.01 16.01, -0.07 13.18 C-0.13 10.35, 1.07 6.57, 2.91 4.39 C4.76 2.2, 9.57 0.68, 10.98 0.07 C12.4 -0.54, 11.38 0.5, 11.42 0.74 M14.61 -0.31 C17.24 -0.24, 19.99 1.95, 21.79 4.02 C23.6 6.08, 25.26 9.27, 25.46 12.07 C25.65 14.88, 24.52 18.5, 22.94 20.83 C21.36 23.16, 18.55 25.31, 15.97 26.06 C13.4 26.81, 10.08 26.56, 7.5 25.34 C4.91 24.12, 1.59 21.33, 0.48 18.75 C-0.64 16.17, -0.08 12.58, 0.81 9.88 C1.71 7.17, 3.72 4.19, 5.86 2.51 C7.99 0.84, 12.14 0.19, 13.62 -0.15 C15.1 -0.49, 14.65 0.17, 14.72 0.47" stroke="none" stroke-width="0" fill="#ced4da"></path><path d="M15.41 -0.09 C17.92 0.25, 20.9 3.02, 22.69 5.16 C24.48 7.3, 26.2 10.03, 26.16 12.73 C26.11 15.44, 24.31 19.22, 22.42 21.38 C20.53 23.53, 17.48 25.21, 14.81 25.65 C12.14 26.09, 8.69 25.45, 6.41 24.01 C4.12 22.56, 2.09 19.63, 1.08 16.97 C0.08 14.31, -0.61 10.64, 0.36 8.05 C1.34 5.46, 4.33 2.7, 6.94 1.45 C9.55 0.19, 14.37 0.62, 16.04 0.52 C17.7 0.41, 16.95 0.59, 16.93 0.84 M13.65 -0.5 C16.3 -0.74, 19.61 0.93, 21.6 2.85 C23.6 4.78, 25.19 8.08, 25.62 11.03 C26.04 13.98, 25.59 18.21, 24.15 20.57 C22.72 22.92, 19.65 24.47, 17.01 25.17 C14.37 25.87, 11.01 25.82, 8.3 24.75 C5.59 23.67, 2.11 21.16, 0.76 18.7 C-0.59 16.23, -0.58 12.53, 0.19 9.96 C0.96 7.39, 3.04 4.95, 5.38 3.28 C7.73 1.61, 12.81 0.48, 14.27 -0.06 C15.73 -0.6, 14.17 -0.21, 14.14 0.04" stroke="#1e1e1e" stroke-width="2" fill="none"></path></g><g stroke-linecap="round" transform="translate(137.80726467095258 249.86506723991442) rotate(53.4843221349704 13.002430248964288 13.002430248964288)"><path d="M12.18 -0.05 C14.77 -0.3, 18.56 0.97, 20.8 2.63 C23.04 4.29, 24.99 7.18, 25.6 9.88 C26.21 12.58, 25.79 16.31, 24.48 18.83 C23.16 21.35, 20.21 23.89, 17.7 24.98 C15.2 26.07, 12.04 26.17, 9.44 25.37 C6.83 24.58, 3.64 22.57, 2.07 20.2 C0.51 17.83, -0.28 13.93, 0.04 11.14 C0.36 8.35, 1.92 5.26, 4 3.47 C6.07 1.68, 11 0.92, 12.49 0.4 C13.99 -0.13, 12.9 0.22, 12.96 0.33 M13.4 0.18 C15.9 0.28, 19.51 1.79, 21.49 3.74 C23.46 5.69, 24.92 9.07, 25.26 11.9 C25.59 14.73, 24.91 18.35, 23.49 20.71 C22.06 23.07, 19.44 25.31, 16.7 26.07 C13.96 26.82, 9.56 26.39, 7.06 25.22 C4.56 24.06, 2.76 21.58, 1.69 19.07 C0.62 16.55, 0.12 12.91, 0.62 10.12 C1.13 7.33, 2.43 3.97, 4.72 2.31 C7.02 0.66, 12.87 0.47, 14.39 0.18 C15.91 -0.11, 13.9 0.42, 13.83 0.54" stroke="none" stroke-width="0" fill="#ced4da"></path><path d="M14.59 0.52 C17.27 0.74, 21.1 1.96, 22.93 3.97 C24.76 5.99, 25.59 9.76, 25.58 12.59 C25.58 15.42, 24.54 18.79, 22.88 20.96 C21.22 23.12, 18.23 25.07, 15.61 25.6 C12.98 26.12, 9.64 25.47, 7.11 24.1 C4.57 22.73, 1.42 19.97, 0.4 17.39 C-0.63 14.81, -0.01 11.18, 0.96 8.62 C1.94 6.06, 3.7 3.41, 6.24 2.04 C8.79 0.66, 14.46 0.53, 16.23 0.39 C18 0.26, 16.94 1.05, 16.85 1.22 M15.29 -0.36 C17.87 0.02, 21.03 2.15, 22.85 4.51 C24.67 6.87, 26.21 10.99, 26.22 13.79 C26.24 16.59, 24.76 19.34, 22.95 21.31 C21.13 23.28, 18.22 25.18, 15.33 25.61 C12.43 26.04, 8.05 25.31, 5.59 23.88 C3.13 22.45, 1.3 19.52, 0.56 17.03 C-0.19 14.54, -0.02 11.51, 1.12 8.93 C2.25 6.35, 4.88 3.01, 7.37 1.53 C9.86 0.04, 14.6 0.16, 16.04 0.01 C17.47 -0.14, 16.15 0.37, 15.99 0.62" stroke="#1e1e1e" stroke-width="2" fill="none"></path></g><g stroke-linecap="round" transform="translate(128.03880877660538 257.94546628160583) rotate(53.4843221349704 13.002430248964288 12.154445667510117)"><path d="M-0.74 -0.07 L25.77 0.66 L25.27 24.2 L-0.15 24.39" stroke="none" stroke-width="0" fill="#868e96"></path><path d="M0 0 C9.7 -0.73, 18.76 0.66, 26 0 M0 0 C8.46 -0.15, 17 0.18, 26 0 M26 0 C25.12 5.86, 26.63 12.63, 26 24.31 M26 0 C26.11 7.37, 26.46 14.51, 26 24.31 M26 24.31 C18.32 23.99, 11.2 23.93, 0 24.31 M26 24.31 C19.5 24.23, 13.01 24.24, 0 24.31 M0 24.31 C-0.18 19.53, 0.88 14.95, 0 0 M0 24.31 C0.26 17.35, -0.22 10.21, 0 0" stroke="#1e1e1e" stroke-width="2" fill="none"></path></g><g transform="translate(98.91569809819725 293.2220735391911) rotate(0 41.736741118448435 9.497427312286959)"><text x="41.73674111844846" y="15.284922080711791" font-family="Cascadia, Segoe UI Emoji" font-size="15.82904552047823px" fill="#1e1e1e" text-anchor="middle" style="white-space: pre;" direction="ltr" dominant-baseline="alphabetic">Capsule B</text></g><g stroke-linecap="round" transform="translate(298.31475769442545 178.0265744733308) rotate(0 95.47678250447186 64.38401451781829)"><path d="M32 0 C78 -1.02, 117.19 2.15, 158.95 0 C181.54 0.03, 189.1 8.55, 190.95 32 C187.49 46.52, 190.42 60.41, 190.95 96.77 C193.26 121.46, 179.2 129.78, 158.95 128.77 C117.35 127.21, 81.82 129.54, 32 128.77 C12.26 127.38, 0.82 119.4, 0 96.77 C-0.54 79.04, 1.77 61.27, 0 32 C-0.92 10.16, 10.17 -2.98, 32 0" stroke="none" stroke-width="0" fill="#b2f2bb"></path><path d="M32 0 C77.87 2.21, 124.13 0.16, 158.95 0 M32 0 C81.16 -0.16, 129.72 -0.15, 158.95 0 M158.95 0 C180.68 -1.24, 191.87 11.47, 190.95 32 M158.95 0 C182.43 -2.11, 193.11 12.14, 190.95 32 M190.95 32 C190.78 55.05, 192.77 76.51, 190.95 96.77 M190.95 32 C190.88 55.56, 191.73 77.94, 190.95 96.77 M190.95 96.77 C192.91 118.48, 179.78 130.19, 158.95 128.77 M190.95 96.77 C190.71 120.19, 180.9 130.43, 158.95 128.77 M158.95 128.77 C124.02 130.2, 90.83 130.45, 32 128.77 M158.95 128.77 C130.06 128.29, 102.35 128.01, 32 128.77 M32 128.77 C12.32 129.12, -0.31 116.48, 0 96.77 M32 128.77 C12.02 127.52, -0.2 116.18, 0 96.77 M0 96.77 C-1.52 76.21, -0.23 56.68, 0 32 M0 96.77 C0.31 80.13, 0.67 62.02, 0 32 M0 32 C-0.24 11.55, 9.24 1.56, 32 0 M0 32 C-1.32 10.76, 9.94 0.32, 32 0" stroke="#1e1e1e" stroke-width="2" fill="none"></path></g><g transform="translate(333.56815152702234 183.0265744733308) rotate(0 60.223388671875 9.497427312286959)"><text x="60.223388671875" y="15.284922080711791" font-family="Cascadia, Segoe UI Emoji" font-size="15.82904552047823px" fill="#1e1e1e" text-anchor="middle" style="white-space: pre;" direction="ltr" dominant-baseline="alphabetic">Environment B</text></g><g stroke-linecap="round" transform="translate(331.8368400633142 249.2546147123146) rotate(53.4843221349704 13.002430248964288 13.002430248964288)"><path d="M15.61 0.29 C18.3 0.74, 21.75 2.99, 23.43 5.17 C25.1 7.35, 25.74 10.68, 25.66 13.37 C25.57 16.06, 24.64 19.29, 22.9 21.32 C21.17 23.36, 18.02 25.16, 15.23 25.59 C12.44 26.01, 8.57 25.27, 6.16 23.89 C3.74 22.5, 1.53 19.92, 0.71 17.28 C-0.1 14.64, 0.21 10.7, 1.29 8.04 C2.36 5.38, 4.73 2.56, 7.14 1.32 C9.55 0.08, 14.13 0.7, 15.73 0.61 C17.32 0.51, 16.72 0.64, 16.7 0.76 M9.8 0.27 C12.37 -0.53, 16.56 0.08, 19.2 1.54 C21.83 2.99, 24.63 6.36, 25.61 9.01 C26.59 11.65, 26.06 14.98, 25.08 17.41 C24.1 19.84, 22.14 22.32, 19.73 23.6 C17.33 24.89, 13.44 25.5, 10.67 25.13 C7.89 24.76, 4.82 23.31, 3.1 21.39 C1.39 19.46, 0.47 16.33, 0.38 13.6 C0.29 10.87, 0.86 7.25, 2.58 5.02 C4.31 2.79, 9.5 1.02, 10.76 0.24 C12.01 -0.53, 10.17 0.09, 10.13 0.36" stroke="none" stroke-width="0" fill="#ced4da"></path><path d="M14.03 0.55 C16.7 0.64, 20.73 2.29, 22.76 4.24 C24.8 6.19, 26.13 9.47, 26.23 12.28 C26.32 15.08, 24.96 18.8, 23.32 21.07 C21.69 23.34, 19.05 25.25, 16.4 25.9 C13.75 26.56, 9.97 26.34, 7.44 25 C4.9 23.67, 2.27 20.49, 1.19 17.9 C0.12 15.31, 0.16 11.99, 0.99 9.44 C1.81 6.9, 3.81 4.22, 6.14 2.64 C8.46 1.07, 13.37 0.38, 14.93 0 C16.49 -0.37, 15.46 0.13, 15.49 0.39 M15.18 0.22 C17.95 0.54, 21.73 3.33, 23.65 5.38 C25.58 7.42, 26.83 9.89, 26.74 12.5 C26.64 15.1, 25.11 18.75, 23.09 21 C21.07 23.25, 17.44 25.46, 14.63 25.99 C11.82 26.52, 8.43 25.6, 6.22 24.19 C4.01 22.77, 2.3 20.23, 1.38 17.51 C0.46 14.79, -0.24 10.57, 0.69 7.87 C1.63 5.17, 4.58 2.68, 7.01 1.29 C9.44 -0.09, 13.86 -0.24, 15.27 -0.42 C16.68 -0.59, 15.49 0.03, 15.46 0.24" stroke="#1e1e1e" stroke-width="2" fill="none"></path></g><g stroke-linecap="round" transform="translate(351.3737518520081 234.78978579183945) rotate(53.4843221349704 13.002430248964288 13.002430248964288)"><path d="M11.82 0.27 C14.38 -0.19, 17.6 0.69, 19.91 2.15 C22.23 3.61, 24.82 6.4, 25.72 9.04 C26.61 11.68, 26.44 15.4, 25.28 17.98 C24.12 20.56, 21.3 23.21, 18.74 24.52 C16.19 25.83, 12.6 26.52, 9.95 25.86 C7.3 25.2, 4.45 22.87, 2.85 20.55 C1.24 18.22, 0.23 14.63, 0.3 11.9 C0.36 9.18, 1.22 6.19, 3.22 4.21 C5.22 2.23, 10.76 0.74, 12.29 0.04 C13.81 -0.67, 12.44 -0.23, 12.36 -0.03 M15.8 0.25 C18.61 0.78, 22.17 3.57, 23.83 5.83 C25.49 8.1, 25.98 11.26, 25.76 13.84 C25.55 16.42, 24.46 19.41, 22.55 21.3 C20.64 23.19, 17.08 24.77, 14.3 25.18 C11.52 25.59, 8.08 25.09, 5.86 23.76 C3.63 22.43, 1.82 19.79, 0.96 17.19 C0.1 14.58, -0.34 10.77, 0.72 8.14 C1.78 5.52, 4.86 2.76, 7.32 1.44 C9.78 0.11, 14.09 0.27, 15.47 0.18 C16.84 0.1, 15.51 0.57, 15.57 0.92" stroke="none" stroke-width="0" fill="#ced4da"></path><path d="M16.32 0.53 C19.05 0.91, 22.09 3.03, 23.68 5.29 C25.27 7.55, 26 11.27, 25.86 14.08 C25.72 16.9, 24.68 20.14, 22.84 22.18 C20.99 24.21, 17.57 26.05, 14.76 26.29 C11.95 26.52, 8.27 25.16, 5.98 23.59 C3.68 22.02, 1.76 19.42, 0.99 16.88 C0.22 14.34, 0.32 10.95, 1.36 8.34 C2.41 5.74, 4.64 2.57, 7.26 1.26 C9.88 -0.05, 15.31 0.51, 17.06 0.49 C18.82 0.47, 17.83 0.95, 17.77 1.15 M16.24 0.94 C19.02 1.2, 22.26 2.33, 23.92 4.33 C25.57 6.33, 26.47 10.02, 26.18 12.93 C25.89 15.84, 24.09 19.65, 22.18 21.8 C20.27 23.95, 17.26 25.42, 14.7 25.83 C12.14 26.23, 9.18 25.77, 6.82 24.22 C4.46 22.66, 1.46 19.24, 0.55 16.51 C-0.36 13.78, 0.32 10.41, 1.35 7.82 C2.38 5.22, 4.34 2.24, 6.74 0.94 C9.15 -0.35, 14.31 0.21, 15.77 0.04 C17.24 -0.14, 15.58 -0.35, 15.53 -0.13" stroke="#1e1e1e" stroke-width="2" fill="none"></path></g><g stroke-linecap="round" transform="translate(341.60529595766116 242.87018483353108) rotate(53.4843221349704 13.002430248964288 12.154445667510117)"><path d="M0.83 -0.37 L25.58 -0.13 L26.04 24.7 L0.39 23.63" stroke="none" stroke-width="0" fill="#868e96"></path><path d="M0 0 C8.07 0.82, 18.63 0.24, 26 0 M0 0 C9.41 0.41, 18.42 0.28, 26 0 M26 0 C26.93 9.39, 26.63 19.16, 26 24.31 M26 0 C25.92 8.21, 26.11 15.87, 26 24.31 M26 24.31 C18.86 25.13, 12.58 25.26, 0 24.31 M26 24.31 C19.87 24.35, 14.33 24.21, 0 24.31 M0 24.31 C-0.83 15.6, -0.57 5.62, 0 0 M0 24.31 C-0.04 18.62, 0.05 13.68, 0 0" stroke="#1e1e1e" stroke-width="2" fill="none"></path></g><g transform="translate(312.48218527925314 278.14679209111637) rotate(0 41.736741118448435 9.497427312286959)"><text x="41.73674111844846" y="15.284922080711791" font-family="Cascadia, Segoe UI Emoji" font-size="15.82904552047823px" fill="#1e1e1e" text-anchor="middle" style="white-space: pre;" direction="ltr" dominant-baseline="alphabetic">Capsule B</text></g><g stroke-linecap="round" transform="translate(407.2132473036868 220.3603252701721) rotate(53.4843221349704 13.002430248964288 13.002430248964288)"><path d="M13.01 -0.28 C15.61 -0.49, 18.95 0.83, 21.08 2.64 C23.21 4.45, 25.18 7.87, 25.8 10.6 C26.42 13.34, 26.09 16.67, 24.8 19.05 C23.51 21.42, 20.79 23.78, 18.08 24.87 C15.36 25.95, 11.17 26.41, 8.51 25.57 C5.85 24.73, 3.55 22.3, 2.11 19.84 C0.68 17.38, -0.43 13.6, -0.12 10.83 C0.19 8.06, 1.71 5.1, 3.96 3.22 C6.22 1.34, 11.84 0.04, 13.4 -0.46 C14.96 -0.96, 13.39 -0.13, 13.3 0.21 M16.01 -0.17 C18.61 0.12, 21.46 2.23, 23.1 4.53 C24.74 6.82, 25.92 10.64, 25.87 13.59 C25.83 16.55, 24.77 20.18, 22.83 22.26 C20.89 24.35, 17 25.82, 14.21 26.09 C11.43 26.35, 8.47 25.44, 6.12 23.86 C3.77 22.27, 1.02 19.19, 0.14 16.58 C-0.74 13.97, -0.39 10.61, 0.82 8.19 C2.04 5.77, 4.91 3.39, 7.41 2.07 C9.91 0.74, 14.41 0.59, 15.82 0.25 C17.22 -0.1, 15.79 -0.17, 15.85 -0.02" stroke="none" stroke-width="0" fill="#ced4da"></path><path d="M13.72 0.26 C16.43 0.17, 19.83 1.88, 21.87 3.64 C23.91 5.39, 25.54 8.09, 25.98 10.81 C26.43 13.53, 25.96 17.44, 24.53 19.95 C23.11 22.45, 20.12 24.99, 17.42 25.82 C14.72 26.66, 10.91 26.08, 8.33 24.97 C5.75 23.86, 3.2 21.56, 1.93 19.15 C0.66 16.75, 0.16 13.28, 0.72 10.54 C1.27 7.8, 2.98 4.47, 5.27 2.7 C7.57 0.93, 12.9 0.25, 14.49 -0.06 C16.08 -0.38, 14.8 0.5, 14.79 0.81 M9.93 0.42 C12.43 -0.19, 16.42 0.24, 19.06 1.57 C21.69 2.91, 24.72 5.93, 25.74 8.43 C26.77 10.94, 26.12 14.04, 25.19 16.58 C24.27 19.13, 22.55 22.28, 20.18 23.72 C17.8 25.16, 13.74 25.62, 10.95 25.22 C8.15 24.83, 5.21 23.44, 3.39 21.34 C1.56 19.24, 0.05 15.4, -0.02 12.63 C-0.08 9.86, 1.14 6.8, 2.99 4.69 C4.84 2.58, 9.9 0.69, 11.1 -0.03 C12.3 -0.75, 10.27 0.09, 10.21 0.4" stroke="#1e1e1e" stroke-width="2" fill="none"></path></g><g stroke-linecap="round" transform="translate(426.75015909238095 205.8954963496974) rotate(53.4843221349704 13.002430248964288 13.002430248964288)"><path d="M10.71 0.05 C13.23 -0.5, 17.05 0.56, 19.52 1.95 C22 3.34, 24.55 5.85, 25.55 8.38 C26.55 10.92, 26.58 14.5, 25.51 17.18 C24.44 19.86, 21.56 23.02, 19.14 24.46 C16.72 25.9, 13.69 26.38, 10.97 25.82 C8.25 25.26, 4.71 23.25, 2.82 21.11 C0.93 18.97, -0.49 15.8, -0.39 12.99 C-0.28 10.17, 1.5 6.38, 3.45 4.23 C5.4 2.08, 9.91 0.66, 11.31 0.06 C12.71 -0.54, 11.76 0.43, 11.87 0.63 M13.58 -0.69 C16.21 -0.61, 19.81 1.37, 21.93 3.48 C24.05 5.59, 26.05 9.15, 26.31 11.98 C26.57 14.81, 25.06 18.2, 23.49 20.45 C21.91 22.7, 19.55 24.79, 16.85 25.5 C14.15 26.21, 9.93 25.82, 7.3 24.74 C4.67 23.66, 2.18 21.41, 1.07 19.04 C-0.04 16.68, -0.06 13.32, 0.63 10.54 C1.31 7.76, 2.98 4.23, 5.17 2.37 C7.37 0.52, 12.28 -0.17, 13.81 -0.59 C15.35 -1.01, 14.3 -0.38, 14.37 -0.13" stroke="none" stroke-width="0" fill="#ced4da"></path><path d="M15.36 0.54 C17.96 0.72, 21.14 2.18, 22.98 4.25 C24.83 6.33, 26.39 10.09, 26.45 13 C26.51 15.91, 25.18 19.62, 23.36 21.73 C21.53 23.84, 18.23 25.23, 15.5 25.65 C12.78 26.08, 9.36 25.61, 6.99 24.29 C4.62 22.96, 2.27 20.34, 1.29 17.73 C0.31 15.11, 0.18 11.24, 1.09 8.57 C2.01 5.9, 4.36 3.03, 6.77 1.71 C9.19 0.4, 13.96 0.78, 15.56 0.68 C17.17 0.58, 16.5 0.93, 16.39 1.09 M10.98 0.09 C13.77 -0.45, 18.13 0.73, 20.51 2.11 C22.89 3.49, 24.42 5.81, 25.25 8.37 C26.08 10.93, 26.53 14.88, 25.5 17.46 C24.47 20.04, 21.55 22.52, 19.04 23.85 C16.54 25.19, 13.19 26.07, 10.47 25.49 C7.75 24.91, 4.46 22.55, 2.74 20.37 C1.01 18.18, -0.08 15.12, 0.13 12.39 C0.33 9.67, 2.17 6.09, 3.96 4.03 C5.75 1.97, 9.65 0.58, 10.87 0.03 C12.08 -0.53, 11.12 0.53, 11.25 0.68" stroke="#1e1e1e" stroke-width="2" fill="none"></path></g><g stroke-linecap="round" transform="translate(416.981703198034 213.97589539138858) rotate(53.4843221349704 13.002430248964288 12.154445667510117)"><path d="M-0.12 0.44 L25.29 0.78 L25.43 24.35 L-0.32 24.45" stroke="none" stroke-width="0" fill="#868e96"></path><path d="M0 0 C8.83 0.42, 16.65 0.65, 26 0 M0 0 C8.57 0.18, 17.33 -0.02, 26 0 M26 0 C27 6.95, 26.81 13.11, 26 24.31 M26 0 C26.4 9.7, 26.47 18.11, 26 24.31 M26 24.31 C17.81 23.93, 9.1 25.04, 0 24.31 M26 24.31 C18.03 23.93, 9.43 23.78, 0 24.31 M0 24.31 C-0.82 16.63, -0.18 9.47, 0 0 M0 24.31 C0.07 18.11, 0.25 11.18, 0 0" stroke="#1e1e1e" stroke-width="2" fill="none"></path></g><g transform="translate(387.85859251962586 249.2525026489741) rotate(0 41.736741118448464 9.497427312286959)"><text x="41.73674111844846" y="15.284922080711791" font-family="Cascadia, Segoe UI Emoji" font-size="15.82904552047823px" fill="#1e1e1e" text-anchor="middle" style="white-space: pre;" direction="ltr" dominant-baseline="alphabetic">Capsule C</text></g><g stroke-linecap="round"><g transform="translate(181.79539483534938 145.67753303267068) rotate(0 -21.042580354604013 19.786306900597765)"><path d="M-0.58 1.08 C-7.51 7.57, -34.7 32.01, -41.7 38.5 M1.32 0.6 C-5.73 7.24, -34.95 33.26, -42.45 39.48" stroke="#1e1e1e" stroke-width="2" fill="none"></path></g><g transform="translate(181.79539483534938 145.67753303267068) rotate(0 -21.042580354604013 19.786306900597765)"><path d="M-30.28 17.64 C-32.11 24.58, -39.23 29.38, -42.45 39.48 M-30.28 17.64 C-34.16 25.7, -37.87 32.05, -42.45 39.48" stroke="#1e1e1e" stroke-width="2" fill="none"></path></g><g transform="translate(181.79539483534938 145.67753303267068) rotate(0 -21.042580354604013 19.786306900597765)"><path d="M-19.09 30.58 C-24.13 33.69, -34.51 34.73, -42.45 39.48 M-19.09 30.58 C-26.76 34.32, -34.22 36.31, -42.45 39.48" stroke="#1e1e1e" stroke-width="2" fill="none"></path></g></g><mask></mask><g stroke-linecap="round"><g transform="translate(284.1816813368554 146.30566975967395) rotate(0 26.067674170628834 11.306461086055833)"><path d="M0.24 -0.98 C9.12 2.67, 44.02 17.66, 52.62 21.74 M-1.09 1.12 C7.72 4.91, 43.25 19.4, 51.92 22.82" stroke="#1e1e1e" stroke-width="2" fill="none"></path></g><g transform="translate(284.1816813368554 146.30566975967395) rotate(0 26.067674170628834 11.306461086055833)"><path d="M26.94 21.98 C31.5 22.94, 37.88 21.88, 51.92 22.82 M26.94 21.98 C36.75 22.57, 46.05 22.65, 51.92 22.82" stroke="#1e1e1e" stroke-width="2" fill="none"></path></g><g transform="translate(284.1816813368554 146.30566975967395) rotate(0 26.067674170628834 11.306461086055833)"><path d="M33.32 6.11 C36.28 11.02, 41.08 13.9, 51.92 22.82 M33.32 6.11 C40.6 12.64, 47.51 18.65, 51.92 22.82" stroke="#1e1e1e" stroke-width="2" fill="none"></path></g></g><mask></mask></svg>