<svg version="1.1" xmlns="http://www.w3.org/2000/svg" viewBox="0 0 946.2573910778692 525.4346957023029" width="946.2573910778692" height="525.4346957023029" filter="invert(93%) hue-rotate(180deg)">
  <!-- svg-source:excalidraw -->
  
  <defs>
    <style class="style-fonts">
      @font-face {
        font-family: "Virgil";
        src: url("https://excalidraw.com/Virgil.woff2");
      }
      @font-face {
        font-family: "Cascadia";
        src: url("https://excalidraw.com/Cascadia.woff2");
      }
      @font-face {
        font-family: "Assistant";
        src: url("https://excalidraw.com/Assistant-Regular.woff2");
      }
    </style>
    
  </defs>
  <g stroke-linecap="round" transform="translate(10 284.444444444444) rotate(0 212.29536220560112 115.49512562892943)"><path d="M32 0 C164.36 -1.94, 292.31 -3.93, 392.59 0 C416.93 1.11, 423.94 14.1, 424.59 32 C428.23 76.82, 428.27 114.14, 424.59 198.99 C427.57 220.79, 417 228.56, 392.59 230.99 C312.36 233.46, 227.9 235.99, 32 230.99 C7.16 229.72, 2.14 222.37, 0 198.99 C-1.84 158.54, -3.28 121.31, 0 32 C1.54 10.16, 14.26 1.07, 32 0" stroke="none" stroke-width="0" fill="#ffc9c9"></path><path d="M32 0 C140.34 -2.43, 249.18 -0.67, 392.59 0 M32 0 C107.17 -1.66, 181.31 -0.95, 392.59 0 M392.59 0 C414.67 -1.06, 426.22 10.27, 424.59 32 M392.59 0 C413.92 -2.22, 422.49 10.21, 424.59 32 M424.59 32 C422.66 68.05, 422.08 107.44, 424.59 198.99 M424.59 32 C424.93 65.58, 426.6 98.73, 424.59 198.99 M424.59 198.99 C423.12 221.06, 414.24 232.01, 392.59 230.99 M424.59 198.99 C423.63 221.95, 415.54 230.57, 392.59 230.99 M392.59 230.99 C275.61 233.35, 159.66 233.41, 32 230.99 M392.59 230.99 C268.88 229.89, 144.03 231.1, 32 230.99 M32 230.99 C12.03 231.12, -0.04 220.42, 0 198.99 M32 230.99 C11.26 229.41, -1.83 221.37, 0 198.99 M0 198.99 C1.98 155.68, -0.16 115, 0 32 M0 198.99 C-0.16 132.36, -0.41 64.81, 0 32 M0 32 C-0.99 12.02, 10.75 -0.21, 32 0 M0 32 C0.43 11.11, 12.13 -1.36, 32 0" stroke="#1e1e1e" stroke-width="2" fill="none"></path></g><g transform="translate(199.13252040872612 289.444444444444) rotate(0 23.162841796875 9.497427312286959)"><text x="23.162841796875" y="15.284922080711791" font-family="Cascadia, Segoe UI Emoji" font-size="15.82904552047823px" fill="#1e1e1e" text-anchor="middle" style="white-space: pre;" direction="ltr" dominant-baseline="alphabetic">prod1</text></g><g stroke-linecap="round" transform="translate(22.277810407525976 326.66666666666674) rotate(0 151.12866290918623 89.38401451781829)"><path d="M32 0 C104.13 4.46, 175.7 4.68, 270.26 0 C289.44 -0.74, 302.14 10.64, 302.26 32 C303.6 69.93, 301.2 109.55, 302.26 146.77 C300.99 171.32, 293.1 179.46, 270.26 178.77 C176.69 177.42, 81.94 177.63, 32 178.77 C12.49 179.79, 1.35 171.56, 0 146.77 C3.4 114.68, -0.54 84.62, 0 32 C-2.38 8.74, 13.63 -3.02, 32 0" stroke="none" stroke-width="0" fill="#b2f2bb"></path><path d="M32 0 C97.79 0.13, 161.27 -0.55, 270.26 0 M32 0 C96.13 1.28, 160.18 0.9, 270.26 0 M270.26 0 C292.07 -1.06, 301.04 8.97, 302.26 32 M270.26 0 C290.97 0.64, 302.72 11.12, 302.26 32 M302.26 32 C301.91 76.2, 303.81 117.09, 302.26 146.77 M302.26 32 C303.8 66.01, 302.3 99.69, 302.26 146.77 M302.26 146.77 C300.84 167.17, 293.1 177.77, 270.26 178.77 M302.26 146.77 C301.76 170.33, 292.34 179.95, 270.26 178.77 M270.26 178.77 C178.86 176.42, 84.34 177.37, 32 178.77 M270.26 178.77 C201.62 178.55, 131.39 179.09, 32 178.77 M32 178.77 C12.57 179.64, 0.41 167.47, 0 146.77 M32 178.77 C8.52 177.77, -2.27 166.71, 0 146.77 M0 146.77 C-0.65 116.91, -0.36 86.41, 0 32 M0 146.77 C0.92 104.35, 0.44 59.52, 0 32 M0 32 C-0.13 10.55, 11.36 -0.34, 32 0 M0 32 C-0.94 8.51, 8.7 -1.87, 32 0" stroke="#1e1e1e" stroke-width="2" fill="none"></path></g><g transform="translate(117.81565300421221 331.66666666666674) rotate(0 55.5908203125 9.497427312286959)"><text x="55.5908203125" y="15.284922080711791" font-family="Cascadia, Segoe UI Emoji" font-size="15.82904552047823px" fill="#1e1e1e" text-anchor="middle" style="white-space: pre;" direction="ltr" dominant-baseline="alphabetic">production-1</text></g><g stroke-linecap="round"><g transform="translate(376.64382626293104 425.72607178192584) rotate(0 1.147854724009676 29.963498291448104)"><path d="M0 0 C-6.49 3.3, -13.04 7.68, -23.72 11.45 M0 0 C-8.34 3.07, -15.59 6.78, -23.72 11.45 M-23.72 11.45 C-27.47 20.5, -28.24 32.02, -29.25 38.59 M-23.72 11.45 C-25.54 20.63, -28.43 30.69, -29.25 38.59 M-29.25 38.59 C-23.22 44.03, -17.56 51.25, -12.13 59.95 M-29.25 38.59 C-23.7 45.45, -18.74 51.74, -12.13 59.95 M-12.13 59.95 C-4.34 58.32, -0.42 59.49, 14.5 60.57 M-12.13 59.95 C-5.54 59.93, 1.62 59.75, 14.5 60.57 M14.5 60.57 C18.87 56.65, 22.86 52.01, 31.55 38.68 M14.5 60.57 C20.52 54.41, 24.64 46.43, 31.55 38.68 M31.55 38.68 C29.02 31.97, 29.97 21.71, 27.14 13.79 M31.55 38.68 C29.06 29.33, 28.07 21.22, 27.14 13.79 M27.14 13.79 C17.7 8.05, 10.5 4.85, 0.5 -0.64 M27.14 13.79 C19.62 9.08, 11.02 4.63, 0.5 -0.64" stroke="#aaa" stroke-width="4" fill="none"></path></g></g><mask></mask><g stroke-linecap="round"><g transform="translate(377.30293931006645 425.2073669598419) rotate(0 0.26908694383075726 30.182585533013366)" fill-rule="evenodd"><path d="M-1.96 -1.22 L-25.74 10.92 L-29.73 40.28 L-12.4 61.54 L12.63 59.26 L30.06 39.78 L26.28 10.11 L1.47 -1.82" stroke="none" stroke-width="0" fill="#228be6" fill-rule="evenodd"></path><path d="M0 0 C-6.51 4.57, -12.76 5.75, -24.04 11.57 M0 0 C-5.11 1.75, -9.89 5.46, -24.04 11.57 M-24.04 11.57 C-26.74 20.83, -27.08 32.04, -29.87 38.57 M-24.04 11.57 C-26.06 16.57, -26.43 22.32, -29.87 38.57 M-29.87 38.57 C-23.06 45.25, -18.96 53.7, -13.36 60.01 M-29.87 38.57 C-24.2 45.95, -19.58 52.48, -13.36 60.01 M-13.36 60.01 C-5.37 59.71, 4.35 61.51, 13.36 60.37 M-13.36 60.01 C-7.99 59.47, -1.61 59.88, 13.36 60.37 M13.36 60.37 C17.99 56.26, 22.14 50.32, 30.41 38.48 M13.36 60.37 C16.4 55.04, 20.84 50.95, 30.41 38.48 M30.41 38.48 C29.74 28.03, 27.45 19.32, 24.49 11.48 M30.41 38.48 C29.01 32.66, 28.26 26.44, 24.49 11.48 M24.49 11.48 C16.33 7.4, 5.45 0.42, 0 0 M24.49 11.48 C16.36 7.21, 7.27 2.91, 0 0 M0 0 C0 0, 0 0, 0 0 M0 0 C0 0, 0 0, 0 0" stroke="#fff" stroke-width="2" fill="none"></path></g></g><mask></mask><g stroke-linecap="round"><g transform="translate(377.51608310248935 454.1039717321314) rotate(0 -0.11091807191189673 -10.118492668863496)"><path d="M0.36 0.19 C0.28 -3.27, -0.29 -17.21, -0.42 -20.66 M-0.12 -0.19 C-0.29 -3.6, -0.83 -16.86, -0.96 -20.18" stroke="#fff" stroke-width="4" fill="none"></path></g></g><mask></mask><g stroke-linecap="round"><g transform="translate(368.5058739605663 475.27271787128484) rotate(0 3.936114085171994 -8.367621260054534)"><path d="M-0.2 -0.43 C1.01 -3.3, 6.29 -14.27, 7.66 -17.05 M0.69 0.54 C1.79 -2.28, 5.94 -13.64, 7.12 -16.51" stroke="#fff" stroke-width="4" fill="none"></path></g></g><mask></mask><g stroke-linecap="round"><g transform="translate(387.49693995461644 475.36911922150875) rotate(0 -4.460258022485277 -8.358037644186993)"><path d="M-0.21 -0.32 C-1.64 -3.09, -7.39 -14.4, -8.76 -17.09 M0.68 0.71 C-0.79 -1.97, -7.57 -13.57, -9.11 -16.59" stroke="#fff" stroke-width="4" fill="none"></path></g></g><mask></mask><g stroke-linecap="round"><g transform="translate(398.74686448740135 460.3787092617381) rotate(0 -9.436771941059988 -1.7703212363180683)"><path d="M0.16 -0.38 C-2.88 -0.87, -15.29 -2.68, -18.41 -3.29 M-0.43 0.62 C-3.47 -0.02, -15.54 -3.41, -18.6 -4.13" stroke="#fff" stroke-width="4" fill="none"></path></g></g><mask></mask><g stroke-linecap="round"><g transform="translate(356.2629024821688 460.33050858662637) rotate(0 9.479627936913289 -1.8464249717106895)"><path d="M0.47 0.25 C3.65 -0.38, 16.26 -3.5, 19.28 -4.17 M0.04 -0.1 C3.17 -0.65, 15.74 -3.19, 19.01 -3.72" stroke="#fff" stroke-width="4" fill="none"></path></g></g><mask></mask><g stroke-linecap="round"><g transform="translate(360.35995986667217 442.640860820595) rotate(0 7.2850842404566265 5.835261264377436)"><path d="M0.32 -0.48 C2.6 1.41, 11.82 9.48, 14.18 11.57 M-0.18 0.46 C2.24 2.41, 12.83 10.43, 15.21 12.21" stroke="#fff" stroke-width="4" fill="none"></path></g></g><mask></mask><g stroke-linecap="round"><g transform="translate(394.53423852093965 442.3516567699244) rotate(0 -7.567942206436896 5.8399117744243085)"><path d="M-0.39 -0.1 C-2.99 1.98, -12.83 10.17, -15.24 12.05 M0.4 -0.63 C-2.3 1.34, -13.15 9.25, -15.72 11.28" stroke="#fff" stroke-width="4" fill="none"></path></g></g><mask></mask><g stroke-linecap="round" transform="translate(362.35203767400685 441.0198535426864) rotate(0 15.207312997773556 15.2555136728854)"><path d="M17.07 -0.23 C20.17 0.03, 24.07 2.64, 26.24 5.18 C28.41 7.72, 29.88 11.78, 30.06 14.99 C30.24 18.21, 29.26 21.96, 27.34 24.47 C25.43 26.99, 21.8 29.35, 18.57 30.09 C15.34 30.83, 10.85 30.42, 7.95 28.9 C5.05 27.39, 2.35 24.09, 1.2 21.02 C0.05 17.96, 0 13.7, 1.05 10.52 C2.09 7.34, 4.62 3.63, 7.48 1.96 C10.34 0.29, 16.22 0.77, 18.18 0.5 C20.14 0.23, 19.3 0.16, 19.21 0.34 M13.69 -0.25 C16.6 -0.65, 20.94 0.48, 23.57 2.42 C26.2 4.35, 28.65 8.06, 29.46 11.35 C30.28 14.63, 29.76 19.13, 28.47 22.14 C27.18 25.14, 24.55 28.06, 21.72 29.37 C18.89 30.69, 14.62 31.06, 11.49 30.01 C8.36 28.96, 4.73 25.76, 2.93 23.09 C1.13 20.43, 0.43 17.24, 0.66 14.03 C0.9 10.82, 2.04 6.17, 4.33 3.85 C6.63 1.54, 12.7 0.79, 14.43 0.14 C16.17 -0.52, 14.65 -0.38, 14.72 -0.06" stroke="#fff" stroke-width="4" fill="none"></path></g><g stroke-linecap="round" transform="translate(373.17308923660653 451.69630307995044) rotate(0 4.241659409838462 4.5308634605094085)"><path d="M4.04 0.03 C4.91 0.04, 6.01 0.59, 6.76 1.18 C7.52 1.78, 8.35 2.67, 8.58 3.6 C8.8 4.53, 8.6 5.86, 8.11 6.76 C7.62 7.65, 6.53 8.6, 5.65 8.96 C4.77 9.32, 3.67 9.24, 2.85 8.89 C2.03 8.53, 1.16 7.72, 0.72 6.83 C0.29 5.93, 0.09 4.45, 0.22 3.51 C0.36 2.57, 0.81 1.8, 1.53 1.17 C2.25 0.54, 4.12 -0.08, 4.56 -0.28 C5.01 -0.48, 4.25 -0.17, 4.2 -0.01 M3.35 -0.33 C4.2 -0.49, 5.46 -0.05, 6.24 0.56 C7.03 1.17, 7.7 2.36, 8.06 3.34 C8.42 4.32, 8.65 5.56, 8.39 6.44 C8.13 7.33, 7.31 8.32, 6.49 8.66 C5.68 9.01, 4.37 8.71, 3.49 8.51 C2.61 8.32, 1.83 8.27, 1.21 7.52 C0.59 6.76, -0.25 5, -0.23 4 C-0.22 2.99, 0.59 2.18, 1.31 1.48 C2.03 0.77, 3.62 -0.06, 4.09 -0.23 C4.56 -0.4, 4.21 0.29, 4.14 0.46" stroke="#fff" stroke-width="4" fill="none"></path></g><g stroke-linecap="round" transform="translate(62.54552605112622 373.63387091234586) rotate(53.4843221349704 13.002430248964288 13.002430248964288)"><path d="M10.32 0.04 C12.91 -0.64, 17.18 -0.03, 19.63 1.38 C22.07 2.79, 23.94 5.86, 24.98 8.5 C26.01 11.14, 26.64 14.63, 25.83 17.24 C25.02 19.86, 22.58 22.75, 20.13 24.18 C17.68 25.61, 14.01 26.29, 11.14 25.82 C8.28 25.35, 4.76 23.44, 2.96 21.36 C1.16 19.28, 0.37 16.08, 0.34 13.35 C0.31 10.62, 1.03 7.13, 2.78 4.99 C4.53 2.85, 9.51 1.23, 10.85 0.52 C12.19 -0.2, 10.83 0.52, 10.82 0.72 M13.9 0.72 C16.58 0.96, 20.57 2.09, 22.7 3.96 C24.83 5.82, 26.56 9.01, 26.7 11.9 C26.83 14.79, 25.19 18.9, 23.52 21.29 C21.85 23.68, 19.28 25.75, 16.67 26.24 C14.05 26.73, 10.34 25.55, 7.84 24.22 C5.34 22.88, 2.79 20.81, 1.68 18.24 C0.57 15.66, 0.58 11.4, 1.19 8.75 C1.8 6.11, 2.99 3.75, 5.32 2.38 C7.65 1.02, 13.71 0.98, 15.18 0.56 C16.65 0.15, 14.19 -0.12, 14.14 -0.1" stroke="none" stroke-width="0" fill="#ced4da"></path><path d="M13.34 -0.45 C16 -0.49, 20.06 1.59, 22.11 3.62 C24.16 5.65, 25.34 9.01, 25.63 11.74 C25.92 14.47, 25.39 17.81, 23.85 20.01 C22.32 22.22, 19.06 24.18, 16.4 24.96 C13.74 25.73, 10.44 25.61, 7.9 24.64 C5.36 23.67, 2.48 21.64, 1.18 19.14 C-0.13 16.64, -0.53 12.44, 0.06 9.66 C0.65 6.89, 2.5 4.06, 4.71 2.51 C6.93 0.97, 11.8 0.84, 13.37 0.4 C14.94 -0.04, 14.09 -0.36, 14.14 -0.14 M10.24 0.71 C12.83 0, 16.09 0.78, 18.63 1.97 C21.18 3.15, 24.35 5.36, 25.52 7.83 C26.68 10.3, 26.39 14.13, 25.6 16.79 C24.81 19.45, 23.11 22.21, 20.76 23.77 C18.41 25.34, 14.35 26.47, 11.49 26.2 C8.63 25.94, 5.65 24.29, 3.62 22.17 C1.58 20.05, -0.63 16.44, -0.73 13.48 C-0.83 10.52, 1.32 6.48, 3.03 4.41 C4.74 2.34, 8.26 1.67, 9.54 1.04 C10.82 0.41, 10.55 0.53, 10.69 0.63" stroke="#1e1e1e" stroke-width="2" fill="none"></path></g><g stroke-linecap="round" transform="translate(82.08243783982016 359.1690419918707) rotate(53.4843221349704 13.002430248964288 13.002430248964288)"><path d="M11.93 -0.12 C14.54 -0.51, 17.71 0.82, 20.05 2.4 C22.39 3.99, 25.1 6.76, 25.97 9.4 C26.84 12.05, 26.46 15.73, 25.28 18.26 C24.1 20.8, 21.49 23.4, 18.89 24.59 C16.29 25.78, 12.34 26.04, 9.68 25.4 C7.01 24.76, 4.51 22.95, 2.89 20.76 C1.28 18.58, -0.16 15.04, -0.03 12.31 C0.1 9.58, 1.71 6.37, 3.66 4.38 C5.61 2.38, 10.24 1, 11.67 0.36 C13.09 -0.28, 12.11 0.35, 12.21 0.52 M10.02 0.27 C12.77 -0.71, 16.87 -0.39, 19.36 0.92 C21.84 2.24, 23.81 5.47, 24.95 8.16 C26.09 10.86, 26.85 14.57, 26.2 17.1 C25.54 19.63, 23.33 21.86, 21.02 23.35 C18.7 24.84, 15.11 26.33, 12.33 26.04 C9.55 25.74, 6.48 23.55, 4.34 21.58 C2.2 19.61, -0.31 16.84, -0.51 14.23 C-0.72 11.61, 1.44 8.27, 3.09 5.89 C4.75 3.51, 8.23 0.95, 9.43 -0.05 C10.64 -1.04, 10.26 -0.43, 10.33 -0.08" stroke="none" stroke-width="0" fill="#ced4da"></path><path d="M14.43 0.23 C17.08 0.44, 20.02 2.27, 21.92 4.21 C23.83 6.14, 25.65 9.23, 25.86 11.86 C26.06 14.49, 24.77 17.77, 23.18 19.99 C21.58 22.22, 18.94 24.37, 16.28 25.2 C13.62 26.02, 9.79 26.15, 7.24 24.95 C4.69 23.75, 2.17 20.59, 0.97 18.01 C-0.23 15.43, -0.63 12.04, 0.04 9.49 C0.72 6.94, 2.57 4.36, 5.05 2.73 C7.52 1.09, 13.17 -0.01, 14.89 -0.32 C16.62 -0.62, 15.51 0.67, 15.39 0.9 M13.88 0.58 C16.6 0.57, 20.72 1.83, 22.76 3.71 C24.81 5.59, 25.88 9.09, 26.14 11.87 C26.4 14.64, 25.95 18.01, 24.33 20.35 C22.72 22.68, 19.22 25.09, 16.43 25.88 C13.64 26.67, 10.27 26.36, 7.61 25.09 C4.95 23.83, 1.58 20.99, 0.45 18.29 C-0.68 15.58, 0.08 11.4, 0.84 8.85 C1.6 6.31, 2.7 4.49, 5.01 3.04 C7.32 1.58, 13.18 0.55, 14.7 0.1 C16.23 -0.34, 14.23 0.23, 14.15 0.35" stroke="#1e1e1e" stroke-width="2" fill="none"></path></g><g stroke-linecap="round" transform="translate(72.31398194547319 367.24944103356233) rotate(53.4843221349704 13.002430248964288 12.15444566751006)"><path d="M-0.8 0.46 L25.55 -0.21 L25.57 25.12 L-0.41 24.05" stroke="none" stroke-width="0" fill="#868e96"></path><path d="M0 0 C7.77 -0.97, 17.17 0.33, 26 0 M0 0 C6.43 -0.46, 12.39 -0.07, 26 0 M26 0 C25.44 4.54, 25.15 10.76, 26 24.31 M26 0 C25.65 4.81, 26.48 9.4, 26 24.31 M26 24.31 C20.63 23.91, 14.93 25.03, 0 24.31 M26 24.31 C19.15 24.19, 11.42 24.5, 0 24.31 M0 24.31 C-0.27 17.04, -1.03 7.96, 0 0 M0 24.31 C-0.09 14.72, 0.05 4.73, 0 0" stroke="#1e1e1e" stroke-width="2" fill="none"></path></g><g transform="translate(43.19087126706518 402.5260482911474) rotate(0 41.736741118448435 9.497427312286959)"><text x="41.73674111844846" y="15.284922080711791" font-family="Cascadia, Segoe UI Emoji" font-size="15.82904552047823px" fill="#1e1e1e" text-anchor="middle" style="white-space: pre;" direction="ltr" dominant-baseline="alphabetic">Capsule A</text></g><g stroke-linecap="round" transform="translate(133.82590843781395 436.7835957945397) rotate(53.4843221349704 13.002430248964288 13.002430248964288)"><path d="M14.95 0.18 C17.53 0.32, 20.81 2.12, 22.6 4.1 C24.39 6.09, 25.51 9.3, 25.69 12.09 C25.88 14.88, 25.36 18.58, 23.72 20.86 C22.08 23.14, 18.62 25.1, 15.86 25.77 C13.1 26.44, 9.7 26.13, 7.18 24.9 C4.66 23.67, 1.87 20.97, 0.73 18.39 C-0.4 15.81, -0.54 12.15, 0.37 9.43 C1.27 6.72, 3.82 3.73, 6.17 2.11 C8.52 0.49, 12.89 -0.02, 14.49 -0.26 C16.08 -0.51, 15.7 0.26, 15.74 0.63 M12.11 0.68 C14.82 0.04, 18.46 0.27, 20.79 1.71 C23.11 3.15, 25.26 6.67, 26.06 9.31 C26.86 11.96, 26.89 15, 25.61 17.59 C24.32 20.18, 20.82 23.42, 18.34 24.84 C15.86 26.27, 13.39 26.89, 10.71 26.14 C8.03 25.39, 3.95 22.79, 2.25 20.36 C0.55 17.94, 0.33 14.21, 0.49 11.57 C0.66 8.94, 1.34 6.56, 3.24 4.57 C5.13 2.58, 10.44 0.29, 11.86 -0.36 C13.29 -1.01, 11.86 0.4, 11.8 0.67" stroke="none" stroke-width="0" fill="#ced4da"></path><path d="M15.15 -0.19 C17.77 0.12, 21.34 2.29, 23.1 4.57 C24.86 6.86, 25.83 10.77, 25.72 13.54 C25.62 16.3, 24.34 19.12, 22.47 21.15 C20.6 23.18, 17.29 25.16, 14.5 25.71 C11.7 26.26, 7.99 25.95, 5.69 24.44 C3.39 22.93, 1.52 19.29, 0.71 16.65 C-0.11 14.01, -0.14 11.17, 0.8 8.59 C1.75 6.02, 3.82 2.55, 6.38 1.19 C8.95 -0.17, 14.49 0.55, 16.19 0.43 C17.89 0.32, 16.6 0.23, 16.58 0.49 M13.12 -0.14 C15.75 -0.37, 18.89 1.2, 21.01 2.97 C23.13 4.75, 25.38 7.85, 25.84 10.5 C26.31 13.14, 25.04 16.53, 23.8 18.82 C22.56 21.12, 20.93 23.06, 18.39 24.28 C15.84 25.49, 11.17 26.83, 8.53 26.13 C5.9 25.42, 3.97 22.52, 2.56 20.06 C1.15 17.6, -0.21 14.22, 0.09 11.37 C0.4 8.51, 2.44 4.75, 4.39 2.92 C6.35 1.08, 10.53 0.82, 11.81 0.36 C13.09 -0.11, 12.03 -0.15, 12.08 0.11" stroke="#1e1e1e" stroke-width="2" fill="none"></path></g><g stroke-linecap="round" transform="translate(153.3628202265079 422.318766874065) rotate(53.4843221349704 13.002430248964288 13.002430248964288)"><path d="M13.72 -0.03 C16.26 -0.12, 19.46 1.31, 21.54 3.22 C23.63 5.12, 25.85 8.58, 26.24 11.4 C26.63 14.22, 25.43 17.75, 23.88 20.14 C22.33 22.53, 19.64 24.88, 16.94 25.74 C14.24 26.6, 10.29 26.4, 7.67 25.31 C5.05 24.22, 2.42 21.72, 1.23 19.19 C0.05 16.66, -0.01 12.97, 0.56 10.14 C1.13 7.31, 2.23 3.87, 4.64 2.23 C7.05 0.58, 13.22 0.46, 15.02 0.25 C16.81 0.05, 15.54 0.78, 15.41 0.98 M15.89 -0.21 C18.52 -0.01, 21.76 2.59, 23.55 4.7 C25.34 6.81, 26.83 9.63, 26.65 12.44 C26.46 15.25, 24.23 19.26, 22.45 21.57 C20.67 23.87, 18.67 25.89, 15.97 26.27 C13.26 26.65, 8.64 25.42, 6.19 23.84 C3.74 22.26, 2.22 19.24, 1.28 16.77 C0.33 14.31, -0.43 11.63, 0.5 9.05 C1.43 6.48, 4.37 2.74, 6.88 1.32 C9.39 -0.11, 14.18 0.67, 15.54 0.51 C16.9 0.35, 15.22 0.11, 15.06 0.35" stroke="none" stroke-width="0" fill="#ced4da"></path><path d="M12.9 -0.36 C15.58 -0.42, 18.97 1.43, 21.08 3.2 C23.19 4.97, 25.09 7.56, 25.56 10.25 C26.02 12.94, 25.3 16.79, 23.87 19.35 C22.44 21.9, 19.51 24.68, 16.96 25.59 C14.42 26.49, 11.16 25.72, 8.6 24.77 C6.05 23.82, 3.1 22.29, 1.63 19.89 C0.15 17.49, -0.78 13.17, -0.25 10.38 C0.28 7.58, 2.48 4.88, 4.83 3.12 C7.17 1.36, 12.22 0.21, 13.82 -0.2 C15.43 -0.61, 14.53 0.39, 14.46 0.66 M12.86 0.3 C15.41 0.17, 19.29 1.54, 21.32 3.21 C23.34 4.88, 24.44 7.78, 25.02 10.33 C25.59 12.89, 26.09 15.97, 24.77 18.55 C23.45 21.14, 19.68 24.71, 17.11 25.85 C14.53 26.98, 11.85 26.37, 9.31 25.35 C6.77 24.34, 3.35 22.24, 1.86 19.76 C0.36 17.28, 0.02 13.18, 0.35 10.48 C0.68 7.78, 1.84 5.32, 3.85 3.55 C5.86 1.78, 10.98 0.29, 12.41 -0.16 C13.84 -0.6, 12.42 0.66, 12.43 0.87" stroke="#1e1e1e" stroke-width="2" fill="none"></path></g><g stroke-linecap="round" transform="translate(143.59436433216047 430.39916591575616) rotate(53.4843221349704 13.002430248964288 12.154445667510117)"><path d="M0.49 1 L26.2 0.7 L26.17 24.47 L-0.09 23.72" stroke="none" stroke-width="0" fill="#868e96"></path><path d="M0 0 C8.95 -0.91, 19.64 -0.72, 26 0 M0 0 C5.86 -0.33, 12.56 -0.42, 26 0 M26 0 C25.78 9.86, 25.12 17.44, 26 24.31 M26 0 C25.82 8.54, 26.38 16.27, 26 24.31 M26 24.31 C17.38 24.59, 9.57 24.64, 0 24.31 M26 24.31 C17.32 23.79, 7.73 24.76, 0 24.31 M0 24.31 C0.04 15.62, -0.69 5.61, 0 0 M0 24.31 C-0.16 16.31, -0.15 7.38, 0 0" stroke="#1e1e1e" stroke-width="2" fill="none"></path></g><g transform="translate(114.47125365375246 465.67577317334167) rotate(0 41.736741118448435 9.497427312286959)"><text x="41.73674111844846" y="15.284922080711791" font-family="Cascadia, Segoe UI Emoji" font-size="15.82904552047823px" fill="#1e1e1e" text-anchor="middle" style="white-space: pre;" direction="ltr" dominant-baseline="alphabetic">Capsule B</text></g><g stroke-linecap="round" transform="translate(218.09120456707547 390.11152857461923) rotate(53.4843221349704 13.002430248964288 13.002430248964288)"><path d="M11.34 0.19 C13.91 -0.25, 17.86 0.85, 20.16 2.4 C22.46 3.96, 24.37 6.85, 25.14 9.5 C25.9 12.15, 25.77 15.79, 24.77 18.31 C23.78 20.83, 21.69 23.44, 19.16 24.6 C16.63 25.76, 12.29 25.86, 9.6 25.26 C6.91 24.66, 4.66 23.07, 3.05 21 C1.44 18.93, -0.1 15.62, -0.07 12.82 C-0.04 10.02, 1.21 6.27, 3.24 4.21 C5.26 2.16, 10.53 1.09, 12.07 0.52 C13.61 -0.06, 12.55 0.54, 12.47 0.75 M12.87 0.26 C15.52 0.34, 20.22 2.05, 22.33 3.79 C24.43 5.53, 25.15 8.15, 25.51 10.71 C25.88 13.27, 25.97 16.62, 24.52 19.13 C23.07 21.65, 19.44 24.89, 16.79 25.8 C14.13 26.72, 11.08 25.68, 8.59 24.62 C6.1 23.56, 3.27 21.85, 1.87 19.46 C0.47 17.06, -0.28 12.94, 0.17 10.24 C0.62 7.54, 2.3 4.99, 4.56 3.27 C6.83 1.55, 12.14 0.37, 13.74 -0.1 C15.34 -0.56, 14.1 0.26, 14.16 0.49" stroke="none" stroke-width="0" fill="#ced4da"></path><path d="M13.64 -0.12 C16.26 0.07, 19.58 2.2, 21.64 4.11 C23.7 6.02, 25.67 8.55, 25.99 11.33 C26.32 14.1, 25.26 18.46, 23.59 20.77 C21.93 23.07, 18.65 24.48, 16.02 25.17 C13.38 25.86, 10.2 26.04, 7.78 24.91 C5.36 23.78, 2.68 20.85, 1.52 18.38 C0.35 15.91, 0.13 12.72, 0.77 10.08 C1.41 7.44, 3.12 4.12, 5.37 2.53 C7.63 0.94, 12.78 0.89, 14.3 0.54 C15.82 0.2, 14.48 0.28, 14.49 0.44 M14.81 -0.65 C17.49 -0.38, 19.87 2.59, 21.82 4.74 C23.77 6.88, 26.22 9.54, 26.49 12.21 C26.76 14.88, 25.17 18.59, 23.47 20.74 C21.76 22.89, 19.08 24.41, 16.28 25.12 C13.47 25.83, 9.23 26.18, 6.64 25 C4.06 23.83, 1.83 20.58, 0.75 18.07 C-0.32 15.56, -0.59 12.64, 0.2 9.96 C0.98 7.28, 3.05 3.52, 5.48 1.99 C7.91 0.47, 13.29 1.02, 14.8 0.83 C16.31 0.64, 14.61 0.75, 14.55 0.86" stroke="#1e1e1e" stroke-width="2" fill="none"></path></g><g stroke-linecap="round" transform="translate(237.62811635576986 375.6466996541445) rotate(53.4843221349704 13.002430248964288 13.002430248964288)"><path d="M13.24 0.32 C15.85 0.22, 19.11 1.65, 21.17 3.46 C23.24 5.26, 25.08 8.43, 25.63 11.13 C26.17 13.83, 25.89 17.36, 24.43 19.65 C22.96 21.93, 19.41 23.91, 16.82 24.85 C14.22 25.8, 11.38 26.16, 8.84 25.33 C6.3 24.49, 3.06 22.3, 1.58 19.86 C0.11 17.41, -0.6 13.41, -0.02 10.67 C0.57 7.92, 2.74 5.1, 5.1 3.4 C7.45 1.71, 12.62 0.92, 14.1 0.48 C15.58 0.03, 14.04 0.52, 13.98 0.73 M11.47 0.66 C14.08 -0.07, 16.83 0.12, 19.21 1.33 C21.58 2.54, 24.77 5.12, 25.72 7.89 C26.67 10.67, 25.91 15.31, 24.93 17.97 C23.96 20.62, 22.19 22.49, 19.87 23.85 C17.55 25.21, 13.83 26.55, 11 26.11 C8.17 25.67, 4.79 23.33, 2.89 21.21 C0.99 19.1, -0.49 16.21, -0.4 13.42 C-0.32 10.63, 1.42 6.65, 3.41 4.48 C5.41 2.31, 10.21 1.08, 11.57 0.41 C12.93 -0.27, 11.65 0.3, 11.57 0.42" stroke="none" stroke-width="0" fill="#ced4da"></path><path d="M9.32 0.77 C11.92 -0.09, 16.13 -0.37, 18.7 0.85 C21.27 2.06, 23.68 5.5, 24.74 8.05 C25.8 10.61, 25.78 13.54, 25.07 16.17 C24.36 18.8, 22.69 22.24, 20.5 23.83 C18.31 25.43, 14.69 25.97, 11.95 25.73 C9.21 25.5, 6.04 24.36, 4.04 22.42 C2.04 20.48, 0.22 16.84, -0.06 14.08 C-0.33 11.32, 0.72 8.16, 2.41 5.88 C4.1 3.59, 8.68 1.27, 10.09 0.38 C11.49 -0.5, 10.73 0.47, 10.83 0.59 M11.72 0.74 C14.38 0.56, 19 1.1, 21.33 2.66 C23.65 4.22, 25.08 7.48, 25.65 10.1 C26.23 12.72, 26.15 15.84, 24.79 18.38 C23.43 20.91, 20.15 24.16, 17.5 25.31 C14.85 26.46, 11.5 26.05, 8.88 25.28 C6.26 24.51, 3.3 23.05, 1.78 20.71 C0.27 18.37, -0.66 13.98, -0.21 11.24 C0.24 8.5, 2.38 6.04, 4.49 4.25 C6.6 2.47, 11.13 1.19, 12.45 0.54 C13.78 -0.1, 12.47 0.34, 12.44 0.4" stroke="#1e1e1e" stroke-width="2" fill="none"></path></g><g stroke-linecap="round" transform="translate(227.85966046142244 383.7270986958357) rotate(53.4843221349704 13.002430248964288 12.15444566751006)"><path d="M-0.5 0.68 L26.05 -0.11 L26.19 24.5 L0.64 23.72" stroke="none" stroke-width="0" fill="#868e96"></path><path d="M0 0 C7.84 -0.19, 16.29 0.87, 26 0 M0 0 C8.43 -0.42, 15.72 0.21, 26 0 M26 0 C26.77 8.38, 25.89 15.6, 26 24.31 M26 0 C26.2 7.3, 26.22 14.43, 26 24.31 M26 24.31 C19.81 23.6, 16.52 25.06, 0 24.31 M26 24.31 C18.17 23.97, 9.67 24.54, 0 24.31 M0 24.31 C0.84 17.71, -0.23 12.43, 0 0 M0 24.31 C0.06 14.67, -0.07 4.57, 0 0" stroke="#1e1e1e" stroke-width="2" fill="none"></path></g><g transform="translate(198.73654978301442 419.0037059534211) rotate(0 41.736741118448435 9.497427312286959)"><text x="41.73674111844846" y="15.284922080711791" font-family="Cascadia, Segoe UI Emoji" font-size="15.82904552047823px" fill="#1e1e1e" text-anchor="middle" style="white-space: pre;" direction="ltr" dominant-baseline="alphabetic">Capsule C</text></g><g stroke-linecap="round" transform="translate(511.66666666666697 283.33333333333326) rotate(0 212.29536220560112 115.49512562892949)"><path d="M32 0 C121.33 4.17, 210.88 5.45, 392.59 0 C413.76 -0.7, 427.3 10.62, 424.59 32 C427.1 72.65, 427.18 112.73, 424.59 198.99 C423.71 222.86, 412.1 233.62, 392.59 230.99 C271.75 232.04, 150.19 230.95, 32 230.99 C9.29 230.79, 3.25 221.36, 0 198.99 C0.73 140.68, 1.11 77.12, 0 32 C-1.4 10.81, 11.7 3.58, 32 0" stroke="none" stroke-width="0" fill="#ffc9c9"></path><path d="M32 0 C112.08 0.83, 192.8 -0.11, 392.59 0 M32 0 C128.51 1.54, 225.37 1.24, 392.59 0 M392.59 0 C415.82 -1.38, 426.13 12.05, 424.59 32 M392.59 0 C415.23 1.15, 422.53 9.54, 424.59 32 M424.59 32 C427.28 77.08, 424.88 121.29, 424.59 198.99 M424.59 32 C425.11 77.79, 425.17 121.94, 424.59 198.99 M424.59 198.99 C423.14 220.17, 414.14 229.29, 392.59 230.99 M424.59 198.99 C424.36 220.31, 416.07 230.93, 392.59 230.99 M392.59 230.99 C301.68 232.28, 208.97 231.31, 32 230.99 M392.59 230.99 C301.6 232.92, 211.07 233.07, 32 230.99 M32 230.99 C10.5 232.48, -1.12 220.04, 0 198.99 M32 230.99 C10.86 229.53, 0.32 218.06, 0 198.99 M0 198.99 C-1.13 157.99, -1 115.31, 0 32 M0 198.99 C0.21 157.26, -0.64 114.93, 0 32 M0 32 C0.66 11.79, 11.91 -1.07, 32 0 M0 32 C1.97 9.78, 10.32 1.14, 32 0" stroke="#1e1e1e" stroke-width="2" fill="none"></path></g><g transform="translate(700.7991870753931 288.33333333333326) rotate(0 23.162841796875 9.497427312286959)"><text x="23.162841796875" y="15.284922080711791" font-family="Cascadia, Segoe UI Emoji" font-size="15.82904552047823px" fill="#1e1e1e" text-anchor="middle" style="white-space: pre;" direction="ltr" dominant-baseline="alphabetic">prod2</text></g><g stroke-linecap="round" transform="translate(523.944477074193 325.5555555555559) rotate(0 151.1286629091863 89.38401451781829)"><path d="M32 0 C107.4 -3.21, 185.33 -2.66, 270.26 0 C289.47 -0.31, 305.24 13.44, 302.26 32 C303.01 70.27, 302.06 106.1, 302.26 146.77 C303.6 164.74, 290.93 179.94, 270.26 178.77 C178.76 179.72, 92.27 180.76, 32 178.77 C12.89 176.97, 1.45 167.33, 0 146.77 C-1.18 105.72, 1.26 67.98, 0 32 C-2.48 13.31, 12.9 -1.4, 32 0" stroke="none" stroke-width="0" fill="#b2f2bb"></path><path d="M32 0 C103.76 0.42, 175.82 1.27, 270.26 0 M32 0 C122.1 -1.15, 211.26 0.01, 270.26 0 M270.26 0 C292.72 1, 300.47 9.69, 302.26 32 M270.26 0 C290.89 1.62, 303.87 12.41, 302.26 32 M302.26 32 C301.14 66.51, 301.65 102.45, 302.26 146.77 M302.26 32 C302.3 75.85, 303.13 119, 302.26 146.77 M302.26 146.77 C302.06 168.09, 293.46 178.72, 270.26 178.77 M302.26 146.77 C301.19 166.49, 292.92 179.66, 270.26 178.77 M270.26 178.77 C198.43 176.85, 129.74 176.81, 32 178.77 M270.26 178.77 C204.41 179.38, 138.24 178.64, 32 178.77 M32 178.77 C10.83 177.5, 0.28 166.13, 0 146.77 M32 178.77 C9.4 178.2, -0.23 166.32, 0 146.77 M0 146.77 C-0.18 113.54, 2.06 80.6, 0 32 M0 146.77 C0.65 111.59, 0.94 74.74, 0 32 M0 32 C1.72 9.9, 10.37 0.99, 32 0 M0 32 C-1.25 9.01, 8.54 0.83, 32 0" stroke="#1e1e1e" stroke-width="2" fill="none"></path></g><g transform="translate(619.4823196708792 330.5555555555559) rotate(0 55.5908203125 9.497427312286959)"><text x="55.5908203125" y="15.284922080711791" font-family="Cascadia, Segoe UI Emoji" font-size="15.82904552047823px" fill="#1e1e1e" text-anchor="middle" style="white-space: pre;" direction="ltr" dominant-baseline="alphabetic">production-2</text></g><g stroke-linecap="round"><g transform="translate(878.3104929295978 424.614960670815) rotate(0 1.147854724009619 29.963498291448104)"><path d="M0 0 C-4.27 3.51, -10.91 7.39, -23.72 11.45 M0 0 C-4.82 3.31, -11.76 4.97, -23.72 11.45 M-23.72 11.45 C-23.5 18.85, -27.4 25.33, -29.25 38.59 M-23.72 11.45 C-24.61 19.59, -26.04 26.08, -29.25 38.59 M-29.25 38.59 C-27.08 43.23, -21.49 50.16, -12.13 59.95 M-29.25 38.59 C-23.68 45.45, -19.18 50.77, -12.13 59.95 M-12.13 59.95 C-4.41 59.68, -0.82 60.8, 14.5 60.57 M-12.13 59.95 C-4.71 59.8, 3.9 59.49, 14.5 60.57 M14.5 60.57 C19.57 53.59, 23.87 46.79, 31.55 38.68 M14.5 60.57 C18.84 56.26, 23.1 50.73, 31.55 38.68 M31.55 38.68 C31.57 33.18, 28.17 26.88, 27.14 13.79 M31.55 38.68 C29.89 31.48, 28.36 26.05, 27.14 13.79 M27.14 13.79 C18.49 9.02, 11.64 4.81, 0.5 -0.64 M27.14 13.79 C21.51 10.65, 15.11 7.13, 0.5 -0.64" stroke="#aaa" stroke-width="4" fill="none"></path></g></g><mask></mask><g stroke-linecap="round"><g transform="translate(878.969605976733 424.0962558487313) rotate(0 0.2690869438307004 30.182585533013366)" fill-rule="evenodd"><path d="M-1 0.8 L-24.47 12.75 L-30.09 38.01 L-14.14 60.09 L13.94 62.35 L29.03 39.95 L25.73 10.7 L-1.62 -0.64" stroke="none" stroke-width="0" fill="#228be6" fill-rule="evenodd"></path><path d="M0 0 C-6.35 5.36, -15.31 8.37, -24.04 11.57 M0 0 C-9.7 3.9, -17.98 9.36, -24.04 11.57 M-24.04 11.57 C-26.87 20.76, -28.76 31.44, -29.87 38.57 M-24.04 11.57 C-24.93 19.61, -28.04 27.48, -29.87 38.57 M-29.87 38.57 C-24.94 47.11, -19.85 50.97, -13.36 60.01 M-29.87 38.57 C-25.97 42.79, -22.94 47.88, -13.36 60.01 M-13.36 60.01 C-6.39 60.69, 1.53 60.1, 13.36 60.37 M-13.36 60.01 C-3.27 59.54, 6.8 59.33, 13.36 60.37 M13.36 60.37 C16.04 54.89, 20.35 47.72, 30.41 38.48 M13.36 60.37 C18.16 54.89, 21.58 48.93, 30.41 38.48 M30.41 38.48 C27.21 31.24, 25.54 20.23, 24.49 11.48 M30.41 38.48 C27.56 29.37, 26.59 20.39, 24.49 11.48 M24.49 11.48 C16.86 7.12, 5.04 2.69, 0 0 M24.49 11.48 C15.81 7.18, 5.4 3.42, 0 0 M0 0 C0 0, 0 0, 0 0 M0 0 C0 0, 0 0, 0 0" stroke="#fff" stroke-width="2" fill="none"></path></g></g><mask></mask><g stroke-linecap="round"><g transform="translate(879.1827497691561 452.99286062102055) rotate(0 -0.11091807191189673 -10.118492668863496)"><path d="M0.52 -0.38 C0.52 -3.72, 0.27 -16.59, 0.2 -19.86 M0.12 0.61 C0.07 -2.89, 0.02 -17.04, -0.01 -20.63" stroke="#fff" stroke-width="4" fill="none"></path></g></g><mask></mask><g stroke-linecap="round"><g transform="translate(870.172540627233 474.161606760174) rotate(0 3.936114085171994 -8.367621260054534)"><path d="M0.42 0.38 C1.7 -2.3, 7.02 -13.56, 8.18 -16.46 M-0.02 0.1 C1.16 -2.71, 6.5 -14.51, 7.91 -17.29" stroke="#fff" stroke-width="4" fill="none"></path></g></g><mask></mask><g stroke-linecap="round"><g transform="translate(889.1636066212832 474.2580081103979) rotate(0 -4.46025802248522 -8.358037644186993)"><path d="M0.31 0.27 C-1.33 -2.62, -7.85 -14.22, -9.41 -16.99 M-0.19 -0.06 C-1.7 -2.92, -6.88 -13.57, -8.43 -16.42" stroke="#fff" stroke-width="4" fill="none"></path></g></g><mask></mask><g stroke-linecap="round"><g transform="translate(900.4135311540681 459.26759815062724) rotate(0 -9.43677194105993 -1.7703212363180683)"><path d="M-0.49 -0.27 C-3.72 -0.84, -16.04 -2.68, -19.04 -3.15 M0.26 0.78 C-3.08 0.04, -16.41 -3.13, -19.56 -3.92" stroke="#fff" stroke-width="4" fill="none"></path></g></g><mask></mask><g stroke-linecap="round"><g transform="translate(857.9295691488355 459.2193974755155) rotate(0 9.479627936913289 -1.8464249717106895)"><path d="M-0.17 0.39 C3.14 -0.11, 16.15 -2.56, 19.34 -3.28 M0.75 0.11 C4.06 -0.52, 16.13 -3.43, 19.11 -4.03" stroke="#fff" stroke-width="4" fill="none"></path></g></g><mask></mask><g stroke-linecap="round"><g transform="translate(862.0266265333389 441.52974970948435) rotate(0 7.28508424045657 5.835261264377436)"><path d="M0.38 0.42 C2.84 2.26, 12.25 9.58, 14.58 11.43 M-0.08 0.16 C2.32 2.03, 11.82 10.03, 14.15 12" stroke="#fff" stroke-width="4" fill="none"></path></g></g><mask></mask><g stroke-linecap="round"><g transform="translate(896.2009051876066 441.2405456588135) rotate(0 -7.567942206436953 5.8399117744243085)"><path d="M0.01 -0.24 C-2.61 1.61, -12.83 9.53, -15.36 11.51 M-0.65 0.82 C-3.4 2.71, -13.42 10.22, -15.9 12.12" stroke="#fff" stroke-width="4" fill="none"></path></g></g><mask></mask><g stroke-linecap="round" transform="translate(864.0187043406736 439.9087424315758) rotate(0 15.2073129977735 15.2555136728854)"><path d="M15.42 0.34 C18.52 -0.01, 22.39 1.06, 24.84 3.08 C27.29 5.1, 29.58 9.2, 30.11 12.47 C30.64 15.73, 29.63 19.74, 28.05 22.66 C26.46 25.58, 23.57 28.86, 20.59 29.99 C17.61 31.12, 13.31 30.53, 10.18 29.42 C7.04 28.32, 3.42 26.11, 1.79 23.34 C0.16 20.57, -0.14 16.13, 0.39 12.79 C0.92 9.45, 2.49 5.45, 4.96 3.3 C7.43 1.15, 13.31 0.41, 15.21 -0.1 C17.11 -0.62, 16.32 -0.09, 16.33 0.2 M14.77 -0.11 C17.88 -0.48, 22.44 1.09, 25.03 3.08 C27.61 5.07, 29.79 8.58, 30.28 11.84 C30.77 15.11, 29.63 19.82, 27.97 22.68 C26.32 25.54, 23.35 27.94, 20.36 29 C17.36 30.07, 13.15 30.15, 9.98 29.07 C6.8 27.99, 2.92 25.19, 1.32 22.53 C-0.28 19.87, -0.37 16.24, 0.39 13.1 C1.14 9.95, 3.41 5.9, 5.84 3.67 C8.27 1.44, 13.37 0.22, 14.97 -0.27 C16.57 -0.76, 15.32 0.5, 15.43 0.73" stroke="#fff" stroke-width="4" fill="none"></path></g><g stroke-linecap="round" transform="translate(874.8397559032733 450.5851919688398) rotate(0 4.241659409838519 4.5308634605094085)"><path d="M4.68 -0.22 C5.49 -0.21, 6.67 0.68, 7.26 1.41 C7.84 2.14, 8.12 3.15, 8.19 4.17 C8.26 5.18, 8.17 6.73, 7.68 7.49 C7.19 8.26, 6.19 8.55, 5.27 8.77 C4.35 8.99, 2.96 9.2, 2.16 8.8 C1.37 8.4, 0.87 7.34, 0.5 6.38 C0.13 5.42, -0.26 3.98, -0.06 3.03 C0.14 2.09, 0.85 1.23, 1.7 0.71 C2.55 0.2, 4.55 0.04, 5.05 -0.04 C5.56 -0.13, 4.8 0.14, 4.74 0.22 M4.81 -0.28 C5.73 -0.3, 6.85 0.21, 7.42 0.96 C7.98 1.7, 8.18 3.19, 8.2 4.18 C8.23 5.17, 8.08 6.14, 7.57 6.88 C7.07 7.61, 6.11 8.35, 5.15 8.59 C4.19 8.83, 2.61 8.65, 1.82 8.32 C1.04 7.98, 0.66 7.45, 0.44 6.6 C0.22 5.76, 0.25 4.26, 0.47 3.25 C0.7 2.24, 1.06 1.03, 1.8 0.54 C2.54 0.05, 4.39 0.43, 4.93 0.32 C5.48 0.2, 5.03 -0.14, 5.07 -0.14" stroke="#fff" stroke-width="4" fill="none"></path></g><g stroke-linecap="round" transform="translate(564.2121927177932 372.522759801235) rotate(53.4843221349704 13.002430248964288 13.002430248964288)"><path d="M10.44 0.71 C12.95 -0.09, 16.36 0.1, 18.84 1.3 C21.32 2.49, 24.28 5.3, 25.33 7.87 C26.38 10.44, 25.95 13.98, 25.16 16.71 C24.36 19.45, 22.81 22.67, 20.54 24.27 C18.27 25.86, 14.35 26.72, 11.52 26.31 C8.69 25.9, 5.42 23.92, 3.56 21.78 C1.7 19.65, 0.47 16.21, 0.37 13.48 C0.27 10.75, 1.38 7.62, 2.95 5.4 C4.53 3.19, 8.53 0.94, 9.84 0.19 C11.14 -0.56, 10.64 0.63, 10.79 0.88 M11.98 0.52 C14.54 0.04, 17.77 1.02, 20 2.59 C22.23 4.17, 24.58 7.38, 25.37 9.98 C26.16 12.58, 25.93 15.73, 24.75 18.19 C23.57 20.66, 20.77 23.41, 18.3 24.77 C15.83 26.13, 12.69 26.95, 9.95 26.33 C7.22 25.72, 3.47 23.54, 1.9 21.1 C0.32 18.65, 0.3 14.59, 0.51 11.68 C0.71 8.77, 1.31 5.56, 3.13 3.64 C4.95 1.73, 9.95 0.87, 11.44 0.21 C12.92 -0.45, 11.87 -0.6, 12.02 -0.32" stroke="none" stroke-width="0" fill="#ced4da"></path><path d="M15.13 0.23 C17.7 0.56, 20.67 2.33, 22.48 4.52 C24.29 6.71, 25.91 10.62, 26 13.38 C26.09 16.13, 24.84 18.94, 23.01 21.06 C21.18 23.17, 17.71 25.54, 15 26.08 C12.3 26.62, 9.19 25.79, 6.77 24.3 C4.36 22.81, 1.54 19.77, 0.49 17.14 C-0.55 14.52, -0.55 11.11, 0.51 8.54 C1.58 5.96, 4.3 3.01, 6.88 1.67 C9.45 0.33, 14.29 0.64, 15.96 0.5 C17.63 0.36, 16.87 0.69, 16.9 0.83 M12.64 -0.73 C15.2 -0.94, 18.42 0.82, 20.58 2.56 C22.75 4.3, 25 7.04, 25.64 9.71 C26.29 12.38, 25.85 16.07, 24.44 18.57 C23.02 21.06, 19.7 23.47, 17.15 24.68 C14.61 25.9, 11.61 26.62, 9.16 25.84 C6.7 25.06, 3.95 22.47, 2.41 19.99 C0.87 17.5, -0.44 13.63, -0.09 10.93 C0.27 8.23, 2.36 5.66, 4.54 3.77 C6.72 1.88, 11.56 0.24, 13 -0.39 C14.45 -1.02, 13.28 -0.37, 13.19 -0.02" stroke="#1e1e1e" stroke-width="2" fill="none"></path></g><g stroke-linecap="round" transform="translate(583.7491045064871 358.05793088075984) rotate(53.4843221349704 13.002430248964288 13.002430248964288)"><path d="M13.53 -0.09 C16.18 -0.2, 20.14 1.51, 22.15 3.4 C24.16 5.29, 25.22 8.42, 25.6 11.25 C25.97 14.07, 25.83 17.94, 24.39 20.36 C22.96 22.79, 19.7 25.04, 16.98 25.79 C14.26 26.55, 10.6 26.07, 8.07 24.9 C5.55 23.73, 3.06 21.18, 1.83 18.76 C0.59 16.35, 0.21 13.08, 0.67 10.39 C1.13 7.69, 2.37 4.26, 4.61 2.6 C6.85 0.94, 12.47 0.78, 14.12 0.43 C15.76 0.08, 14.57 0.34, 14.49 0.49 M15.54 0.63 C18.09 1.06, 21.49 3.47, 23.22 5.61 C24.94 7.74, 26.07 10.74, 25.91 13.46 C25.74 16.17, 24.08 19.69, 22.23 21.89 C20.38 24.09, 17.62 26.22, 14.82 26.65 C12.02 27.08, 7.72 26.15, 5.42 24.47 C3.12 22.78, 1.87 19.32, 1.04 16.53 C0.2 13.73, -0.53 10.19, 0.42 7.7 C1.37 5.21, 4.14 2.91, 6.76 1.58 C9.38 0.24, 14.55 -0.23, 16.14 -0.31 C17.72 -0.39, 16.29 0.69, 16.26 1.08" stroke="none" stroke-width="0" fill="#ced4da"></path><path d="M10.23 0.16 C12.81 -0.41, 16.93 0.82, 19.42 2.16 C21.91 3.51, 24.26 5.66, 25.18 8.24 C26.09 10.82, 25.8 14.99, 24.9 17.65 C24 20.31, 22.17 22.91, 19.78 24.21 C17.38 25.5, 13.33 25.91, 10.51 25.43 C7.69 24.95, 4.54 23.4, 2.86 21.32 C1.18 19.25, 0.46 15.72, 0.46 12.98 C0.46 10.23, 1.06 6.99, 2.86 4.84 C4.67 2.69, 9.7 0.88, 11.28 0.07 C12.85 -0.73, 12.29 -0.2, 12.3 0.03 M10.53 -0.02 C13.09 -0.58, 17.15 -0.11, 19.61 1.27 C22.06 2.64, 24.44 5.55, 25.24 8.22 C26.04 10.89, 25.38 14.5, 24.42 17.27 C23.46 20.04, 21.73 23.4, 19.49 24.83 C17.24 26.26, 13.77 26.51, 10.97 25.86 C8.17 25.21, 4.49 23.04, 2.7 20.93 C0.91 18.82, 0.09 16.03, 0.25 13.22 C0.41 10.41, 1.75 6.31, 3.64 4.09 C5.53 1.86, 10.38 0.42, 11.59 -0.12 C12.8 -0.67, 11.02 0.62, 10.87 0.79" stroke="#1e1e1e" stroke-width="2" fill="none"></path></g><g stroke-linecap="round" transform="translate(573.9806486121397 366.1383299224515) rotate(53.4843221349704 13.002430248964288 12.15444566751006)"><path d="M-0.92 0.36 L26.18 0.82 L26.74 24.26 L-0.19 25.06" stroke="none" stroke-width="0" fill="#868e96"></path><path d="M0 0 C9.47 0.2, 18.23 -0.01, 26 0 M0 0 C7.55 -0.35, 15.86 0.2, 26 0 M26 0 C25.45 7.03, 26.84 14.26, 26 24.31 M26 0 C25.99 7.08, 25.76 13.35, 26 24.31 M26 24.31 C17 23.77, 9.72 24.23, 0 24.31 M26 24.31 C19.73 23.97, 14.53 24.53, 0 24.31 M0 24.31 C-0.38 15.96, 0.55 7.57, 0 0 M0 24.31 C-0.18 18.56, -0.38 11.97, 0 0" stroke="#1e1e1e" stroke-width="2" fill="none"></path></g><g transform="translate(544.8575379337317 401.41493718003665) rotate(0 41.736741118448435 9.497427312286902)"><text x="41.73674111844846" y="15.284922080711791" font-family="Cascadia, Segoe UI Emoji" font-size="15.82904552047823px" fill="#1e1e1e" text-anchor="middle" style="white-space: pre;" direction="ltr" dominant-baseline="alphabetic">Capsule A</text></g><g stroke-linecap="round" transform="translate(635.4925751044807 435.67248468342905) rotate(53.4843221349704 13.002430248964288 13.002430248964288)"><path d="M13.37 0.39 C16.08 0.28, 19.31 1.71, 21.38 3.41 C23.46 5.11, 25.29 7.95, 25.83 10.58 C26.38 13.21, 25.97 16.74, 24.64 19.21 C23.31 21.68, 20.61 24.4, 17.85 25.39 C15.1 26.38, 10.78 26.05, 8.13 25.14 C5.47 24.23, 3.22 22.3, 1.93 19.94 C0.63 17.57, -0.06 13.76, 0.36 10.94 C0.77 8.13, 2.13 4.84, 4.42 3.04 C6.71 1.24, 12.38 0.65, 14.08 0.16 C15.77 -0.34, 14.63 -0.1, 14.57 0.07 M14.62 0.17 C17.31 0.55, 21.13 2.95, 22.95 5.12 C24.76 7.29, 25.37 10.58, 25.48 13.2 C25.6 15.81, 25.4 18.74, 23.65 20.79 C21.91 22.84, 17.87 24.87, 15 25.5 C12.14 26.14, 8.79 25.98, 6.48 24.59 C4.17 23.2, 2.04 19.68, 1.14 17.14 C0.23 14.61, 0.17 11.85, 1.07 9.39 C1.97 6.94, 4.25 3.93, 6.52 2.4 C8.8 0.88, 13.29 0.46, 14.7 0.24 C16.11 0.02, 14.98 0.77, 14.99 1.09" stroke="none" stroke-width="0" fill="#ced4da"></path><path d="M15.66 0.64 C18.31 1.13, 21.96 3.11, 23.63 5.23 C25.3 7.36, 25.89 10.61, 25.66 13.37 C25.42 16.14, 24 19.75, 22.21 21.83 C20.43 23.9, 17.71 25.44, 14.96 25.8 C12.21 26.16, 8.13 25.51, 5.73 23.99 C3.33 22.47, 1.26 19.42, 0.54 16.68 C-0.17 13.94, 0.35 10.11, 1.44 7.57 C2.53 5.02, 4.65 2.59, 7.1 1.42 C9.56 0.25, 14.62 0.68, 16.17 0.54 C17.71 0.41, 16.41 0.4, 16.38 0.59 M9.77 -0.13 C12.37 -0.63, 16.82 0.67, 19.45 2.09 C22.08 3.51, 24.62 5.94, 25.56 8.41 C26.5 10.89, 26.02 14.26, 25.09 16.95 C24.16 19.64, 22.24 23.14, 19.96 24.56 C17.69 25.98, 14.14 26, 11.45 25.45 C8.77 24.9, 5.77 23.23, 3.84 21.26 C1.92 19.29, 0.12 16.45, -0.11 13.62 C-0.34 10.79, 0.82 6.48, 2.48 4.29 C4.13 2.11, 8.44 1.04, 9.81 0.51 C11.18 -0.02, 10.43 0.95, 10.68 1.11" stroke="#1e1e1e" stroke-width="2" fill="none"></path></g><g stroke-linecap="round" transform="translate(655.0294868931746 421.20765576295435) rotate(53.4843221349704 13.002430248964288 13.002430248964288)"><path d="M12.78 0.4 C15.35 0.09, 18.95 1.1, 21.18 2.74 C23.4 4.38, 25.51 7.43, 26.11 10.21 C26.71 13, 26.24 16.97, 24.77 19.44 C23.29 21.91, 19.88 23.98, 17.25 25.03 C14.62 26.07, 11.52 26.56, 8.99 25.71 C6.45 24.86, 3.56 22.36, 2.05 19.9 C0.55 17.45, -0.51 13.75, -0.04 11 C0.43 8.24, 2.65 5.24, 4.88 3.37 C7.12 1.5, 11.92 0.29, 13.37 -0.25 C14.82 -0.78, 13.6 -0.09, 13.6 0.16 M12.31 0.78 C14.9 0.51, 17.83 1.57, 20.13 3.03 C22.42 4.5, 25.42 6.99, 26.08 9.56 C26.74 12.13, 25.44 15.88, 24.08 18.46 C22.73 21.04, 20.37 23.97, 17.96 25.03 C15.56 26.1, 12.2 25.57, 9.65 24.86 C7.09 24.15, 4.17 22.9, 2.63 20.78 C1.09 18.65, 0.21 14.96, 0.4 12.13 C0.59 9.29, 1.79 5.65, 3.76 3.75 C5.73 1.85, 10.81 1.18, 12.21 0.72 C13.61 0.27, 12.06 0.93, 12.15 1.03" stroke="none" stroke-width="0" fill="#ced4da"></path><path d="M11.69 0.08 C14.3 -0.51, 17.57 0.23, 19.82 1.75 C22.08 3.26, 24.29 6.45, 25.22 9.17 C26.15 11.88, 26.48 15.44, 25.4 18.04 C24.31 20.63, 21.28 23.49, 18.72 24.75 C16.15 26.01, 12.63 26.32, 10 25.61 C7.37 24.9, 4.62 22.71, 2.95 20.49 C1.27 18.27, -0.1 15.01, -0.05 12.29 C0 9.56, 1.28 6.24, 3.23 4.15 C5.18 2.06, 10.08 0.41, 11.66 -0.25 C13.23 -0.9, 12.65 -0.05, 12.69 0.21 M10.88 0.67 C13.64 0.12, 17.55 0.55, 19.91 1.81 C22.26 3.08, 24.07 5.58, 25 8.26 C25.93 10.93, 26.31 15.25, 25.48 17.84 C24.64 20.44, 22.34 22.57, 20 23.85 C17.65 25.13, 14.26 25.87, 11.42 25.52 C8.58 25.18, 4.92 23.93, 2.95 21.75 C0.98 19.58, -0.31 15.3, -0.41 12.49 C-0.51 9.69, 0.46 6.88, 2.33 4.94 C4.21 2.99, 9.35 1.57, 10.84 0.82 C12.34 0.07, 11.32 0.22, 11.31 0.42" stroke="#1e1e1e" stroke-width="2" fill="none"></path></g><g stroke-linecap="round" transform="translate(645.2610309988272 429.2880548046455) rotate(53.4843221349704 13.002430248964288 12.154445667510117)"><path d="M-0.01 -0.59 L25.92 0.83 L26.77 24.42 L0.79 24.38" stroke="none" stroke-width="0" fill="#868e96"></path><path d="M0 0 C9.53 0.64, 20.84 0.04, 26 0 M0 0 C6.01 0.52, 12.12 -0.06, 26 0 M26 0 C26.75 7.36, 25.86 15.93, 26 24.31 M26 0 C25.75 5.62, 25.97 11.11, 26 24.31 M26 24.31 C17.89 24.4, 11.38 24.75, 0 24.31 M26 24.31 C18.07 24.54, 10.12 23.99, 0 24.31 M0 24.31 C0.54 14.38, -0.67 4.63, 0 0 M0 24.31 C0.34 16.11, -0.12 8.34, 0 0" stroke="#1e1e1e" stroke-width="2" fill="none"></path></g><g transform="translate(616.1379203204192 464.56466206223104) rotate(0 41.736741118448435 9.497427312286959)"><text x="41.73674111844846" y="15.284922080711791" font-family="Cascadia, Segoe UI Emoji" font-size="15.82904552047823px" fill="#1e1e1e" text-anchor="middle" style="white-space: pre;" direction="ltr" dominant-baseline="alphabetic">Capsule B</text></g><g stroke-linecap="round" transform="translate(719.7578712337422 389.0004174635086) rotate(53.4843221349704 13.002430248964288 13.002430248964288)"><path d="M12.58 0.21 C15.07 -0.09, 18.07 0.77, 20.27 2.46 C22.48 4.15, 25.05 7.61, 25.81 10.37 C26.57 13.12, 26.11 16.54, 24.81 18.96 C23.5 21.39, 20.5 23.79, 17.99 24.9 C15.49 26.01, 12.35 26.44, 9.76 25.61 C7.17 24.78, 4.05 22.29, 2.47 19.93 C0.89 17.56, -0.03 14.16, 0.28 11.42 C0.6 8.69, 2.27 5.45, 4.35 3.51 C6.42 1.58, 11.21 0.32, 12.74 -0.19 C14.28 -0.71, 13.46 0.22, 13.57 0.42 M14.77 -0.02 C17.27 0.37, 20.8 2.8, 22.71 4.89 C24.62 6.97, 26.13 9.63, 26.23 12.48 C26.33 15.32, 25.08 19.64, 23.29 21.95 C21.5 24.25, 18.33 25.91, 15.48 26.31 C12.63 26.7, 8.63 25.68, 6.2 24.31 C3.76 22.93, 1.75 20.55, 0.86 18.03 C-0.03 15.51, -0.19 11.91, 0.86 9.19 C1.91 6.46, 4.85 3.08, 7.17 1.69 C9.48 0.3, 13.37 1.18, 14.76 0.87 C16.16 0.56, 15.53 -0.35, 15.54 -0.16" stroke="none" stroke-width="0" fill="#ced4da"></path><path d="M10.92 0.13 C13.5 -0.51, 16.77 0.38, 19.13 1.73 C21.5 3.08, 24.02 5.72, 25.12 8.24 C26.21 10.77, 26.6 14.25, 25.69 16.9 C24.78 19.55, 22.18 22.65, 19.68 24.16 C17.18 25.66, 13.53 26.4, 10.71 25.92 C7.89 25.45, 4.54 23.42, 2.74 21.3 C0.93 19.19, -0.08 15.98, -0.12 13.24 C-0.17 10.5, 0.71 7.09, 2.47 4.83 C4.23 2.58, 9.02 0.43, 10.43 -0.3 C11.83 -1.02, 10.75 0.16, 10.89 0.5 M13.62 0.43 C16.39 0.32, 19.96 1.15, 22.11 2.88 C24.26 4.62, 26.2 7.94, 26.51 10.82 C26.82 13.71, 25.6 17.86, 23.96 20.19 C22.32 22.52, 19.43 23.94, 16.69 24.8 C13.95 25.66, 10.02 26.19, 7.51 25.36 C5.01 24.52, 2.8 22.3, 1.69 19.8 C0.57 17.29, 0.3 13.08, 0.82 10.34 C1.33 7.61, 2.7 5.17, 4.79 3.37 C6.88 1.57, 11.95 -0.02, 13.37 -0.44 C14.78 -0.85, 13.21 0.58, 13.3 0.89" stroke="#1e1e1e" stroke-width="2" fill="none"></path></g><g stroke-linecap="round" transform="translate(739.2947830224366 374.5355885430338) rotate(53.4843221349704 13.002430248964288 13.002430248964288)"><path d="M10.89 0.01 C13.46 -0.45, 17.74 0.91, 20.19 2.46 C22.64 4.01, 24.82 6.71, 25.59 9.3 C26.35 11.89, 25.83 15.43, 24.81 18 C23.78 20.56, 21.81 23.46, 19.41 24.7 C17.02 25.94, 13.21 26.09, 10.45 25.44 C7.69 24.78, 4.55 22.95, 2.86 20.77 C1.17 18.59, 0.23 15.13, 0.31 12.33 C0.38 9.53, 1.36 6.01, 3.31 3.99 C5.26 1.96, 10.37 0.86, 12.01 0.18 C13.65 -0.49, 13.06 -0.32, 13.13 -0.08 M11.41 0.22 C14.17 -0.27, 18.16 0, 20.58 1.64 C23 3.27, 25.16 7.14, 25.93 10.01 C26.7 12.88, 26.42 16.39, 25.17 18.86 C23.92 21.33, 20.96 23.59, 18.41 24.83 C15.86 26.07, 12.54 26.87, 9.88 26.29 C7.22 25.7, 4.01 23.69, 2.46 21.31 C0.92 18.93, 0.5 14.8, 0.61 12.01 C0.71 9.21, 1.21 6.65, 3.11 4.55 C5 2.46, 10.57 0.05, 11.95 -0.57 C13.34 -1.19, 11.51 0.39, 11.43 0.82" stroke="none" stroke-width="0" fill="#ced4da"></path><path d="M12.2 0.15 C14.75 -0.15, 18.51 0.96, 20.82 2.57 C23.13 4.18, 25.43 7.06, 26.04 9.79 C26.66 12.52, 25.9 16.4, 24.52 18.94 C23.14 21.48, 20.41 24, 17.77 25.04 C15.14 26.07, 11.35 26, 8.71 25.16 C6.08 24.33, 3.48 22.33, 1.98 20.04 C0.48 17.74, -0.59 14.23, -0.29 11.39 C0.01 8.55, 1.67 4.89, 3.78 3.01 C5.89 1.13, 10.8 0.52, 12.37 0.11 C13.95 -0.3, 13.18 0.37, 13.24 0.55 M12.29 -0.35 C14.98 -0.87, 18.88 0.32, 21.07 2.04 C23.26 3.76, 24.88 7.32, 25.44 9.97 C25.99 12.61, 25.66 15.41, 24.4 17.92 C23.13 20.43, 20.28 23.66, 17.84 25.04 C15.41 26.42, 12.29 26.95, 9.81 26.19 C7.32 25.43, 4.58 22.75, 2.92 20.46 C1.27 18.18, -0.24 15.32, -0.1 12.48 C0.04 9.63, 1.79 5.36, 3.77 3.4 C5.74 1.43, 10.32 1.18, 11.76 0.68 C13.2 0.18, 12.3 0.28, 12.43 0.4" stroke="#1e1e1e" stroke-width="2" fill="none"></path></g><g stroke-linecap="round" transform="translate(729.5263271280892 382.61598758472496) rotate(53.4843221349704 13.002430248964288 12.15444566751006)"><path d="M-0.24 0.7 L25.5 0.73 L26.38 23.37 L-0.18 24.64" stroke="none" stroke-width="0" fill="#868e96"></path><path d="M0 0 C6.67 -0.2, 11.27 0.29, 26 0 M0 0 C7.51 -0.17, 15.61 -0.41, 26 0 M26 0 C25.64 7.53, 25.11 15.19, 26 24.31 M26 0 C25.99 5.89, 26.17 11.2, 26 24.31 M26 24.31 C19.5 24.97, 11.33 25.21, 0 24.31 M26 24.31 C18.93 24.01, 11.94 24.55, 0 24.31 M0 24.31 C-0.15 16.41, 0.65 8.88, 0 0 M0 24.31 C0.4 18.51, 0.41 12.63, 0 0" stroke="#1e1e1e" stroke-width="2" fill="none"></path></g><g transform="translate(700.4032164496812 417.89259484231013) rotate(0 41.736741118448435 9.497427312286902)"><text x="41.73674111844846" y="15.284922080711791" font-family="Cascadia, Segoe UI Emoji" font-size="15.82904552047823px" fill="#1e1e1e" text-anchor="middle" style="white-space: pre;" direction="ltr" dominant-baseline="alphabetic">Capsule C</text></g><g stroke-linecap="round" transform="translate(511.6666666666663 10) rotate(0 212.29536220560112 115.49512562892943)"><path d="M32 0 C130.61 0.48, 233.59 -2.68, 392.59 0 C411.48 -0.27, 424.1 11.58, 424.59 32 C429.54 92.52, 424.39 155.61, 424.59 198.99 C422.62 217.84, 416.35 232.79, 392.59 230.99 C300.24 231.11, 203.98 234.98, 32 230.99 C14.06 228.51, 0.6 218.82, 0 198.99 C2.77 166.77, -0.23 129.22, 0 32 C-2.77 10.18, 12.69 -1.04, 32 0" stroke="none" stroke-width="0" fill="#ffc9c9"></path><path d="M32 0 C126.23 -0.46, 218.03 -2.47, 392.59 0 M32 0 C142.49 0.3, 253.26 1, 392.59 0 M392.59 0 C412.97 -0.48, 425.46 11.6, 424.59 32 M392.59 0 C415.33 -1.13, 425.87 9.91, 424.59 32 M424.59 32 C424.79 80.21, 422.41 123.95, 424.59 198.99 M424.59 32 C423.82 90.48, 423.01 149.06, 424.59 198.99 M424.59 198.99 C424.46 219.04, 413.79 229.45, 392.59 230.99 M424.59 198.99 C426.33 218.72, 413.75 230.08, 392.59 230.99 M392.59 230.99 C301.84 232.11, 212.56 232.26, 32 230.99 M392.59 230.99 C278.72 230.14, 163.63 230.54, 32 230.99 M32 230.99 C12.24 229.32, 0.83 218.6, 0 198.99 M32 230.99 C10.9 231.59, 2.03 218.68, 0 198.99 M0 198.99 C-1.25 151.25, 2.42 103.71, 0 32 M0 198.99 C-1.75 152.68, -1.55 106.46, 0 32 M0 32 C0.99 11.21, 11.03 -0.72, 32 0 M0 32 C0.78 12.22, 10.68 0.87, 32 0" stroke="#1e1e1e" stroke-width="2" fill="none"></path></g><g transform="translate(691.5340503566424 15) rotate(0 32.427978515625 9.497427312286959)"><text x="32.427978515625" y="15.284922080711791" font-family="Cascadia, Segoe UI Emoji" font-size="15.82904552047823px" fill="#1e1e1e" text-anchor="middle" style="white-space: pre;" direction="ltr" dominant-baseline="alphabetic">staging</text></g><g stroke-linecap="round" transform="translate(523.9444770741923 53.33333333333371) rotate(0 91.12866290918635 89.38401451781829)"><path d="M32 0 C73.92 1.08, 120.23 2.27, 150.26 0 C174.46 2.62, 178.79 13.43, 182.26 32 C178.91 54.81, 183.31 84.4, 182.26 146.77 C180.86 164.94, 173.1 181.69, 150.26 178.77 C126.47 178.41, 96.5 179.38, 32 178.77 C7.17 175.89, -1.17 168.46, 0 146.77 C-1.26 106.61, 3.54 66.37, 0 32 C1.42 7.57, 13.87 0.06, 32 0" stroke="none" stroke-width="0" fill="#b2f2bb"></path><path d="M32 0 C77.12 2.14, 121.53 0.41, 150.26 0 M32 0 C63.47 -1.19, 96.33 -0.48, 150.26 0 M150.26 0 C172.82 -0.98, 183.37 10.01, 182.26 32 M150.26 0 C171.15 -1.25, 181.02 11.94, 182.26 32 M182.26 32 C182.52 72.97, 182.02 116.25, 182.26 146.77 M182.26 32 C181.38 67.32, 181.38 103.16, 182.26 146.77 M182.26 146.77 C183.77 166.71, 171.44 177.97, 150.26 178.77 M182.26 146.77 C181.11 168.92, 172.93 177.61, 150.26 178.77 M150.26 178.77 C117.08 179.09, 82.38 180.39, 32 178.77 M150.26 178.77 C113.89 178.86, 76.36 178.84, 32 178.77 M32 178.77 C10.87 179.29, 1.77 166.67, 0 146.77 M32 178.77 C10.28 178.03, 1.32 166.05, 0 146.77 M0 146.77 C-1.58 115.85, 0.53 81.11, 0 32 M0 146.77 C1.32 117.31, 1.01 86.95, 0 32 M0 32 C0.68 12.02, 10.68 0.76, 32 0 M0 32 C-0.5 12.84, 11.36 -1.68, 32 0" stroke="#1e1e1e" stroke-width="2" fill="none"></path></g><g transform="translate(582.6451614677536 58.33333333333371) rotate(0 32.427978515625 9.497427312286959)"><text x="32.427978515625" y="15.284922080711791" font-family="Cascadia, Segoe UI Emoji" font-size="15.82904552047823px" fill="#1e1e1e" text-anchor="middle" style="white-space: pre;" direction="ltr" dominant-baseline="alphabetic">staging</text></g><g stroke-linecap="round"><g transform="translate(878.3104929295973 152.39273844859258) rotate(0 1.147854724009619 29.96349829144816)"><path d="M0 0 C-9.19 3.93, -15.55 7.26, -23.72 11.45 M0 0 C-5.89 2.78, -12.49 6.11, -23.72 11.45 M-23.72 11.45 C-24.31 20.37, -28.24 24.84, -29.25 38.59 M-23.72 11.45 C-25.69 21.08, -28.43 30.8, -29.25 38.59 M-29.25 38.59 C-25.9 46.39, -20.74 50.99, -12.13 59.95 M-29.25 38.59 C-24.32 43.59, -20.61 49.81, -12.13 59.95 M-12.13 59.95 C-5.09 61.76, 3.89 59.75, 14.5 60.57 M-12.13 59.95 C-1.63 59.55, 8.14 60.9, 14.5 60.57 M14.5 60.57 C20.64 53.25, 26.11 43.16, 31.55 38.68 M14.5 60.57 C21.79 52.79, 27.09 42.95, 31.55 38.68 M31.55 38.68 C31.26 33.4, 28.99 28.03, 27.14 13.79 M31.55 38.68 C29.71 30.49, 28.61 19.67, 27.14 13.79 M27.14 13.79 C15.73 8.06, 6.82 3.3, 0.5 -0.64 M27.14 13.79 C17.69 7.26, 6.15 1.7, 0.5 -0.64" stroke="#aaa" stroke-width="4" fill="none"></path></g></g><mask></mask><g stroke-linecap="round"><g transform="translate(878.9696059767325 151.8740336265089) rotate(0 0.2690869438307004 30.182585533013366)" fill-rule="evenodd"><path d="M-1.6 -0.65 L-23.84 12.49 L-31.33 37.44 L-14.91 59.74 L14.49 59.79 L31.19 36.76 L26.26 11.52 L-0.46 -1.17" stroke="none" stroke-width="0" fill="#228be6" fill-rule="evenodd"></path><path d="M0 0 C-5.03 2.21, -13.7 7.2, -24.04 11.57 M0 0 C-7.71 3.57, -16.79 7.36, -24.04 11.57 M-24.04 11.57 C-26.6 16.44, -25.77 23.86, -29.87 38.57 M-24.04 11.57 C-26.61 20.71, -27.86 28.47, -29.87 38.57 M-29.87 38.57 C-26.59 44.58, -21.15 50.01, -13.36 60.01 M-29.87 38.57 C-24.37 46.01, -18.71 53.22, -13.36 60.01 M-13.36 60.01 C-4.55 59.38, 5.26 61.59, 13.36 60.37 M-13.36 60.01 C-7.47 60.57, -0.9 59.68, 13.36 60.37 M13.36 60.37 C16.48 53.63, 24.97 47.2, 30.41 38.48 M13.36 60.37 C17.02 53.8, 21.91 47.48, 30.41 38.48 M30.41 38.48 C27.54 29.73, 27.55 19.62, 24.49 11.48 M30.41 38.48 C28.77 28.68, 27.22 20.75, 24.49 11.48 M24.49 11.48 C18.5 9.26, 14.57 7.49, 0 0 M24.49 11.48 C18.75 8.07, 13.88 5.92, 0 0 M0 0 C0 0, 0 0, 0 0 M0 0 C0 0, 0 0, 0 0" stroke="#fff" stroke-width="2" fill="none"></path></g></g><mask></mask><g stroke-linecap="round"><g transform="translate(879.1827497691556 180.77063839879816) rotate(0 -0.11091807191189673 -10.118492668863496)"><path d="M-0.26 -0.13 C-0.25 -3.54, -0.05 -16.58, 0.02 -19.98 M0.61 -0.68 C0.57 -4.28, -0.18 -17.58, -0.29 -20.81" stroke="#fff" stroke-width="4" fill="none"></path></g></g><mask></mask><g stroke-linecap="round"><g transform="translate(870.1725406272326 201.93938453795158) rotate(0 3.936114085171994 -8.367621260054534)"><path d="M0.24 0.26 C1.65 -2.56, 6.89 -14.14, 8.21 -17.01 M-0.3 -0.09 C1.09 -2.82, 6.57 -13.73, 7.95 -16.45" stroke="#fff" stroke-width="4" fill="none"></path></g></g><mask></mask><g stroke-linecap="round"><g transform="translate(889.1636066212827 202.0357858881755) rotate(0 -4.46025802248522 -8.358037644186993)"><path d="M0.34 -0.27 C-1.14 -3.13, -7.05 -14.11, -8.62 -16.9 M-0.15 0.78 C-1.7 -2.02, -7.34 -13.4, -8.89 -16.29" stroke="#fff" stroke-width="4" fill="none"></path></g></g><mask></mask><g stroke-linecap="round"><g transform="translate(900.4135311540676 187.04537592840484) rotate(0 -9.43677194105993 -1.7703212363180114)"><path d="M0.31 -0.18 C-2.91 -0.77, -15.73 -3.33, -18.98 -3.84 M-0.2 -0.75 C-3.53 -1.25, -16.22 -2.73, -19.46 -3.29" stroke="#fff" stroke-width="4" fill="none"></path></g></g><mask></mask><g stroke-linecap="round"><g transform="translate(857.9295691488351 186.9971752532931) rotate(0 9.479627936913289 -1.8464249717107464)"><path d="M-0.11 -0.3 C2.95 -0.83, 15.43 -2.77, 18.66 -3.39 M-0.82 0.74 C2.39 0.06, 16.42 -3.47, 19.75 -4.2" stroke="#fff" stroke-width="4" fill="none"></path></g></g><mask></mask><g stroke-linecap="round"><g transform="translate(862.0266265333385 169.30752748726195) rotate(0 7.28508424045657 5.835261264377436)"><path d="M-0.29 0.3 C2.21 2.24, 12.54 9.38, 14.93 11.32 M0.55 -0.02 C3.03 2.01, 12.26 10, 14.69 11.84" stroke="#fff" stroke-width="4" fill="none"></path></g></g><mask></mask><g stroke-linecap="round"><g transform="translate(896.2009051876062 169.01832343659112) rotate(0 -7.567942206436953 5.8399117744243085)"><path d="M0.36 -0.35 C-2.19 1.59, -13.01 9.92, -15.64 11.95 M-0.11 0.66 C-2.48 2.41, -12.03 9.15, -14.66 11.13" stroke="#fff" stroke-width="4" fill="none"></path></g></g><mask></mask><g stroke-linecap="round" transform="translate(864.0187043406731 167.68652020935338) rotate(0 15.2073129977735 15.255513672885343)"><path d="M13.28 -0.22 C16.34 -0.83, 20.87 0.54, 23.55 2.35 C26.24 4.16, 28.5 7.44, 29.39 10.63 C30.27 13.81, 30.12 18.45, 28.87 21.47 C27.62 24.49, 24.75 27.34, 21.89 28.75 C19.03 30.15, 14.82 30.55, 11.72 29.9 C8.63 29.25, 5.32 27.4, 3.33 24.84 C1.33 22.28, -0.36 17.83, -0.24 14.51 C-0.11 11.2, 1.73 7.32, 4.07 4.93 C6.41 2.54, 12.13 0.87, 13.79 0.17 C15.44 -0.53, 13.98 0.54, 14 0.76 M18.48 -0.35 C21.47 0.2, 25.05 3.33, 27.14 5.9 C29.24 8.47, 31.18 11.86, 31.07 15.05 C30.97 18.25, 28.7 22.64, 26.52 25.07 C24.33 27.51, 21.18 29.01, 17.95 29.67 C14.72 30.32, 10.05 30.62, 7.15 29 C4.25 27.39, 1.51 23.08, 0.56 19.97 C-0.4 16.86, 0.3 13.4, 1.41 10.33 C2.51 7.26, 4.5 3.34, 7.2 1.57 C9.91 -0.19, 15.75 -0.11, 17.63 -0.24 C19.51 -0.37, 18.42 0.5, 18.49 0.8" stroke="#fff" stroke-width="4" fill="none"></path></g><g stroke-linecap="round" transform="translate(874.8397559032728 178.3629697466174) rotate(0 4.241659409838519 4.5308634605094085)"><path d="M4.44 -0.02 C5.26 -0.03, 6.19 0.4, 6.81 1.09 C7.43 1.77, 8.03 3.11, 8.17 4.07 C8.31 5.03, 8.09 6.08, 7.65 6.84 C7.2 7.6, 6.29 8.29, 5.49 8.65 C4.69 9, 3.7 9.28, 2.84 8.96 C1.99 8.63, 0.82 7.56, 0.36 6.67 C-0.09 5.79, -0.08 4.59, 0.13 3.65 C0.34 2.72, 0.94 1.64, 1.63 1.07 C2.32 0.51, 3.77 0.46, 4.25 0.28 C4.73 0.1, 4.44 -0.06, 4.51 0.01 M3.71 0.17 C4.59 0, 6.19 -0.13, 6.93 0.33 C7.68 0.8, 7.94 2.07, 8.19 2.97 C8.45 3.88, 8.81 4.78, 8.46 5.79 C8.12 6.79, 7 8.5, 6.12 9 C5.24 9.51, 4.02 9.05, 3.19 8.84 C2.36 8.62, 1.75 8.5, 1.15 7.72 C0.54 6.94, -0.39 5.26, -0.46 4.16 C-0.53 3.07, 0 1.8, 0.73 1.14 C1.46 0.47, 3.4 0.38, 3.9 0.18 C4.41 -0.02, 3.76 -0.16, 3.76 -0.05" stroke="#fff" stroke-width="4" fill="none"></path></g><g stroke-linecap="round" transform="translate(564.2121927177925 100.30053757901283) rotate(53.4843221349704 13.002430248964288 13.002430248964288)"><path d="M14.21 -0.28 C16.86 -0.32, 19.8 1.64, 21.74 3.66 C23.69 5.68, 25.47 9, 25.87 11.84 C26.27 14.68, 25.78 18.35, 24.14 20.69 C22.5 23.04, 18.85 25.27, 16.04 25.9 C13.22 26.54, 9.79 25.78, 7.25 24.52 C4.72 23.26, 2.05 20.77, 0.85 18.37 C-0.35 15.97, -0.75 12.81, 0.06 10.13 C0.86 7.44, 3.3 3.88, 5.67 2.25 C8.03 0.61, 12.56 0.67, 14.24 0.32 C15.92 -0.04, 15.7 -0.14, 15.74 0.12 M15.72 -0.37 C18.32 0.02, 21.13 2.6, 22.85 5.02 C24.58 7.44, 26.22 11.39, 26.06 14.14 C25.9 16.89, 23.91 19.58, 21.89 21.53 C19.86 23.47, 16.51 25.47, 13.9 25.82 C11.29 26.17, 8.43 25.26, 6.25 23.63 C4.07 22, 1.58 18.69, 0.83 16.05 C0.08 13.42, 0.71 10.35, 1.74 7.83 C2.78 5.31, 4.54 2.29, 7.02 0.93 C9.51 -0.43, 15.1 -0.14, 16.63 -0.31 C18.16 -0.47, 16.39 -0.27, 16.18 -0.08" stroke="none" stroke-width="0" fill="#ced4da"></path><path d="M10.41 0.17 C12.89 -0.39, 16.7 0.72, 19.11 2.11 C21.52 3.5, 23.88 5.99, 24.87 8.51 C25.85 11.02, 25.89 14.51, 25.03 17.19 C24.17 19.86, 22.11 23.12, 19.69 24.55 C17.27 25.97, 13.27 26.26, 10.51 25.73 C7.75 25.19, 4.87 23.45, 3.13 21.35 C1.39 19.25, 0.14 15.82, 0.09 13.11 C0.04 10.4, 0.95 7.26, 2.83 5.07 C4.71 2.89, 9.79 0.71, 11.36 -0.02 C12.94 -0.74, 12.33 0.43, 12.27 0.7 M10.89 -0.24 C13.41 -1.04, 16.49 -0.02, 18.92 1.25 C21.34 2.52, 24.41 4.66, 25.46 7.39 C26.51 10.13, 26.19 14.92, 25.23 17.66 C24.27 20.39, 21.97 22.33, 19.7 23.8 C17.44 25.27, 14.47 26.88, 11.64 26.49 C8.8 26.1, 4.73 23.7, 2.7 21.45 C0.67 19.2, -0.59 15.69, -0.53 12.99 C-0.47 10.29, 1.27 7.42, 3.08 5.26 C4.9 3.1, 9.12 0.73, 10.36 0.03 C11.61 -0.67, 10.51 0.76, 10.54 1.06" stroke="#1e1e1e" stroke-width="2" fill="none"></path></g><g stroke-linecap="round" transform="translate(583.7491045064864 85.83570865853767) rotate(53.4843221349704 13.002430248964288 13.002430248964288)"><path d="M15.09 0.19 C17.67 0.6, 21.12 2.68, 23 4.91 C24.89 7.13, 26.51 10.71, 26.4 13.54 C26.3 16.37, 24.32 19.88, 22.37 21.88 C20.42 23.87, 17.43 25.17, 14.69 25.5 C11.95 25.84, 8.3 25.21, 5.91 23.9 C3.53 22.59, 1.18 20.24, 0.38 17.62 C-0.42 15.01, 0.12 10.83, 1.09 8.2 C2.07 5.57, 3.7 3.24, 6.21 1.87 C8.72 0.49, 14.53 0.07, 16.15 -0.06 C17.77 -0.18, 15.98 0.9, 15.94 1.11 M12.95 -0.23 C15.66 -0.11, 19.78 1.89, 21.85 3.74 C23.91 5.59, 25.08 8.17, 25.34 10.86 C25.6 13.55, 24.73 17.48, 23.4 19.87 C22.07 22.26, 19.87 24.43, 17.36 25.18 C14.85 25.93, 10.88 25.4, 8.34 24.38 C5.81 23.36, 3.52 21.47, 2.15 19.04 C0.78 16.61, -0.46 12.61, 0.13 9.77 C0.72 6.94, 3.39 3.78, 5.66 2.04 C7.94 0.29, 12.5 -0.26, 13.76 -0.68 C15.02 -1.09, 13.32 -0.77, 13.22 -0.47" stroke="none" stroke-width="0" fill="#ced4da"></path><path d="M12.4 0.38 C15.04 0.17, 18.65 1.22, 20.85 2.87 C23.04 4.52, 24.95 7.49, 25.57 10.28 C26.19 13.07, 25.91 17.14, 24.55 19.61 C23.19 22.07, 20.02 24.12, 17.4 25.06 C14.78 26.01, 11.41 26.15, 8.84 25.27 C6.26 24.39, 3.42 22.1, 1.94 19.78 C0.46 17.47, -0.48 14.17, -0.04 11.38 C0.39 8.59, 2.27 4.88, 4.55 3.05 C6.83 1.22, 12.18 0.82, 13.63 0.4 C15.08 -0.03, 13.4 0.33, 13.26 0.48 M13.72 -0.21 C16.33 -0.23, 20.41 0.85, 22.42 2.94 C24.43 5.02, 25.57 9.44, 25.76 12.28 C25.95 15.13, 25.02 17.73, 23.57 20.03 C22.11 22.33, 19.77 25.33, 17.02 26.09 C14.27 26.85, 9.79 25.91, 7.08 24.6 C4.38 23.29, 1.86 20.64, 0.8 18.22 C-0.25 15.81, -0.03 12.79, 0.74 10.12 C1.52 7.46, 3.22 3.85, 5.44 2.25 C7.67 0.65, 12.7 0.81, 14.1 0.53 C15.5 0.25, 13.92 0.32, 13.83 0.57" stroke="#1e1e1e" stroke-width="2" fill="none"></path></g><g stroke-linecap="round" transform="translate(573.980648612139 93.9161077002293) rotate(53.4843221349704 13.002430248964288 12.15444566751006)"><path d="M0.3 -0.73 L26.76 0.46 L25.37 23.63 L-0.07 24.17" stroke="none" stroke-width="0" fill="#868e96"></path><path d="M0 0 C5.33 -0.06, 11.18 0.77, 26 0 M0 0 C5.74 0.23, 12.27 -0.2, 26 0 M26 0 C26.2 7.08, 25.61 14.62, 26 24.31 M26 0 C26.37 7.22, 26.18 14.85, 26 24.31 M26 24.31 C17.22 24.26, 9.55 25, 0 24.31 M26 24.31 C20.35 24.31, 15.28 24.83, 0 24.31 M0 24.31 C-0.67 19.75, 0.32 14.37, 0 0 M0 24.31 C-0.04 18.09, -0.15 11.96, 0 0" stroke="#1e1e1e" stroke-width="2" fill="none"></path></g><g transform="translate(544.857537933731 129.19271495781436) rotate(0 41.736741118448435 9.497427312286959)"><text x="41.73674111844846" y="15.284922080711791" font-family="Cascadia, Segoe UI Emoji" font-size="15.82904552047823px" fill="#1e1e1e" text-anchor="middle" style="white-space: pre;" direction="ltr" dominant-baseline="alphabetic">Capsule A</text></g><g stroke-linecap="round" transform="translate(624.3814639933694 165.67248468342893) rotate(53.4843221349704 13.002430248964288 13.002430248964288)"><path d="M13.35 0.41 C15.87 0.3, 19.56 1.45, 21.58 3.26 C23.6 5.08, 25.17 8.41, 25.49 11.29 C25.8 14.17, 24.91 18.21, 23.48 20.54 C22.05 22.88, 19.6 24.52, 16.91 25.29 C14.22 26.05, 9.87 26.27, 7.35 25.12 C4.82 23.98, 2.93 20.87, 1.76 18.42 C0.59 15.97, -0.35 13.14, 0.32 10.43 C0.99 7.73, 3.42 3.95, 5.77 2.19 C8.11 0.42, 12.96 0.22, 14.37 -0.15 C15.78 -0.51, 14.29 -0.28, 14.23 -0.02 M13.91 -0.02 C16.72 0.16, 20.8 1.91, 22.86 3.84 C24.93 5.78, 26.07 8.76, 26.28 11.58 C26.48 14.39, 25.85 18.49, 24.11 20.76 C22.38 23.03, 18.57 24.68, 15.85 25.21 C13.13 25.75, 10.21 25.26, 7.79 23.97 C5.36 22.68, 2.54 20.06, 1.28 17.49 C0.02 14.92, -0.48 11.14, 0.22 8.56 C0.93 5.97, 3.25 3.28, 5.54 1.99 C7.83 0.7, 12.45 1.04, 13.96 0.81 C15.47 0.59, 14.43 0.6, 14.58 0.63" stroke="none" stroke-width="0" fill="#ced4da"></path><path d="M12.94 0.29 C15.58 0.11, 18.77 1.11, 20.92 2.81 C23.07 4.51, 25.25 7.72, 25.84 10.49 C26.43 13.25, 25.86 16.88, 24.47 19.39 C23.07 21.9, 20.07 24.59, 17.47 25.56 C14.86 26.52, 11.39 26.08, 8.85 25.17 C6.32 24.26, 3.77 22.43, 2.26 20.1 C0.74 17.77, -0.55 14, -0.26 11.19 C0.04 8.38, 1.78 5.04, 4.03 3.25 C6.28 1.46, 11.73 0.95, 13.24 0.44 C14.76 -0.07, 13.15 -0.01, 13.1 0.18 M9.88 0.13 C12.51 -0.63, 16.92 0.79, 19.33 2.05 C21.73 3.3, 23.38 5.29, 24.3 7.67 C25.23 10.04, 25.53 13.57, 24.88 16.32 C24.23 19.07, 22.64 22.59, 20.41 24.14 C18.18 25.69, 14.28 25.93, 11.5 25.63 C8.72 25.33, 5.62 24.29, 3.71 22.34 C1.8 20.38, 0.22 16.66, 0.02 13.91 C-0.18 11.16, 0.76 8.2, 2.49 5.84 C4.21 3.48, 8.98 0.59, 10.36 -0.23 C11.73 -1.05, 10.82 0.7, 10.75 0.92" stroke="#1e1e1e" stroke-width="2" fill="none"></path></g><g stroke-linecap="round" transform="translate(643.9183757820633 151.20765576295423) rotate(53.4843221349704 13.002430248964288 13.002430248964288)"><path d="M14.96 -0.12 C17.6 0.09, 20.8 2.19, 22.59 4.45 C24.37 6.7, 25.57 10.64, 25.66 13.44 C25.75 16.24, 24.97 19.14, 23.15 21.24 C21.33 23.34, 17.45 25.6, 14.72 26.03 C12 26.47, 9.16 25.23, 6.82 23.86 C4.49 22.5, 1.63 20.48, 0.7 17.86 C-0.22 15.23, 0.29 10.85, 1.29 8.12 C2.28 5.39, 4.27 2.84, 6.67 1.48 C9.07 0.13, 14 0.08, 15.67 -0.01 C17.34 -0.11, 16.63 0.69, 16.69 0.91 M11.59 -0.09 C14.34 -0.71, 17.76 -0.19, 20.17 1.32 C22.58 2.83, 25.24 6.29, 26.03 8.98 C26.82 11.66, 25.94 14.94, 24.89 17.42 C23.84 19.89, 22.12 22.54, 19.72 23.81 C17.33 25.08, 13.41 25.63, 10.53 25.04 C7.65 24.45, 4.26 22.39, 2.46 20.28 C0.65 18.18, -0.35 14.94, -0.29 12.4 C-0.23 9.86, 0.87 7.04, 2.8 5.05 C4.73 3.05, 9.8 1.25, 11.3 0.42 C12.79 -0.42, 11.87 -0.03, 11.77 0.02" stroke="none" stroke-width="0" fill="#ced4da"></path><path d="M11.13 0.02 C13.72 -0.53, 17.73 0.51, 20.13 2.05 C22.53 3.59, 24.74 6.52, 25.51 9.26 C26.29 11.99, 25.86 15.94, 24.78 18.47 C23.7 21, 21.39 23.17, 19.01 24.44 C16.63 25.71, 13.31 26.64, 10.51 26.07 C7.71 25.51, 4.05 23.34, 2.23 21.07 C0.41 18.79, -0.64 15.16, -0.41 12.41 C-0.19 9.67, 1.63 6.68, 3.6 4.61 C5.57 2.53, 10.01 0.65, 11.41 -0.02 C12.81 -0.7, 12.01 0.36, 12.01 0.57 M16.41 0.96 C18.95 1.4, 21.26 2.91, 22.76 4.96 C24.27 7.01, 25.43 10.39, 25.44 13.26 C25.45 16.12, 24.61 20.09, 22.81 22.15 C21 24.22, 17.4 25.28, 14.61 25.65 C11.83 26.02, 8.43 25.8, 6.08 24.35 C3.74 22.91, 1.4 19.62, 0.54 16.98 C-0.32 14.34, -0.23 11.22, 0.91 8.53 C2.06 5.83, 4.81 2.12, 7.42 0.82 C10.04 -0.48, 15.25 0.82, 16.6 0.7 C17.95 0.58, 15.65 -0.03, 15.5 0.1" stroke="#1e1e1e" stroke-width="2" fill="none"></path></g><g stroke-linecap="round" transform="translate(634.1499198877159 159.2880548046454) rotate(53.4843221349704 13.002430248964288 12.15444566751006)"><path d="M0.25 0.8 L26.73 -0.96 L26.77 23.51 L-0.66 23.43" stroke="none" stroke-width="0" fill="#868e96"></path><path d="M0 0 C7.97 0.65, 14.72 -0.1, 26 0 M0 0 C8.3 -0.23, 16.83 0.05, 26 0 M26 0 C25.27 7.08, 25.24 13.43, 26 24.31 M26 0 C26.03 7.76, 26.4 15.4, 26 24.31 M26 24.31 C18.52 24.76, 12.35 23.35, 0 24.31 M26 24.31 C19.52 24.35, 12.62 24.03, 0 24.31 M0 24.31 C0.3 15.98, 0.86 8.38, 0 0 M0 24.31 C-0.41 18.45, -0.13 13.2, 0 0" stroke="#1e1e1e" stroke-width="2" fill="none"></path></g><g transform="translate(605.0268092093079 194.56466206223092) rotate(0 41.736741118448435 9.497427312286959)"><text x="41.73674111844846" y="15.284922080711791" font-family="Cascadia, Segoe UI Emoji" font-size="15.82904552047823px" fill="#1e1e1e" text-anchor="middle" style="white-space: pre;" direction="ltr" dominant-baseline="alphabetic">Capsule B</text></g><g stroke-linecap="round" transform="translate(720.5000326297484 52.77777777777783) rotate(0 55.01755179807526 89.38401451781829)"><path d="M27.51 0 C40.4 1.96, 57.23 0.32, 82.53 0 C102.44 1.03, 109.4 6.49, 110.04 27.51 C111.86 61.71, 114.77 103.82, 110.04 151.26 C109.21 172.2, 103.19 179.44, 82.53 178.77 C68.92 175.93, 53.9 177.47, 27.51 178.77 C12.7 180.66, 0.19 168.5, 0 151.26 C4.11 125.4, 0.47 96.99, 0 27.51 C1.57 7.4, 11.49 -0.28, 27.51 0" stroke="none" stroke-width="0" fill="#b2f2bb"></path><path d="M27.51 0 C42.7 0.96, 60.77 -0.91, 82.53 0 M27.51 0 C44.27 -0.18, 63.03 -0.33, 82.53 0 M82.53 0 C100.71 1.18, 110.03 8.71, 110.04 27.51 M82.53 0 C99.14 -2.14, 108.48 10.75, 110.04 27.51 M110.04 27.51 C111.14 72.07, 110.67 116.47, 110.04 151.26 M110.04 27.51 C110.48 65.73, 110.09 104.05, 110.04 151.26 M110.04 151.26 C110.91 171.38, 101.7 178.2, 82.53 178.77 M110.04 151.26 C109.41 168.34, 101.42 178.36, 82.53 178.77 M82.53 178.77 C71.54 180.1, 59.5 177.21, 27.51 178.77 M82.53 178.77 C65.06 179.51, 47.14 179.33, 27.51 178.77 M27.51 178.77 C8.75 179.04, 1.41 170.04, 0 151.26 M27.51 178.77 C7.28 176.9, 1.87 171.38, 0 151.26 M0 151.26 C1.61 101.33, 1.21 54.63, 0 27.51 M0 151.26 C0.71 107.08, -0.58 62.07, 0 27.51 M0 27.51 C-1.82 7.36, 7.83 0.9, 27.51 0 M0 27.51 C-0.16 7.63, 8.56 -0.04, 27.51 0" stroke="#1e1e1e" stroke-width="2" fill="none"></path></g><g transform="translate(738.4570375528235 57.77777777777783) rotate(0 37.060546875 9.497427312286959)"><text x="37.060546875" y="15.284922080711791" font-family="Cascadia, Segoe UI Emoji" font-size="15.82904552047823px" fill="#1e1e1e" text-anchor="middle" style="white-space: pre;" direction="ltr" dominant-baseline="alphabetic">temp-env</text></g><g stroke-linecap="round" transform="translate(753.4688314267701 132.11735742081203) rotate(53.4843221349704 13.002430248964288 13.002430248964288)"><path d="M12.68 -0.35 C15.3 -0.61, 18.56 1.05, 20.78 2.84 C23 4.63, 25.44 7.66, 26 10.41 C26.56 13.16, 25.55 16.97, 24.15 19.34 C22.74 21.72, 20.06 23.71, 17.55 24.66 C15.04 25.61, 11.69 25.83, 9.1 25.05 C6.51 24.27, 3.51 22.25, 2.02 19.97 C0.53 17.7, -0.29 14.16, 0.17 11.41 C0.63 8.66, 2.69 5.34, 4.77 3.48 C6.85 1.62, 11.15 0.77, 12.64 0.23 C14.13 -0.31, 13.71 0.1, 13.71 0.23 M10.99 0.89 C13.42 0.3, 16.64 0.85, 19.04 2.21 C21.45 3.57, 24.31 6.48, 25.41 9.04 C26.52 11.59, 26.56 14.92, 25.67 17.56 C24.78 20.21, 22.64 23.6, 20.06 24.9 C17.49 26.2, 12.98 25.95, 10.2 25.37 C7.42 24.79, 5.1 23.35, 3.39 21.43 C1.67 19.51, -0.02 16.73, -0.11 13.86 C-0.2 10.99, 0.96 6.39, 2.83 4.22 C4.7 2.05, 9.76 1.6, 11.13 0.87 C12.51 0.14, 11.04 -0.23, 11.08 -0.18" stroke="none" stroke-width="0" fill="#ced4da"></path><path d="M13.81 0.14 C16.57 0.24, 20.52 1.91, 22.57 3.87 C24.62 5.83, 25.94 9.1, 26.1 11.88 C26.26 14.66, 25.11 18.26, 23.53 20.56 C21.94 22.86, 19.29 24.94, 16.59 25.69 C13.9 26.44, 9.99 26.28, 7.37 25.06 C4.76 23.83, 2.05 20.91, 0.9 18.33 C-0.24 15.74, -0.28 12.18, 0.53 9.57 C1.33 6.95, 3.31 4.22, 5.75 2.62 C8.19 1.03, 13.56 0.42, 15.16 0.02 C16.76 -0.37, 15.32 0.05, 15.35 0.26 M11.11 -0.46 C13.7 -1.04, 17.45 0.42, 19.77 1.86 C22.1 3.3, 24.15 5.6, 25.04 8.18 C25.92 10.76, 25.94 14.59, 25.06 17.36 C24.18 20.12, 22.21 23.3, 19.74 24.75 C17.28 26.21, 12.99 26.76, 10.28 26.08 C7.57 25.4, 5.12 22.99, 3.51 20.69 C1.89 18.39, 0.5 15.11, 0.58 12.28 C0.66 9.46, 2.32 5.76, 3.97 3.72 C5.61 1.69, 9.14 0.76, 10.43 0.08 C11.72 -0.59, 11.5 -0.5, 11.7 -0.31" stroke="#1e1e1e" stroke-width="2" fill="none"></path></g><g stroke-linecap="round" transform="translate(773.005743215464 117.65252850033733) rotate(53.4843221349704 13.002430248964288 13.002430248964288)"><path d="M13.56 0.1 C16.24 0.17, 20.23 1.73, 22.24 3.67 C24.24 5.61, 25.37 9.07, 25.59 11.76 C25.81 14.44, 24.99 17.54, 23.53 19.78 C22.07 22.01, 19.43 24.29, 16.82 25.16 C14.21 26.03, 10.44 26.04, 7.87 25.02 C5.3 23.99, 2.58 21.52, 1.41 19.03 C0.23 16.55, 0.23 12.82, 0.82 10.11 C1.41 7.4, 2.66 4.46, 4.96 2.78 C7.25 1.1, 13.04 0.48, 14.6 0.02 C16.15 -0.43, 14.46 -0.22, 14.31 0.06 M13.49 0.56 C16.11 0.55, 20.08 2.32, 22.22 4.2 C24.36 6.07, 25.99 9.02, 26.33 11.8 C26.67 14.59, 26 18.71, 24.27 20.91 C22.55 23.11, 18.69 24.36, 15.98 25.02 C13.28 25.68, 10.5 25.8, 8.05 24.88 C5.59 23.96, 2.54 22.08, 1.24 19.5 C-0.06 16.92, -0.52 12.13, 0.24 9.41 C1 6.69, 3.48 4.85, 5.82 3.18 C8.15 1.5, 12.82 -0.1, 14.25 -0.63 C15.68 -1.16, 14.55 -0.37, 14.38 0" stroke="none" stroke-width="0" fill="#ced4da"></path><path d="M12.61 -0.05 C15.35 -0.38, 18.81 0.79, 20.99 2.48 C23.16 4.17, 24.99 7.32, 25.65 10.07 C26.32 12.83, 26.23 16.48, 24.96 19.02 C23.7 21.56, 20.74 24.26, 18.07 25.33 C15.4 26.39, 11.58 26.27, 8.92 25.41 C6.26 24.55, 3.58 22.43, 2.12 20.15 C0.66 17.87, -0.19 14.56, 0.16 11.75 C0.51 8.95, 2.22 5.33, 4.22 3.32 C6.21 1.31, 10.62 0.22, 12.15 -0.31 C13.68 -0.85, 13.34 -0.15, 13.38 0.12 M13.3 -0.06 C15.9 -0.17, 19.23 0.77, 21.31 2.55 C23.4 4.34, 25.27 7.72, 25.82 10.65 C26.38 13.58, 26.11 17.61, 24.64 20.11 C23.17 22.61, 19.63 24.9, 17.02 25.67 C14.4 26.43, 11.41 25.84, 8.93 24.71 C6.45 23.57, 3.48 21.34, 2.15 18.85 C0.83 16.36, 0.61 12.44, 0.95 9.76 C1.3 7.08, 2.08 4.52, 4.24 2.77 C6.4 1.03, 12.33 -0.25, 13.91 -0.7 C15.49 -1.15, 13.86 -0.23, 13.72 0.07" stroke="#1e1e1e" stroke-width="2" fill="none"></path></g><g stroke-linecap="round" transform="translate(763.2372873211166 125.7329275420285) rotate(53.4843221349704 13.002430248964288 12.15444566751006)"><path d="M-0.14 -0.25 L26.25 0.23 L25.3 23.83 L0.16 24.87" stroke="none" stroke-width="0" fill="#868e96"></path><path d="M0 0 C7.85 0.17, 18.19 -0.1, 26 0 M0 0 C8.43 0.4, 17.02 0.03, 26 0 M26 0 C26.02 9.16, 26.07 18.67, 26 24.31 M26 0 C25.65 8.02, 25.83 14.81, 26 24.31 M26 24.31 C17.47 24.27, 10.46 23.91, 0 24.31 M26 24.31 C21.02 24.45, 15.22 24.46, 0 24.31 M0 24.31 C-0.42 15.72, -0.81 4.39, 0 0 M0 24.31 C0.17 17.07, -0.24 9.94, 0 0" stroke="#1e1e1e" stroke-width="2" fill="none"></path></g><g transform="translate(734.1141766427086 161.00953479961402) rotate(0 41.736741118448435 9.497427312286959)"><text x="41.73674111844846" y="15.284922080711791" font-family="Cascadia, Segoe UI Emoji" font-size="15.82904552047823px" fill="#1e1e1e" text-anchor="middle" style="white-space: pre;" direction="ltr" dominant-baseline="alphabetic">Capsule B</text></g><g stroke-linecap="round" transform="translate(102.2222222222224 42.222222222222285) rotate(0 132.85091776115667 64.38401451781823)"><path d="M32 0 C110.24 3.19, 194.14 0.43, 233.7 0 C252.91 0.07, 268.65 9.92, 265.7 32 C267.37 43.62, 268.04 57.24, 265.7 96.77 C265.14 115.06, 253.25 130.2, 233.7 128.77 C173.76 131.52, 110.75 129.78, 32 128.77 C11.05 130.37, -2.84 121.65, 0 96.77 C-0.75 81.64, 1.95 65.98, 0 32 C-2.66 8.47, 9.2 -3.54, 32 0" stroke="none" stroke-width="0" fill="#a5d8ff"></path><path d="M32 0 C73.63 -3.42, 118 -1.32, 233.7 0 M32 0 C103.79 0.42, 175.09 0.36, 233.7 0 M233.7 0 C256.94 1.05, 265.24 11.02, 265.7 32 M233.7 0 C255.04 0.86, 266.38 10.72, 265.7 32 M265.7 32 C265.41 48.54, 267.26 69.56, 265.7 96.77 M265.7 32 C266.18 48.9, 265.71 67.53, 265.7 96.77 M265.7 96.77 C267.44 116.88, 254.38 126.95, 233.7 128.77 M265.7 96.77 C264.57 117.9, 256.24 127.58, 233.7 128.77 M233.7 128.77 C155.35 127.64, 76.5 127.15, 32 128.77 M233.7 128.77 C169.98 127, 107.64 127.6, 32 128.77 M32 128.77 C11.18 129.5, -0.78 116.67, 0 96.77 M32 128.77 C12.45 127.56, -0.19 119.94, 0 96.77 M0 96.77 C-0.51 70.69, -1.55 48.76, 0 32 M0 96.77 C0.06 74.26, 0.76 51.55, 0 32 M0 32 C0.4 11.9, 8.78 -0.44, 32 0 M0 32 C-1.92 11.69, 8.89 0.47, 32 0" stroke="#1e1e1e" stroke-width="2" fill="none"></path></g><g transform="translate(202.64516146775395 47.222222222222285) rotate(0 32.427978515625 9.497427312286959)"><text x="32.427978515625" y="15.284922080711791" font-family="Cascadia, Segoe UI Emoji" font-size="15.82904552047823px" fill="#1e1e1e" text-anchor="middle" style="white-space: pre;" direction="ltr" dominant-baseline="alphabetic">Project</text></g><g stroke-linecap="round" transform="translate(134.76774827334862 88.07831535679009) rotate(53.4843221349704 13.002430248964288 13.002430248964288)"><path d="M12.9 -0.47 C15.46 -0.83, 18.99 0.58, 21.08 2.43 C23.17 4.29, 24.83 7.87, 25.42 10.64 C26.01 13.41, 25.9 16.65, 24.62 19.05 C23.34 21.44, 20.4 23.93, 17.75 25.01 C15.11 26.09, 11.43 26.41, 8.74 25.55 C6.06 24.68, 3.03 22.34, 1.65 19.84 C0.27 17.33, 0.01 13.38, 0.46 10.54 C0.91 7.7, 2.18 4.62, 4.33 2.8 C6.49 0.98, 11.82 -0.04, 13.38 -0.39 C14.94 -0.73, 13.68 0.5, 13.67 0.76 M11.08 -0.32 C13.6 -0.83, 17.58 1.15, 19.94 2.61 C22.3 4.07, 24.42 5.93, 25.22 8.43 C26.03 10.93, 25.72 15.03, 24.76 17.62 C23.81 20.2, 21.83 22.71, 19.51 23.94 C17.19 25.17, 13.66 25.6, 10.84 25 C8.03 24.4, 4.48 22.38, 2.62 20.35 C0.75 18.31, -0.49 15.51, -0.36 12.81 C-0.24 10.11, 1.35 6.23, 3.36 4.14 C5.37 2.04, 10.35 0.95, 11.7 0.24 C13.04 -0.46, 11.52 -0.3, 11.43 -0.09" stroke="none" stroke-width="0" fill="#ced4da"></path><path d="M13.72 0.53 C16.36 0.6, 19.69 2.38, 21.77 4.25 C23.85 6.11, 25.88 9, 26.21 11.7 C26.55 14.39, 25.37 18.08, 23.77 20.42 C22.17 22.75, 19.31 24.98, 16.61 25.69 C13.91 26.41, 10.11 25.85, 7.57 24.72 C5.03 23.6, 2.56 21.55, 1.35 18.97 C0.15 16.39, -0.43 11.97, 0.32 9.25 C1.07 6.52, 3.46 4.19, 5.85 2.61 C8.24 1.03, 13.08 0.03, 14.65 -0.24 C16.23 -0.52, 15.38 0.66, 15.31 0.97 M13.99 -0.62 C16.47 -0.47, 19.84 1.78, 21.9 3.81 C23.96 5.85, 25.96 8.78, 26.36 11.58 C26.76 14.39, 26.04 18.26, 24.29 20.65 C22.54 23.04, 18.69 25.16, 15.86 25.92 C13.04 26.68, 9.85 26.45, 7.35 25.21 C4.86 23.97, 2.06 21.22, 0.91 18.49 C-0.23 15.77, -0.17 11.57, 0.5 8.85 C1.16 6.14, 2.66 3.6, 4.89 2.2 C7.13 0.81, 12.34 0.74, 13.92 0.47 C15.51 0.2, 14.42 0.54, 14.4 0.59" stroke="#1e1e1e" stroke-width="2" fill="none"></path></g><g stroke-linecap="round" transform="translate(154.30466006204256 73.61348643631493) rotate(53.4843221349704 13.002430248964288 13.002430248964288)"><path d="M15.37 -0.21 C17.92 0.23, 20.94 2.75, 22.75 4.95 C24.56 7.14, 26.21 10.23, 26.23 12.97 C26.26 15.71, 24.76 19.2, 22.89 21.39 C21.03 23.57, 17.81 25.59, 15.01 26.07 C12.22 26.55, 8.44 25.81, 6.11 24.27 C3.78 22.72, 1.92 19.52, 1.03 16.8 C0.13 14.08, -0.24 10.55, 0.74 7.96 C1.72 5.37, 4.3 2.45, 6.89 1.26 C9.47 0.08, 14.57 0.97, 16.24 0.87 C17.92 0.77, 17.05 0.47, 16.94 0.66 M15.15 0.79 C17.79 1.04, 20.97 1.99, 22.73 3.96 C24.49 5.93, 25.6 9.8, 25.72 12.59 C25.85 15.38, 25.11 18.62, 23.48 20.7 C21.85 22.78, 18.79 24.58, 15.96 25.07 C13.13 25.57, 9.08 24.89, 6.49 23.69 C3.91 22.49, 1.41 20.39, 0.45 17.86 C-0.5 15.34, -0.33 11.19, 0.74 8.54 C1.81 5.88, 4.43 3.4, 6.86 1.93 C9.29 0.45, 13.97 -0.06, 15.3 -0.29 C16.64 -0.53, 14.87 0.32, 14.86 0.51" stroke="none" stroke-width="0" fill="#ced4da"></path><path d="M15.06 0.71 C17.8 0.94, 21.51 2.6, 23.35 4.68 C25.19 6.76, 26.15 10.37, 26.09 13.2 C26.04 16.03, 24.86 19.56, 23.03 21.65 C21.19 23.75, 17.85 25.27, 15.08 25.75 C12.32 26.24, 8.86 26.07, 6.45 24.59 C4.04 23.1, 1.48 19.49, 0.61 16.82 C-0.26 14.16, 0.22 11.19, 1.21 8.6 C2.19 6.01, 4.12 2.58, 6.53 1.28 C8.94 -0.02, 14.13 0.85, 15.67 0.78 C17.21 0.72, 15.76 0.68, 15.77 0.88 M10.66 0.08 C13.36 -0.43, 17.59 0.03, 20.15 1.5 C22.7 2.98, 25.25 6.18, 26.01 8.94 C26.77 11.7, 25.85 15.4, 24.71 18.06 C23.57 20.71, 21.61 23.57, 19.19 24.87 C16.77 26.17, 12.91 26.58, 10.2 25.84 C7.48 25.1, 4.71 22.65, 2.89 20.45 C1.07 18.25, -0.74 15.22, -0.73 12.62 C-0.72 10.02, 0.93 6.87, 2.92 4.84 C4.91 2.81, 9.91 1.25, 11.22 0.43 C12.53 -0.4, 10.68 -0.23, 10.78 -0.13" stroke="#1e1e1e" stroke-width="2" fill="none"></path></g><g stroke-linecap="round" transform="translate(144.53620416769604 81.69388547800656) rotate(53.4843221349704 13.002430248964288 12.15444566751006)"><path d="M-0.08 0.8 L26.76 0.33 L25.06 24.16 L-0.88 23.64" stroke="none" stroke-width="0" fill="#868e96"></path><path d="M0 0 C7.95 0.87, 16.56 0.86, 26 0 M0 0 C9.17 0.16, 18.48 -0.01, 26 0 M26 0 C25.81 5.98, 26.74 14.21, 26 24.31 M26 0 C26.39 6.26, 26.16 13.38, 26 24.31 M26 24.31 C15.04 23.77, 5.8 24.79, 0 24.31 M26 24.31 C19.27 24.55, 13.04 24.64, 0 24.31 M0 24.31 C-0.93 16.89, -0.14 11.02, 0 0 M0 24.31 C-0.23 15.32, 0.36 6.78, 0 0" stroke="#1e1e1e" stroke-width="2" fill="none"></path></g><g transform="translate(115.41309348928803 116.97049273559162) rotate(0 41.736741118448435 9.497427312286959)"><text x="41.73674111844846" y="15.284922080711791" font-family="Cascadia, Segoe UI Emoji" font-size="15.82904552047823px" fill="#1e1e1e" text-anchor="middle" style="white-space: pre;" direction="ltr" dominant-baseline="alphabetic">Capsule A</text></g><g stroke-linecap="round" transform="translate(210.49257510448092 113.45026246120608) rotate(53.4843221349704 13.002430248964288 13.002430248964288)"><path d="M14.1 -0.07 C16.7 0.05, 20.13 1.99, 22.07 3.98 C24.01 5.97, 25.4 9.22, 25.72 11.88 C26.04 14.54, 25.58 17.71, 24.01 19.91 C22.45 22.12, 19.05 24.37, 16.35 25.12 C13.65 25.88, 10.31 25.45, 7.81 24.44 C5.31 23.43, 2.56 21.54, 1.36 19.06 C0.16 16.58, -0.03 12.28, 0.61 9.56 C1.25 6.84, 2.86 4.33, 5.2 2.73 C7.54 1.13, 13.14 0.36, 14.65 -0.04 C16.16 -0.43, 14.27 0.15, 14.26 0.37 M10.9 -0.31 C13.6 -1.06, 17.48 -0.44, 19.83 0.89 C22.18 2.21, 24.15 4.89, 25 7.65 C25.85 10.41, 25.82 14.75, 24.94 17.47 C24.07 20.19, 21.99 22.56, 19.75 23.98 C17.51 25.4, 14.22 26.45, 11.5 25.98 C8.77 25.5, 5.35 23.21, 3.4 21.11 C1.44 19.01, -0.2 16.18, -0.23 13.37 C-0.27 10.57, 1.29 6.56, 3.19 4.28 C5.1 2, 10.06 0.32, 11.2 -0.32 C12.33 -0.95, 10.15 0.19, 10.01 0.48" stroke="none" stroke-width="0" fill="#ced4da"></path><path d="M12.44 0.17 C15.06 -0.16, 18.56 0.78, 20.78 2.49 C23.01 4.2, 25.15 7.78, 25.77 10.43 C26.39 13.08, 25.72 15.94, 24.51 18.4 C23.3 20.85, 21.06 24.06, 18.5 25.17 C15.94 26.29, 11.88 25.85, 9.12 25.09 C6.37 24.33, 3.55 22.84, 1.99 20.62 C0.43 18.39, -0.63 14.5, -0.25 11.73 C0.13 8.95, 2.09 5.96, 4.27 3.97 C6.46 1.99, 11.3 0.49, 12.86 -0.16 C14.41 -0.81, 13.55 -0.23, 13.59 0.06 M10.92 0.44 C13.4 0, 17.58 1.06, 19.95 2.52 C22.32 3.98, 24.3 6.74, 25.15 9.2 C25.99 11.67, 26.18 14.77, 25.03 17.32 C23.88 19.86, 20.78 22.99, 18.25 24.46 C15.72 25.92, 12.42 26.65, 9.85 26.1 C7.29 25.56, 4.55 23.54, 2.86 21.17 C1.17 18.8, -0.47 14.77, -0.28 11.87 C-0.09 8.98, 2.09 5.67, 4.02 3.8 C5.94 1.94, 9.95 1.24, 11.27 0.71 C12.59 0.18, 12.01 0.52, 11.93 0.62" stroke="#1e1e1e" stroke-width="2" fill="none"></path></g><g stroke-linecap="round" transform="translate(230.02948689317486 98.98543354073138) rotate(53.4843221349704 13.002430248964288 13.002430248964288)"><path d="M11.49 0.32 C14.05 -0.11, 17.59 0.85, 19.97 2.27 C22.35 3.7, 24.98 6.27, 25.78 8.86 C26.59 11.44, 25.94 15.22, 24.81 17.79 C23.68 20.36, 21.47 22.87, 19.01 24.26 C16.55 25.65, 12.76 26.74, 10.05 26.12 C7.33 25.51, 4.44 22.82, 2.72 20.55 C1.01 18.28, -0.45 15.28, -0.25 12.51 C-0.05 9.74, 1.88 6.01, 3.92 3.93 C5.95 1.85, 10.39 0.66, 11.97 0.03 C13.55 -0.6, 13.4 -0.03, 13.4 0.16 M12.32 -0.65 C14.85 -1.08, 18.1 -0.1, 20.24 1.65 C22.38 3.39, 24.39 7.05, 25.16 9.82 C25.92 12.58, 25.85 15.74, 24.84 18.25 C23.82 20.75, 21.56 23.71, 19.08 24.85 C16.59 26, 12.74 25.83, 9.92 25.12 C7.11 24.42, 3.78 22.93, 2.19 20.64 C0.59 18.35, -0.01 14.29, 0.37 11.4 C0.75 8.52, 2.65 5.22, 4.46 3.33 C6.27 1.43, 10.08 0.56, 11.25 0.03 C12.41 -0.49, 11.31 0.04, 11.45 0.2" stroke="none" stroke-width="0" fill="#ced4da"></path><path d="M13.02 -0.09 C15.66 -0.2, 19.37 1.74, 21.48 3.47 C23.59 5.2, 25.18 7.6, 25.7 10.31 C26.22 13.02, 26.01 17.32, 24.61 19.74 C23.21 22.17, 20 23.87, 17.3 24.86 C14.6 25.85, 11.05 26.55, 8.4 25.69 C5.75 24.84, 2.74 22.16, 1.4 19.74 C0.07 17.32, -0.1 13.98, 0.39 11.17 C0.88 8.36, 2.23 4.77, 4.35 2.87 C6.46 0.97, 11.47 0.15, 13.07 -0.24 C14.68 -0.62, 13.95 0.23, 13.97 0.56 M13.43 0.47 C16.1 0.37, 19.38 1.77, 21.46 3.45 C23.54 5.13, 25.61 7.81, 25.91 10.54 C26.21 13.27, 24.82 17.29, 23.28 19.83 C21.74 22.37, 19.18 24.88, 16.68 25.79 C14.18 26.71, 10.87 26.53, 8.29 25.32 C5.72 24.11, 2.45 21.12, 1.22 18.54 C-0.02 15.97, 0.25 12.41, 0.87 9.87 C1.5 7.34, 2.76 4.94, 4.96 3.34 C7.16 1.73, 12.75 0.79, 14.06 0.26 C15.36 -0.27, 12.98 0.07, 12.77 0.16" stroke="#1e1e1e" stroke-width="2" fill="none"></path></g><g stroke-linecap="round" transform="translate(220.2610309988279 107.06583258242256) rotate(53.4843221349704 13.002430248964288 12.15444566751006)"><path d="M0.32 0.46 L25.56 0.11 L25.78 24.18 L0.47 23.85" stroke="none" stroke-width="0" fill="#868e96"></path><path d="M0 0 C7.58 0.29, 14.43 -0.17, 26 0 M0 0 C7.94 0.38, 17 -0.11, 26 0 M26 0 C25.3 5.99, 26.35 11.89, 26 24.31 M26 0 C25.72 5.77, 26.23 11.37, 26 24.31 M26 24.31 C16.25 24.16, 6.21 23.89, 0 24.31 M26 24.31 C17.41 24.13, 9.59 24.47, 0 24.31 M0 24.31 C-0.76 17.17, -0.57 8.4, 0 0 M0 24.31 C-0.56 15, -0.53 5.51, 0 0" stroke="#1e1e1e" stroke-width="2" fill="none"></path></g><g transform="translate(191.13792032041988 142.34243984000807) rotate(0 41.736741118448435 9.497427312286959)"><text x="41.73674111844846" y="15.284922080711791" font-family="Cascadia, Segoe UI Emoji" font-size="15.82904552047823px" fill="#1e1e1e" text-anchor="middle" style="white-space: pre;" direction="ltr" dominant-baseline="alphabetic">Capsule B</text></g><g stroke-linecap="round" transform="translate(285.86898234485375 84.55597301906403) rotate(53.4843221349704 13.002430248964288 13.002430248964288)"><path d="M13.55 -0.4 C16.19 -0.42, 20 1.04, 22.07 3.09 C24.15 5.14, 25.67 9.08, 26.01 11.88 C26.35 14.68, 25.68 17.58, 24.11 19.9 C22.53 22.21, 19.19 24.92, 16.55 25.76 C13.91 26.59, 10.84 26.01, 8.27 24.88 C5.7 23.74, 2.39 21.42, 1.13 18.94 C-0.12 16.46, 0.13 12.75, 0.74 10 C1.34 7.25, 2.57 4.06, 4.76 2.45 C6.96 0.84, 12.33 0.62, 13.89 0.34 C15.45 0.05, 14.17 0.58, 14.1 0.73 M10.27 0.15 C12.97 -0.59, 17.06 0.38, 19.55 1.63 C22.04 2.88, 24.29 5.07, 25.22 7.64 C26.15 10.21, 25.97 14.45, 25.14 17.08 C24.31 19.71, 22.44 22.05, 20.25 23.42 C18.05 24.8, 14.85 25.6, 11.95 25.31 C9.06 25.03, 4.9 23.69, 2.86 21.69 C0.81 19.7, -0.33 16.2, -0.31 13.36 C-0.29 10.52, 1.32 6.91, 2.99 4.66 C4.66 2.4, 8.55 0.64, 9.72 -0.17 C10.89 -0.98, 9.81 -0.57, 10.02 -0.19" stroke="none" stroke-width="0" fill="#ced4da"></path><path d="M16.07 0.52 C18.69 0.92, 21.48 2.4, 23.11 4.64 C24.74 6.87, 25.98 11.05, 25.85 13.94 C25.72 16.83, 24.13 19.89, 22.32 21.95 C20.51 24.01, 17.75 25.99, 14.99 26.31 C12.24 26.63, 8.27 25.45, 5.8 23.86 C3.33 22.27, 1 19.35, 0.18 16.77 C-0.64 14.19, -0.17 10.85, 0.91 8.39 C1.98 5.92, 4.08 3.36, 6.65 1.98 C9.22 0.61, 14.6 0.34, 16.31 0.14 C18.02 -0.07, 16.92 0.54, 16.91 0.76 M12.65 -0.09 C15.24 0.01, 19.1 1.79, 21.33 3.7 C23.57 5.61, 25.65 8.79, 26.06 11.39 C26.47 13.99, 25.18 17.03, 23.78 19.29 C22.38 21.55, 20.28 23.88, 17.68 24.95 C15.07 26.02, 10.73 26.61, 8.14 25.69 C5.55 24.77, 3.56 22, 2.13 19.42 C0.69 16.85, -0.8 13.12, -0.44 10.26 C-0.08 7.41, 1.94 3.96, 4.28 2.3 C6.62 0.65, 12.16 0.67, 13.62 0.35 C15.08 0.02, 13.11 0.2, 13.04 0.35" stroke="#1e1e1e" stroke-width="2" fill="none"></path></g><g stroke-linecap="round" transform="translate(305.4058941335477 70.09114409858887) rotate(53.4843221349704 13.002430248964288 13.002430248964288)"><path d="M10.18 -0.02 C12.75 -0.66, 16.41 0.57, 18.9 1.84 C21.39 3.12, 24.06 5.11, 25.11 7.64 C26.16 10.17, 25.96 14.33, 25.2 17.01 C24.43 19.69, 22.84 22.25, 20.52 23.74 C18.19 25.22, 14 26.25, 11.25 25.93 C8.49 25.62, 5.92 23.91, 3.99 21.86 C2.05 19.81, -0.1 16.34, -0.37 13.62 C-0.64 10.91, 0.57 7.74, 2.35 5.57 C4.13 3.4, 8.87 1.48, 10.31 0.59 C11.74 -0.29, 10.94 0.17, 10.97 0.28 M14.76 0.18 C17.44 0.23, 20.64 1.46, 22.47 3.45 C24.3 5.44, 25.49 9.35, 25.73 12.1 C25.97 14.86, 25.36 17.84, 23.9 20 C22.43 22.15, 19.79 24.25, 16.96 25.03 C14.12 25.82, 9.56 25.83, 6.87 24.69 C4.18 23.56, 1.86 20.83, 0.84 18.23 C-0.19 15.64, 0.02 11.87, 0.73 9.13 C1.44 6.39, 2.91 3.44, 5.12 1.81 C7.33 0.17, 12.39 -0.51, 13.98 -0.67 C15.58 -0.84, 14.67 0.39, 14.71 0.83" stroke="none" stroke-width="0" fill="#ced4da"></path><path d="M9.98 -0.04 C12.45 -0.75, 16.36 0.54, 18.81 1.92 C21.25 3.29, 23.52 5.65, 24.66 8.21 C25.79 10.77, 26.43 14.69, 25.61 17.29 C24.79 19.88, 22.19 22.38, 19.74 23.77 C17.29 25.17, 13.63 25.94, 10.91 25.66 C8.19 25.38, 5.27 24.02, 3.41 22.09 C1.55 20.17, -0.13 16.97, -0.24 14.09 C-0.36 11.22, 0.87 7.19, 2.72 4.87 C4.58 2.54, 9.43 0.95, 10.9 0.17 C12.38 -0.61, 11.56 -0.02, 11.58 0.2 M9.74 0.75 C12.43 0.05, 16.58 0.58, 19.07 1.68 C21.56 2.78, 23.51 4.91, 24.67 7.36 C25.83 9.81, 26.8 13.53, 26.03 16.38 C25.26 19.24, 22.38 22.86, 20.05 24.49 C17.71 26.12, 14.89 26.61, 12.01 26.16 C9.14 25.71, 4.91 23.94, 2.8 21.78 C0.69 19.62, -0.64 15.92, -0.64 13.21 C-0.63 10.5, 1.12 7.67, 2.84 5.54 C4.57 3.41, 8.53 1.26, 9.71 0.42 C10.9 -0.42, 9.77 0.36, 9.94 0.5" stroke="#1e1e1e" stroke-width="2" fill="none"></path></g><g stroke-linecap="round" transform="translate(295.6374382392007 78.17154314028005) rotate(53.4843221349704 13.002430248964288 12.15444566751006)"><path d="M0.2 0.62 L25.06 -0.22 L25.17 24.75 L-0.77 24.51" stroke="none" stroke-width="0" fill="#868e96"></path><path d="M0 0 C10.69 0.58, 19.69 -0.62, 26 0 M0 0 C7.3 0.28, 14.55 -0.22, 26 0 M26 0 C25.81 7.02, 25.38 13.92, 26 24.31 M26 0 C25.9 7.97, 25.76 15.37, 26 24.31 M26 24.31 C17.98 23.77, 10.76 24.44, 0 24.31 M26 24.31 C17.64 23.95, 8.45 24.62, 0 24.31 M0 24.31 C-0.19 14.3, -0.71 6.37, 0 0 M0 24.31 C-0.06 15.85, 0.29 7.28, 0 0" stroke="#1e1e1e" stroke-width="2" fill="none"></path></g><g transform="translate(266.51432756079225 113.44815039786556) rotate(0 41.736741118448435 9.497427312286959)"><text x="41.73674111844846" y="15.284922080711791" font-family="Cascadia, Segoe UI Emoji" font-size="15.82904552047823px" fill="#1e1e1e" text-anchor="middle" style="white-space: pre;" direction="ltr" dominant-baseline="alphabetic">Capsule C</text></g><g stroke-linecap="round"><g transform="translate(381.73980665004547 111.0506811844848) rotate(0 53.33333333333337 8.333333333333371)"><path d="M-0.86 -1.11 C16.56 1.67, 87.65 13.44, 105.53 16.26 M0.89 0.92 C18.57 3.91, 90.2 14.95, 107.64 17.58" stroke="#1e1e1e" stroke-width="2" fill="none"></path></g><g transform="translate(381.73980665004547 111.0506811844848) rotate(0 53.33333333333337 8.333333333333371)"><path d="M83.12 22.48 C90.7 18.87, 101.28 18.46, 107.64 17.58 M83.12 22.48 C88.68 21.13, 93.72 19.7, 107.64 17.58" stroke="#1e1e1e" stroke-width="2" fill="none"></path></g><g transform="translate(381.73980665004547 111.0506811844848) rotate(0 53.33333333333337 8.333333333333371)"><path d="M85.71 5.58 C92.23 8.44, 101.82 14.51, 107.64 17.58 M85.71 5.58 C90.62 8.1, 95.06 10.54, 107.64 17.58" stroke="#1e1e1e" stroke-width="2" fill="none"></path></g></g><mask></mask><g stroke-linecap="round"><g transform="translate(376.18425109449004 172.161792295596) rotate(0 66.66666666666663 54.44444444444446)"><path d="M0.3 -1.07 C22.27 17.1, 110.59 91.41, 132.62 109.74 M-1.01 0.98 C21.29 18.76, 112.31 89.85, 134.96 108.06" stroke="#1e1e1e" stroke-width="2" fill="none"></path></g><g transform="translate(376.18425109449004 172.161792295596) rotate(0 66.66666666666663 54.44444444444446)"><path d="M111.23 100.2 C118.15 101.82, 130 104.44, 134.96 108.06 M111.23 100.2 C118.89 101.89, 126 105.11, 134.96 108.06" stroke="#1e1e1e" stroke-width="2" fill="none"></path></g><g transform="translate(376.18425109449004 172.161792295596) rotate(0 66.66666666666663 54.44444444444446)"><path d="M121.84 86.78 C124.97 93.33, 132.95 100.83, 134.96 108.06 M121.84 86.78 C126.15 92.59, 130.05 99.88, 134.96 108.06" stroke="#1e1e1e" stroke-width="2" fill="none"></path></g></g><mask></mask><g stroke-linecap="round"><g transform="translate(265.0731399833792 191.0506811844848) rotate(0 4.444444444444343 39.44444444444446)"><path d="M-0.02 -0.07 C1.45 13.27, 8.16 66.23, 9.46 79.44 M-1.5 -1.16 C-0.18 11.88, 6.89 64.58, 8.8 77.61" stroke="#1e1e1e" stroke-width="2" fill="none"></path></g><g transform="translate(265.0731399833792 191.0506811844848) rotate(0 4.444444444444343 39.44444444444446)"><path d="M-2.9 55.52 C0.95 64.17, 6.07 68.98, 8.8 77.61 M-2.9 55.52 C1.18 63.48, 5.09 70.35, 8.8 77.61" stroke="#1e1e1e" stroke-width="2" fill="none"></path></g><g transform="translate(265.0731399833792 191.0506811844848) rotate(0 4.444444444444343 39.44444444444446)"><path d="M14.04 53.17 C11.97 62.63, 11.19 68.26, 8.8 77.61 M14.04 53.17 C12.55 61.96, 10.89 69.6, 8.8 77.61" stroke="#1e1e1e" stroke-width="2" fill="none"></path></g></g><mask></mask></svg>