<svg xmlns="http://www.w3.org/2000/svg" xmlns:xlink="http://www.w3.org/1999/xlink" xmlns:lucid="lucid" width="1286.23" height="746"><g transform="translate(630.925 2300)" lucid:page-tab-id="0_0"><path d="M-1000-2500h2000v1000h-2000z" fill="#fff"/><path d="M200-2278a2 2 0 0 1 2-2h431.3a2 2 0 0 1 2 2v222a2 2 0 0 1-2 2H202a2 2 0 0 1-2-2z" fill="#fff3e0"/><use xlink:href="#a" transform="matrix(1,0,0,1,216,-2264) translate(108.72607421875 16.69921875)"/><use xlink:href="#b" transform="matrix(1,0,0,1,216,-2264) translate(143.12646484375 16.69921875)"/><use xlink:href="#c" transform="matrix(1,0,0,1,216,-2264) translate(238.47900390625 16.69921875)"/><path d="M200-2038a2 2 0 0 1 2-2h431.3a2 2 0 0 1 2 2v222a2 2 0 0 1-2 2H202a2 2 0 0 1-2-2z" fill="#fff0f0"/><use xlink:href="#d" transform="matrix(1,0,0,1,216,-2024) translate(93.27490234375 16.69921875)"/><use xlink:href="#b" transform="matrix(1,0,0,1,216,-2024) translate(158.57763671875 16.69921875)"/><use xlink:href="#c" transform="matrix(1,0,0,1,216,-2024) translate(253.93017578125 16.69921875)"/><path d="M200-1798a2 2 0 0 1 2-2h431.3a2 2 0 0 1 2 2v222a2 2 0 0 1-2 2H202a2 2 0 0 1-2-2z" fill="#dff2ea"/><use xlink:href="#e" transform="matrix(1,0,0,1,216,-1784) translate(79.95947265625 16.69921875)"/><use xlink:href="#b" transform="matrix(1,0,0,1,216,-1784) translate(171.89306640625 16.69921875)"/><use xlink:href="#c" transform="matrix(1,0,0,1,216,-1784) translate(267.24560546875 16.69921875)"/><path d="M-320-2052a2 2 0 0 1 2-2H21.53a2 2 0 0 1 2 2v269a2 2 0 0 1-2 2H-318a2 2 0 0 1-2-2z" fill="#e3f2fd"/><use xlink:href="#f" transform="matrix(1,0,0,1,-304,-2038) translate(0 16.69921875)"/><use xlink:href="#g" transform="matrix(1,0,0,1,-304,-2038) translate(30.005859375 16.69921875)"/><path d="M479.66-2223.83c-1.14.1-2.05.34-2.96.8l-39.44 19.43c-2.16 1.02-3.64 2.84-4.1 5.23l-9.77 43.76c-.47 2.04-.13 4.08 1 5.9.13.23.24.34.47.57l27.28 35c1.48 1.94 3.52 2.97 5.9 2.97h43.9c2.38 0 4.42-1.03 5.9-2.96l27.28-35c1.48-1.94 2.05-4.22 1.48-6.6l-9.77-43.65c-.45-2.4-1.93-4.2-4.1-5.23l-39.43-19.44c-1.25-.57-2.4-.9-3.64-.8z" stroke="#000" stroke-opacity="0" stroke-width="0" fill="#326ce5"/><path d="M479.64-2227c-1.2.12-2.16.36-3.12.84l-41.64 20.52c-2.28 1.08-3.84 3-4.32 5.52l-10.32 46.2c-.48 2.16-.12 4.32 1.08 6.24.12.24.24.36.48.6l28.8 36.96c1.56 2.04 3.72 3.12 6.24 3.12h46.32c2.52 0 4.68-1.08 6.24-3.12l28.8-36.96c1.56-2.04 2.16-4.44 1.56-6.84l-10.32-46.2c-.48-2.52-2.04-4.44-4.32-5.52l-41.64-20.52c-1.32-.6-2.52-.96-3.84-.84zm0 3.12c1.32 0 2.4.24 3.6.84l39.6 19.44c2.04 1.08 3.48 2.88 4.08 5.28l9.72 43.68c.48 2.4 0 4.56-1.44 6.48l-27.36 35.04c-1.44 1.92-3.48 3-5.88 3h-43.92c-2.4 0-4.44-1.08-5.88-3l-27.36-35.04c-.12-.12-.24-.36-.36-.6-1.2-1.8-1.56-3.72-1.08-5.88l9.72-43.68c.6-2.4 1.92-4.2 4.08-5.28l39.6-19.44c.96-.48 1.8-.72 2.88-.84z" stroke="#000" stroke-opacity="0" stroke-width="0" fill="#fff"/><path d="M479.87-2200.7c-.94 0-26.55 12.94-26.88 13.62-.8 1.6-6.68 29.38-6.35 30 .2.32 4.4 5.85 9.34 12.2l9 11.58h29.54l9.4-12.13 9.4-12.07-3.26-14.9c-1.8-8.14-3.47-15.02-3.6-15.15-.47-.48-26.08-13.15-26.6-13.15zm1.6 13.62c1.2.07 1.33 1.95 4 2.15 3.47.27 3.13-3.03 5.73-.74 2.67 2.36-.6 2.5.27 6 .8 3.5 3.8 2.1 2.47 5.4-1.33 3.36-2.47.2-5.47 2.08-2.93 1.9-.73 4.4-4.2 4.12-3.47-.27-.94-2.36-3.6-4.72-2.67-2.3-4.27.6-5.07-2.9-.87-3.43 1.87-1.6 3.2-4.9 1.33-3.38-1.87-4.06 1.07-5.94.4-.2.73-.34 1-.47.2-.08.4-.08.6-.08zm3.46 3.9c-.53 0-1 .07-1.53.2-2.6.82-4.13 3.72-3.33 6.48.8 2.76 3.6 4.3 6.27 3.5 2.66-.87 4.2-3.77 3.4-6.47-.67-2.22-2.6-3.7-4.8-3.7zm-19.94 8.9c.26 0 .6.07 1 .2 3.2 1.02-.07 2.77 2.2 5.26 2.33 2.56 4.2-.67 4.93 2.7.8 3.3-2.33 1.28-3.27 4.58-1 3.3 2.67 3.37.2 5.73-2.4 2.35-2.26-1.43-5.53-.62-3.27.74-1.47 4.05-4.67 3.03-3.2-1 .07-2.68-2.27-5.24-2.28-2.5-4.14.67-4.88-2.63-.8-3.37 2.27-1.35 3.27-4.65 1-3.3-2.68-3.37-.2-5.73 2.4-2.36 2.26 1.42 5.53.68 2.8-.68 1.86-3.3 3.66-3.3zm23.74 3.64c.33 0 .66.07 1.13.27 3.67 1.48-1.13 3.7 1.67 6.54 2.87 2.83 4.87-2.3 6.47 1.4 1.6 3.8-3.4 1.83-3.33 5.88.14 4.1 5 1.95 3.6 5.73-1.46 3.77-3.66-1.22-6.4 1.75-2.73 2.96 2.2 4.98-1.4 6.6-3.6 1.7-1.73-3.5-5.67-3.37-3.93.07-1.87 5.12-5.53 3.64-3.67-1.48 1.13-3.7-1.67-6.54-2.87-2.83-4.87 2.3-6.47-1.48-1.6-3.7 3.4-1.75 3.33-5.86-.13-4.05-5-1.9-3.6-5.66 1.47-3.84 3.67 1.2 6.4-1.76 2.74-2.96-2.2-4.98 1.4-6.6 3.6-1.68 1.74 3.44 5.67 3.37 3.47-.07 2.27-3.98 4.4-3.9zm-25.8 1.75c-2.8 0-5.08 2.3-5.08 5.2 0 2.83 2.27 5.2 5.07 5.2 2.8 0 5-2.37 5-5.2 0-2.9-2.2-5.2-5-5.2zm21.6 4.93c-4.07.07-7.4 3.44-7.4 7.7 0 4.23 3.33 7.6 7.4 7.6 4.13 0 7.46-3.37 7.46-7.6 0-4.26-3.33-7.7-7.46-7.7z" stroke="#eee" stroke-width="0" fill="#fff"/><use xlink:href="#h" transform="matrix(1,0,0,1,390,-2098) translate(26.543209876543216 17.77777777777778)"/><use xlink:href="#i" transform="matrix(1,0,0,1,390,-2098) translate(65.92592592592592 17.77777777777778)"/><path d="M479.66-1983.83c-1.14.1-2.05.34-2.96.8l-39.44 19.43c-2.16 1.02-3.64 2.84-4.1 5.23l-9.77 43.76c-.47 2.04-.13 4.08 1 5.9.13.23.24.34.47.57l27.28 35c1.48 1.94 3.52 2.97 5.9 2.97h43.9c2.38 0 4.42-1.03 5.9-2.96l27.28-35c1.48-1.94 2.05-4.22 1.48-6.6l-9.77-43.65c-.45-2.4-1.93-4.2-4.1-5.23l-39.43-19.44c-1.25-.57-2.4-.9-3.64-.8z" stroke="#000" stroke-opacity="0" stroke-width="0" fill="#326ce5"/><path d="M479.64-1987c-1.2.12-2.16.36-3.12.84l-41.64 20.52c-2.28 1.08-3.84 3-4.32 5.52l-10.32 46.2c-.48 2.16-.12 4.32 1.08 6.24.12.24.24.36.48.6l28.8 36.96c1.56 2.04 3.72 3.12 6.24 3.12h46.32c2.52 0 4.68-1.08 6.24-3.12l28.8-36.96c1.56-2.04 2.16-4.44 1.56-6.84l-10.32-46.2c-.48-2.52-2.04-4.44-4.32-5.52l-41.64-20.52c-1.32-.6-2.52-.96-3.84-.84zm0 3.12c1.32 0 2.4.24 3.6.84l39.6 19.44c2.04 1.08 3.48 2.88 4.08 5.28l9.72 43.68c.48 2.4 0 4.56-1.44 6.48l-27.36 35.04c-1.44 1.92-3.48 3-5.88 3h-43.92c-2.4 0-4.44-1.08-5.88-3l-27.36-35.04c-.12-.12-.24-.36-.36-.6-1.2-1.8-1.56-3.72-1.08-5.88l9.72-43.68c.6-2.4 1.92-4.2 4.08-5.28l39.6-19.44c.96-.48 1.8-.72 2.88-.84z" stroke="#000" stroke-opacity="0" stroke-width="0" fill="#fff"/><path d="M479.87-1960.7c-.94 0-26.55 12.94-26.88 13.62-.8 1.62-6.68 29.38-6.35 30 .2.32 4.4 5.85 9.34 12.2l9 11.58h29.54l9.4-12.13 9.4-12.07-3.26-14.9c-1.8-8.14-3.47-15.02-3.6-15.15-.47-.48-26.08-13.15-26.6-13.15zm1.6 13.62c1.2.06 1.33 1.95 4 2.15 3.47.27 3.13-3.03 5.73-.74 2.67 2.36-.6 2.5.27 6 .8 3.5 3.8 2.1 2.47 5.4-1.33 3.36-2.47.2-5.47 2.08-2.93 1.9-.73 4.4-4.2 4.12-3.47-.27-.94-2.36-3.6-4.72-2.67-2.3-4.27.6-5.07-2.9-.87-3.43 1.87-1.6 3.2-4.9 1.33-3.38-1.87-4.06 1.07-5.94l1-.48c.2-.06.4-.06.6-.06zm3.46 3.9c-.53 0-1 .07-1.53.2-2.6.82-4.13 3.7-3.33 6.48.8 2.76 3.6 4.3 6.27 3.5 2.66-.87 4.2-3.77 3.4-6.47-.67-2.22-2.6-3.7-4.8-3.7zm-19.94 8.9c.26 0 .6.07 1 .2 3.2 1.02-.07 2.77 2.2 5.26 2.33 2.56 4.2-.67 4.93 2.7.8 3.3-2.33 1.28-3.27 4.58-1 3.3 2.67 3.37.2 5.73-2.4 2.35-2.26-1.43-5.53-.62-3.27.74-1.47 4.05-4.67 3.03-3.2-1 .07-2.68-2.27-5.24-2.28-2.5-4.14.67-4.88-2.63-.8-3.37 2.27-1.35 3.27-4.65 1-3.3-2.68-3.37-.2-5.73 2.4-2.36 2.26 1.42 5.53.68 2.8-.68 1.86-3.3 3.66-3.3zm23.74 3.64c.33 0 .66.07 1.13.27 3.67 1.48-1.13 3.7 1.67 6.54 2.87 2.83 4.87-2.3 6.47 1.4 1.6 3.8-3.4 1.83-3.33 5.88.14 4.1 5 1.95 3.6 5.72-1.46 3.78-3.66-1.2-6.4 1.76-2.73 2.96 2.2 4.98-1.4 6.6-3.6 1.7-1.73-3.5-5.67-3.37-3.93.07-1.87 5.12-5.53 3.64-3.67-1.48 1.13-3.7-1.67-6.54-2.87-2.83-4.87 2.3-6.47-1.48-1.6-3.7 3.4-1.75 3.33-5.86-.13-4.05-5-1.9-3.6-5.66 1.47-3.84 3.67 1.2 6.4-1.75 2.74-2.96-2.2-4.98 1.4-6.6 3.6-1.68 1.74 3.44 5.67 3.37 3.47-.07 2.27-3.98 4.4-3.9zm-25.8 1.75c-2.8 0-5.08 2.3-5.08 5.2 0 2.83 2.27 5.2 5.07 5.2 2.8 0 5-2.37 5-5.2 0-2.9-2.2-5.2-5-5.2zm21.6 4.93c-4.07.07-7.4 3.44-7.4 7.7 0 4.23 3.33 7.6 7.4 7.6 4.13 0 7.46-3.37 7.46-7.6 0-4.26-3.33-7.7-7.46-7.7z" stroke="#eee" stroke-width="0" fill="#fff"/><use xlink:href="#h" transform="matrix(1,0,0,1,390,-1858) translate(26.543209876543216 17.77777777777778)"/><use xlink:href="#i" transform="matrix(1,0,0,1,390,-1858) translate(65.92592592592592 17.77777777777778)"/><path d="M479.66-1743.83c-1.14.1-2.05.34-2.96.8l-39.44 19.43c-2.16 1.02-3.64 2.84-4.1 5.23l-9.77 43.76c-.47 2.04-.13 4.08 1 5.9.13.23.24.34.47.57l27.28 35c1.48 1.94 3.52 2.97 5.9 2.97h43.9c2.38 0 4.42-1.03 5.9-2.96l27.28-35c1.48-1.94 2.05-4.22 1.48-6.6l-9.77-43.65c-.45-2.4-1.93-4.2-4.1-5.23l-39.43-19.44c-1.25-.57-2.4-.9-3.64-.8z" stroke="#000" stroke-opacity="0" stroke-width="0" fill="#326ce5"/><path d="M479.64-1747c-1.2.12-2.16.36-3.12.84l-41.64 20.52c-2.28 1.08-3.84 3-4.32 5.52l-10.32 46.2c-.48 2.16-.12 4.32 1.08 6.24.12.24.24.36.48.6l28.8 36.96c1.56 2.04 3.72 3.12 6.24 3.12h46.32c2.52 0 4.68-1.08 6.24-3.12l28.8-36.96c1.56-2.04 2.16-4.44 1.56-6.84l-10.32-46.2c-.48-2.52-2.04-4.44-4.32-5.52l-41.64-20.52c-1.32-.6-2.52-.96-3.84-.84zm0 3.12c1.32 0 2.4.24 3.6.84l39.6 19.44c2.04 1.08 3.48 2.88 4.08 5.28l9.72 43.68c.48 2.4 0 4.56-1.44 6.48l-27.36 35.04c-1.44 1.92-3.48 3-5.88 3h-43.92c-2.4 0-4.44-1.08-5.88-3l-27.36-35.04c-.12-.12-.24-.36-.36-.6-1.2-1.8-1.56-3.72-1.08-5.88l9.72-43.68c.6-2.4 1.92-4.2 4.08-5.28l39.6-19.44c.96-.48 1.8-.72 2.88-.84z" stroke="#000" stroke-opacity="0" stroke-width="0" fill="#fff"/><path d="M479.87-1720.7c-.94 0-26.55 12.94-26.88 13.62-.8 1.62-6.68 29.38-6.35 30 .2.32 4.4 5.85 9.34 12.2l9 11.58h29.54l9.4-12.13 9.4-12.07-3.26-14.9c-1.8-8.14-3.47-15.02-3.6-15.15-.47-.48-26.08-13.15-26.6-13.15zm1.6 13.62c1.2.06 1.33 1.95 4 2.15 3.47.27 3.13-3.03 5.73-.74 2.67 2.36-.6 2.5.27 6 .8 3.5 3.8 2.1 2.47 5.4-1.33 3.36-2.47.2-5.47 2.08-2.93 1.9-.73 4.4-4.2 4.12-3.47-.27-.94-2.36-3.6-4.72-2.67-2.3-4.27.6-5.07-2.9-.87-3.43 1.87-1.6 3.2-4.9 1.33-3.38-1.87-4.06 1.07-5.94l1-.48c.2-.06.4-.06.6-.06zm3.46 3.9c-.53 0-1 .07-1.53.2-2.6.82-4.13 3.7-3.33 6.48.8 2.76 3.6 4.3 6.27 3.5 2.66-.87 4.2-3.77 3.4-6.47-.67-2.22-2.6-3.7-4.8-3.7zm-19.94 8.9c.26 0 .6.07 1 .2 3.2 1.02-.07 2.77 2.2 5.26 2.33 2.56 4.2-.67 4.93 2.7.8 3.3-2.33 1.28-3.27 4.58-1 3.3 2.67 3.37.2 5.73-2.4 2.35-2.26-1.43-5.53-.62-3.27.74-1.47 4.05-4.67 3.03-3.2-1 .07-2.68-2.27-5.24-2.28-2.5-4.14.67-4.88-2.63-.8-3.37 2.27-1.35 3.27-4.65 1-3.3-2.68-3.37-.2-5.73 2.4-2.36 2.26 1.42 5.53.68 2.8-.68 1.86-3.3 3.66-3.3zm23.74 3.64c.33 0 .66.07 1.13.27 3.67 1.48-1.13 3.7 1.67 6.54 2.87 2.83 4.87-2.3 6.47 1.4 1.6 3.8-3.4 1.83-3.33 5.88.14 4.1 5 1.95 3.6 5.72-1.46 3.78-3.66-1.2-6.4 1.76-2.73 2.96 2.2 4.98-1.4 6.6-3.6 1.7-1.73-3.5-5.67-3.37-3.93.07-1.87 5.12-5.53 3.64-3.67-1.48 1.13-3.7-1.67-6.54-2.87-2.83-4.87 2.3-6.47-1.48-1.6-3.7 3.4-1.75 3.33-5.86-.13-4.05-5-1.9-3.6-5.66 1.47-3.84 3.67 1.2 6.4-1.75 2.74-2.96-2.2-4.98 1.4-6.6 3.6-1.68 1.74 3.44 5.67 3.37 3.47-.07 2.27-3.98 4.4-3.9zm-25.8 1.75c-2.8 0-5.08 2.3-5.08 5.2 0 2.83 2.27 5.2 5.07 5.2 2.8 0 5-2.37 5-5.2 0-2.9-2.2-5.2-5-5.2zm21.6 4.93c-4.07.07-7.4 3.44-7.4 7.7 0 4.23 3.33 7.6 7.4 7.6 4.13 0 7.46-3.37 7.46-7.6 0-4.26-3.33-7.7-7.46-7.7z" stroke="#eee" stroke-width="0" fill="#fff"/><use xlink:href="#h" transform="matrix(1,0,0,1,390,-1618) translate(26.543209876543216 17.77777777777778)"/><use xlink:href="#i" transform="matrix(1,0,0,1,390,-1618) translate(65.92592592592592 17.77777777777778)"/><path d="M30.4-1981.72l.63-.07 2.36-.34 2.3-.44 2.26-.53 2.23-.63 2.2-.72 2.2-.82 2.2-.92 2.2-1.03 2.23-1.16 2.25-1.3 2.3-1.45 2.33-1.62 2.42-1.83 2.48-2.06 2.6-2.33 2.7-2.65 2.9-3.07 3.06-3.57 3.34-4.2 3.7-5.1 4.2-6.32 5-8.27 6.6-12.05 35.94-71.88 5-8.28 4.2-6.33 3.7-5.1 3.33-4.2 3.07-3.57 2.88-3.07 2.72-2.66 2.6-2.33 2.47-2.06 2.42-1.83 2.34-1.63 2.3-1.45 2.24-1.3 2.22-1.16 2.2-1.03 2.2-.92 2.2-.82 2.22-.72.5-.13" stroke="#3a414a" stroke-linejoin="round" fill="none"/><path d="M24.5-1981.38l12.46-8.37.88 15.24zM198.4-2166.78l-13.5 6.58-1.27-9.18z" stroke="#3a414a" fill="#3a414a"/><path d="M30.4-1917.5h153.22" stroke="#3a414a" stroke-linejoin="round" fill="none"/><path d="M24.52-1917.5l12.9-7.64v15.28zM198.38-1917.5l-14.26 4.63v-9.27z" stroke="#3a414a" fill="#3a414a"/><path d="M30.4-1852.75l1.46.15 2.6.4 2.53.47 2.46.58 2.44.68 2.4.78 2.4.9 2.36 1 2.38 1.12 2.4 1.25 2.4 1.4 2.46 1.55 2.5 1.75 2.6 1.95 2.66 2.2 2.78 2.5 2.92 2.88 3.1 3.32 3.37 3.9 3.7 4.65 4.17 5.77 4.97 7.5 6.6 10.94 34 61.07 4.96 7.5 4.18 5.76 3.7 4.68 3.36 3.9 3.1 3.3 2.93 2.87 2.77 2.5 2.67 2.22 2.58 1.95 2.5 1.75 2.46 1.56 2.42 1.4 2.4 1.24 2.37 1.12 2.37 1 2.4.88 2.4.78 2.15.6" stroke="#3a414a" stroke-linejoin="round" fill="none"/><path d="M24.5-1853.06l13.3-6.95-.8 15.24zM198.4-1687.2l-14.74 2.82 1.16-9.2z" stroke="#3a414a" fill="#3a414a"/><path d="M-68.47-1895.3l-10.8-68.33c-.25-2.7-2.53-3.18-3.25-3.18H-173c-.72 0-3.24.22-3.24 3.17l-12 68.32v1.91c0 5.1 4.2 6.2 5.05 6.2h109.92c.97 0 5.05-1.1 5.05-6.2-.24-.7-.24-1.43-.24-1.9zm-37.8-17.53h-13.45c-1.08 0-1.8-.87-1.8-1.83 0-1.1.96-1.83 1.8-1.83h6.25l-15-14.96v29.94l4.55-4.62c.73-.63 2.17-.63 2.9 0 .58.72.58 2.07-.02 2.8l-9.23 9.23-9.48-9.5c-.5-.47-.5-.95-.5-1.34 0-.48.25-.96.5-1.44.72-.63 2.03-.63 2.75 0l4.93 4.86v-30.02l-15.13 15.05h6.72c1.2 0 1.92.9 1.92 1.84 0 1.12-.95 1.83-1.9 1.83h-13.33v-13.37c0-1.2.84-1.84 1.8-1.84 1.2 0 1.8.88 1.8 1.84v6.6l17.76-17.75v-9.16c-2.28-.96-4.07-3.03-4.07-5.82 0-3.42 2.75-5.97 6-5.97 3.34 0 5.98 2.8 5.98 5.98 0 2.8-1.92 4.86-4.2 5.8v9.17l18.25 18.23v-7.08c0-1.2.83-1.84 1.8-1.84 1.2 0 1.8.88 1.8 1.84v13.37h.6z" stroke="#000" stroke-opacity="0" fill="#0078d7"/><use xlink:href="#j" transform="matrix(1,0,0,1,-218.23500000000013,-1878.1864406779662) translate(26.124999999999993 14.4)"/><use xlink:href="#k" transform="matrix(1,0,0,1,-218.23500000000013,-1878.1864406779662) translate(58.02499999999999 14.4)"/><use xlink:href="#l" transform="matrix(1,0,0,1,-218.23500000000013,-1878.1864406779662) translate(62.025 36)"/><path d="M-495.7-1939.76h-104.27v-18.22c0-.85.73-1.52 1.56-1.52h101.14c.84 0 1.57.67 1.57 1.52z" stroke="#000" stroke-opacity="0" fill="#949494"/><path d="M-600-1939.76h104.28v62.4c0 .82-.73 1.52-1.56 1.52h-101.16c-.83 0-1.56-.7-1.56-1.53v-62.4z" stroke="#000" stroke-opacity="0" fill="#bfbfbf"/><path d="M-592.8-1934.3h89.76v51h-89.76z" stroke="#000" stroke-opacity="0" fill="#005ba1"/><path d="M-568-1905.82h15.55c1.18 0 1.77.6 1.77 1.77 0 1.2-.6 1.78-1.77 1.78H-568c-1.17 0-1.76-.6-1.76-1.77 0-1.2.6-1.78 1.77-1.78zM-582.43-1902.58l11.24-11.3c.03 0 .03 0 .04-.02.44-.45.42-1.16-.03-1.6l-11.4-11c0-.03 0-.03-.02-.03-.46-.42-1.2-.4-1.6.1l-.85.84c-.4.47-.38 1.16.06 1.6l8.93 8.52c.45.44.45 1.18 0 1.63l-8.7 8.98c-.45.44-.45 1.16 0 1.6l.66.7c.02 0 .03.04.06.06.47.4 1.2.4 1.6-.08z" stroke="#000" stroke-opacity="0" fill="#fff"/><path d="M-480-1890.83c-.2-7.7-5.86-13.9-13.43-14.94-.42-10.67-9.37-19.05-20.1-18.7-8.63-.15-16.06 4.9-19.1 13.07-9.15 1.08-15.97 8.57-16.25 17.83.4 10.33 9.1 18.4 19.42 18.07l1.66-.1h31.47c.28 0 .56-.05.83-.1 8.4-.1 15.16-6.7 15.5-15.13z" stroke="#000" stroke-opacity="0" fill="url(#m)"/><use xlink:href="#n" transform="matrix(1,0,0,1,-630,-1866.5) translate(21.07499999999999 14.4)"/><use xlink:href="#o" transform="matrix(1,0,0,1,-630,-1866.5) translate(54.02499999999999 14.4)"/><use xlink:href="#p" transform="matrix(1,0,0,1,-630,-1866.5) translate(71.02499999999999 14.4)"/><path d="M-495.22-1917.5h158.84" stroke="#3a414a" stroke-linejoin="round" fill="none"/><path d="M-497.76-1917.03h-.96v-.94h.22zm2.56 0h-.52v-.94h.52z" stroke="#3a414a" stroke-width=".05" fill="#3a414a"/><path d="M-321.62-1917.5l-14.26 4.63v-9.27z" stroke="#3a414a" fill="#3a414a"/><path d="M-291.24-2221.4H-241c1.4 0 2.12.7 2.12 2.12v50.37c0 1.4-.7 2.12-2.13 2.12h-50.24c-1.4 0-2.12-.7-2.12-2.13v-50.38c0-1.42.7-2.13 2.13-2.13z" stroke="#000" stroke-opacity="0" fill="url(#q)"/><path d="M-204.3-2260h-51.5c-1.23 0-2.16.94-2.16 2.1v9.4c0 1.17.93 2.1 2.14 2.1h37.9c2.4 0 4.3 1.94 4.3 4.3v38.65-.02c0 1.18.93 2.12 2.1 2.12h9.38c1.2 0 2.14-.94 2.14-2.12v-52.25c0-2.35-1.9-4.28-4.3-4.28z" stroke="#000" stroke-opacity="0" fill="#184b87"/><path d="M-222.4-2192.33v34c0 2.13-1.75 3.93-3.85 3.93h-77.46c-2.1 0-3.87-1.8-3.87-3.92v-73.33c0-2.1 1.76-3.92 3.86-3.92h38.83c1.2 0 2.1-.95 2.1-2.1v-8.17c0-1.17-.9-2.12-2.1-2.12h-51.28c-2.1 0-3.85 1.7-3.85 3.92v98.12c0 2.12 1.76 3.92 3.85 3.92h102.34c2.08 0 3.84-1.7 3.84-3.92v-46.4c0-1.18-1-2.13-2.1-2.13h-8.13-.1c-1.1 0-2.1.95-2.1 2.12z" stroke="#000" stroke-opacity="0" fill="#54c45e"/><path d="M-209.96-2201.42h-1.56c-1.17 0-2.15-.94-2.15-2.06v-38.6c0-2.43-1.86-4.3-4.2-4.3h-38c-.88-.1-1.66-.65-1.95-1.58h-7.04c1.08 0 2.06.93 2.06 2.14v8.14c0 1.2-.98 2.15-2.06 2.15h-38.87c-2.15 0-3.9 1.68-3.9 3.92v73.17c0 2.15 1.75 3.92 3.9 3.92h77.46c2.15 0 3.9-1.78 3.9-3.93v-33.93c0-1.2.98-2.15 2.15-2.15h8.1c1.18 0 2.16.93 2.16 2.14z" stroke="#000" stroke-opacity="0" fill="#010" fill-opacity="0"/><use xlink:href="#r" transform="matrix(1,0,0,1,-350,-2133) translate(10.574999999999989 14.4)"/><use xlink:href="#s" transform="matrix(1,0,0,1,-350,-2133) translate(81.475 14.4)"/><path d="M-209.46-2201l2.46.06 2.74.17 2.56.27 2.4.36 2.27.43 2.14.5 2.05.56 1.95.63 1.87.7 1.8.74 1.72.82 1.67.87 1.63.94 1.6 1 1.55 1.1 1.52 1.15 1.5 1.24 1.48 1.33 1.46 1.42 1.46 1.55 1.44 1.66 1.43 1.8 1.43 1.98 1.43 2.16 1.42 2.37 1.43 2.6 1.44 2.9 1.44 3.26 1.44 3.65 1.45 4.16 1.45 4.8 1.43 5.6 1.42 6.63 1.35 8.05 1.27 10.1 1.1 13.44.84 20.76.1 18.84" stroke="#3a414a" stroke-linejoin="round" fill="none"/><path d="M-209.46-2200.5l-.5-.03v-.82h.52z" stroke="#3a414a" stroke-width=".05" fill="#3a414a"/><path d="M-148.24-2055.62l-4.7-14.24 9.26-.05z" stroke="#3a414a" fill="#3a414a"/><path d="M310.22-2201.18c-.58.06-1.04.17-1.5.4l-19.98 9.85c-1.1.52-1.84 1.44-2.07 2.65l-4.95 22.17c-.23 1.02-.06 2.06.5 2.98l.24.3 13.82 17.72c.75.98 1.8 1.5 3 1.5h22.22c1.2 0 2.25-.52 3-1.5l13.82-17.73c.75-.98 1.03-2.13.75-3.34l-4.96-22.1c-.22-1.22-.97-2.14-2.06-2.66l-19.98-9.85c-.63-.28-1.2-.46-1.84-.4z" stroke="#000" stroke-opacity="0" stroke-width="0" fill="#54c45e"/><path d="M310.2-2202.78c-.6.06-1.08.18-1.57.42l-21.1 10.4c-1.15.54-1.94 1.52-2.18 2.8l-5.23 23.4c-.24 1.1-.06 2.18.55 3.16.06.12.12.18.24.3l14.6 18.72c.8 1.03 1.88 1.58 3.16 1.58h23.46c1.28 0 2.37-.55 3.16-1.58l14.6-18.72c.78-1.03 1.08-2.25.78-3.47l-5.23-23.4c-.24-1.27-1.03-2.25-2.2-2.8l-21.08-10.4c-.66-.3-1.27-.47-1.94-.4zm0 1.58c.68 0 1.22.12 1.83.42l20.06 9.85c1.02.55 1.75 1.46 2.06 2.67l4.92 22.13c.24 1.22 0 2.3-.73 3.28l-13.86 17.75c-.74.97-1.77 1.52-3 1.52h-22.23c-1.22 0-2.25-.55-2.98-1.52l-13.87-17.75c-.06-.06-.12-.18-.18-.3-.6-.9-.8-1.9-.55-2.98l4.93-22.13c.3-1.2.97-2.12 2.06-2.67l20.05-9.85c.5-.24.9-.36 1.46-.42z" stroke="#000" stroke-opacity="0" stroke-width="0" fill="#fff"/><path d="M324.74-2173.2h-2.32v-6.4c0-1.8-1.4-3.23-3.13-3.23h-6.22v-2.4c0-2.22-1.77-4-3.9-4-2.15 0-3.88 1.78-3.88 4v2.4h-6.24c-1.7 0-3.1 1.44-3.1 3.23v6.1h2.3c2.33 0 4.23 1.92 4.23 4.3 0 2.4-1.9 4.36-4.23 4.36h-2.32v6.1c0 1.74 1.4 3.2 3.1 3.2h5.92v-2.4c0-2.4 1.9-4.34 4.22-4.34 2.3 0 4.17 1.95 4.17 4.34v2.4h5.92c1.72 0 3.12-1.46 3.12-3.2v-6.44h2.32c2.16 0 3.9-1.8 3.9-4s-1.74-4.02-3.9-4.02z" stroke="#000" stroke-opacity="0" stroke-width="1.74" fill="#fff"/><g><use xlink:href="#t" transform="matrix(1,0,0,1,250,-2133) translate(11.76543209876543 17.77777777777778)"/><use xlink:href="#u" transform="matrix(1,0,0,1,250,-2133) translate(29.697530864197535 44.44444444444444)"/></g><path d="M310.22-1957.9c-.58.06-1.04.18-1.5.4l-19.98 9.85c-1.1.52-1.84 1.44-2.07 2.65l-4.95 22.17c-.23 1.03-.06 2.07.5 3 .07.1.13.16.24.28l13.82 17.73c.75.98 1.8 1.5 3 1.5h22.22c1.2 0 2.25-.52 3-1.5l13.82-17.73c.75-.98 1.03-2.13.75-3.34l-4.96-22.1c-.22-1.2-.97-2.13-2.06-2.65l-19.98-9.84c-.63-.28-1.2-.45-1.84-.4z" stroke="#000" stroke-opacity="0" stroke-width="0" fill="#54c45e"/><path d="M310.2-1959.5c-.6.06-1.08.18-1.57.42l-21.1 10.4c-1.15.55-1.94 1.52-2.18 2.8l-5.23 23.4c-.24 1.1-.06 2.18.55 3.16.06.12.12.18.24.3l14.6 18.72c.8 1.03 1.88 1.58 3.16 1.58h23.46c1.28 0 2.37-.55 3.16-1.58l14.6-18.72c.78-1.03 1.08-2.25.78-3.46l-5.23-23.4c-.24-1.28-1.03-2.25-2.2-2.8l-21.08-10.4c-.66-.3-1.27-.48-1.94-.42zm0 1.58c.68 0 1.22.12 1.83.43l20.06 9.85c1.02.55 1.75 1.46 2.06 2.68l4.92 22.12c.24 1.22 0 2.3-.73 3.28l-13.86 17.75c-.74.97-1.77 1.52-3 1.52h-22.23c-1.22 0-2.25-.55-2.98-1.52l-13.87-17.75c-.06-.06-.12-.18-.18-.3-.6-.9-.8-1.88-.55-2.98l4.93-22.12c.3-1.22.97-2.13 2.06-2.68l20.05-9.84c.5-.24.9-.36 1.46-.42z" stroke="#000" stroke-opacity="0" stroke-width="0" fill="#fff"/><path d="M324.74-1929.92h-2.32v-6.4c0-1.78-1.4-3.23-3.13-3.23h-6.22v-2.4c0-2.22-1.77-4-3.9-4-2.15 0-3.88 1.78-3.88 4v2.4h-6.24c-1.7 0-3.1 1.45-3.1 3.23v6.1h2.3c2.33 0 4.23 1.92 4.23 4.3 0 2.4-1.9 4.36-4.23 4.36h-2.32v6.1c0 1.75 1.4 3.2 3.1 3.2h5.92v-2.4c0-2.4 1.9-4.34 4.22-4.34 2.3 0 4.17 1.95 4.17 4.34v2.4h5.92c1.72 0 3.12-1.45 3.12-3.2v-6.44h2.32c2.16 0 3.9-1.78 3.9-4 0-2.2-1.74-4.02-3.9-4.02z" stroke="#000" stroke-opacity="0" stroke-width="1.74" fill="#fff"/><g><use xlink:href="#t" transform="matrix(1,0,0,1,250,-1889.7179099236146) translate(11.76543209876543 17.77777777777778)"/><use xlink:href="#u" transform="matrix(1,0,0,1,250,-1889.7179099236146) translate(29.697530864197535 44.44444444444444)"/></g><path d="M310.22-1726.18c-.58.06-1.04.17-1.5.4l-19.98 9.85c-1.1.52-1.84 1.44-2.07 2.65l-4.95 22.16c-.23 1.04-.06 2.08.5 3l.24.3 13.82 17.72c.75.98 1.8 1.5 3 1.5h22.22c1.2 0 2.25-.52 3-1.5l13.82-17.73c.75-.98 1.03-2.13.75-3.34l-4.96-22.1c-.22-1.22-.97-2.14-2.06-2.66l-19.98-9.85c-.63-.28-1.2-.46-1.84-.4z" stroke="#000" stroke-opacity="0" stroke-width="0" fill="#54c45e"/><path d="M310.2-1727.78c-.6.06-1.08.18-1.57.42l-21.1 10.4c-1.15.54-1.94 1.52-2.18 2.8l-5.23 23.4c-.24 1.1-.06 2.18.55 3.15.06.12.12.18.24.3l14.6 18.72c.8 1.03 1.88 1.58 3.16 1.58h23.46c1.28 0 2.37-.55 3.16-1.58l14.6-18.72c.78-1.04 1.08-2.25.78-3.47l-5.23-23.4c-.24-1.27-1.03-2.25-2.2-2.8l-21.08-10.4c-.66-.3-1.27-.47-1.94-.4zm0 1.58c.68 0 1.22.12 1.83.42l20.06 9.85c1.02.55 1.75 1.46 2.06 2.67l4.92 22.13c.24 1.2 0 2.3-.73 3.28l-13.86 17.75c-.74.97-1.77 1.52-3 1.52h-22.23c-1.22 0-2.25-.55-2.98-1.52l-13.87-17.75c-.06-.06-.12-.18-.18-.3-.6-.9-.8-1.9-.55-2.98l4.93-22.13c.3-1.2.97-2.12 2.06-2.67l20.05-9.85c.5-.24.9-.36 1.46-.42z" stroke="#000" stroke-opacity="0" stroke-width="0" fill="#fff"/><path d="M324.74-1698.2h-2.32v-6.4c0-1.8-1.4-3.23-3.13-3.23h-6.22v-2.4c0-2.22-1.77-4-3.9-4-2.15 0-3.88 1.78-3.88 4v2.4h-6.24c-1.7 0-3.1 1.44-3.1 3.23v6.1h2.3c2.33 0 4.23 1.92 4.23 4.3 0 2.4-1.9 4.35-4.23 4.35h-2.32v6.1c0 1.75 1.4 3.2 3.1 3.2h5.92v-2.4c0-2.38 1.9-4.34 4.22-4.34 2.3 0 4.17 1.97 4.17 4.36v2.4h5.92c1.72 0 3.12-1.46 3.12-3.2v-6.44h2.32c2.16 0 3.9-1.8 3.9-4s-1.74-4.02-3.9-4.02z" stroke="#000" stroke-opacity="0" stroke-width="1.74" fill="#fff"/><g><use xlink:href="#t" transform="matrix(1,0,0,1,250,-1658.0011247503353) translate(11.76543209876543 17.77777777777778)"/><use xlink:href="#u" transform="matrix(1,0,0,1,250,-1658.0011247503353) translate(29.697530864197535 44.44444444444444)"/></g><defs><path fill="#333" d="M1222-777c17 480-206 763-650 777H169v-1456h411c408 9 627 269 642 679zm-190 4c3-312-149-522-447-525H361v1141h202c308 0 473-209 469-531v-85" id="v"/><path fill="#333" d="M599-131c141 0 220-65 285-146l113 88C906-50 770 20 589 20 281 21 93-214 93-545c0-223 93-397 233-485 74-48 154-72 240-72 300 2 449 218 445 537v77H278c0 197 129 357 321 357zm227-509c-3-180-88-310-260-310-170 0-264 140-282 310h542" id="w"/><path fill="#333" d="M497-251l268-831h189L566 0H425L33-1082h189" id="x"/><g id="a"><use transform="matrix(0.0087890625,0,0,0.0087890625,0,0)" xlink:href="#v"/><use transform="matrix(0.0087890625,0,0,0.0087890625,11.8037109375,0)" xlink:href="#w"/><use transform="matrix(0.0087890625,0,0,0.0087890625,21.2255859375,0)" xlink:href="#x"/></g><path fill="#333" d="M539-677L361-492V0H169v-1456h192v720l647-720h232L667-813 1285 0h-230" id="y"/><path fill="#333" d="M491 20c-241-1-355-148-355-398v-704h185v699c0 164 67 246 200 246 141 0 235-53 282-158v-787h185V0H812l-4-107C736-22 630 20 491 20" id="z"/><path fill="#333" d="M634-1102c292 0 422 254 422 573 0 298-143 547-420 549-137 0-242-48-317-145L310 0H140v-1536h185v573c75-93 178-139 309-139zm-44 965c207 0 281-175 281-413 0-224-79-395-283-395-122 0-210 57-263 170v468c57 113 145 170 265 170" id="A"/><path fill="#333" d="M663-916c-163-27-288 18-338 148V0H140v-1082h180l3 125c61-97 147-145 258-145 36 0 63 5 82 14v172" id="B"/><path fill="#333" d="M589-945c-131 0-219 81-264 174V0H140v-1082h175l6 136c83-104 191-156 324-156 229 0 346 129 346 387V0H806v-716c-2-153-65-229-217-229" id="C"/><path fill="#333" d="M456 20C285 20 205-92 206-268v-671H9v-143h197v-262h185v262h202v143H391v671c-9 125 92 149 207 118V0c-49 13-96 20-142 20" id="D"/><path fill="#333" d="M538-131c121 0 232-49 232-156 0-50-20-88-56-117-73-60-334-92-420-143-92-55-162-110-162-238 0-190 192-317 400-317 223 0 414 129 413 338H759c0-108-110-186-227-186-119 0-215 53-215 159 0 45 18 78 53 101 76 52 331 90 416 139 98 57 169 115 169 251C955-92 760 20 538 20c-176 0-314-68-386-174-38-55-57-115-57-179h185c6 129 116 202 258 202" id="E"/><g id="b"><use transform="matrix(0.0087890625,0,0,0.0087890625,0,0)" xlink:href="#y"/><use transform="matrix(0.0087890625,0,0,0.0087890625,11.0830078125,0)" xlink:href="#z"/><use transform="matrix(0.0087890625,0,0,0.0087890625,21.005859375,0)" xlink:href="#A"/><use transform="matrix(0.0087890625,0,0,0.0087890625,31.1044921875,0)" xlink:href="#w"/><use transform="matrix(0.0087890625,0,0,0.0087890625,40.640625,0)" xlink:href="#B"/><use transform="matrix(0.0087890625,0,0,0.0087890625,46.7314453125,0)" xlink:href="#C"/><use transform="matrix(0.0087890625,0,0,0.0087890625,56.6630859375,0)" xlink:href="#w"/><use transform="matrix(0.0087890625,0,0,0.0087890625,66.19921875,0)" xlink:href="#D"/><use transform="matrix(0.0087890625,0,0,0.0087890625,72.0791015625,0)" xlink:href="#w"/><use transform="matrix(0.0087890625,0,0,0.0087890625,81.615234375,0)" xlink:href="#E"/></g><path fill="#333" d="M688-137c238 0 323-102 359-325h193c-32 297-228 482-552 482-361 0-569-299-569-680 0-197 8-360 73-497 88-186 257-317 513-319 316-2 509 195 535 488h-193c-31-212-118-330-342-330-272 0-397 224-393 523v141c-3 282 115 517 376 517" id="F"/><path fill="#333" d="M341 0H156v-1536h185V0" id="G"/><g id="c"><use transform="matrix(0.0087890625,0,0,0.0087890625,0,0)" xlink:href="#F"/><use transform="matrix(0.0087890625,0,0,0.0087890625,11.7158203125,0)" xlink:href="#G"/><use transform="matrix(0.0087890625,0,0,0.0087890625,16.083984375,0)" xlink:href="#z"/><use transform="matrix(0.0087890625,0,0,0.0087890625,26.0068359375,0)" xlink:href="#E"/><use transform="matrix(0.0087890625,0,0,0.0087890625,35.2880859375,0)" xlink:href="#D"/><use transform="matrix(0.0087890625,0,0,0.0087890625,41.16796875,0)" xlink:href="#w"/><use transform="matrix(0.0087890625,0,0,0.0087890625,50.7041015625,0)" xlink:href="#B"/></g><path fill="#333" d="M631-137c179 0 314-70 314-231 0-71-25-127-75-166s-141-77-272-115c-165-47-285-106-360-175s-112-154-112-255c0-245 231-397 495-397 206 0 369 89 449 218 43 68 65 142 65 223H942c0-184-129-283-321-283-172 0-299 76-301 236 0 59 26 109 76 150s135 78 256 113c205 59 345 116 436 256 35 53 50 119 50 193-2 256-231 398-507 390C333 12 90-129 80-422h193c0 187 160 285 358 285" id="H"/><path fill="#333" d="M561-1102c238-4 403 126 403 351v498c0 99 13 178 38 237V0H808c-11-21-19-59-26-114C696-25 593 20 474 20c-199 0-368-130-365-320 4-251 214-359 490-356h180v-85c-1-135-86-212-229-212-115 0-232 67-233 171H131c20-205 206-316 430-320zM294-326c0 117 90 185 207 185 122 0 239-75 278-162v-222H634c-227 0-340 66-340 199" id="I"/><path fill="#333" d="M521 20C240 20 96-239 96-550c0-303 147-552 427-552 132 0 235 47 309 140l9-120h169V-26c4 277-183 454-459 452-165-1-334-81-400-187l96-111c79 98 176 147 291 147 180 1 288-109 286-290v-93C750-23 649 20 521 20zm48-965c-209 0-287 178-287 416 0 217 86 392 285 392 117 0 202-53 257-159v-494c-57-103-142-155-255-155" id="J"/><path fill="#333" d="M341 0H156v-1082h185V0zm-91-1264c-68 0-108-42-109-105 0-62 41-107 109-107s110 44 110 107-42 105-110 105" id="K"/><g id="d"><use transform="matrix(0.0087890625,0,0,0.0087890625,0,0)" xlink:href="#H"/><use transform="matrix(0.0087890625,0,0,0.0087890625,10.6787109375,0)" xlink:href="#D"/><use transform="matrix(0.0087890625,0,0,0.0087890625,16.55859375,0)" xlink:href="#I"/><use transform="matrix(0.0087890625,0,0,0.0087890625,26.349609375,0)" xlink:href="#J"/><use transform="matrix(0.0087890625,0,0,0.0087890625,36.4482421875,0)" xlink:href="#K"/><use transform="matrix(0.0087890625,0,0,0.0087890625,40.81640625,0)" xlink:href="#C"/><use transform="matrix(0.0087890625,0,0,0.0087890625,50.748046875,0)" xlink:href="#J"/></g><path fill="#333" d="M1216-1011c-1 297-202 441-512 441H361V0H169v-1456h537c297-6 510 164 510 445zm-192 2c1-178-126-288-307-289H361v571h345c196 1 318-92 318-282" id="L"/><path fill="#333" d="M584 20C278 26 81-227 91-551c10-320 175-545 491-551 308-5 503 247 494 573-9 322-175 543-492 549zm-2-970c-208 0-305 185-305 421 0 216 106 398 307 398 211 0 307-186 307-420 0-214-109-399-309-399" id="M"/><path fill="#333" d="M520 20C244 20 95-247 95-550c0-298 151-550 427-552 127 0 227 43 301 130v-564h185V0H838l-9-116C755-25 652 20 520 20zm48-965c-210 0-288 177-288 416 0 218 87 392 286 392 117 0 203-53 257-158v-497c-55-102-140-153-255-153" id="N"/><path fill="#333" d="M277-555c0 244 77 420 297 424 127 2 249-93 255-210h175C980-127 805 20 574 20 258 20 81-222 92-562c11-319 164-533 481-540 237-5 426 165 431 392H829c-7-133-115-242-256-240-209 4-296 166-296 395" id="O"/><g id="e"><use transform="matrix(0.0087890625,0,0,0.0087890625,0,0)" xlink:href="#L"/><use transform="matrix(0.0087890625,0,0,0.0087890625,11.35546875,0)" xlink:href="#B"/><use transform="matrix(0.0087890625,0,0,0.0087890625,17.2705078125,0)" xlink:href="#M"/><use transform="matrix(0.0087890625,0,0,0.0087890625,27.5361328125,0)" xlink:href="#N"/><use transform="matrix(0.0087890625,0,0,0.0087890625,37.6875,0)" xlink:href="#z"/><use transform="matrix(0.0087890625,0,0,0.0087890625,47.6103515625,0)" xlink:href="#O"/><use transform="matrix(0.0087890625,0,0,0.0087890625,57.0322265625,0)" xlink:href="#D"/><use transform="matrix(0.0087890625,0,0,0.0087890625,62.912109375,0)" xlink:href="#K"/><use transform="matrix(0.0087890625,0,0,0.0087890625,67.2802734375,0)" xlink:href="#M"/><use transform="matrix(0.0087890625,0,0,0.0087890625,77.5458984375,0)" xlink:href="#C"/></g><path fill="#333" d="M1161-1018c0 201-122 330-278 388l342 618V0h-206L703-589H361V0H168v-1456h482c310-2 511 139 511 438zm-193 0c0-187-120-280-313-280H361v552h295c179 3 313-101 312-272" id="P"/><g id="f"><use transform="matrix(0.0087890625,0,0,0.0087890625,0,0)" xlink:href="#P"/><use transform="matrix(0.0087890625,0,0,0.0087890625,11.0830078125,0)" xlink:href="#K"/><use transform="matrix(0.0087890625,0,0,0.0087890625,15.451171875,0)" xlink:href="#J"/></g><path fill="#333" d="M704-1390c-164-38-297 28-288 194v114h231v143H416V0H231v-939H60v-143h171v-111c-12-274 208-416 483-347" id="Q"/><path fill="#333" d="M1240-945c-141 0-250 95-250 227V0H804v-709c0-157-77-236-231-236-121 0-204 52-249 155V0H139v-1082h175l5 120c79-93 186-140 321-140 151 0 254 58 309 174 69-98 181-174 345-174 237 0 362 126 362 377V0h-185v-714c-2-159-67-231-231-231" id="R"/><g id="g"><use transform="matrix(0.0087890625,0,0,0.0087890625,0,0)" xlink:href="#L"/><use transform="matrix(0.0087890625,0,0,0.0087890625,11.35546875,0)" xlink:href="#G"/><use transform="matrix(0.0087890625,0,0,0.0087890625,15.7236328125,0)" xlink:href="#I"/><use transform="matrix(0.0087890625,0,0,0.0087890625,25.5146484375,0)" xlink:href="#D"/><use transform="matrix(0.0087890625,0,0,0.0087890625,31.39453125,0)" xlink:href="#Q"/><use transform="matrix(0.0087890625,0,0,0.0087890625,37.6435546875,0)" xlink:href="#M"/><use transform="matrix(0.0087890625,0,0,0.0087890625,47.9091796875,0)" xlink:href="#B"/><use transform="matrix(0.0087890625,0,0,0.0087890625,54,0)" xlink:href="#R"/></g><path fill="#3a414a" d="M233-177c-1 41-23 64-60 70L243 0h-38l-65-103H63V0H30v-248c88 3 205-21 203 71zM63-129c60-2 137 13 137-47 0-61-80-42-137-45v92" id="S"/><path fill="#3a414a" d="M24-231v-30h32v30H24zM24 0v-190h32V0H24" id="T"/><path fill="#3a414a" d="M177-190C167-65 218 103 67 71c-23-6-38-20-44-43l32-5c15 47 100 32 89-28v-30C133-14 115 1 83 1 29 1 15-40 15-95c0-56 16-97 71-98 29-1 48 16 59 35 1-10 0-23 2-32h30zM94-22c36 0 50-32 50-73 0-42-14-75-50-75-39 0-46 34-46 75s6 73 46 73" id="U"/><g id="h"><use transform="matrix(0.06172839506172839,0,0,0.06172839506172839,0,0)" xlink:href="#S"/><use transform="matrix(0.06172839506172839,0,0,0.06172839506172839,15.987654320987653,0)" xlink:href="#T"/><use transform="matrix(0.06172839506172839,0,0,0.06172839506172839,20.864197530864196,0)" xlink:href="#U"/></g><path fill="#3a414a" d="M140-251c81 0 123 46 123 126C263-46 219 4 140 4 59 4 17-45 17-125s42-126 123-126zm0 227c63 0 89-41 89-101s-29-99-89-99c-61 0-89 39-89 99S79-25 140-24" id="V"/><path fill="#3a414a" d="M115-194c55 1 70 41 70 98S169 2 115 4C84 4 66-9 55-30l1 105H24l-1-265h31l2 30c10-21 28-34 59-34zm-8 174c40 0 45-34 45-75s-6-73-45-74c-42 0-51 32-51 76 0 43 10 73 51 73" id="W"/><path fill="#3a414a" d="M100-194c63 0 86 42 84 106H49c0 40 14 67 53 68 26 1 43-12 49-29l28 8c-11 28-37 45-77 45C44 4 14-33 15-96c1-61 26-98 85-98zm52 81c6-60-76-77-97-28-3 7-6 17-6 28h103" id="X"/><path fill="#3a414a" d="M114-163C36-179 61-72 57 0H25l-1-190h30c1 12-1 29 2 39 6-27 23-49 58-41v29" id="Y"/><path fill="#3a414a" d="M141-36C126-15 110 5 73 4 37 3 15-17 15-53c-1-64 63-63 125-63 3-35-9-54-41-54-24 1-41 7-42 31l-33-3c5-37 33-52 76-52 45 0 72 20 72 64v82c-1 20 7 32 28 27v20c-31 9-61-2-59-35zM48-53c0 20 12 33 32 33 41-3 63-29 60-74-43 2-92-5-92 41" id="Z"/><path fill="#3a414a" d="M59-47c-2 24 18 29 38 22v24C64 9 27 4 27-40v-127H5v-23h24l9-43h21v43h35v23H59v120" id="aa"/><path fill="#3a414a" d="M100-194c62-1 85 37 85 99 1 63-27 99-86 99S16-35 15-95c0-66 28-99 85-99zM99-20c44 1 53-31 53-75 0-43-8-75-51-75s-53 32-53 75 10 74 51 75" id="ab"/><g id="i"><use transform="matrix(0.06172839506172839,0,0,0.06172839506172839,0,0)" xlink:href="#V"/><use transform="matrix(0.06172839506172839,0,0,0.06172839506172839,17.28395061728395,0)" xlink:href="#W"/><use transform="matrix(0.06172839506172839,0,0,0.06172839506172839,29.629629629629626,0)" xlink:href="#X"/><use transform="matrix(0.06172839506172839,0,0,0.06172839506172839,41.9753086419753,0)" xlink:href="#Y"/><use transform="matrix(0.06172839506172839,0,0,0.06172839506172839,49.32098765432098,0)" xlink:href="#Z"/><use transform="matrix(0.06172839506172839,0,0,0.06172839506172839,61.66666666666666,0)" xlink:href="#aa"/><use transform="matrix(0.06172839506172839,0,0,0.06172839506172839,67.83950617283949,0)" xlink:href="#ab"/><use transform="matrix(0.06172839506172839,0,0,0.06172839506172839,80.18518518518518,0)" xlink:href="#Y"/></g><path d="M233-177c-1 41-23 64-60 70L243 0h-38l-65-103H63V0H30v-248c88 3 205-21 203 71zM63-129c60-2 137 13 137-47 0-61-80-42-137-45v92" id="ac"/><path d="M24-231v-30h32v30H24zM24 0v-190h32V0H24" id="ad"/><path d="M177-190C167-65 218 103 67 71c-23-6-38-20-44-43l32-5c15 47 100 32 89-28v-30C133-14 115 1 83 1 29 1 15-40 15-95c0-56 16-97 71-98 29-1 48 16 59 35 1-10 0-23 2-32h30zM94-22c36 0 50-32 50-73 0-42-14-75-50-75-39 0-46 34-46 75s6 73 46 73" id="ae"/><g id="j"><use transform="matrix(0.05,0,0,0.05,0,0)" xlink:href="#ac"/><use transform="matrix(0.05,0,0,0.05,12.950000000000001,0)" xlink:href="#ad"/><use transform="matrix(0.05,0,0,0.05,16.900000000000002,0)" xlink:href="#ae"/></g><path d="M30-248c118-7 216 8 213 122C240-48 200 0 122 0H30v-248zM63-27c89 8 146-16 146-99s-60-101-146-95v194" id="af"/><path d="M100-194c63 0 86 42 84 106H49c0 40 14 67 53 68 26 1 43-12 49-29l28 8c-11 28-37 45-77 45C44 4 14-33 15-96c1-61 26-98 85-98zm52 81c6-60-76-77-97-28-3 7-6 17-6 28h103" id="ag"/><path d="M115-194c55 1 70 41 70 98S169 2 115 4C84 4 66-9 55-30l1 105H24l-1-265h31l2 30c10-21 28-34 59-34zm-8 174c40 0 45-34 45-75s-6-73-45-74c-42 0-51 32-51 76 0 43 10 73 51 73" id="ah"/><path d="M24 0v-261h32V0H24" id="ai"/><path d="M100-194c62-1 85 37 85 99 1 63-27 99-86 99S16-35 15-95c0-66 28-99 85-99zM99-20c44 1 53-31 53-75 0-43-8-75-51-75s-53 32-53 75 10 74 51 75" id="aj"/><path d="M179-190L93 31C79 59 56 82 12 73V49c39 6 53-20 64-50L1-190h34L92-34l54-156h33" id="ak"/><path d="M210-169c-67 3-38 105-44 169h-31v-121c0-29-5-50-35-48C34-165 62-65 56 0H25l-1-190h30c1 10-1 24 2 32 10-44 99-50 107 0 11-21 27-35 58-36 85-2 47 119 55 194h-31v-121c0-29-5-49-35-48" id="al"/><path d="M117-194c89-4 53 116 60 194h-32v-121c0-31-8-49-39-48C34-167 62-67 57 0H25l-1-190h30c1 10-1 24 2 32 11-22 29-35 61-36" id="am"/><path d="M59-47c-2 24 18 29 38 22v24C64 9 27 4 27-40v-127H5v-23h24l9-43h21v43h35v23H59v120" id="an"/><g id="k"><use transform="matrix(0.05,0,0,0.05,0,0)" xlink:href="#af"/><use transform="matrix(0.05,0,0,0.05,12.950000000000001,0)" xlink:href="#ag"/><use transform="matrix(0.05,0,0,0.05,22.950000000000003,0)" xlink:href="#ah"/><use transform="matrix(0.05,0,0,0.05,32.95,0)" xlink:href="#ai"/><use transform="matrix(0.05,0,0,0.05,36.900000000000006,0)" xlink:href="#aj"/><use transform="matrix(0.05,0,0,0.05,46.900000000000006,0)" xlink:href="#ak"/><use transform="matrix(0.05,0,0,0.05,55.900000000000006,0)" xlink:href="#al"/><use transform="matrix(0.05,0,0,0.05,70.85000000000001,0)" xlink:href="#ag"/><use transform="matrix(0.05,0,0,0.05,80.85000000000001,0)" xlink:href="#am"/><use transform="matrix(0.05,0,0,0.05,90.85000000000001,0)" xlink:href="#an"/></g><path d="M30 0v-248h187v28H63v79h144v27H63v87h162V0H30" id="ao"/><g id="l"><use transform="matrix(0.05,0,0,0.05,0,0)" xlink:href="#ao"/><use transform="matrix(0.05,0,0,0.05,12,0)" xlink:href="#am"/><use transform="matrix(0.05,0,0,0.05,22,0)" xlink:href="#ae"/><use transform="matrix(0.05,0,0,0.05,32,0)" xlink:href="#ad"/><use transform="matrix(0.05,0,0,0.05,35.95,0)" xlink:href="#am"/><use transform="matrix(0.05,0,0,0.05,45.95,0)" xlink:href="#ag"/></g><linearGradient gradientUnits="userSpaceOnUse" id="m" x1="-539.99" y1="-1875.46" x2="-539.99" y2="-1959.48"><stop offset="0%" stop-color="#0078d4"/><stop offset="15.6%" stop-color="#1380da"/><stop offset="52.8%" stop-color="#3c91e5"/><stop offset="82.2%" stop-color="#559cec"/><stop offset="100%" stop-color="#5ea0ef"/></linearGradient><path d="M212-179c-10-28-35-45-73-45-59 0-87 40-87 99 0 60 29 101 89 101 43 0 62-24 78-52l27 14C228-24 195 4 139 4 59 4 22-46 18-125c-6-104 99-153 187-111 19 9 31 26 39 46" id="ap"/><path d="M30 0v-248h33v221h125V0H30" id="aq"/><path d="M33 0v-248h34V0H33" id="ar"/><g id="n"><use transform="matrix(0.05,0,0,0.05,0,0)" xlink:href="#ap"/><use transform="matrix(0.05,0,0,0.05,12.950000000000001,0)" xlink:href="#aq"/><use transform="matrix(0.05,0,0,0.05,22.950000000000003,0)" xlink:href="#ar"/></g><path d="M234-2c-28 10-62 0-77-18C117 19 8 12 13-65c3-43 29-61 60-76-25-40-17-114 47-108 35 3 59 15 59 50 0 44-40 53-71 69 14 26 32 50 51 72 14-21 24-43 30-72l26 8c-9 33-21 57-38 82 13 13 33 22 57 15v23zM97-151c25-10 52-18 56-48-1-18-13-29-33-29-42 0-39 50-23 77zM42-66c-3 51 71 58 98 28-20-24-41-51-56-80-23 10-40 24-42 52" id="as"/><use transform="matrix(0.05,0,0,0.05,0,0)" xlink:href="#as" id="o"/><path d="M141-36C126-15 110 5 73 4 37 3 15-17 15-53c-1-64 63-63 125-63 3-35-9-54-41-54-24 1-41 7-42 31l-33-3c5-37 33-52 76-52 45 0 72 20 72 64v82c-1 20 7 32 28 27v20c-31 9-61-2-59-35zM48-53c0 20 12 33 32 33 41-3 63-29 60-74-43 2-92-5-92 41" id="at"/><path d="M135-143c-3-34-86-38-87 0 15 53 115 12 119 90S17 21 10-45l28-5c4 36 97 45 98 0-10-56-113-15-118-90-4-57 82-63 122-42 12 7 21 19 24 35" id="au"/><path d="M106-169C34-169 62-67 57 0H25v-261h32l-1 103c12-21 28-36 61-36 89 0 53 116 60 194h-32v-121c2-32-8-49-39-48" id="av"/><path d="M115-194c53 0 69 39 70 98 0 66-23 100-70 100C84 3 66-7 56-30L54 0H23l1-261h32v101c10-23 28-34 59-34zm-8 174c40 0 45-34 45-75 0-40-5-75-45-74-42 0-51 32-51 76 0 43 10 73 51 73" id="aw"/><path d="M114-163C36-179 61-72 57 0H25l-1-190h30c1 12-1 29 2 39 6-27 23-49 58-41v29" id="ax"/><path d="M85-194c31 0 48 13 60 33l-1-100h32l1 261h-30c-2-10 0-23-3-31C134-8 116 4 85 4 32 4 16-35 15-94c0-66 23-100 70-100zm9 24c-40 0-46 34-46 75 0 40 6 74 45 74 42 0 51-32 51-76 0-42-9-74-50-73" id="ay"/><g id="p"><use transform="matrix(0.05,0,0,0.05,0,0)" xlink:href="#af"/><use transform="matrix(0.05,0,0,0.05,12.950000000000001,0)" xlink:href="#at"/><use transform="matrix(0.05,0,0,0.05,22.950000000000003,0)" xlink:href="#au"/><use transform="matrix(0.05,0,0,0.05,31.950000000000003,0)" xlink:href="#av"/><use transform="matrix(0.05,0,0,0.05,41.95,0)" xlink:href="#aw"/><use transform="matrix(0.05,0,0,0.05,51.95,0)" xlink:href="#aj"/><use transform="matrix(0.05,0,0,0.05,61.95,0)" xlink:href="#at"/><use transform="matrix(0.05,0,0,0.05,71.95,0)" xlink:href="#ax"/><use transform="matrix(0.05,0,0,0.05,77.9,0)" xlink:href="#ay"/></g><linearGradient gradientUnits="userSpaceOnUse" id="q" x1="-260" y1="-2141.98" x2="-260" y2="-2260"><stop offset="0%" stop-color="#00cf88"/><stop offset="17.5%" stop-color="#00db95"/><stop offset="41%" stop-color="#00e39d"/><stop offset="77.5%" stop-color="#00e5a0"/></linearGradient><path d="M84 4C-5 8 30-112 23-190h32v120c0 31 7 50 39 49 72-2 45-101 50-169h31l1 190h-30c-1-10 1-25-2-33-11 22-28 36-60 37" id="az"/><g id="r"><use transform="matrix(0.05,0,0,0.05,0,0)" xlink:href="#ap"/><use transform="matrix(0.05,0,0,0.05,12.950000000000001,0)" xlink:href="#at"/><use transform="matrix(0.05,0,0,0.05,22.950000000000003,0)" xlink:href="#ah"/><use transform="matrix(0.05,0,0,0.05,32.95,0)" xlink:href="#au"/><use transform="matrix(0.05,0,0,0.05,41.95,0)" xlink:href="#az"/><use transform="matrix(0.05,0,0,0.05,51.95,0)" xlink:href="#ai"/><use transform="matrix(0.05,0,0,0.05,55.900000000000006,0)" xlink:href="#ag"/></g><path d="M141 0L90-78 38 0H4l68-98-65-92h35l48 74 47-74h35l-64 92 68 98h-35" id="aA"/><g id="s"><use transform="matrix(0.05,0,0,0.05,0,0)" xlink:href="#ao"/><use transform="matrix(0.05,0,0,0.05,12,0)" xlink:href="#aA"/><use transform="matrix(0.05,0,0,0.05,21,0)" xlink:href="#an"/><use transform="matrix(0.05,0,0,0.05,26,0)" xlink:href="#ag"/><use transform="matrix(0.05,0,0,0.05,36,0)" xlink:href="#am"/><use transform="matrix(0.05,0,0,0.05,46,0)" xlink:href="#au"/><use transform="matrix(0.05,0,0,0.05,55,0)" xlink:href="#ad"/><use transform="matrix(0.05,0,0,0.05,58.95,0)" xlink:href="#aj"/><use transform="matrix(0.05,0,0,0.05,68.95,0)" xlink:href="#am"/><use transform="matrix(0.05,0,0,0.05,78.95,0)" xlink:href="#au"/></g><path fill="#3a414a" d="M30 0v-248h187v28H63v79h144v27H63v87h162V0H30" id="aB"/><path fill="#3a414a" d="M141 0L90-78 38 0H4l68-98-65-92h35l48 74 47-74h35l-64 92 68 98h-35" id="aC"/><path fill="#3a414a" d="M117-194c89-4 53 116 60 194h-32v-121c0-31-8-49-39-48C34-167 62-67 57 0H25l-1-190h30c1 10-1 24 2 32 11-22 29-35 61-36" id="aD"/><path fill="#3a414a" d="M135-143c-3-34-86-38-87 0 15 53 115 12 119 90S17 21 10-45l28-5c4 36 97 45 98 0-10-56-113-15-118-90-4-57 82-63 122-42 12 7 21 19 24 35" id="aE"/><g id="t"><use transform="matrix(0.06172839506172839,0,0,0.06172839506172839,0,0)" xlink:href="#aB"/><use transform="matrix(0.06172839506172839,0,0,0.06172839506172839,14.814814814814813,0)" xlink:href="#aC"/><use transform="matrix(0.06172839506172839,0,0,0.06172839506172839,25.925925925925924,0)" xlink:href="#aa"/><use transform="matrix(0.06172839506172839,0,0,0.06172839506172839,32.098765432098766,0)" xlink:href="#X"/><use transform="matrix(0.06172839506172839,0,0,0.06172839506172839,44.44444444444444,0)" xlink:href="#aD"/><use transform="matrix(0.06172839506172839,0,0,0.06172839506172839,56.79012345679012,0)" xlink:href="#aE"/><use transform="matrix(0.06172839506172839,0,0,0.06172839506172839,67.90123456790123,0)" xlink:href="#T"/><use transform="matrix(0.06172839506172839,0,0,0.06172839506172839,72.77777777777777,0)" xlink:href="#ab"/><use transform="matrix(0.06172839506172839,0,0,0.06172839506172839,85.12345679012346,0)" xlink:href="#aD"/></g><path fill="#3a414a" d="M30-248c87 1 191-15 191 75 0 78-77 80-158 76V0H30v-248zm33 125c57 0 124 11 124-50 0-59-68-47-124-48v98" id="aF"/><path fill="#3a414a" d="M24 0v-261h32V0H24" id="aG"/><path fill="#3a414a" d="M84 4C-5 8 30-112 23-190h32v120c0 31 7 50 39 49 72-2 45-101 50-169h31l1 190h-30c-1-10 1-25-2-33-11 22-28 36-60 37" id="aH"/><g id="u"><use transform="matrix(0.06172839506172839,0,0,0.06172839506172839,0,0)" xlink:href="#aF"/><use transform="matrix(0.06172839506172839,0,0,0.06172839506172839,14.814814814814813,0)" xlink:href="#aG"/><use transform="matrix(0.06172839506172839,0,0,0.06172839506172839,19.691358024691354,0)" xlink:href="#aH"/><use transform="matrix(0.06172839506172839,0,0,0.06172839506172839,32.03703703703703,0)" xlink:href="#U"/><use transform="matrix(0.06172839506172839,0,0,0.06172839506172839,44.38271604938271,0)" xlink:href="#T"/><use transform="matrix(0.06172839506172839,0,0,0.06172839506172839,49.25925925925925,0)" xlink:href="#aD"/></g></defs></g></svg>